<?xml version="1.0" encoding="utf-8" standalone="no"?>
<!DOCTYPE svg PUBLIC "-//W3C//DTD SVG 1.1//EN"
  "http://www.w3.org/Graphics/SVG/1.1/DTD/svg11.dtd">
<!-- Created with matplotlib (https://matplotlib.org/) -->
<svg height="263.63625pt" version="1.1" viewBox="0 0 372.103125 263.63625" width="372.103125pt" xmlns="http://www.w3.org/2000/svg" xmlns:xlink="http://www.w3.org/1999/xlink">
 <metadata>
  <rdf:RDF xmlns:cc="http://creativecommons.org/ns#" xmlns:dc="http://purl.org/dc/elements/1.1/" xmlns:rdf="http://www.w3.org/1999/02/22-rdf-syntax-ns#">
   <cc:Work>
    <dc:type rdf:resource="http://purl.org/dc/dcmitype/StillImage"/>
    <dc:date>2021-02-11T11:32:05.794600</dc:date>
    <dc:format>image/svg+xml</dc:format>
    <dc:creator>
     <cc:Agent>
      <dc:title>Matplotlib v3.3.4, https://matplotlib.org/</dc:title>
     </cc:Agent>
    </dc:creator>
   </cc:Work>
  </rdf:RDF>
 </metadata>
 <defs>
  <style type="text/css">*{stroke-linecap:butt;stroke-linejoin:round;}</style>
 </defs>
 <g id="figure_1">
  <g id="patch_1">
   <path d="M 0 263.63625 
L 372.103125 263.63625 
L 372.103125 0 
L 0 0 
z
" style="fill:none;"/>
  </g>
  <g id="axes_1">
   <g id="patch_2">
    <path d="M 30.103125 239.758125 
L 364.903125 239.758125 
L 364.903125 22.318125 
L 30.103125 22.318125 
z
" style="fill:#ffffff;"/>
   </g>
   <g id="PolyCollection_1">
    <path clip-path="url(#pa19864e04c)" d="M 49.078883 200.741386 
L 49.078883 229.874489 
L 60.35161 229.874489 
L 67.866761 229.874489 
L 75.381913 229.874489 
L 82.897064 229.874489 
L 90.412216 229.874489 
L 97.927367 229.874489 
L 105.442519 229.874489 
L 112.95767 229.874489 
L 120.472822 229.874489 
L 127.987973 229.874489 
L 135.503125 229.874489 
L 143.018277 229.874489 
L 150.533428 229.874489 
L 158.04858 229.874489 
L 165.563731 229.874489 
L 173.078883 229.874489 
L 180.594034 229.874489 
L 188.109186 229.874489 
L 195.624337 229.874489 
L 203.139489 229.874489 
L 210.65464 229.874489 
L 218.169792 229.874489 
L 225.684943 229.874489 
L 233.200095 229.874489 
L 240.715246 229.874489 
L 248.230398 229.874489 
L 255.745549 229.874489 
L 263.260701 229.874489 
L 270.775852 229.874489 
L 278.291004 229.874489 
L 285.806155 229.874489 
L 293.321307 229.874489 
L 300.836458 229.874489 
L 308.35161 229.874489 
L 315.866761 229.874489 
L 323.381913 229.874489 
L 330.897064 229.874489 
L 338.412216 229.874489 
L 349.684943 229.874489 
L 349.684943 200.741386 
L 349.684943 200.741386 
L 338.412216 200.741386 
L 330.897064 200.741386 
L 323.381913 200.741386 
L 315.866761 200.741386 
L 308.35161 200.741386 
L 300.836458 200.741386 
L 293.321307 200.741386 
L 285.806155 200.741386 
L 278.291004 200.741386 
L 270.775852 200.741386 
L 263.260701 200.741386 
L 255.745549 200.741386 
L 248.230398 200.741386 
L 240.715246 200.741386 
L 233.200095 200.741386 
L 225.684943 200.741386 
L 218.169792 200.741386 
L 210.65464 200.741386 
L 203.139489 200.741386 
L 195.624337 200.741386 
L 188.109186 200.741386 
L 180.594034 200.741386 
L 173.078883 200.741386 
L 165.563731 200.741386 
L 158.04858 200.741386 
L 150.533428 200.741386 
L 143.018277 200.741386 
L 135.503125 200.741386 
L 127.987973 200.741386 
L 120.472822 200.741386 
L 112.95767 200.741386 
L 105.442519 200.741386 
L 97.927367 200.741386 
L 90.412216 200.741386 
L 82.897064 200.741386 
L 75.381913 200.741386 
L 67.866761 200.741386 
L 60.35161 200.741386 
L 49.078883 200.741386 
z
" style="fill:#1f77b4;fill-opacity:0.25;"/>
   </g>
   <g id="matplotlib.axis_1">
    <g id="xtick_1">
     <g id="line2d_1">
      <defs>
       <path d="M 0 0 
L 0 3.5 
" id="m320eeeca5b" style="stroke:#000000;stroke-width:0.8;"/>
      </defs>
      <g>
       <use style="stroke:#000000;stroke-width:0.8;" x="45.321307" xlink:href="#m320eeeca5b" y="239.758125"/>
      </g>
     </g>
     <g id="text_1">
      <!-- 0 -->
      <g transform="translate(42.140057 254.356563)scale(0.1 -0.1)">
       <defs>
        <path d="M 31.78125 66.40625 
Q 24.171875 66.40625 20.328125 58.90625 
Q 16.5 51.421875 16.5 36.375 
Q 16.5 21.390625 20.328125 13.890625 
Q 24.171875 6.390625 31.78125 6.390625 
Q 39.453125 6.390625 43.28125 13.890625 
Q 47.125 21.390625 47.125 36.375 
Q 47.125 51.421875 43.28125 58.90625 
Q 39.453125 66.40625 31.78125 66.40625 
z
M 31.78125 74.21875 
Q 44.046875 74.21875 50.515625 64.515625 
Q 56.984375 54.828125 56.984375 36.375 
Q 56.984375 17.96875 50.515625 8.265625 
Q 44.046875 -1.421875 31.78125 -1.421875 
Q 19.53125 -1.421875 13.0625 8.265625 
Q 6.59375 17.96875 6.59375 36.375 
Q 6.59375 54.828125 13.0625 64.515625 
Q 19.53125 74.21875 31.78125 74.21875 
z
" id="DejaVuSans-48"/>
       </defs>
       <use xlink:href="#DejaVuSans-48"/>
      </g>
     </g>
    </g>
    <g id="xtick_2">
     <g id="line2d_2">
      <g>
       <use style="stroke:#000000;stroke-width:0.8;" x="82.897064" xlink:href="#m320eeeca5b" y="239.758125"/>
      </g>
     </g>
     <g id="text_2">
      <!-- 5 -->
      <g transform="translate(79.715814 254.356563)scale(0.1 -0.1)">
       <defs>
        <path d="M 10.796875 72.90625 
L 49.515625 72.90625 
L 49.515625 64.59375 
L 19.828125 64.59375 
L 19.828125 46.734375 
Q 21.96875 47.46875 24.109375 47.828125 
Q 26.265625 48.1875 28.421875 48.1875 
Q 40.625 48.1875 47.75 41.5 
Q 54.890625 34.8125 54.890625 23.390625 
Q 54.890625 11.625 47.5625 5.09375 
Q 40.234375 -1.421875 26.90625 -1.421875 
Q 22.3125 -1.421875 17.546875 -0.640625 
Q 12.796875 0.140625 7.71875 1.703125 
L 7.71875 11.625 
Q 12.109375 9.234375 16.796875 8.0625 
Q 21.484375 6.890625 26.703125 6.890625 
Q 35.15625 6.890625 40.078125 11.328125 
Q 45.015625 15.765625 45.015625 23.390625 
Q 45.015625 31 40.078125 35.4375 
Q 35.15625 39.890625 26.703125 39.890625 
Q 22.75 39.890625 18.8125 39.015625 
Q 14.890625 38.140625 10.796875 36.28125 
z
" id="DejaVuSans-53"/>
       </defs>
       <use xlink:href="#DejaVuSans-53"/>
      </g>
     </g>
    </g>
    <g id="xtick_3">
     <g id="line2d_3">
      <g>
       <use style="stroke:#000000;stroke-width:0.8;" x="120.472822" xlink:href="#m320eeeca5b" y="239.758125"/>
      </g>
     </g>
     <g id="text_3">
      <!-- 10 -->
      <g transform="translate(114.110322 254.356563)scale(0.1 -0.1)">
       <defs>
        <path d="M 12.40625 8.296875 
L 28.515625 8.296875 
L 28.515625 63.921875 
L 10.984375 60.40625 
L 10.984375 69.390625 
L 28.421875 72.90625 
L 38.28125 72.90625 
L 38.28125 8.296875 
L 54.390625 8.296875 
L 54.390625 0 
L 12.40625 0 
z
" id="DejaVuSans-49"/>
       </defs>
       <use xlink:href="#DejaVuSans-49"/>
       <use x="63.623047" xlink:href="#DejaVuSans-48"/>
      </g>
     </g>
    </g>
    <g id="xtick_4">
     <g id="line2d_4">
      <g>
       <use style="stroke:#000000;stroke-width:0.8;" x="158.04858" xlink:href="#m320eeeca5b" y="239.758125"/>
      </g>
     </g>
     <g id="text_4">
      <!-- 15 -->
      <g transform="translate(151.68608 254.356563)scale(0.1 -0.1)">
       <use xlink:href="#DejaVuSans-49"/>
       <use x="63.623047" xlink:href="#DejaVuSans-53"/>
      </g>
     </g>
    </g>
    <g id="xtick_5">
     <g id="line2d_5">
      <g>
       <use style="stroke:#000000;stroke-width:0.8;" x="195.624337" xlink:href="#m320eeeca5b" y="239.758125"/>
      </g>
     </g>
     <g id="text_5">
      <!-- 20 -->
      <g transform="translate(189.261837 254.356563)scale(0.1 -0.1)">
       <defs>
        <path d="M 19.1875 8.296875 
L 53.609375 8.296875 
L 53.609375 0 
L 7.328125 0 
L 7.328125 8.296875 
Q 12.9375 14.109375 22.625 23.890625 
Q 32.328125 33.6875 34.8125 36.53125 
Q 39.546875 41.84375 41.421875 45.53125 
Q 43.3125 49.21875 43.3125 52.78125 
Q 43.3125 58.59375 39.234375 62.25 
Q 35.15625 65.921875 28.609375 65.921875 
Q 23.96875 65.921875 18.8125 64.3125 
Q 13.671875 62.703125 7.8125 59.421875 
L 7.8125 69.390625 
Q 13.765625 71.78125 18.9375 73 
Q 24.125 74.21875 28.421875 74.21875 
Q 39.75 74.21875 46.484375 68.546875 
Q 53.21875 62.890625 53.21875 53.421875 
Q 53.21875 48.921875 51.53125 44.890625 
Q 49.859375 40.875 45.40625 35.40625 
Q 44.1875 33.984375 37.640625 27.21875 
Q 31.109375 20.453125 19.1875 8.296875 
z
" id="DejaVuSans-50"/>
       </defs>
       <use xlink:href="#DejaVuSans-50"/>
       <use x="63.623047" xlink:href="#DejaVuSans-48"/>
      </g>
     </g>
    </g>
    <g id="xtick_6">
     <g id="line2d_6">
      <g>
       <use style="stroke:#000000;stroke-width:0.8;" x="233.200095" xlink:href="#m320eeeca5b" y="239.758125"/>
      </g>
     </g>
     <g id="text_6">
      <!-- 25 -->
      <g transform="translate(226.837595 254.356563)scale(0.1 -0.1)">
       <use xlink:href="#DejaVuSans-50"/>
       <use x="63.623047" xlink:href="#DejaVuSans-53"/>
      </g>
     </g>
    </g>
    <g id="xtick_7">
     <g id="line2d_7">
      <g>
       <use style="stroke:#000000;stroke-width:0.8;" x="270.775852" xlink:href="#m320eeeca5b" y="239.758125"/>
      </g>
     </g>
     <g id="text_7">
      <!-- 30 -->
      <g transform="translate(264.413352 254.356563)scale(0.1 -0.1)">
       <defs>
        <path d="M 40.578125 39.3125 
Q 47.65625 37.796875 51.625 33 
Q 55.609375 28.21875 55.609375 21.1875 
Q 55.609375 10.40625 48.1875 4.484375 
Q 40.765625 -1.421875 27.09375 -1.421875 
Q 22.515625 -1.421875 17.65625 -0.515625 
Q 12.796875 0.390625 7.625 2.203125 
L 7.625 11.71875 
Q 11.71875 9.328125 16.59375 8.109375 
Q 21.484375 6.890625 26.8125 6.890625 
Q 36.078125 6.890625 40.9375 10.546875 
Q 45.796875 14.203125 45.796875 21.1875 
Q 45.796875 27.640625 41.28125 31.265625 
Q 36.765625 34.90625 28.71875 34.90625 
L 20.21875 34.90625 
L 20.21875 43.015625 
L 29.109375 43.015625 
Q 36.375 43.015625 40.234375 45.921875 
Q 44.09375 48.828125 44.09375 54.296875 
Q 44.09375 59.90625 40.109375 62.90625 
Q 36.140625 65.921875 28.71875 65.921875 
Q 24.65625 65.921875 20.015625 65.03125 
Q 15.375 64.15625 9.8125 62.3125 
L 9.8125 71.09375 
Q 15.4375 72.65625 20.34375 73.4375 
Q 25.25 74.21875 29.59375 74.21875 
Q 40.828125 74.21875 47.359375 69.109375 
Q 53.90625 64.015625 53.90625 55.328125 
Q 53.90625 49.265625 50.4375 45.09375 
Q 46.96875 40.921875 40.578125 39.3125 
z
" id="DejaVuSans-51"/>
       </defs>
       <use xlink:href="#DejaVuSans-51"/>
       <use x="63.623047" xlink:href="#DejaVuSans-48"/>
      </g>
     </g>
    </g>
    <g id="xtick_8">
     <g id="line2d_8">
      <g>
       <use style="stroke:#000000;stroke-width:0.8;" x="308.35161" xlink:href="#m320eeeca5b" y="239.758125"/>
      </g>
     </g>
     <g id="text_8">
      <!-- 35 -->
      <g transform="translate(301.98911 254.356563)scale(0.1 -0.1)">
       <use xlink:href="#DejaVuSans-51"/>
       <use x="63.623047" xlink:href="#DejaVuSans-53"/>
      </g>
     </g>
    </g>
    <g id="xtick_9">
     <g id="line2d_9">
      <g>
       <use style="stroke:#000000;stroke-width:0.8;" x="345.927367" xlink:href="#m320eeeca5b" y="239.758125"/>
      </g>
     </g>
     <g id="text_9">
      <!-- 40 -->
      <g transform="translate(339.564867 254.356563)scale(0.1 -0.1)">
       <defs>
        <path d="M 37.796875 64.3125 
L 12.890625 25.390625 
L 37.796875 25.390625 
z
M 35.203125 72.90625 
L 47.609375 72.90625 
L 47.609375 25.390625 
L 58.015625 25.390625 
L 58.015625 17.1875 
L 47.609375 17.1875 
L 47.609375 0 
L 37.796875 0 
L 37.796875 17.1875 
L 4.890625 17.1875 
L 4.890625 26.703125 
z
" id="DejaVuSans-52"/>
       </defs>
       <use xlink:href="#DejaVuSans-52"/>
       <use x="63.623047" xlink:href="#DejaVuSans-48"/>
      </g>
     </g>
    </g>
   </g>
   <g id="matplotlib.axis_2">
    <g id="ytick_1">
     <g id="line2d_10">
      <defs>
       <path d="M 0 0 
L -3.5 0 
" id="me164421fe7" style="stroke:#000000;stroke-width:0.8;"/>
      </defs>
      <g>
       <use style="stroke:#000000;stroke-width:0.8;" x="30.103125" xlink:href="#me164421fe7" y="215.307937"/>
      </g>
     </g>
     <g id="text_10">
      <!-- 0.0 -->
      <g transform="translate(7.2 219.107156)scale(0.1 -0.1)">
       <defs>
        <path d="M 10.6875 12.40625 
L 21 12.40625 
L 21 0 
L 10.6875 0 
z
" id="DejaVuSans-46"/>
       </defs>
       <use xlink:href="#DejaVuSans-48"/>
       <use x="63.623047" xlink:href="#DejaVuSans-46"/>
       <use x="95.410156" xlink:href="#DejaVuSans-48"/>
      </g>
     </g>
    </g>
    <g id="ytick_2">
     <g id="line2d_11">
      <g>
       <use style="stroke:#000000;stroke-width:0.8;" x="30.103125" xlink:href="#me164421fe7" y="178.686702"/>
      </g>
     </g>
     <g id="text_11">
      <!-- 0.2 -->
      <g transform="translate(7.2 182.485921)scale(0.1 -0.1)">
       <use xlink:href="#DejaVuSans-48"/>
       <use x="63.623047" xlink:href="#DejaVuSans-46"/>
       <use x="95.410156" xlink:href="#DejaVuSans-50"/>
      </g>
     </g>
    </g>
    <g id="ytick_3">
     <g id="line2d_12">
      <g>
       <use style="stroke:#000000;stroke-width:0.8;" x="30.103125" xlink:href="#me164421fe7" y="142.065467"/>
      </g>
     </g>
     <g id="text_12">
      <!-- 0.4 -->
      <g transform="translate(7.2 145.864686)scale(0.1 -0.1)">
       <use xlink:href="#DejaVuSans-48"/>
       <use x="63.623047" xlink:href="#DejaVuSans-46"/>
       <use x="95.410156" xlink:href="#DejaVuSans-52"/>
      </g>
     </g>
    </g>
    <g id="ytick_4">
     <g id="line2d_13">
      <g>
       <use style="stroke:#000000;stroke-width:0.8;" x="30.103125" xlink:href="#me164421fe7" y="105.444232"/>
      </g>
     </g>
     <g id="text_13">
      <!-- 0.6 -->
      <g transform="translate(7.2 109.243451)scale(0.1 -0.1)">
       <defs>
        <path d="M 33.015625 40.375 
Q 26.375 40.375 22.484375 35.828125 
Q 18.609375 31.296875 18.609375 23.390625 
Q 18.609375 15.53125 22.484375 10.953125 
Q 26.375 6.390625 33.015625 6.390625 
Q 39.65625 6.390625 43.53125 10.953125 
Q 47.40625 15.53125 47.40625 23.390625 
Q 47.40625 31.296875 43.53125 35.828125 
Q 39.65625 40.375 33.015625 40.375 
z
M 52.59375 71.296875 
L 52.59375 62.3125 
Q 48.875 64.0625 45.09375 64.984375 
Q 41.3125 65.921875 37.59375 65.921875 
Q 27.828125 65.921875 22.671875 59.328125 
Q 17.53125 52.734375 16.796875 39.40625 
Q 19.671875 43.65625 24.015625 45.921875 
Q 28.375 48.1875 33.59375 48.1875 
Q 44.578125 48.1875 50.953125 41.515625 
Q 57.328125 34.859375 57.328125 23.390625 
Q 57.328125 12.15625 50.6875 5.359375 
Q 44.046875 -1.421875 33.015625 -1.421875 
Q 20.359375 -1.421875 13.671875 8.265625 
Q 6.984375 17.96875 6.984375 36.375 
Q 6.984375 53.65625 15.1875 63.9375 
Q 23.390625 74.21875 37.203125 74.21875 
Q 40.921875 74.21875 44.703125 73.484375 
Q 48.484375 72.75 52.59375 71.296875 
z
" id="DejaVuSans-54"/>
       </defs>
       <use xlink:href="#DejaVuSans-48"/>
       <use x="63.623047" xlink:href="#DejaVuSans-46"/>
       <use x="95.410156" xlink:href="#DejaVuSans-54"/>
      </g>
     </g>
    </g>
    <g id="ytick_5">
     <g id="line2d_14">
      <g>
       <use style="stroke:#000000;stroke-width:0.8;" x="30.103125" xlink:href="#me164421fe7" y="68.822997"/>
      </g>
     </g>
     <g id="text_14">
      <!-- 0.8 -->
      <g transform="translate(7.2 72.622215)scale(0.1 -0.1)">
       <defs>
        <path d="M 31.78125 34.625 
Q 24.75 34.625 20.71875 30.859375 
Q 16.703125 27.09375 16.703125 20.515625 
Q 16.703125 13.921875 20.71875 10.15625 
Q 24.75 6.390625 31.78125 6.390625 
Q 38.8125 6.390625 42.859375 10.171875 
Q 46.921875 13.96875 46.921875 20.515625 
Q 46.921875 27.09375 42.890625 30.859375 
Q 38.875 34.625 31.78125 34.625 
z
M 21.921875 38.8125 
Q 15.578125 40.375 12.03125 44.71875 
Q 8.5 49.078125 8.5 55.328125 
Q 8.5 64.0625 14.71875 69.140625 
Q 20.953125 74.21875 31.78125 74.21875 
Q 42.671875 74.21875 48.875 69.140625 
Q 55.078125 64.0625 55.078125 55.328125 
Q 55.078125 49.078125 51.53125 44.71875 
Q 48 40.375 41.703125 38.8125 
Q 48.828125 37.15625 52.796875 32.3125 
Q 56.78125 27.484375 56.78125 20.515625 
Q 56.78125 9.90625 50.3125 4.234375 
Q 43.84375 -1.421875 31.78125 -1.421875 
Q 19.734375 -1.421875 13.25 4.234375 
Q 6.78125 9.90625 6.78125 20.515625 
Q 6.78125 27.484375 10.78125 32.3125 
Q 14.796875 37.15625 21.921875 38.8125 
z
M 18.3125 54.390625 
Q 18.3125 48.734375 21.84375 45.5625 
Q 25.390625 42.390625 31.78125 42.390625 
Q 38.140625 42.390625 41.71875 45.5625 
Q 45.3125 48.734375 45.3125 54.390625 
Q 45.3125 60.0625 41.71875 63.234375 
Q 38.140625 66.40625 31.78125 66.40625 
Q 25.390625 66.40625 21.84375 63.234375 
Q 18.3125 60.0625 18.3125 54.390625 
z
" id="DejaVuSans-56"/>
       </defs>
       <use xlink:href="#DejaVuSans-48"/>
       <use x="63.623047" xlink:href="#DejaVuSans-46"/>
       <use x="95.410156" xlink:href="#DejaVuSans-56"/>
      </g>
     </g>
    </g>
    <g id="ytick_6">
     <g id="line2d_15">
      <g>
       <use style="stroke:#000000;stroke-width:0.8;" x="30.103125" xlink:href="#me164421fe7" y="32.201761"/>
      </g>
     </g>
     <g id="text_15">
      <!-- 1.0 -->
      <g transform="translate(7.2 36.00098)scale(0.1 -0.1)">
       <use xlink:href="#DejaVuSans-49"/>
       <use x="63.623047" xlink:href="#DejaVuSans-46"/>
       <use x="95.410156" xlink:href="#DejaVuSans-48"/>
      </g>
     </g>
    </g>
   </g>
   <g id="LineCollection_1">
    <path clip-path="url(#pa19864e04c)" d="M 45.321307 215.307937 
L 45.321307 32.201761 
" style="fill:none;stroke:#1f77b4;stroke-width:1.5;"/>
    <path clip-path="url(#pa19864e04c)" d="M 52.836458 215.307937 
L 52.836458 180.437638 
" style="fill:none;stroke:#1f77b4;stroke-width:1.5;"/>
    <path clip-path="url(#pa19864e04c)" d="M 60.35161 215.307937 
L 60.35161 197.598331 
" style="fill:none;stroke:#1f77b4;stroke-width:1.5;"/>
    <path clip-path="url(#pa19864e04c)" d="M 67.866761 215.307937 
L 67.866761 215.519477 
" style="fill:none;stroke:#1f77b4;stroke-width:1.5;"/>
    <path clip-path="url(#pa19864e04c)" d="M 75.381913 215.307937 
L 75.381913 206.010337 
" style="fill:none;stroke:#1f77b4;stroke-width:1.5;"/>
    <path clip-path="url(#pa19864e04c)" d="M 82.897064 215.307937 
L 82.897064 213.342061 
" style="fill:none;stroke:#1f77b4;stroke-width:1.5;"/>
    <path clip-path="url(#pa19864e04c)" d="M 90.412216 215.307937 
L 90.412216 193.147611 
" style="fill:none;stroke:#1f77b4;stroke-width:1.5;"/>
    <path clip-path="url(#pa19864e04c)" d="M 97.927367 215.307937 
L 97.927367 197.617785 
" style="fill:none;stroke:#1f77b4;stroke-width:1.5;"/>
    <path clip-path="url(#pa19864e04c)" d="M 105.442519 215.307937 
L 105.442519 205.152128 
" style="fill:none;stroke:#1f77b4;stroke-width:1.5;"/>
    <path clip-path="url(#pa19864e04c)" d="M 112.95767 215.307937 
L 112.95767 227.761459 
" style="fill:none;stroke:#1f77b4;stroke-width:1.5;"/>
    <path clip-path="url(#pa19864e04c)" d="M 120.472822 215.307937 
L 120.472822 212.09835 
" style="fill:none;stroke:#1f77b4;stroke-width:1.5;"/>
    <path clip-path="url(#pa19864e04c)" d="M 127.987973 215.307937 
L 127.987973 217.292981 
" style="fill:none;stroke:#1f77b4;stroke-width:1.5;"/>
    <path clip-path="url(#pa19864e04c)" d="M 135.503125 215.307937 
L 135.503125 222.804326 
" style="fill:none;stroke:#1f77b4;stroke-width:1.5;"/>
    <path clip-path="url(#pa19864e04c)" d="M 143.018277 215.307937 
L 143.018277 206.392246 
" style="fill:none;stroke:#1f77b4;stroke-width:1.5;"/>
    <path clip-path="url(#pa19864e04c)" d="M 150.533428 215.307937 
L 150.533428 199.155327 
" style="fill:none;stroke:#1f77b4;stroke-width:1.5;"/>
    <path clip-path="url(#pa19864e04c)" d="M 158.04858 215.307937 
L 158.04858 215.849932 
" style="fill:none;stroke:#1f77b4;stroke-width:1.5;"/>
    <path clip-path="url(#pa19864e04c)" d="M 165.563731 215.307937 
L 165.563731 224.697514 
" style="fill:none;stroke:#1f77b4;stroke-width:1.5;"/>
    <path clip-path="url(#pa19864e04c)" d="M 173.078883 215.307937 
L 173.078883 228.62818 
" style="fill:none;stroke:#1f77b4;stroke-width:1.5;"/>
    <path clip-path="url(#pa19864e04c)" d="M 180.594034 215.307937 
L 180.594034 216.638107 
" style="fill:none;stroke:#1f77b4;stroke-width:1.5;"/>
    <path clip-path="url(#pa19864e04c)" d="M 188.109186 215.307937 
L 188.109186 213.147003 
" style="fill:none;stroke:#1f77b4;stroke-width:1.5;"/>
    <path clip-path="url(#pa19864e04c)" d="M 195.624337 215.307937 
L 195.624337 215.897097 
" style="fill:none;stroke:#1f77b4;stroke-width:1.5;"/>
    <path clip-path="url(#pa19864e04c)" d="M 203.139489 215.307937 
L 203.139489 209.636704 
" style="fill:none;stroke:#1f77b4;stroke-width:1.5;"/>
    <path clip-path="url(#pa19864e04c)" d="M 210.65464 215.307937 
L 210.65464 217.93852 
" style="fill:none;stroke:#1f77b4;stroke-width:1.5;"/>
    <path clip-path="url(#pa19864e04c)" d="M 218.169792 215.307937 
L 218.169792 219.016996 
" style="fill:none;stroke:#1f77b4;stroke-width:1.5;"/>
    <path clip-path="url(#pa19864e04c)" d="M 225.684943 215.307937 
L 225.684943 222.017662 
" style="fill:none;stroke:#1f77b4;stroke-width:1.5;"/>
    <path clip-path="url(#pa19864e04c)" d="M 233.200095 215.307937 
L 233.200095 212.86368 
" style="fill:none;stroke:#1f77b4;stroke-width:1.5;"/>
    <path clip-path="url(#pa19864e04c)" d="M 240.715246 215.307937 
L 240.715246 219.503604 
" style="fill:none;stroke:#1f77b4;stroke-width:1.5;"/>
    <path clip-path="url(#pa19864e04c)" d="M 248.230398 215.307937 
L 248.230398 208.574011 
" style="fill:none;stroke:#1f77b4;stroke-width:1.5;"/>
    <path clip-path="url(#pa19864e04c)" d="M 255.745549 215.307937 
L 255.745549 199.360136 
" style="fill:none;stroke:#1f77b4;stroke-width:1.5;"/>
    <path clip-path="url(#pa19864e04c)" d="M 263.260701 215.307937 
L 263.260701 188.596014 
" style="fill:none;stroke:#1f77b4;stroke-width:1.5;"/>
    <path clip-path="url(#pa19864e04c)" d="M 270.775852 215.307937 
L 270.775852 222.220464 
" style="fill:none;stroke:#1f77b4;stroke-width:1.5;"/>
    <path clip-path="url(#pa19864e04c)" d="M 278.291004 215.307937 
L 278.291004 217.91589 
" style="fill:none;stroke:#1f77b4;stroke-width:1.5;"/>
    <path clip-path="url(#pa19864e04c)" d="M 285.806155 215.307937 
L 285.806155 219.926633 
" style="fill:none;stroke:#1f77b4;stroke-width:1.5;"/>
    <path clip-path="url(#pa19864e04c)" d="M 293.321307 215.307937 
L 293.321307 220.234079 
" style="fill:none;stroke:#1f77b4;stroke-width:1.5;"/>
    <path clip-path="url(#pa19864e04c)" d="M 300.836458 215.307937 
L 300.836458 208.78073 
" style="fill:none;stroke:#1f77b4;stroke-width:1.5;"/>
    <path clip-path="url(#pa19864e04c)" d="M 308.35161 215.307937 
L 308.35161 208.711062 
" style="fill:none;stroke:#1f77b4;stroke-width:1.5;"/>
    <path clip-path="url(#pa19864e04c)" d="M 315.866761 215.307937 
L 315.866761 221.236213 
" style="fill:none;stroke:#1f77b4;stroke-width:1.5;"/>
    <path clip-path="url(#pa19864e04c)" d="M 323.381913 215.307937 
L 323.381913 222.368588 
" style="fill:none;stroke:#1f77b4;stroke-width:1.5;"/>
    <path clip-path="url(#pa19864e04c)" d="M 330.897064 215.307937 
L 330.897064 208.301299 
" style="fill:none;stroke:#1f77b4;stroke-width:1.5;"/>
    <path clip-path="url(#pa19864e04c)" d="M 338.412216 215.307937 
L 338.412216 218.592772 
" style="fill:none;stroke:#1f77b4;stroke-width:1.5;"/>
    <path clip-path="url(#pa19864e04c)" d="M 345.927367 215.307937 
L 345.927367 224.09059 
" style="fill:none;stroke:#1f77b4;stroke-width:1.5;"/>
   </g>
   <g id="line2d_16">
    <path clip-path="url(#pa19864e04c)" d="M 30.103125 215.307937 
L 364.903125 215.307937 
" style="fill:none;stroke:#1f77b4;stroke-linecap:square;stroke-width:1.5;"/>
   </g>
   <g id="line2d_17">
    <defs>
     <path d="M 0 2.5 
C 0.663008 2.5 1.29895 2.236584 1.767767 1.767767 
C 2.236584 1.29895 2.5 0.663008 2.5 0 
C 2.5 -0.663008 2.236584 -1.29895 1.767767 -1.767767 
C 1.29895 -2.236584 0.663008 -2.5 0 -2.5 
C -0.663008 -2.5 -1.29895 -2.236584 -1.767767 -1.767767 
C -2.236584 -1.29895 -2.5 -0.663008 -2.5 0 
C -2.5 0.663008 -2.236584 1.29895 -1.767767 1.767767 
C -1.29895 2.236584 -0.663008 2.5 0 2.5 
z
" id="m6357725356" style="stroke:#1f77b4;"/>
    </defs>
    <g clip-path="url(#pa19864e04c)">
     <use style="fill:#1f77b4;stroke:#1f77b4;" x="45.321307" xlink:href="#m6357725356" y="32.201761"/>
     <use style="fill:#1f77b4;stroke:#1f77b4;" x="52.836458" xlink:href="#m6357725356" y="180.437638"/>
     <use style="fill:#1f77b4;stroke:#1f77b4;" x="60.35161" xlink:href="#m6357725356" y="197.598331"/>
     <use style="fill:#1f77b4;stroke:#1f77b4;" x="67.866761" xlink:href="#m6357725356" y="215.519477"/>
     <use style="fill:#1f77b4;stroke:#1f77b4;" x="75.381913" xlink:href="#m6357725356" y="206.010337"/>
     <use style="fill:#1f77b4;stroke:#1f77b4;" x="82.897064" xlink:href="#m6357725356" y="213.342061"/>
     <use style="fill:#1f77b4;stroke:#1f77b4;" x="90.412216" xlink:href="#m6357725356" y="193.147611"/>
     <use style="fill:#1f77b4;stroke:#1f77b4;" x="97.927367" xlink:href="#m6357725356" y="197.617785"/>
     <use style="fill:#1f77b4;stroke:#1f77b4;" x="105.442519" xlink:href="#m6357725356" y="205.152128"/>
     <use style="fill:#1f77b4;stroke:#1f77b4;" x="112.95767" xlink:href="#m6357725356" y="227.761459"/>
     <use style="fill:#1f77b4;stroke:#1f77b4;" x="120.472822" xlink:href="#m6357725356" y="212.09835"/>
     <use style="fill:#1f77b4;stroke:#1f77b4;" x="127.987973" xlink:href="#m6357725356" y="217.292981"/>
     <use style="fill:#1f77b4;stroke:#1f77b4;" x="135.503125" xlink:href="#m6357725356" y="222.804326"/>
     <use style="fill:#1f77b4;stroke:#1f77b4;" x="143.018277" xlink:href="#m6357725356" y="206.392246"/>
     <use style="fill:#1f77b4;stroke:#1f77b4;" x="150.533428" xlink:href="#m6357725356" y="199.155327"/>
     <use style="fill:#1f77b4;stroke:#1f77b4;" x="158.04858" xlink:href="#m6357725356" y="215.849932"/>
     <use style="fill:#1f77b4;stroke:#1f77b4;" x="165.563731" xlink:href="#m6357725356" y="224.697514"/>
     <use style="fill:#1f77b4;stroke:#1f77b4;" x="173.078883" xlink:href="#m6357725356" y="228.62818"/>
     <use style="fill:#1f77b4;stroke:#1f77b4;" x="180.594034" xlink:href="#m6357725356" y="216.638107"/>
     <use style="fill:#1f77b4;stroke:#1f77b4;" x="188.109186" xlink:href="#m6357725356" y="213.147003"/>
     <use style="fill:#1f77b4;stroke:#1f77b4;" x="195.624337" xlink:href="#m6357725356" y="215.897097"/>
     <use style="fill:#1f77b4;stroke:#1f77b4;" x="203.139489" xlink:href="#m6357725356" y="209.636704"/>
     <use style="fill:#1f77b4;stroke:#1f77b4;" x="210.65464" xlink:href="#m6357725356" y="217.93852"/>
     <use style="fill:#1f77b4;stroke:#1f77b4;" x="218.169792" xlink:href="#m6357725356" y="219.016996"/>
     <use style="fill:#1f77b4;stroke:#1f77b4;" x="225.684943" xlink:href="#m6357725356" y="222.017662"/>
     <use style="fill:#1f77b4;stroke:#1f77b4;" x="233.200095" xlink:href="#m6357725356" y="212.86368"/>
     <use style="fill:#1f77b4;stroke:#1f77b4;" x="240.715246" xlink:href="#m6357725356" y="219.503604"/>
     <use style="fill:#1f77b4;stroke:#1f77b4;" x="248.230398" xlink:href="#m6357725356" y="208.574011"/>
     <use style="fill:#1f77b4;stroke:#1f77b4;" x="255.745549" xlink:href="#m6357725356" y="199.360136"/>
     <use style="fill:#1f77b4;stroke:#1f77b4;" x="263.260701" xlink:href="#m6357725356" y="188.596014"/>
     <use style="fill:#1f77b4;stroke:#1f77b4;" x="270.775852" xlink:href="#m6357725356" y="222.220464"/>
     <use style="fill:#1f77b4;stroke:#1f77b4;" x="278.291004" xlink:href="#m6357725356" y="217.91589"/>
     <use style="fill:#1f77b4;stroke:#1f77b4;" x="285.806155" xlink:href="#m6357725356" y="219.926633"/>
     <use style="fill:#1f77b4;stroke:#1f77b4;" x="293.321307" xlink:href="#m6357725356" y="220.234079"/>
     <use style="fill:#1f77b4;stroke:#1f77b4;" x="300.836458" xlink:href="#m6357725356" y="208.78073"/>
     <use style="fill:#1f77b4;stroke:#1f77b4;" x="308.35161" xlink:href="#m6357725356" y="208.711062"/>
     <use style="fill:#1f77b4;stroke:#1f77b4;" x="315.866761" xlink:href="#m6357725356" y="221.236213"/>
     <use style="fill:#1f77b4;stroke:#1f77b4;" x="323.381913" xlink:href="#m6357725356" y="222.368588"/>
     <use style="fill:#1f77b4;stroke:#1f77b4;" x="330.897064" xlink:href="#m6357725356" y="208.301299"/>
     <use style="fill:#1f77b4;stroke:#1f77b4;" x="338.412216" xlink:href="#m6357725356" y="218.592772"/>
     <use style="fill:#1f77b4;stroke:#1f77b4;" x="345.927367" xlink:href="#m6357725356" y="224.09059"/>
    </g>
   </g>
   <g id="patch_3">
    <path d="M 30.103125 239.758125 
L 30.103125 22.318125 
" style="fill:none;stroke:#000000;stroke-linecap:square;stroke-linejoin:miter;stroke-width:0.8;"/>
   </g>
   <g id="patch_4">
    <path d="M 364.903125 239.758125 
L 364.903125 22.318125 
" style="fill:none;stroke:#000000;stroke-linecap:square;stroke-linejoin:miter;stroke-width:0.8;"/>
   </g>
   <g id="patch_5">
    <path d="M 30.103125 239.758125 
L 364.903125 239.758125 
" style="fill:none;stroke:#000000;stroke-linecap:square;stroke-linejoin:miter;stroke-width:0.8;"/>
   </g>
   <g id="patch_6">
    <path d="M 30.103125 22.318125 
L 364.903125 22.318125 
" style="fill:none;stroke:#000000;stroke-linecap:square;stroke-linejoin:miter;stroke-width:0.8;"/>
   </g>
   <g id="text_16">
    <!-- Partial Autocorrelation -->
    <g transform="translate(130.62 16.318125)scale(0.12 -0.12)">
     <defs>
      <path d="M 19.671875 64.796875 
L 19.671875 37.40625 
L 32.078125 37.40625 
Q 38.96875 37.40625 42.71875 40.96875 
Q 46.484375 44.53125 46.484375 51.125 
Q 46.484375 57.671875 42.71875 61.234375 
Q 38.96875 64.796875 32.078125 64.796875 
z
M 9.8125 72.90625 
L 32.078125 72.90625 
Q 44.34375 72.90625 50.609375 67.359375 
Q 56.890625 61.8125 56.890625 51.125 
Q 56.890625 40.328125 50.609375 34.8125 
Q 44.34375 29.296875 32.078125 29.296875 
L 19.671875 29.296875 
L 19.671875 0 
L 9.8125 0 
z
" id="DejaVuSans-80"/>
      <path d="M 34.28125 27.484375 
Q 23.390625 27.484375 19.1875 25 
Q 14.984375 22.515625 14.984375 16.5 
Q 14.984375 11.71875 18.140625 8.90625 
Q 21.296875 6.109375 26.703125 6.109375 
Q 34.1875 6.109375 38.703125 11.40625 
Q 43.21875 16.703125 43.21875 25.484375 
L 43.21875 27.484375 
z
M 52.203125 31.203125 
L 52.203125 0 
L 43.21875 0 
L 43.21875 8.296875 
Q 40.140625 3.328125 35.546875 0.953125 
Q 30.953125 -1.421875 24.3125 -1.421875 
Q 15.921875 -1.421875 10.953125 3.296875 
Q 6 8.015625 6 15.921875 
Q 6 25.140625 12.171875 29.828125 
Q 18.359375 34.515625 30.609375 34.515625 
L 43.21875 34.515625 
L 43.21875 35.40625 
Q 43.21875 41.609375 39.140625 45 
Q 35.0625 48.390625 27.6875 48.390625 
Q 23 48.390625 18.546875 47.265625 
Q 14.109375 46.140625 10.015625 43.890625 
L 10.015625 52.203125 
Q 14.9375 54.109375 19.578125 55.046875 
Q 24.21875 56 28.609375 56 
Q 40.484375 56 46.34375 49.84375 
Q 52.203125 43.703125 52.203125 31.203125 
z
" id="DejaVuSans-97"/>
      <path d="M 41.109375 46.296875 
Q 39.59375 47.171875 37.8125 47.578125 
Q 36.03125 48 33.890625 48 
Q 26.265625 48 22.1875 43.046875 
Q 18.109375 38.09375 18.109375 28.8125 
L 18.109375 0 
L 9.078125 0 
L 9.078125 54.6875 
L 18.109375 54.6875 
L 18.109375 46.1875 
Q 20.953125 51.171875 25.484375 53.578125 
Q 30.03125 56 36.53125 56 
Q 37.453125 56 38.578125 55.875 
Q 39.703125 55.765625 41.0625 55.515625 
z
" id="DejaVuSans-114"/>
      <path d="M 18.3125 70.21875 
L 18.3125 54.6875 
L 36.8125 54.6875 
L 36.8125 47.703125 
L 18.3125 47.703125 
L 18.3125 18.015625 
Q 18.3125 11.328125 20.140625 9.421875 
Q 21.96875 7.515625 27.59375 7.515625 
L 36.8125 7.515625 
L 36.8125 0 
L 27.59375 0 
Q 17.1875 0 13.234375 3.875 
Q 9.28125 7.765625 9.28125 18.015625 
L 9.28125 47.703125 
L 2.6875 47.703125 
L 2.6875 54.6875 
L 9.28125 54.6875 
L 9.28125 70.21875 
z
" id="DejaVuSans-116"/>
      <path d="M 9.421875 54.6875 
L 18.40625 54.6875 
L 18.40625 0 
L 9.421875 0 
z
M 9.421875 75.984375 
L 18.40625 75.984375 
L 18.40625 64.59375 
L 9.421875 64.59375 
z
" id="DejaVuSans-105"/>
      <path d="M 9.421875 75.984375 
L 18.40625 75.984375 
L 18.40625 0 
L 9.421875 0 
z
" id="DejaVuSans-108"/>
      <path id="DejaVuSans-32"/>
      <path d="M 34.1875 63.1875 
L 20.796875 26.90625 
L 47.609375 26.90625 
z
M 28.609375 72.90625 
L 39.796875 72.90625 
L 67.578125 0 
L 57.328125 0 
L 50.6875 18.703125 
L 17.828125 18.703125 
L 11.1875 0 
L 0.78125 0 
z
" id="DejaVuSans-65"/>
      <path d="M 8.5 21.578125 
L 8.5 54.6875 
L 17.484375 54.6875 
L 17.484375 21.921875 
Q 17.484375 14.15625 20.5 10.265625 
Q 23.53125 6.390625 29.59375 6.390625 
Q 36.859375 6.390625 41.078125 11.03125 
Q 45.3125 15.671875 45.3125 23.6875 
L 45.3125 54.6875 
L 54.296875 54.6875 
L 54.296875 0 
L 45.3125 0 
L 45.3125 8.40625 
Q 42.046875 3.421875 37.71875 1 
Q 33.40625 -1.421875 27.6875 -1.421875 
Q 18.265625 -1.421875 13.375 4.4375 
Q 8.5 10.296875 8.5 21.578125 
z
M 31.109375 56 
z
" id="DejaVuSans-117"/>
      <path d="M 30.609375 48.390625 
Q 23.390625 48.390625 19.1875 42.75 
Q 14.984375 37.109375 14.984375 27.296875 
Q 14.984375 17.484375 19.15625 11.84375 
Q 23.34375 6.203125 30.609375 6.203125 
Q 37.796875 6.203125 41.984375 11.859375 
Q 46.1875 17.53125 46.1875 27.296875 
Q 46.1875 37.015625 41.984375 42.703125 
Q 37.796875 48.390625 30.609375 48.390625 
z
M 30.609375 56 
Q 42.328125 56 49.015625 48.375 
Q 55.71875 40.765625 55.71875 27.296875 
Q 55.71875 13.875 49.015625 6.21875 
Q 42.328125 -1.421875 30.609375 -1.421875 
Q 18.84375 -1.421875 12.171875 6.21875 
Q 5.515625 13.875 5.515625 27.296875 
Q 5.515625 40.765625 12.171875 48.375 
Q 18.84375 56 30.609375 56 
z
" id="DejaVuSans-111"/>
      <path d="M 48.78125 52.59375 
L 48.78125 44.1875 
Q 44.96875 46.296875 41.140625 47.34375 
Q 37.3125 48.390625 33.40625 48.390625 
Q 24.65625 48.390625 19.8125 42.84375 
Q 14.984375 37.3125 14.984375 27.296875 
Q 14.984375 17.28125 19.8125 11.734375 
Q 24.65625 6.203125 33.40625 6.203125 
Q 37.3125 6.203125 41.140625 7.25 
Q 44.96875 8.296875 48.78125 10.40625 
L 48.78125 2.09375 
Q 45.015625 0.34375 40.984375 -0.53125 
Q 36.96875 -1.421875 32.421875 -1.421875 
Q 20.0625 -1.421875 12.78125 6.34375 
Q 5.515625 14.109375 5.515625 27.296875 
Q 5.515625 40.671875 12.859375 48.328125 
Q 20.21875 56 33.015625 56 
Q 37.15625 56 41.109375 55.140625 
Q 45.0625 54.296875 48.78125 52.59375 
z
" id="DejaVuSans-99"/>
      <path d="M 56.203125 29.59375 
L 56.203125 25.203125 
L 14.890625 25.203125 
Q 15.484375 15.921875 20.484375 11.0625 
Q 25.484375 6.203125 34.421875 6.203125 
Q 39.59375 6.203125 44.453125 7.46875 
Q 49.3125 8.734375 54.109375 11.28125 
L 54.109375 2.78125 
Q 49.265625 0.734375 44.1875 -0.34375 
Q 39.109375 -1.421875 33.890625 -1.421875 
Q 20.796875 -1.421875 13.15625 6.1875 
Q 5.515625 13.8125 5.515625 26.8125 
Q 5.515625 40.234375 12.765625 48.109375 
Q 20.015625 56 32.328125 56 
Q 43.359375 56 49.78125 48.890625 
Q 56.203125 41.796875 56.203125 29.59375 
z
M 47.21875 32.234375 
Q 47.125 39.59375 43.09375 43.984375 
Q 39.0625 48.390625 32.421875 48.390625 
Q 24.90625 48.390625 20.390625 44.140625 
Q 15.875 39.890625 15.1875 32.171875 
z
" id="DejaVuSans-101"/>
      <path d="M 54.890625 33.015625 
L 54.890625 0 
L 45.90625 0 
L 45.90625 32.71875 
Q 45.90625 40.484375 42.875 44.328125 
Q 39.84375 48.1875 33.796875 48.1875 
Q 26.515625 48.1875 22.3125 43.546875 
Q 18.109375 38.921875 18.109375 30.90625 
L 18.109375 0 
L 9.078125 0 
L 9.078125 54.6875 
L 18.109375 54.6875 
L 18.109375 46.1875 
Q 21.34375 51.125 25.703125 53.5625 
Q 30.078125 56 35.796875 56 
Q 45.21875 56 50.046875 50.171875 
Q 54.890625 44.34375 54.890625 33.015625 
z
" id="DejaVuSans-110"/>
     </defs>
     <use xlink:href="#DejaVuSans-80"/>
     <use x="55.802734" xlink:href="#DejaVuSans-97"/>
     <use x="117.082031" xlink:href="#DejaVuSans-114"/>
     <use x="158.195312" xlink:href="#DejaVuSans-116"/>
     <use x="197.404297" xlink:href="#DejaVuSans-105"/>
     <use x="225.1875" xlink:href="#DejaVuSans-97"/>
     <use x="286.466797" xlink:href="#DejaVuSans-108"/>
     <use x="314.25" xlink:href="#DejaVuSans-32"/>
     <use x="346.037109" xlink:href="#DejaVuSans-65"/>
     <use x="414.445312" xlink:href="#DejaVuSans-117"/>
     <use x="477.824219" xlink:href="#DejaVuSans-116"/>
     <use x="517.033203" xlink:href="#DejaVuSans-111"/>
     <use x="578.214844" xlink:href="#DejaVuSans-99"/>
     <use x="633.195312" xlink:href="#DejaVuSans-111"/>
     <use x="694.376953" xlink:href="#DejaVuSans-114"/>
     <use x="733.740234" xlink:href="#DejaVuSans-114"/>
     <use x="772.603516" xlink:href="#DejaVuSans-101"/>
     <use x="834.126953" xlink:href="#DejaVuSans-108"/>
     <use x="861.910156" xlink:href="#DejaVuSans-97"/>
     <use x="923.189453" xlink:href="#DejaVuSans-116"/>
     <use x="962.398438" xlink:href="#DejaVuSans-105"/>
     <use x="990.181641" xlink:href="#DejaVuSans-111"/>
     <use x="1051.363281" xlink:href="#DejaVuSans-110"/>
    </g>
   </g>
  </g>
 </g>
 <defs>
  <clipPath id="pa19864e04c">
   <rect height="217.44" width="334.8" x="30.103125" y="22.318125"/>
  </clipPath>
 </defs>
</svg>
