<?xml version="1.0" encoding="utf-8" standalone="no"?>
<!DOCTYPE svg PUBLIC "-//W3C//DTD SVG 1.1//EN"
  "http://www.w3.org/Graphics/SVG/1.1/DTD/svg11.dtd">
<!-- Created with matplotlib (https://matplotlib.org/) -->
<svg height="494.754375pt" version="1.1" viewBox="0 0 742.853125 494.754375" width="742.853125pt" xmlns="http://www.w3.org/2000/svg" xmlns:xlink="http://www.w3.org/1999/xlink">
 <metadata>
  <rdf:RDF xmlns:cc="http://creativecommons.org/ns#" xmlns:dc="http://purl.org/dc/elements/1.1/" xmlns:rdf="http://www.w3.org/1999/02/22-rdf-syntax-ns#">
   <cc:Work>
    <dc:type rdf:resource="http://purl.org/dc/dcmitype/StillImage"/>
    <dc:date>2021-02-11T14:20:09.238501</dc:date>
    <dc:format>image/svg+xml</dc:format>
    <dc:creator>
     <cc:Agent>
      <dc:title>Matplotlib v3.3.4, https://matplotlib.org/</dc:title>
     </cc:Agent>
    </dc:creator>
   </cc:Work>
  </rdf:RDF>
 </metadata>
 <defs>
  <style type="text/css">*{stroke-linecap:butt;stroke-linejoin:round;}</style>
 </defs>
 <g id="figure_1">
  <g id="patch_1">
   <path d="M 0 494.754375 
L 742.853125 494.754375 
L 742.853125 0 
L 0 0 
z
" style="fill:none;"/>
  </g>
  <g id="axes_1">
   <g id="patch_2">
    <path d="M 66.053125 457.198125 
L 735.653125 457.198125 
L 735.653125 22.318125 
L 66.053125 22.318125 
z
" style="fill:#ffffff;"/>
   </g>
   <g id="PolyCollection_1">
    <defs>
     <path d="M 668.285609 -144.944686 
L 668.285609 -57.705321 
L 669.559097 -57.412682 
L 670.832585 -57.323523 
L 672.106073 -57.378854 
L 673.379561 -57.415876 
L 674.653049 -57.43229 
L 675.926537 -57.439937 
L 677.200025 -57.443121 
L 678.473513 -57.444496 
L 679.747001 -57.445071 
L 681.020489 -57.445315 
L 682.293977 -57.445417 
L 683.567465 -57.44546 
L 684.840953 -57.445479 
L 686.114441 -57.445486 
L 687.387929 -57.445489 
L 688.661417 -57.445491 
L 689.934905 -57.445491 
L 691.208393 -57.445492 
L 692.481881 -57.445492 
L 693.755369 -57.445492 
L 695.028857 -57.445492 
L 696.302345 -57.445492 
L 697.575833 -57.445492 
L 698.849321 -57.445492 
L 700.122809 -57.445492 
L 701.396297 -57.445492 
L 702.669785 -57.445492 
L 703.943273 -57.445492 
L 705.216761 -57.445492 
L 705.216761 -146.930953 
L 705.216761 -146.930953 
L 703.943273 -146.930953 
L 702.669785 -146.930953 
L 701.396297 -146.930953 
L 700.122809 -146.930953 
L 698.849321 -146.930953 
L 697.575833 -146.930953 
L 696.302345 -146.930953 
L 695.028857 -146.930953 
L 693.755369 -146.930953 
L 692.481881 -146.930953 
L 691.208393 -146.930953 
L 689.934905 -146.930953 
L 688.661417 -146.930952 
L 687.387929 -146.930951 
L 686.114441 -146.930948 
L 684.840953 -146.93094 
L 683.567465 -146.930922 
L 682.293977 -146.930879 
L 681.020489 -146.930777 
L 679.747001 -146.930532 
L 678.473513 -146.929955 
L 677.200025 -146.928562 
L 675.926537 -146.925287 
L 674.653049 -146.91709 
L 673.379561 -146.897904 
L 672.106073 -146.841842 
L 670.832585 -146.711006 
L 669.559097 -146.034684 
L 668.285609 -144.944686 
z
" id="m64e38da3a1" style="stroke:#000000;stroke-opacity:0.25;"/>
    </defs>
    <g clip-path="url(#p6a5455e406)">
     <use style="fill-opacity:0.25;stroke:#000000;stroke-opacity:0.25;" x="0" xlink:href="#m64e38da3a1" y="494.754375"/>
    </g>
   </g>
   <g id="matplotlib.axis_1">
    <g id="xtick_1">
     <g id="line2d_1">
      <defs>
       <path d="M 0 0 
L 0 3.5 
" id="m5a47566260" style="stroke:#000000;stroke-width:0.8;"/>
      </defs>
      <g>
       <use style="stroke:#000000;stroke-width:0.8;" x="96.489489" xlink:href="#m5a47566260" y="457.198125"/>
      </g>
     </g>
     <g id="text_1">
      <!-- 2017-11 -->
      <g transform="translate(75.598082 471.796562)scale(0.1 -0.1)">
       <defs>
        <path d="M 19.1875 8.296875 
L 53.609375 8.296875 
L 53.609375 0 
L 7.328125 0 
L 7.328125 8.296875 
Q 12.9375 14.109375 22.625 23.890625 
Q 32.328125 33.6875 34.8125 36.53125 
Q 39.546875 41.84375 41.421875 45.53125 
Q 43.3125 49.21875 43.3125 52.78125 
Q 43.3125 58.59375 39.234375 62.25 
Q 35.15625 65.921875 28.609375 65.921875 
Q 23.96875 65.921875 18.8125 64.3125 
Q 13.671875 62.703125 7.8125 59.421875 
L 7.8125 69.390625 
Q 13.765625 71.78125 18.9375 73 
Q 24.125 74.21875 28.421875 74.21875 
Q 39.75 74.21875 46.484375 68.546875 
Q 53.21875 62.890625 53.21875 53.421875 
Q 53.21875 48.921875 51.53125 44.890625 
Q 49.859375 40.875 45.40625 35.40625 
Q 44.1875 33.984375 37.640625 27.21875 
Q 31.109375 20.453125 19.1875 8.296875 
z
" id="DejaVuSans-50"/>
        <path d="M 31.78125 66.40625 
Q 24.171875 66.40625 20.328125 58.90625 
Q 16.5 51.421875 16.5 36.375 
Q 16.5 21.390625 20.328125 13.890625 
Q 24.171875 6.390625 31.78125 6.390625 
Q 39.453125 6.390625 43.28125 13.890625 
Q 47.125 21.390625 47.125 36.375 
Q 47.125 51.421875 43.28125 58.90625 
Q 39.453125 66.40625 31.78125 66.40625 
z
M 31.78125 74.21875 
Q 44.046875 74.21875 50.515625 64.515625 
Q 56.984375 54.828125 56.984375 36.375 
Q 56.984375 17.96875 50.515625 8.265625 
Q 44.046875 -1.421875 31.78125 -1.421875 
Q 19.53125 -1.421875 13.0625 8.265625 
Q 6.59375 17.96875 6.59375 36.375 
Q 6.59375 54.828125 13.0625 64.515625 
Q 19.53125 74.21875 31.78125 74.21875 
z
" id="DejaVuSans-48"/>
        <path d="M 12.40625 8.296875 
L 28.515625 8.296875 
L 28.515625 63.921875 
L 10.984375 60.40625 
L 10.984375 69.390625 
L 28.421875 72.90625 
L 38.28125 72.90625 
L 38.28125 8.296875 
L 54.390625 8.296875 
L 54.390625 0 
L 12.40625 0 
z
" id="DejaVuSans-49"/>
        <path d="M 8.203125 72.90625 
L 55.078125 72.90625 
L 55.078125 68.703125 
L 28.609375 0 
L 18.3125 0 
L 43.21875 64.59375 
L 8.203125 64.59375 
z
" id="DejaVuSans-55"/>
        <path d="M 4.890625 31.390625 
L 31.203125 31.390625 
L 31.203125 23.390625 
L 4.890625 23.390625 
z
" id="DejaVuSans-45"/>
       </defs>
       <use xlink:href="#DejaVuSans-50"/>
       <use x="63.623047" xlink:href="#DejaVuSans-48"/>
       <use x="127.246094" xlink:href="#DejaVuSans-49"/>
       <use x="190.869141" xlink:href="#DejaVuSans-55"/>
       <use x="254.492188" xlink:href="#DejaVuSans-45"/>
       <use x="290.576172" xlink:href="#DejaVuSans-49"/>
       <use x="354.199219" xlink:href="#DejaVuSans-49"/>
      </g>
     </g>
    </g>
    <g id="xtick_2">
     <g id="line2d_2">
      <g>
       <use style="stroke:#000000;stroke-width:0.8;" x="174.172258" xlink:href="#m5a47566260" y="457.198125"/>
      </g>
     </g>
     <g id="text_2">
      <!-- 2018-01 -->
      <g transform="translate(153.280852 471.796562)scale(0.1 -0.1)">
       <defs>
        <path d="M 31.78125 34.625 
Q 24.75 34.625 20.71875 30.859375 
Q 16.703125 27.09375 16.703125 20.515625 
Q 16.703125 13.921875 20.71875 10.15625 
Q 24.75 6.390625 31.78125 6.390625 
Q 38.8125 6.390625 42.859375 10.171875 
Q 46.921875 13.96875 46.921875 20.515625 
Q 46.921875 27.09375 42.890625 30.859375 
Q 38.875 34.625 31.78125 34.625 
z
M 21.921875 38.8125 
Q 15.578125 40.375 12.03125 44.71875 
Q 8.5 49.078125 8.5 55.328125 
Q 8.5 64.0625 14.71875 69.140625 
Q 20.953125 74.21875 31.78125 74.21875 
Q 42.671875 74.21875 48.875 69.140625 
Q 55.078125 64.0625 55.078125 55.328125 
Q 55.078125 49.078125 51.53125 44.71875 
Q 48 40.375 41.703125 38.8125 
Q 48.828125 37.15625 52.796875 32.3125 
Q 56.78125 27.484375 56.78125 20.515625 
Q 56.78125 9.90625 50.3125 4.234375 
Q 43.84375 -1.421875 31.78125 -1.421875 
Q 19.734375 -1.421875 13.25 4.234375 
Q 6.78125 9.90625 6.78125 20.515625 
Q 6.78125 27.484375 10.78125 32.3125 
Q 14.796875 37.15625 21.921875 38.8125 
z
M 18.3125 54.390625 
Q 18.3125 48.734375 21.84375 45.5625 
Q 25.390625 42.390625 31.78125 42.390625 
Q 38.140625 42.390625 41.71875 45.5625 
Q 45.3125 48.734375 45.3125 54.390625 
Q 45.3125 60.0625 41.71875 63.234375 
Q 38.140625 66.40625 31.78125 66.40625 
Q 25.390625 66.40625 21.84375 63.234375 
Q 18.3125 60.0625 18.3125 54.390625 
z
" id="DejaVuSans-56"/>
       </defs>
       <use xlink:href="#DejaVuSans-50"/>
       <use x="63.623047" xlink:href="#DejaVuSans-48"/>
       <use x="127.246094" xlink:href="#DejaVuSans-49"/>
       <use x="190.869141" xlink:href="#DejaVuSans-56"/>
       <use x="254.492188" xlink:href="#DejaVuSans-45"/>
       <use x="290.576172" xlink:href="#DejaVuSans-48"/>
       <use x="354.199219" xlink:href="#DejaVuSans-49"/>
      </g>
     </g>
    </g>
    <g id="xtick_3">
     <g id="line2d_3">
      <g>
       <use style="stroke:#000000;stroke-width:0.8;" x="249.308051" xlink:href="#m5a47566260" y="457.198125"/>
      </g>
     </g>
     <g id="text_3">
      <!-- 2018-03 -->
      <g transform="translate(228.416645 471.796562)scale(0.1 -0.1)">
       <defs>
        <path d="M 40.578125 39.3125 
Q 47.65625 37.796875 51.625 33 
Q 55.609375 28.21875 55.609375 21.1875 
Q 55.609375 10.40625 48.1875 4.484375 
Q 40.765625 -1.421875 27.09375 -1.421875 
Q 22.515625 -1.421875 17.65625 -0.515625 
Q 12.796875 0.390625 7.625 2.203125 
L 7.625 11.71875 
Q 11.71875 9.328125 16.59375 8.109375 
Q 21.484375 6.890625 26.8125 6.890625 
Q 36.078125 6.890625 40.9375 10.546875 
Q 45.796875 14.203125 45.796875 21.1875 
Q 45.796875 27.640625 41.28125 31.265625 
Q 36.765625 34.90625 28.71875 34.90625 
L 20.21875 34.90625 
L 20.21875 43.015625 
L 29.109375 43.015625 
Q 36.375 43.015625 40.234375 45.921875 
Q 44.09375 48.828125 44.09375 54.296875 
Q 44.09375 59.90625 40.109375 62.90625 
Q 36.140625 65.921875 28.71875 65.921875 
Q 24.65625 65.921875 20.015625 65.03125 
Q 15.375 64.15625 9.8125 62.3125 
L 9.8125 71.09375 
Q 15.4375 72.65625 20.34375 73.4375 
Q 25.25 74.21875 29.59375 74.21875 
Q 40.828125 74.21875 47.359375 69.109375 
Q 53.90625 64.015625 53.90625 55.328125 
Q 53.90625 49.265625 50.4375 45.09375 
Q 46.96875 40.921875 40.578125 39.3125 
z
" id="DejaVuSans-51"/>
       </defs>
       <use xlink:href="#DejaVuSans-50"/>
       <use x="63.623047" xlink:href="#DejaVuSans-48"/>
       <use x="127.246094" xlink:href="#DejaVuSans-49"/>
       <use x="190.869141" xlink:href="#DejaVuSans-56"/>
       <use x="254.492188" xlink:href="#DejaVuSans-45"/>
       <use x="290.576172" xlink:href="#DejaVuSans-48"/>
       <use x="354.199219" xlink:href="#DejaVuSans-51"/>
      </g>
     </g>
    </g>
    <g id="xtick_4">
     <g id="line2d_4">
      <g>
       <use style="stroke:#000000;stroke-width:0.8;" x="326.99082" xlink:href="#m5a47566260" y="457.198125"/>
      </g>
     </g>
     <g id="text_4">
      <!-- 2018-05 -->
      <g transform="translate(306.099414 471.796562)scale(0.1 -0.1)">
       <defs>
        <path d="M 10.796875 72.90625 
L 49.515625 72.90625 
L 49.515625 64.59375 
L 19.828125 64.59375 
L 19.828125 46.734375 
Q 21.96875 47.46875 24.109375 47.828125 
Q 26.265625 48.1875 28.421875 48.1875 
Q 40.625 48.1875 47.75 41.5 
Q 54.890625 34.8125 54.890625 23.390625 
Q 54.890625 11.625 47.5625 5.09375 
Q 40.234375 -1.421875 26.90625 -1.421875 
Q 22.3125 -1.421875 17.546875 -0.640625 
Q 12.796875 0.140625 7.71875 1.703125 
L 7.71875 11.625 
Q 12.109375 9.234375 16.796875 8.0625 
Q 21.484375 6.890625 26.703125 6.890625 
Q 35.15625 6.890625 40.078125 11.328125 
Q 45.015625 15.765625 45.015625 23.390625 
Q 45.015625 31 40.078125 35.4375 
Q 35.15625 39.890625 26.703125 39.890625 
Q 22.75 39.890625 18.8125 39.015625 
Q 14.890625 38.140625 10.796875 36.28125 
z
" id="DejaVuSans-53"/>
       </defs>
       <use xlink:href="#DejaVuSans-50"/>
       <use x="63.623047" xlink:href="#DejaVuSans-48"/>
       <use x="127.246094" xlink:href="#DejaVuSans-49"/>
       <use x="190.869141" xlink:href="#DejaVuSans-56"/>
       <use x="254.492188" xlink:href="#DejaVuSans-45"/>
       <use x="290.576172" xlink:href="#DejaVuSans-48"/>
       <use x="354.199219" xlink:href="#DejaVuSans-53"/>
      </g>
     </g>
    </g>
    <g id="xtick_5">
     <g id="line2d_5">
      <g>
       <use style="stroke:#000000;stroke-width:0.8;" x="404.673589" xlink:href="#m5a47566260" y="457.198125"/>
      </g>
     </g>
     <g id="text_5">
      <!-- 2018-07 -->
      <g transform="translate(383.782183 471.796562)scale(0.1 -0.1)">
       <use xlink:href="#DejaVuSans-50"/>
       <use x="63.623047" xlink:href="#DejaVuSans-48"/>
       <use x="127.246094" xlink:href="#DejaVuSans-49"/>
       <use x="190.869141" xlink:href="#DejaVuSans-56"/>
       <use x="254.492188" xlink:href="#DejaVuSans-45"/>
       <use x="290.576172" xlink:href="#DejaVuSans-48"/>
       <use x="354.199219" xlink:href="#DejaVuSans-55"/>
      </g>
     </g>
    </g>
    <g id="xtick_6">
     <g id="line2d_6">
      <g>
       <use style="stroke:#000000;stroke-width:0.8;" x="483.629846" xlink:href="#m5a47566260" y="457.198125"/>
      </g>
     </g>
     <g id="text_6">
      <!-- 2018-09 -->
      <g transform="translate(462.73844 471.796562)scale(0.1 -0.1)">
       <defs>
        <path d="M 10.984375 1.515625 
L 10.984375 10.5 
Q 14.703125 8.734375 18.5 7.8125 
Q 22.3125 6.890625 25.984375 6.890625 
Q 35.75 6.890625 40.890625 13.453125 
Q 46.046875 20.015625 46.78125 33.40625 
Q 43.953125 29.203125 39.59375 26.953125 
Q 35.25 24.703125 29.984375 24.703125 
Q 19.046875 24.703125 12.671875 31.3125 
Q 6.296875 37.9375 6.296875 49.421875 
Q 6.296875 60.640625 12.9375 67.421875 
Q 19.578125 74.21875 30.609375 74.21875 
Q 43.265625 74.21875 49.921875 64.515625 
Q 56.59375 54.828125 56.59375 36.375 
Q 56.59375 19.140625 48.40625 8.859375 
Q 40.234375 -1.421875 26.421875 -1.421875 
Q 22.703125 -1.421875 18.890625 -0.6875 
Q 15.09375 0.046875 10.984375 1.515625 
z
M 30.609375 32.421875 
Q 37.25 32.421875 41.125 36.953125 
Q 45.015625 41.5 45.015625 49.421875 
Q 45.015625 57.28125 41.125 61.84375 
Q 37.25 66.40625 30.609375 66.40625 
Q 23.96875 66.40625 20.09375 61.84375 
Q 16.21875 57.28125 16.21875 49.421875 
Q 16.21875 41.5 20.09375 36.953125 
Q 23.96875 32.421875 30.609375 32.421875 
z
" id="DejaVuSans-57"/>
       </defs>
       <use xlink:href="#DejaVuSans-50"/>
       <use x="63.623047" xlink:href="#DejaVuSans-48"/>
       <use x="127.246094" xlink:href="#DejaVuSans-49"/>
       <use x="190.869141" xlink:href="#DejaVuSans-56"/>
       <use x="254.492188" xlink:href="#DejaVuSans-45"/>
       <use x="290.576172" xlink:href="#DejaVuSans-48"/>
       <use x="354.199219" xlink:href="#DejaVuSans-57"/>
      </g>
     </g>
    </g>
    <g id="xtick_7">
     <g id="line2d_7">
      <g>
       <use style="stroke:#000000;stroke-width:0.8;" x="561.312615" xlink:href="#m5a47566260" y="457.198125"/>
      </g>
     </g>
     <g id="text_7">
      <!-- 2018-11 -->
      <g transform="translate(540.421209 471.796562)scale(0.1 -0.1)">
       <use xlink:href="#DejaVuSans-50"/>
       <use x="63.623047" xlink:href="#DejaVuSans-48"/>
       <use x="127.246094" xlink:href="#DejaVuSans-49"/>
       <use x="190.869141" xlink:href="#DejaVuSans-56"/>
       <use x="254.492188" xlink:href="#DejaVuSans-45"/>
       <use x="290.576172" xlink:href="#DejaVuSans-49"/>
       <use x="354.199219" xlink:href="#DejaVuSans-49"/>
      </g>
     </g>
    </g>
    <g id="xtick_8">
     <g id="line2d_8">
      <g>
       <use style="stroke:#000000;stroke-width:0.8;" x="638.995384" xlink:href="#m5a47566260" y="457.198125"/>
      </g>
     </g>
     <g id="text_8">
      <!-- 2019-01 -->
      <g transform="translate(618.103978 471.796562)scale(0.1 -0.1)">
       <use xlink:href="#DejaVuSans-50"/>
       <use x="63.623047" xlink:href="#DejaVuSans-48"/>
       <use x="127.246094" xlink:href="#DejaVuSans-49"/>
       <use x="190.869141" xlink:href="#DejaVuSans-57"/>
       <use x="254.492188" xlink:href="#DejaVuSans-45"/>
       <use x="290.576172" xlink:href="#DejaVuSans-48"/>
       <use x="354.199219" xlink:href="#DejaVuSans-49"/>
      </g>
     </g>
    </g>
    <g id="xtick_9">
     <g id="line2d_9">
      <g>
       <use style="stroke:#000000;stroke-width:0.8;" x="714.131177" xlink:href="#m5a47566260" y="457.198125"/>
      </g>
     </g>
     <g id="text_9">
      <!-- 2019-03 -->
      <g transform="translate(693.239771 471.796562)scale(0.1 -0.1)">
       <use xlink:href="#DejaVuSans-50"/>
       <use x="63.623047" xlink:href="#DejaVuSans-48"/>
       <use x="127.246094" xlink:href="#DejaVuSans-49"/>
       <use x="190.869141" xlink:href="#DejaVuSans-57"/>
       <use x="254.492188" xlink:href="#DejaVuSans-45"/>
       <use x="290.576172" xlink:href="#DejaVuSans-48"/>
       <use x="354.199219" xlink:href="#DejaVuSans-51"/>
      </g>
     </g>
    </g>
    <g id="text_10">
     <!-- Date -->
     <g transform="translate(388.902344 485.474687)scale(0.1 -0.1)">
      <defs>
       <path d="M 19.671875 64.796875 
L 19.671875 8.109375 
L 31.59375 8.109375 
Q 46.6875 8.109375 53.6875 14.9375 
Q 60.6875 21.78125 60.6875 36.53125 
Q 60.6875 51.171875 53.6875 57.984375 
Q 46.6875 64.796875 31.59375 64.796875 
z
M 9.8125 72.90625 
L 30.078125 72.90625 
Q 51.265625 72.90625 61.171875 64.09375 
Q 71.09375 55.28125 71.09375 36.53125 
Q 71.09375 17.671875 61.125 8.828125 
Q 51.171875 0 30.078125 0 
L 9.8125 0 
z
" id="DejaVuSans-68"/>
       <path d="M 34.28125 27.484375 
Q 23.390625 27.484375 19.1875 25 
Q 14.984375 22.515625 14.984375 16.5 
Q 14.984375 11.71875 18.140625 8.90625 
Q 21.296875 6.109375 26.703125 6.109375 
Q 34.1875 6.109375 38.703125 11.40625 
Q 43.21875 16.703125 43.21875 25.484375 
L 43.21875 27.484375 
z
M 52.203125 31.203125 
L 52.203125 0 
L 43.21875 0 
L 43.21875 8.296875 
Q 40.140625 3.328125 35.546875 0.953125 
Q 30.953125 -1.421875 24.3125 -1.421875 
Q 15.921875 -1.421875 10.953125 3.296875 
Q 6 8.015625 6 15.921875 
Q 6 25.140625 12.171875 29.828125 
Q 18.359375 34.515625 30.609375 34.515625 
L 43.21875 34.515625 
L 43.21875 35.40625 
Q 43.21875 41.609375 39.140625 45 
Q 35.0625 48.390625 27.6875 48.390625 
Q 23 48.390625 18.546875 47.265625 
Q 14.109375 46.140625 10.015625 43.890625 
L 10.015625 52.203125 
Q 14.9375 54.109375 19.578125 55.046875 
Q 24.21875 56 28.609375 56 
Q 40.484375 56 46.34375 49.84375 
Q 52.203125 43.703125 52.203125 31.203125 
z
" id="DejaVuSans-97"/>
       <path d="M 18.3125 70.21875 
L 18.3125 54.6875 
L 36.8125 54.6875 
L 36.8125 47.703125 
L 18.3125 47.703125 
L 18.3125 18.015625 
Q 18.3125 11.328125 20.140625 9.421875 
Q 21.96875 7.515625 27.59375 7.515625 
L 36.8125 7.515625 
L 36.8125 0 
L 27.59375 0 
Q 17.1875 0 13.234375 3.875 
Q 9.28125 7.765625 9.28125 18.015625 
L 9.28125 47.703125 
L 2.6875 47.703125 
L 2.6875 54.6875 
L 9.28125 54.6875 
L 9.28125 70.21875 
z
" id="DejaVuSans-116"/>
       <path d="M 56.203125 29.59375 
L 56.203125 25.203125 
L 14.890625 25.203125 
Q 15.484375 15.921875 20.484375 11.0625 
Q 25.484375 6.203125 34.421875 6.203125 
Q 39.59375 6.203125 44.453125 7.46875 
Q 49.3125 8.734375 54.109375 11.28125 
L 54.109375 2.78125 
Q 49.265625 0.734375 44.1875 -0.34375 
Q 39.109375 -1.421875 33.890625 -1.421875 
Q 20.796875 -1.421875 13.15625 6.1875 
Q 5.515625 13.8125 5.515625 26.8125 
Q 5.515625 40.234375 12.765625 48.109375 
Q 20.015625 56 32.328125 56 
Q 43.359375 56 49.78125 48.890625 
Q 56.203125 41.796875 56.203125 29.59375 
z
M 47.21875 32.234375 
Q 47.125 39.59375 43.09375 43.984375 
Q 39.0625 48.390625 32.421875 48.390625 
Q 24.90625 48.390625 20.390625 44.140625 
Q 15.875 39.890625 15.1875 32.171875 
z
" id="DejaVuSans-101"/>
      </defs>
      <use xlink:href="#DejaVuSans-68"/>
      <use x="77.001953" xlink:href="#DejaVuSans-97"/>
      <use x="138.28125" xlink:href="#DejaVuSans-116"/>
      <use x="177.490234" xlink:href="#DejaVuSans-101"/>
     </g>
    </g>
   </g>
   <g id="matplotlib.axis_2">
    <g id="ytick_1">
     <g id="line2d_10">
      <defs>
       <path d="M 0 0 
L -3.5 0 
" id="mb047ff4a84" style="stroke:#000000;stroke-width:0.8;"/>
      </defs>
      <g>
       <use style="stroke:#000000;stroke-width:0.8;" x="66.053125" xlink:href="#mb047ff4a84" y="405.678487"/>
      </g>
     </g>
     <g id="text_11">
      <!-- 0 -->
      <g transform="translate(52.690625 409.477706)scale(0.1 -0.1)">
       <use xlink:href="#DejaVuSans-48"/>
      </g>
     </g>
    </g>
    <g id="ytick_2">
     <g id="line2d_11">
      <g>
       <use style="stroke:#000000;stroke-width:0.8;" x="66.053125" xlink:href="#mb047ff4a84" y="352.06372"/>
      </g>
     </g>
     <g id="text_12">
      <!-- 25000 -->
      <g transform="translate(27.240625 355.862939)scale(0.1 -0.1)">
       <use xlink:href="#DejaVuSans-50"/>
       <use x="63.623047" xlink:href="#DejaVuSans-53"/>
       <use x="127.246094" xlink:href="#DejaVuSans-48"/>
       <use x="190.869141" xlink:href="#DejaVuSans-48"/>
       <use x="254.492188" xlink:href="#DejaVuSans-48"/>
      </g>
     </g>
    </g>
    <g id="ytick_3">
     <g id="line2d_12">
      <g>
       <use style="stroke:#000000;stroke-width:0.8;" x="66.053125" xlink:href="#mb047ff4a84" y="298.448953"/>
      </g>
     </g>
     <g id="text_13">
      <!-- 50000 -->
      <g transform="translate(27.240625 302.248172)scale(0.1 -0.1)">
       <use xlink:href="#DejaVuSans-53"/>
       <use x="63.623047" xlink:href="#DejaVuSans-48"/>
       <use x="127.246094" xlink:href="#DejaVuSans-48"/>
       <use x="190.869141" xlink:href="#DejaVuSans-48"/>
       <use x="254.492188" xlink:href="#DejaVuSans-48"/>
      </g>
     </g>
    </g>
    <g id="ytick_4">
     <g id="line2d_13">
      <g>
       <use style="stroke:#000000;stroke-width:0.8;" x="66.053125" xlink:href="#mb047ff4a84" y="244.834186"/>
      </g>
     </g>
     <g id="text_14">
      <!-- 75000 -->
      <g transform="translate(27.240625 248.633405)scale(0.1 -0.1)">
       <use xlink:href="#DejaVuSans-55"/>
       <use x="63.623047" xlink:href="#DejaVuSans-53"/>
       <use x="127.246094" xlink:href="#DejaVuSans-48"/>
       <use x="190.869141" xlink:href="#DejaVuSans-48"/>
       <use x="254.492188" xlink:href="#DejaVuSans-48"/>
      </g>
     </g>
    </g>
    <g id="ytick_5">
     <g id="line2d_14">
      <g>
       <use style="stroke:#000000;stroke-width:0.8;" x="66.053125" xlink:href="#mb047ff4a84" y="191.219419"/>
      </g>
     </g>
     <g id="text_15">
      <!-- 100000 -->
      <g transform="translate(20.878125 195.018637)scale(0.1 -0.1)">
       <use xlink:href="#DejaVuSans-49"/>
       <use x="63.623047" xlink:href="#DejaVuSans-48"/>
       <use x="127.246094" xlink:href="#DejaVuSans-48"/>
       <use x="190.869141" xlink:href="#DejaVuSans-48"/>
       <use x="254.492188" xlink:href="#DejaVuSans-48"/>
       <use x="318.115234" xlink:href="#DejaVuSans-48"/>
      </g>
     </g>
    </g>
    <g id="ytick_6">
     <g id="line2d_15">
      <g>
       <use style="stroke:#000000;stroke-width:0.8;" x="66.053125" xlink:href="#mb047ff4a84" y="137.604652"/>
      </g>
     </g>
     <g id="text_16">
      <!-- 125000 -->
      <g transform="translate(20.878125 141.40387)scale(0.1 -0.1)">
       <use xlink:href="#DejaVuSans-49"/>
       <use x="63.623047" xlink:href="#DejaVuSans-50"/>
       <use x="127.246094" xlink:href="#DejaVuSans-53"/>
       <use x="190.869141" xlink:href="#DejaVuSans-48"/>
       <use x="254.492188" xlink:href="#DejaVuSans-48"/>
       <use x="318.115234" xlink:href="#DejaVuSans-48"/>
      </g>
     </g>
    </g>
    <g id="ytick_7">
     <g id="line2d_16">
      <g>
       <use style="stroke:#000000;stroke-width:0.8;" x="66.053125" xlink:href="#mb047ff4a84" y="83.989885"/>
      </g>
     </g>
     <g id="text_17">
      <!-- 150000 -->
      <g transform="translate(20.878125 87.789103)scale(0.1 -0.1)">
       <use xlink:href="#DejaVuSans-49"/>
       <use x="63.623047" xlink:href="#DejaVuSans-53"/>
       <use x="127.246094" xlink:href="#DejaVuSans-48"/>
       <use x="190.869141" xlink:href="#DejaVuSans-48"/>
       <use x="254.492188" xlink:href="#DejaVuSans-48"/>
       <use x="318.115234" xlink:href="#DejaVuSans-48"/>
      </g>
     </g>
    </g>
    <g id="ytick_8">
     <g id="line2d_17">
      <g>
       <use style="stroke:#000000;stroke-width:0.8;" x="66.053125" xlink:href="#mb047ff4a84" y="30.375118"/>
      </g>
     </g>
     <g id="text_18">
      <!-- 175000 -->
      <g transform="translate(20.878125 34.174336)scale(0.1 -0.1)">
       <use xlink:href="#DejaVuSans-49"/>
       <use x="63.623047" xlink:href="#DejaVuSans-55"/>
       <use x="127.246094" xlink:href="#DejaVuSans-53"/>
       <use x="190.869141" xlink:href="#DejaVuSans-48"/>
       <use x="254.492188" xlink:href="#DejaVuSans-48"/>
       <use x="318.115234" xlink:href="#DejaVuSans-48"/>
      </g>
     </g>
    </g>
    <g id="text_19">
     <!-- revenue -->
     <g transform="translate(14.798438 260.227656)rotate(-90)scale(0.1 -0.1)">
      <defs>
       <path d="M 41.109375 46.296875 
Q 39.59375 47.171875 37.8125 47.578125 
Q 36.03125 48 33.890625 48 
Q 26.265625 48 22.1875 43.046875 
Q 18.109375 38.09375 18.109375 28.8125 
L 18.109375 0 
L 9.078125 0 
L 9.078125 54.6875 
L 18.109375 54.6875 
L 18.109375 46.1875 
Q 20.953125 51.171875 25.484375 53.578125 
Q 30.03125 56 36.53125 56 
Q 37.453125 56 38.578125 55.875 
Q 39.703125 55.765625 41.0625 55.515625 
z
" id="DejaVuSans-114"/>
       <path d="M 2.984375 54.6875 
L 12.5 54.6875 
L 29.59375 8.796875 
L 46.6875 54.6875 
L 56.203125 54.6875 
L 35.6875 0 
L 23.484375 0 
z
" id="DejaVuSans-118"/>
       <path d="M 54.890625 33.015625 
L 54.890625 0 
L 45.90625 0 
L 45.90625 32.71875 
Q 45.90625 40.484375 42.875 44.328125 
Q 39.84375 48.1875 33.796875 48.1875 
Q 26.515625 48.1875 22.3125 43.546875 
Q 18.109375 38.921875 18.109375 30.90625 
L 18.109375 0 
L 9.078125 0 
L 9.078125 54.6875 
L 18.109375 54.6875 
L 18.109375 46.1875 
Q 21.34375 51.125 25.703125 53.5625 
Q 30.078125 56 35.796875 56 
Q 45.21875 56 50.046875 50.171875 
Q 54.890625 44.34375 54.890625 33.015625 
z
" id="DejaVuSans-110"/>
       <path d="M 8.5 21.578125 
L 8.5 54.6875 
L 17.484375 54.6875 
L 17.484375 21.921875 
Q 17.484375 14.15625 20.5 10.265625 
Q 23.53125 6.390625 29.59375 6.390625 
Q 36.859375 6.390625 41.078125 11.03125 
Q 45.3125 15.671875 45.3125 23.6875 
L 45.3125 54.6875 
L 54.296875 54.6875 
L 54.296875 0 
L 45.3125 0 
L 45.3125 8.40625 
Q 42.046875 3.421875 37.71875 1 
Q 33.40625 -1.421875 27.6875 -1.421875 
Q 18.265625 -1.421875 13.375 4.4375 
Q 8.5 10.296875 8.5 21.578125 
z
M 31.109375 56 
z
" id="DejaVuSans-117"/>
      </defs>
      <use xlink:href="#DejaVuSans-114"/>
      <use x="38.863281" xlink:href="#DejaVuSans-101"/>
      <use x="100.386719" xlink:href="#DejaVuSans-118"/>
      <use x="159.566406" xlink:href="#DejaVuSans-101"/>
      <use x="221.089844" xlink:href="#DejaVuSans-110"/>
      <use x="284.46875" xlink:href="#DejaVuSans-117"/>
      <use x="347.847656" xlink:href="#DejaVuSans-101"/>
     </g>
    </g>
   </g>
   <g id="line2d_18">
    <path clip-path="url(#p6a5455e406)" d="M 96.489489 405.678487 
L 129.600177 405.678487 
L 130.873665 377.195921 
L 132.147153 377.320629 
L 133.420641 377.924267 
L 134.694129 386.027452 
L 135.967617 402.969268 
L 137.241105 392.319596 
L 138.514593 379.536377 
L 139.788081 386.608207 
L 141.061569 382.33035 
L 142.335057 382.835637 
L 143.608545 395.247048 
L 144.882033 405.678487 
L 146.155521 395.881568 
L 147.429009 364.721802 
L 148.702497 385.264836 
L 149.975985 372.201062 
L 151.249473 392.802922 
L 152.522961 385.176157 
L 153.796449 405.678487 
L 155.069937 401.793539 
L 156.343425 399.993799 
L 157.616914 377.252924 
L 158.890402 402.289412 
L 160.16389 405.678487 
L 172.89877 405.678487 
L 174.172258 401.526002 
L 175.445746 399.113316 
L 176.719234 403.607134 
L 177.992722 399.722916 
L 179.26621 401.61734 
L 180.539698 405.678487 
L 181.813186 401.454587 
L 183.086674 378.266736 
L 184.360162 398.09708 
L 186.907138 379.998214 
L 188.180626 402.034248 
L 189.454114 405.678487 
L 190.727602 398.304719 
L 192.00109 387.063804 
L 193.274578 390.587043 
L 194.548066 395.535559 
L 195.821554 398.382461 
L 197.095042 394.510874 
L 198.36853 405.678487 
L 199.642018 397.275637 
L 200.915506 391.196688 
L 202.188994 379.232445 
L 203.462482 392.635601 
L 204.73597 397.998879 
L 206.009458 354.342152 
L 207.282946 405.678487 
L 208.556434 398.252584 
L 209.829922 394.340141 
L 211.10341 399.335002 
L 212.376898 393.512672 
L 213.650386 395.715319 
L 214.923874 396.728402 
L 216.197362 405.678487 
L 217.47085 401.260673 
L 218.744338 395.722611 
L 220.017826 399.63977 
L 221.291314 397.136239 
L 222.564802 400.358165 
L 223.83829 399.689053 
L 225.111778 405.678487 
L 226.385266 398.306349 
L 227.658755 401.208214 
L 228.932243 388.88291 
L 230.205731 399.304999 
L 231.479219 397.303796 
L 232.752707 388.653761 
L 234.026195 405.678487 
L 235.299683 398.87713 
L 237.846659 397.434809 
L 239.120147 395.652652 
L 240.393635 394.766016 
L 241.667123 389.648549 
L 242.940611 405.678487 
L 244.214099 397.528849 
L 245.487587 396.473475 
L 246.761075 392.25841 
L 248.034563 393.822718 
L 249.308051 390.627728 
L 250.581539 395.8687 
L 251.855027 405.678487 
L 253.128515 393.05845 
L 254.402003 385.640182 
L 255.675491 392.425067 
L 256.948979 392.83968 
L 258.222467 394.202117 
L 259.495955 398.53597 
L 260.769443 405.678487 
L 262.042931 401.895922 
L 263.316419 390.490922 
L 264.589907 394.943738 
L 265.863395 397.010759 
L 267.136883 393.182943 
L 268.410371 376.002735 
L 269.683859 405.678487 
L 270.957347 397.311431 
L 272.230835 392.18172 
L 273.504323 293.5592 
L 274.777811 391.079229 
L 276.051299 366.413326 
L 277.324787 396.59784 
L 278.598275 405.678487 
L 279.871763 395.467597 
L 281.145251 387.272259 
L 282.418739 390.474626 
L 283.692227 388.880466 
L 284.965715 392.437977 
L 286.239203 405.678487 
L 290.059667 405.678487 
L 291.333155 397.494986 
L 292.606643 395.651024 
L 293.880131 390.332718 
L 295.153619 398.977863 
L 296.427108 405.678487 
L 297.700596 399.261078 
L 298.974084 399.956376 
L 300.247572 397.097508 
L 301.52106 399.22344 
L 302.794548 353.807787 
L 304.068036 400.916702 
L 305.341524 405.678487 
L 306.615012 395.459233 
L 307.8885 373.049998 
L 309.161988 376.576177 
L 310.435476 397.145375 
L 311.708964 370.021386 
L 312.982452 393.330556 
L 314.25594 405.678487 
L 315.529428 396.876014 
L 316.802916 388.966421 
L 318.076404 394.050945 
L 319.349892 394.125963 
L 320.62338 388.631069 
L 321.896868 392.973202 
L 323.170356 405.678487 
L 324.443844 400.406504 
L 325.717332 405.678487 
L 326.99082 391.612996 
L 328.264308 391.031726 
L 329.537796 392.84071 
L 330.811284 396.959868 
L 332.084772 405.678487 
L 333.35826 395.89821 
L 334.631748 388.967858 
L 335.905236 393.107969 
L 337.178724 396.501633 
L 338.452212 394.611026 
L 339.7257 397.477315 
L 340.999188 405.678487 
L 342.272676 396.003423 
L 343.546164 395.420116 
L 344.819652 393.355948 
L 346.09314 396.36039 
L 347.366628 392.228322 
L 348.640116 394.114918 
L 349.913604 405.678487 
L 351.187092 396.649674 
L 352.46058 394.51778 
L 353.734068 395.498179 
L 355.007556 389.349616 
L 356.281044 392.282923 
L 357.554532 393.862629 
L 358.82802 405.678487 
L 360.101508 400.574297 
L 361.374996 405.678487 
L 362.648484 396.867693 
L 363.921972 398.030469 
L 365.19546 390.916969 
L 366.468949 389.976223 
L 367.742437 405.678487 
L 369.015925 390.882098 
L 370.289413 386.169317 
L 371.562901 378.896088 
L 372.836389 396.08614 
L 374.109877 396.4783 
L 375.383365 374.58278 
L 376.656853 405.678487 
L 377.930341 395.75776 
L 379.203829 395.03454 
L 380.477317 390.316955 
L 381.750805 392.884416 
L 383.024293 248.783557 
L 384.297781 397.388958 
L 385.571269 405.678487 
L 386.844757 402.446524 
L 388.118245 393.30244 
L 389.391733 397.752015 
L 390.665221 397.453403 
L 391.938709 385.830214 
L 393.212197 394.163858 
L 394.485685 405.678487 
L 395.759173 396.779443 
L 397.032661 393.761876 
L 398.306149 394.142476 
L 399.579637 392.007193 
L 400.853125 393.392213 
L 402.126613 400.495376 
L 403.400101 405.678487 
L 404.673589 400.776918 
L 405.947077 392.969342 
L 407.220565 396.740197 
L 408.494053 385.105407 
L 409.767541 397.199676 
L 411.041029 398.106001 
L 412.314517 405.678487 
L 413.588005 401.302535 
L 414.861493 394.60901 
L 416.134981 396.394468 
L 417.408469 395.170679 
L 418.681957 383.729802 
L 419.955445 396.93973 
L 421.228933 405.678487 
L 422.502421 399.650107 
L 423.775909 395.084874 
L 425.049397 397.0707 
L 426.322885 393.780448 
L 427.596373 390.098078 
L 428.869861 398.877454 
L 430.143349 405.678487 
L 431.416837 397.43097 
L 432.690325 393.654861 
L 433.963813 399.115417 
L 435.237301 397.271241 
L 436.51079 381.925022 
L 437.784278 399.334337 
L 439.057766 405.678487 
L 440.331254 399.814125 
L 441.604742 391.915705 
L 442.87823 388.67673 
L 444.151718 392.630475 
L 445.425206 398.512745 
L 446.698694 401.810525 
L 447.972182 405.678487 
L 449.24567 400.296165 
L 450.519158 400.713438 
L 451.792646 390.006354 
L 453.066134 394.115712 
L 454.339622 388.104917 
L 455.61311 393.391162 
L 456.886598 405.678487 
L 458.160086 399.410406 
L 459.433574 398.227021 
L 460.707062 399.360072 
L 461.98055 394.829367 
L 463.254038 394.80865 
L 464.527526 397.547464 
L 465.801014 405.678487 
L 467.074502 397.633462 
L 468.34799 398.84655 
L 469.621478 398.213853 
L 470.894966 392.838694 
L 472.168454 391.0797 
L 473.441942 349.077527 
L 474.71543 405.678487 
L 475.988918 400.741017 
L 477.262406 405.678487 
L 478.535894 392.334114 
L 479.809382 398.381024 
L 481.08287 395.864797 
L 482.356358 397.432128 
L 483.629846 405.678487 
L 484.903334 401.36074 
L 486.176822 393.47257 
L 487.45031 397.703505 
L 488.723798 398.585318 
L 489.997286 391.816753 
L 491.270774 397.886631 
L 492.544262 405.678487 
L 493.81775 397.872541 
L 495.091238 389.346292 
L 496.364726 397.781568 
L 497.638214 397.762695 
L 498.911702 340.548317 
L 500.18519 396.518747 
L 501.458678 405.678487 
L 502.732166 394.957635 
L 504.005654 387.670209 
L 506.552631 394.165166 
L 507.826119 393.728334 
L 509.099607 386.031977 
L 510.373095 405.678487 
L 511.646583 396.676031 
L 512.920071 322.256633 
L 514.193559 384.346093 
L 515.467047 392.745447 
L 516.740535 375.642508 
L 518.014023 391.717673 
L 519.287511 405.678487 
L 520.560999 391.630689 
L 521.834487 390.993638 
L 523.107975 271.823774 
L 524.381463 397.509827 
L 525.654951 376.174838 
L 528.201927 405.678487 
L 529.475415 394.95637 
L 530.748903 390.753766 
L 532.022391 388.846753 
L 533.295879 374.300702 
L 534.569367 392.499913 
L 535.842855 344.849424 
L 537.116343 405.678487 
L 538.389831 389.95334 
L 539.663319 382.945418 
L 540.936807 388.118278 
L 542.210295 386.026187 
L 543.483783 390.302286 
L 544.757271 386.348026 
L 546.030759 405.678487 
L 547.304247 391.33347 
L 548.577735 393.784308 
L 549.851223 390.980964 
L 551.124711 394.389919 
L 552.398199 391.933462 
L 553.671687 391.992353 
L 554.945175 405.678487 
L 556.218663 390.04678 
L 557.492151 385.729955 
L 558.765639 389.490044 
L 560.039127 391.697107 
L 561.312615 377.289318 
L 562.586103 392.363045 
L 563.859591 405.678487 
L 565.133079 389.791209 
L 566.406567 356.780123 
L 567.680055 381.512295 
L 568.953543 380.150094 
L 570.227031 379.761366 
L 571.500519 380.599107 
L 572.774007 405.678487 
L 574.047495 388.245967 
L 575.320984 377.64028 
L 576.594472 384.441592 
L 577.86796 382.742688 
L 579.141448 383.48296 
L 580.414936 388.069467 
L 581.688424 405.678487 
L 582.961912 387.941714 
L 584.2354 380.084277 
L 585.508888 377.679676 
L 586.782376 376.748237 
L 588.055864 381.028154 
L 589.329352 386.562485 
L 590.60284 405.678487 
L 593.149816 372.625026 
L 594.423304 390.312387 
L 595.696792 352.372198 
L 596.97028 376.715875 
L 598.243768 361.444117 
L 599.517256 405.678487 
L 600.790744 375.199264 
L 602.064232 331.227091 
L 603.33772 42.085398 
L 604.611208 364.757938 
L 605.884696 347.42081 
L 607.158184 379.299378 
L 608.431672 405.678487 
L 609.70516 397.369764 
L 610.978648 379.399144 
L 612.252136 388.463364 
L 613.525624 395.680813 
L 614.799112 393.221396 
L 616.0726 369.592639 
L 617.346088 405.678487 
L 618.619576 402.559866 
L 619.893064 389.497186 
L 621.166552 380.283638 
L 622.44004 401.585171 
L 623.713528 398.020582 
L 624.987016 405.678487 
L 637.721896 405.678487 
L 638.995384 396.610042 
L 640.268872 322.508386 
L 641.54236 391.79831 
L 642.815848 395.398477 
L 644.089336 405.678487 
L 645.362825 398.674597 
L 646.636313 390.389335 
L 647.909801 395.182195 
L 649.183289 390.78765 
L 650.456777 394.056049 
L 651.730265 393.016802 
L 653.003753 405.678487 
L 654.277241 401.701343 
L 655.550729 385.728067 
L 656.824217 392.526742 
L 658.097705 396.795506 
L 659.371193 388.964148 
L 660.644681 391.977255 
L 661.918169 405.678487 
L 663.191657 400.206435 
L 664.465145 393.172221 
L 665.738633 392.806418 
L 667.012121 395.695932 
L 668.285609 395.612036 
L 668.285609 395.612036 
" style="fill:none;stroke:#1f77b4;stroke-linecap:square;stroke-width:1.5;"/>
   </g>
   <g id="line2d_19">
    <path clip-path="url(#p6a5455e406)" d="M 668.285609 393.429371 
L 669.559097 393.030692 
L 670.832585 392.737111 
L 672.106073 392.644027 
L 673.379561 392.597485 
L 674.653049 392.579685 
L 675.926537 392.571763 
L 677.200025 392.568534 
L 678.473513 392.567149 
L 679.747001 392.566573 
L 681.020489 392.566329 
L 682.293977 392.566227 
L 683.567465 392.566184 
L 684.840953 392.566166 
L 686.114441 392.566158 
L 687.387929 392.566155 
L 688.661417 392.566153 
L 689.934905 392.566153 
L 691.208393 392.566153 
L 692.481881 392.566152 
L 693.755369 392.566152 
L 695.028857 392.566152 
L 696.302345 392.566152 
L 697.575833 392.566152 
L 698.849321 392.566152 
L 700.122809 392.566152 
L 701.396297 392.566152 
L 702.669785 392.566152 
L 703.943273 392.566152 
L 705.216761 392.566152 
" style="fill:none;stroke:#ff0000;stroke-linecap:square;stroke-width:1.5;"/>
   </g>
   <g id="patch_3">
    <path d="M 66.053125 457.198125 
L 66.053125 22.318125 
" style="fill:none;stroke:#000000;stroke-linecap:square;stroke-linejoin:miter;stroke-width:0.8;"/>
   </g>
   <g id="patch_4">
    <path d="M 735.653125 457.198125 
L 735.653125 22.318125 
" style="fill:none;stroke:#000000;stroke-linecap:square;stroke-linejoin:miter;stroke-width:0.8;"/>
   </g>
   <g id="patch_5">
    <path d="M 66.053125 457.198125 
L 735.653125 457.198125 
" style="fill:none;stroke:#000000;stroke-linecap:square;stroke-linejoin:miter;stroke-width:0.8;"/>
   </g>
   <g id="patch_6">
    <path d="M 66.053125 22.318125 
L 735.653125 22.318125 
" style="fill:none;stroke:#000000;stroke-linecap:square;stroke-linejoin:miter;stroke-width:0.8;"/>
   </g>
   <g id="text_20">
    <!-- Prediction UK auto ARIMA(2, 0, 0) -->
    <g transform="translate(300.413125 16.318125)scale(0.12 -0.12)">
     <defs>
      <path d="M 19.671875 64.796875 
L 19.671875 37.40625 
L 32.078125 37.40625 
Q 38.96875 37.40625 42.71875 40.96875 
Q 46.484375 44.53125 46.484375 51.125 
Q 46.484375 57.671875 42.71875 61.234375 
Q 38.96875 64.796875 32.078125 64.796875 
z
M 9.8125 72.90625 
L 32.078125 72.90625 
Q 44.34375 72.90625 50.609375 67.359375 
Q 56.890625 61.8125 56.890625 51.125 
Q 56.890625 40.328125 50.609375 34.8125 
Q 44.34375 29.296875 32.078125 29.296875 
L 19.671875 29.296875 
L 19.671875 0 
L 9.8125 0 
z
" id="DejaVuSans-80"/>
      <path d="M 45.40625 46.390625 
L 45.40625 75.984375 
L 54.390625 75.984375 
L 54.390625 0 
L 45.40625 0 
L 45.40625 8.203125 
Q 42.578125 3.328125 38.25 0.953125 
Q 33.9375 -1.421875 27.875 -1.421875 
Q 17.96875 -1.421875 11.734375 6.484375 
Q 5.515625 14.40625 5.515625 27.296875 
Q 5.515625 40.1875 11.734375 48.09375 
Q 17.96875 56 27.875 56 
Q 33.9375 56 38.25 53.625 
Q 42.578125 51.265625 45.40625 46.390625 
z
M 14.796875 27.296875 
Q 14.796875 17.390625 18.875 11.75 
Q 22.953125 6.109375 30.078125 6.109375 
Q 37.203125 6.109375 41.296875 11.75 
Q 45.40625 17.390625 45.40625 27.296875 
Q 45.40625 37.203125 41.296875 42.84375 
Q 37.203125 48.484375 30.078125 48.484375 
Q 22.953125 48.484375 18.875 42.84375 
Q 14.796875 37.203125 14.796875 27.296875 
z
" id="DejaVuSans-100"/>
      <path d="M 9.421875 54.6875 
L 18.40625 54.6875 
L 18.40625 0 
L 9.421875 0 
z
M 9.421875 75.984375 
L 18.40625 75.984375 
L 18.40625 64.59375 
L 9.421875 64.59375 
z
" id="DejaVuSans-105"/>
      <path d="M 48.78125 52.59375 
L 48.78125 44.1875 
Q 44.96875 46.296875 41.140625 47.34375 
Q 37.3125 48.390625 33.40625 48.390625 
Q 24.65625 48.390625 19.8125 42.84375 
Q 14.984375 37.3125 14.984375 27.296875 
Q 14.984375 17.28125 19.8125 11.734375 
Q 24.65625 6.203125 33.40625 6.203125 
Q 37.3125 6.203125 41.140625 7.25 
Q 44.96875 8.296875 48.78125 10.40625 
L 48.78125 2.09375 
Q 45.015625 0.34375 40.984375 -0.53125 
Q 36.96875 -1.421875 32.421875 -1.421875 
Q 20.0625 -1.421875 12.78125 6.34375 
Q 5.515625 14.109375 5.515625 27.296875 
Q 5.515625 40.671875 12.859375 48.328125 
Q 20.21875 56 33.015625 56 
Q 37.15625 56 41.109375 55.140625 
Q 45.0625 54.296875 48.78125 52.59375 
z
" id="DejaVuSans-99"/>
      <path d="M 30.609375 48.390625 
Q 23.390625 48.390625 19.1875 42.75 
Q 14.984375 37.109375 14.984375 27.296875 
Q 14.984375 17.484375 19.15625 11.84375 
Q 23.34375 6.203125 30.609375 6.203125 
Q 37.796875 6.203125 41.984375 11.859375 
Q 46.1875 17.53125 46.1875 27.296875 
Q 46.1875 37.015625 41.984375 42.703125 
Q 37.796875 48.390625 30.609375 48.390625 
z
M 30.609375 56 
Q 42.328125 56 49.015625 48.375 
Q 55.71875 40.765625 55.71875 27.296875 
Q 55.71875 13.875 49.015625 6.21875 
Q 42.328125 -1.421875 30.609375 -1.421875 
Q 18.84375 -1.421875 12.171875 6.21875 
Q 5.515625 13.875 5.515625 27.296875 
Q 5.515625 40.765625 12.171875 48.375 
Q 18.84375 56 30.609375 56 
z
" id="DejaVuSans-111"/>
      <path id="DejaVuSans-32"/>
      <path d="M 8.6875 72.90625 
L 18.609375 72.90625 
L 18.609375 28.609375 
Q 18.609375 16.890625 22.84375 11.734375 
Q 27.09375 6.59375 36.625 6.59375 
Q 46.09375 6.59375 50.34375 11.734375 
Q 54.59375 16.890625 54.59375 28.609375 
L 54.59375 72.90625 
L 64.5 72.90625 
L 64.5 27.390625 
Q 64.5 13.140625 57.4375 5.859375 
Q 50.390625 -1.421875 36.625 -1.421875 
Q 22.796875 -1.421875 15.734375 5.859375 
Q 8.6875 13.140625 8.6875 27.390625 
z
" id="DejaVuSans-85"/>
      <path d="M 9.8125 72.90625 
L 19.671875 72.90625 
L 19.671875 42.09375 
L 52.390625 72.90625 
L 65.09375 72.90625 
L 28.90625 38.921875 
L 67.671875 0 
L 54.6875 0 
L 19.671875 35.109375 
L 19.671875 0 
L 9.8125 0 
z
" id="DejaVuSans-75"/>
      <path d="M 34.1875 63.1875 
L 20.796875 26.90625 
L 47.609375 26.90625 
z
M 28.609375 72.90625 
L 39.796875 72.90625 
L 67.578125 0 
L 57.328125 0 
L 50.6875 18.703125 
L 17.828125 18.703125 
L 11.1875 0 
L 0.78125 0 
z
" id="DejaVuSans-65"/>
      <path d="M 44.390625 34.1875 
Q 47.5625 33.109375 50.5625 29.59375 
Q 53.5625 26.078125 56.59375 19.921875 
L 66.609375 0 
L 56 0 
L 46.6875 18.703125 
Q 43.0625 26.03125 39.671875 28.421875 
Q 36.28125 30.8125 30.421875 30.8125 
L 19.671875 30.8125 
L 19.671875 0 
L 9.8125 0 
L 9.8125 72.90625 
L 32.078125 72.90625 
Q 44.578125 72.90625 50.734375 67.671875 
Q 56.890625 62.453125 56.890625 51.90625 
Q 56.890625 45.015625 53.6875 40.46875 
Q 50.484375 35.9375 44.390625 34.1875 
z
M 19.671875 64.796875 
L 19.671875 38.921875 
L 32.078125 38.921875 
Q 39.203125 38.921875 42.84375 42.21875 
Q 46.484375 45.515625 46.484375 51.90625 
Q 46.484375 58.296875 42.84375 61.546875 
Q 39.203125 64.796875 32.078125 64.796875 
z
" id="DejaVuSans-82"/>
      <path d="M 9.8125 72.90625 
L 19.671875 72.90625 
L 19.671875 0 
L 9.8125 0 
z
" id="DejaVuSans-73"/>
      <path d="M 9.8125 72.90625 
L 24.515625 72.90625 
L 43.109375 23.296875 
L 61.8125 72.90625 
L 76.515625 72.90625 
L 76.515625 0 
L 66.890625 0 
L 66.890625 64.015625 
L 48.09375 14.015625 
L 38.1875 14.015625 
L 19.390625 64.015625 
L 19.390625 0 
L 9.8125 0 
z
" id="DejaVuSans-77"/>
      <path d="M 31 75.875 
Q 24.46875 64.65625 21.28125 53.65625 
Q 18.109375 42.671875 18.109375 31.390625 
Q 18.109375 20.125 21.3125 9.0625 
Q 24.515625 -2 31 -13.1875 
L 23.1875 -13.1875 
Q 15.875 -1.703125 12.234375 9.375 
Q 8.59375 20.453125 8.59375 31.390625 
Q 8.59375 42.28125 12.203125 53.3125 
Q 15.828125 64.359375 23.1875 75.875 
z
" id="DejaVuSans-40"/>
      <path d="M 11.71875 12.40625 
L 22.015625 12.40625 
L 22.015625 4 
L 14.015625 -11.625 
L 7.71875 -11.625 
L 11.71875 4 
z
" id="DejaVuSans-44"/>
      <path d="M 8.015625 75.875 
L 15.828125 75.875 
Q 23.140625 64.359375 26.78125 53.3125 
Q 30.421875 42.28125 30.421875 31.390625 
Q 30.421875 20.453125 26.78125 9.375 
Q 23.140625 -1.703125 15.828125 -13.1875 
L 8.015625 -13.1875 
Q 14.5 -2 17.703125 9.0625 
Q 20.90625 20.125 20.90625 31.390625 
Q 20.90625 42.671875 17.703125 53.65625 
Q 14.5 64.65625 8.015625 75.875 
z
" id="DejaVuSans-41"/>
     </defs>
     <use xlink:href="#DejaVuSans-80"/>
     <use x="58.552734" xlink:href="#DejaVuSans-114"/>
     <use x="97.416016" xlink:href="#DejaVuSans-101"/>
     <use x="158.939453" xlink:href="#DejaVuSans-100"/>
     <use x="222.416016" xlink:href="#DejaVuSans-105"/>
     <use x="250.199219" xlink:href="#DejaVuSans-99"/>
     <use x="305.179688" xlink:href="#DejaVuSans-116"/>
     <use x="344.388672" xlink:href="#DejaVuSans-105"/>
     <use x="372.171875" xlink:href="#DejaVuSans-111"/>
     <use x="433.353516" xlink:href="#DejaVuSans-110"/>
     <use x="496.732422" xlink:href="#DejaVuSans-32"/>
     <use x="528.519531" xlink:href="#DejaVuSans-85"/>
     <use x="601.712891" xlink:href="#DejaVuSans-75"/>
     <use x="667.289062" xlink:href="#DejaVuSans-32"/>
     <use x="699.076172" xlink:href="#DejaVuSans-97"/>
     <use x="760.355469" xlink:href="#DejaVuSans-117"/>
     <use x="823.734375" xlink:href="#DejaVuSans-116"/>
     <use x="862.943359" xlink:href="#DejaVuSans-111"/>
     <use x="924.125" xlink:href="#DejaVuSans-32"/>
     <use x="955.912109" xlink:href="#DejaVuSans-65"/>
     <use x="1024.320312" xlink:href="#DejaVuSans-82"/>
     <use x="1093.802734" xlink:href="#DejaVuSans-73"/>
     <use x="1123.294922" xlink:href="#DejaVuSans-77"/>
     <use x="1209.574219" xlink:href="#DejaVuSans-65"/>
     <use x="1277.982422" xlink:href="#DejaVuSans-40"/>
     <use x="1316.996094" xlink:href="#DejaVuSans-50"/>
     <use x="1380.619141" xlink:href="#DejaVuSans-44"/>
     <use x="1412.40625" xlink:href="#DejaVuSans-32"/>
     <use x="1444.193359" xlink:href="#DejaVuSans-48"/>
     <use x="1507.816406" xlink:href="#DejaVuSans-44"/>
     <use x="1539.603516" xlink:href="#DejaVuSans-32"/>
     <use x="1571.390625" xlink:href="#DejaVuSans-48"/>
     <use x="1635.013672" xlink:href="#DejaVuSans-41"/>
    </g>
   </g>
   <g id="legend_1">
    <g id="patch_7">
     <path d="M 73.053125 74.3525 
L 226.504688 74.3525 
Q 228.504688 74.3525 228.504688 72.3525 
L 228.504688 29.318125 
Q 228.504688 27.318125 226.504688 27.318125 
L 73.053125 27.318125 
Q 71.053125 27.318125 71.053125 29.318125 
L 71.053125 72.3525 
Q 71.053125 74.3525 73.053125 74.3525 
z
" style="fill:#ffffff;opacity:0.8;stroke:#cccccc;stroke-linejoin:miter;"/>
    </g>
    <g id="line2d_20">
     <path d="M 75.053125 35.416562 
L 95.053125 35.416562 
" style="fill:none;stroke:#1f77b4;stroke-linecap:square;stroke-width:1.5;"/>
    </g>
    <g id="line2d_21"/>
    <g id="text_21">
     <!-- past -->
     <g transform="translate(103.053125 38.916562)scale(0.1 -0.1)">
      <defs>
       <path d="M 18.109375 8.203125 
L 18.109375 -20.796875 
L 9.078125 -20.796875 
L 9.078125 54.6875 
L 18.109375 54.6875 
L 18.109375 46.390625 
Q 20.953125 51.265625 25.265625 53.625 
Q 29.59375 56 35.59375 56 
Q 45.5625 56 51.78125 48.09375 
Q 58.015625 40.1875 58.015625 27.296875 
Q 58.015625 14.40625 51.78125 6.484375 
Q 45.5625 -1.421875 35.59375 -1.421875 
Q 29.59375 -1.421875 25.265625 0.953125 
Q 20.953125 3.328125 18.109375 8.203125 
z
M 48.6875 27.296875 
Q 48.6875 37.203125 44.609375 42.84375 
Q 40.53125 48.484375 33.40625 48.484375 
Q 26.265625 48.484375 22.1875 42.84375 
Q 18.109375 37.203125 18.109375 27.296875 
Q 18.109375 17.390625 22.1875 11.75 
Q 26.265625 6.109375 33.40625 6.109375 
Q 40.53125 6.109375 44.609375 11.75 
Q 48.6875 17.390625 48.6875 27.296875 
z
" id="DejaVuSans-112"/>
       <path d="M 44.28125 53.078125 
L 44.28125 44.578125 
Q 40.484375 46.53125 36.375 47.5 
Q 32.28125 48.484375 27.875 48.484375 
Q 21.1875 48.484375 17.84375 46.4375 
Q 14.5 44.390625 14.5 40.28125 
Q 14.5 37.15625 16.890625 35.375 
Q 19.28125 33.59375 26.515625 31.984375 
L 29.59375 31.296875 
Q 39.15625 29.25 43.1875 25.515625 
Q 47.21875 21.78125 47.21875 15.09375 
Q 47.21875 7.46875 41.1875 3.015625 
Q 35.15625 -1.421875 24.609375 -1.421875 
Q 20.21875 -1.421875 15.453125 -0.5625 
Q 10.6875 0.296875 5.421875 2 
L 5.421875 11.28125 
Q 10.40625 8.6875 15.234375 7.390625 
Q 20.0625 6.109375 24.8125 6.109375 
Q 31.15625 6.109375 34.5625 8.28125 
Q 37.984375 10.453125 37.984375 14.40625 
Q 37.984375 18.0625 35.515625 20.015625 
Q 33.0625 21.96875 24.703125 23.78125 
L 21.578125 24.515625 
Q 13.234375 26.265625 9.515625 29.90625 
Q 5.8125 33.546875 5.8125 39.890625 
Q 5.8125 47.609375 11.28125 51.796875 
Q 16.75 56 26.8125 56 
Q 31.78125 56 36.171875 55.265625 
Q 40.578125 54.546875 44.28125 53.078125 
z
" id="DejaVuSans-115"/>
      </defs>
      <use xlink:href="#DejaVuSans-112"/>
      <use x="63.476562" xlink:href="#DejaVuSans-97"/>
      <use x="124.755859" xlink:href="#DejaVuSans-115"/>
      <use x="176.855469" xlink:href="#DejaVuSans-116"/>
     </g>
    </g>
    <g id="line2d_22">
     <path d="M 75.053125 50.094687 
L 95.053125 50.094687 
" style="fill:none;stroke:#ff0000;stroke-linecap:square;stroke-width:1.5;"/>
    </g>
    <g id="line2d_23"/>
    <g id="text_22">
     <!-- forecast -->
     <g transform="translate(103.053125 53.594687)scale(0.1 -0.1)">
      <defs>
       <path d="M 37.109375 75.984375 
L 37.109375 68.5 
L 28.515625 68.5 
Q 23.6875 68.5 21.796875 66.546875 
Q 19.921875 64.59375 19.921875 59.515625 
L 19.921875 54.6875 
L 34.71875 54.6875 
L 34.71875 47.703125 
L 19.921875 47.703125 
L 19.921875 0 
L 10.890625 0 
L 10.890625 47.703125 
L 2.296875 47.703125 
L 2.296875 54.6875 
L 10.890625 54.6875 
L 10.890625 58.5 
Q 10.890625 67.625 15.140625 71.796875 
Q 19.390625 75.984375 28.609375 75.984375 
z
" id="DejaVuSans-102"/>
      </defs>
      <use xlink:href="#DejaVuSans-102"/>
      <use x="35.205078" xlink:href="#DejaVuSans-111"/>
      <use x="96.386719" xlink:href="#DejaVuSans-114"/>
      <use x="135.25" xlink:href="#DejaVuSans-101"/>
      <use x="196.773438" xlink:href="#DejaVuSans-99"/>
      <use x="251.753906" xlink:href="#DejaVuSans-97"/>
      <use x="313.033203" xlink:href="#DejaVuSans-115"/>
      <use x="365.132812" xlink:href="#DejaVuSans-116"/>
     </g>
    </g>
    <g id="patch_8">
     <path d="M 75.053125 68.272812 
L 95.053125 68.272812 
L 95.053125 61.272812 
L 75.053125 61.272812 
z
" style="opacity:0.25;stroke:#000000;stroke-linejoin:miter;"/>
    </g>
    <g id="text_23">
     <!-- 95% confidence interval -->
     <g transform="translate(103.053125 68.272812)scale(0.1 -0.1)">
      <defs>
       <path d="M 72.703125 32.078125 
Q 68.453125 32.078125 66.03125 28.46875 
Q 63.625 24.859375 63.625 18.40625 
Q 63.625 12.0625 66.03125 8.421875 
Q 68.453125 4.78125 72.703125 4.78125 
Q 76.859375 4.78125 79.265625 8.421875 
Q 81.6875 12.0625 81.6875 18.40625 
Q 81.6875 24.8125 79.265625 28.4375 
Q 76.859375 32.078125 72.703125 32.078125 
z
M 72.703125 38.28125 
Q 80.421875 38.28125 84.953125 32.90625 
Q 89.5 27.546875 89.5 18.40625 
Q 89.5 9.28125 84.9375 3.921875 
Q 80.375 -1.421875 72.703125 -1.421875 
Q 64.890625 -1.421875 60.34375 3.921875 
Q 55.8125 9.28125 55.8125 18.40625 
Q 55.8125 27.59375 60.375 32.9375 
Q 64.9375 38.28125 72.703125 38.28125 
z
M 22.3125 68.015625 
Q 18.109375 68.015625 15.6875 64.375 
Q 13.28125 60.75 13.28125 54.390625 
Q 13.28125 47.953125 15.671875 44.328125 
Q 18.0625 40.71875 22.3125 40.71875 
Q 26.5625 40.71875 28.96875 44.328125 
Q 31.390625 47.953125 31.390625 54.390625 
Q 31.390625 60.6875 28.953125 64.34375 
Q 26.515625 68.015625 22.3125 68.015625 
z
M 66.40625 74.21875 
L 74.21875 74.21875 
L 28.609375 -1.421875 
L 20.796875 -1.421875 
z
M 22.3125 74.21875 
Q 30.03125 74.21875 34.609375 68.875 
Q 39.203125 63.53125 39.203125 54.390625 
Q 39.203125 45.171875 34.640625 39.84375 
Q 30.078125 34.515625 22.3125 34.515625 
Q 14.546875 34.515625 10.03125 39.859375 
Q 5.515625 45.21875 5.515625 54.390625 
Q 5.515625 63.484375 10.046875 68.84375 
Q 14.59375 74.21875 22.3125 74.21875 
z
" id="DejaVuSans-37"/>
       <path d="M 9.421875 75.984375 
L 18.40625 75.984375 
L 18.40625 0 
L 9.421875 0 
z
" id="DejaVuSans-108"/>
      </defs>
      <use xlink:href="#DejaVuSans-57"/>
      <use x="63.623047" xlink:href="#DejaVuSans-53"/>
      <use x="127.246094" xlink:href="#DejaVuSans-37"/>
      <use x="222.265625" xlink:href="#DejaVuSans-32"/>
      <use x="254.052734" xlink:href="#DejaVuSans-99"/>
      <use x="309.033203" xlink:href="#DejaVuSans-111"/>
      <use x="370.214844" xlink:href="#DejaVuSans-110"/>
      <use x="433.59375" xlink:href="#DejaVuSans-102"/>
      <use x="468.798828" xlink:href="#DejaVuSans-105"/>
      <use x="496.582031" xlink:href="#DejaVuSans-100"/>
      <use x="560.058594" xlink:href="#DejaVuSans-101"/>
      <use x="621.582031" xlink:href="#DejaVuSans-110"/>
      <use x="684.960938" xlink:href="#DejaVuSans-99"/>
      <use x="739.941406" xlink:href="#DejaVuSans-101"/>
      <use x="801.464844" xlink:href="#DejaVuSans-32"/>
      <use x="833.251953" xlink:href="#DejaVuSans-105"/>
      <use x="861.035156" xlink:href="#DejaVuSans-110"/>
      <use x="924.414062" xlink:href="#DejaVuSans-116"/>
      <use x="963.623047" xlink:href="#DejaVuSans-101"/>
      <use x="1025.146484" xlink:href="#DejaVuSans-114"/>
      <use x="1066.259766" xlink:href="#DejaVuSans-118"/>
      <use x="1125.439453" xlink:href="#DejaVuSans-97"/>
      <use x="1186.71875" xlink:href="#DejaVuSans-108"/>
     </g>
    </g>
   </g>
  </g>
 </g>
 <defs>
  <clipPath id="p6a5455e406">
   <rect height="434.88" width="669.6" x="66.053125" y="22.318125"/>
  </clipPath>
 </defs>
</svg>
