<?xml version="1.0" encoding="utf-8" standalone="no"?>
<!DOCTYPE svg PUBLIC "-//W3C//DTD SVG 1.1//EN"
  "http://www.w3.org/Graphics/SVG/1.1/DTD/svg11.dtd">
<!-- Created with matplotlib (https://matplotlib.org/) -->
<svg height="274.834063pt" version="1.1" viewBox="0 0 394.375 274.834063" width="394.375pt" xmlns="http://www.w3.org/2000/svg" xmlns:xlink="http://www.w3.org/1999/xlink">
 <metadata>
  <rdf:RDF xmlns:cc="http://creativecommons.org/ns#" xmlns:dc="http://purl.org/dc/elements/1.1/" xmlns:rdf="http://www.w3.org/1999/02/22-rdf-syntax-ns#">
   <cc:Work>
    <dc:type rdf:resource="http://purl.org/dc/dcmitype/StillImage"/>
    <dc:date>2021-02-11T14:12:56.756497</dc:date>
    <dc:format>image/svg+xml</dc:format>
    <dc:creator>
     <cc:Agent>
      <dc:title>Matplotlib v3.3.4, https://matplotlib.org/</dc:title>
     </cc:Agent>
    </dc:creator>
   </cc:Work>
  </rdf:RDF>
 </metadata>
 <defs>
  <style type="text/css">*{stroke-linecap:butt;stroke-linejoin:round;}</style>
 </defs>
 <g id="figure_1">
  <g id="patch_1">
   <path d="M 0 274.834063 
L 394.375 274.834063 
L 394.375 0 
L 0 0 
z
" style="fill:none;"/>
  </g>
  <g id="axes_1">
   <g id="patch_2">
    <path d="M 52.375 239.758125 
L 387.175 239.758125 
L 387.175 22.318125 
L 52.375 22.318125 
z
" style="fill:#ffffff;"/>
   </g>
   <g id="PolyCollection_1">
    <defs>
     <path d="M 374.932711 -84.233994 
L 374.932711 -44.959574 
L 375.464984 -45.031168 
L 375.997258 -45.110797 
L 376.529531 -45.191653 
L 377.061804 -45.269654 
L 377.594078 -45.342493 
L 378.126351 -45.409019 
L 378.658625 -45.468819 
L 379.190898 -45.52194 
L 379.723172 -45.568701 
L 380.255445 -45.609575 
L 380.787719 -45.645103 
L 381.319992 -45.675846 
L 381.852266 -45.702352 
L 382.384539 -45.725138 
L 382.916812 -45.744677 
L 383.449086 -45.7614 
L 383.981359 -45.775687 
L 384.513633 -45.787877 
L 385.045906 -45.798266 
L 385.57818 -45.807111 
L 386.110453 -45.814636 
L 386.642727 -45.821032 
L 387.175 -45.826467 
L 387.175 -86.094541 
L 387.175 -86.094541 
L 386.642727 -86.088919 
L 386.110453 -86.082263 
L 385.57818 -86.074376 
L 385.045906 -86.065027 
L 384.513633 -86.053935 
L 383.981359 -86.040764 
L 383.449086 -86.02511 
L 382.916812 -86.006483 
L 382.384539 -85.984287 
L 381.852266 -85.9578 
L 381.319992 -85.926133 
L 380.787719 -85.888196 
L 380.255445 -85.842639 
L 379.723172 -85.787781 
L 379.190898 -85.72152 
L 378.658625 -85.641203 
L 378.126351 -85.543464 
L 377.594078 -85.423995 
L 377.061804 -85.277245 
L 376.529531 -85.095993 
L 375.997258 -84.87077 
L 375.464984 -84.589035 
L 374.932711 -84.233994 
z
" id="m7cff26673e" style="stroke:#808080;stroke-opacity:0.5;"/>
    </defs>
    <g clip-path="url(#pc6b1b9d8dd)">
     <use style="fill:#808080;fill-opacity:0.5;stroke:#808080;stroke-opacity:0.5;" x="0" xlink:href="#m7cff26673e" y="274.834063"/>
    </g>
   </g>
   <g id="matplotlib.axis_1">
    <g id="xtick_1">
     <g id="line2d_1">
      <defs>
       <path d="M 0 0 
L 0 3.5 
" id="m24c4d393c2" style="stroke:#000000;stroke-width:0.8;"/>
      </defs>
      <g>
       <use style="stroke:#000000;stroke-width:0.8;" x="52.375" xlink:href="#m24c4d393c2" y="239.758125"/>
      </g>
     </g>
    </g>
    <g id="xtick_2">
     <g id="line2d_2">
      <g>
       <use style="stroke:#000000;stroke-width:0.8;" x="84.311407" xlink:href="#m24c4d393c2" y="239.758125"/>
      </g>
     </g>
     <g id="text_1">
      <!-- Jan -->
      <g transform="translate(76.603594 254.356563)scale(0.1 -0.1)">
       <defs>
        <path d="M 9.8125 72.90625 
L 19.671875 72.90625 
L 19.671875 5.078125 
Q 19.671875 -8.109375 14.671875 -14.0625 
Q 9.671875 -20.015625 -1.421875 -20.015625 
L -5.171875 -20.015625 
L -5.171875 -11.71875 
L -2.09375 -11.71875 
Q 4.4375 -11.71875 7.125 -8.046875 
Q 9.8125 -4.390625 9.8125 5.078125 
z
" id="DejaVuSans-74"/>
        <path d="M 34.28125 27.484375 
Q 23.390625 27.484375 19.1875 25 
Q 14.984375 22.515625 14.984375 16.5 
Q 14.984375 11.71875 18.140625 8.90625 
Q 21.296875 6.109375 26.703125 6.109375 
Q 34.1875 6.109375 38.703125 11.40625 
Q 43.21875 16.703125 43.21875 25.484375 
L 43.21875 27.484375 
z
M 52.203125 31.203125 
L 52.203125 0 
L 43.21875 0 
L 43.21875 8.296875 
Q 40.140625 3.328125 35.546875 0.953125 
Q 30.953125 -1.421875 24.3125 -1.421875 
Q 15.921875 -1.421875 10.953125 3.296875 
Q 6 8.015625 6 15.921875 
Q 6 25.140625 12.171875 29.828125 
Q 18.359375 34.515625 30.609375 34.515625 
L 43.21875 34.515625 
L 43.21875 35.40625 
Q 43.21875 41.609375 39.140625 45 
Q 35.0625 48.390625 27.6875 48.390625 
Q 23 48.390625 18.546875 47.265625 
Q 14.109375 46.140625 10.015625 43.890625 
L 10.015625 52.203125 
Q 14.9375 54.109375 19.578125 55.046875 
Q 24.21875 56 28.609375 56 
Q 40.484375 56 46.34375 49.84375 
Q 52.203125 43.703125 52.203125 31.203125 
z
" id="DejaVuSans-97"/>
        <path d="M 54.890625 33.015625 
L 54.890625 0 
L 45.90625 0 
L 45.90625 32.71875 
Q 45.90625 40.484375 42.875 44.328125 
Q 39.84375 48.1875 33.796875 48.1875 
Q 26.515625 48.1875 22.3125 43.546875 
Q 18.109375 38.921875 18.109375 30.90625 
L 18.109375 0 
L 9.078125 0 
L 9.078125 54.6875 
L 18.109375 54.6875 
L 18.109375 46.1875 
Q 21.34375 51.125 25.703125 53.5625 
Q 30.078125 56 35.796875 56 
Q 45.21875 56 50.046875 50.171875 
Q 54.890625 44.34375 54.890625 33.015625 
z
" id="DejaVuSans-110"/>
       </defs>
       <use xlink:href="#DejaVuSans-74"/>
       <use x="29.492188" xlink:href="#DejaVuSans-97"/>
       <use x="90.771484" xlink:href="#DejaVuSans-110"/>
      </g>
      <!-- 2018 -->
      <g transform="translate(71.586407 265.554375)scale(0.1 -0.1)">
       <defs>
        <path d="M 19.1875 8.296875 
L 53.609375 8.296875 
L 53.609375 0 
L 7.328125 0 
L 7.328125 8.296875 
Q 12.9375 14.109375 22.625 23.890625 
Q 32.328125 33.6875 34.8125 36.53125 
Q 39.546875 41.84375 41.421875 45.53125 
Q 43.3125 49.21875 43.3125 52.78125 
Q 43.3125 58.59375 39.234375 62.25 
Q 35.15625 65.921875 28.609375 65.921875 
Q 23.96875 65.921875 18.8125 64.3125 
Q 13.671875 62.703125 7.8125 59.421875 
L 7.8125 69.390625 
Q 13.765625 71.78125 18.9375 73 
Q 24.125 74.21875 28.421875 74.21875 
Q 39.75 74.21875 46.484375 68.546875 
Q 53.21875 62.890625 53.21875 53.421875 
Q 53.21875 48.921875 51.53125 44.890625 
Q 49.859375 40.875 45.40625 35.40625 
Q 44.1875 33.984375 37.640625 27.21875 
Q 31.109375 20.453125 19.1875 8.296875 
z
" id="DejaVuSans-50"/>
        <path d="M 31.78125 66.40625 
Q 24.171875 66.40625 20.328125 58.90625 
Q 16.5 51.421875 16.5 36.375 
Q 16.5 21.390625 20.328125 13.890625 
Q 24.171875 6.390625 31.78125 6.390625 
Q 39.453125 6.390625 43.28125 13.890625 
Q 47.125 21.390625 47.125 36.375 
Q 47.125 51.421875 43.28125 58.90625 
Q 39.453125 66.40625 31.78125 66.40625 
z
M 31.78125 74.21875 
Q 44.046875 74.21875 50.515625 64.515625 
Q 56.984375 54.828125 56.984375 36.375 
Q 56.984375 17.96875 50.515625 8.265625 
Q 44.046875 -1.421875 31.78125 -1.421875 
Q 19.53125 -1.421875 13.0625 8.265625 
Q 6.59375 17.96875 6.59375 36.375 
Q 6.59375 54.828125 13.0625 64.515625 
Q 19.53125 74.21875 31.78125 74.21875 
z
" id="DejaVuSans-48"/>
        <path d="M 12.40625 8.296875 
L 28.515625 8.296875 
L 28.515625 63.921875 
L 10.984375 60.40625 
L 10.984375 69.390625 
L 28.421875 72.90625 
L 38.28125 72.90625 
L 38.28125 8.296875 
L 54.390625 8.296875 
L 54.390625 0 
L 12.40625 0 
z
" id="DejaVuSans-49"/>
        <path d="M 31.78125 34.625 
Q 24.75 34.625 20.71875 30.859375 
Q 16.703125 27.09375 16.703125 20.515625 
Q 16.703125 13.921875 20.71875 10.15625 
Q 24.75 6.390625 31.78125 6.390625 
Q 38.8125 6.390625 42.859375 10.171875 
Q 46.921875 13.96875 46.921875 20.515625 
Q 46.921875 27.09375 42.890625 30.859375 
Q 38.875 34.625 31.78125 34.625 
z
M 21.921875 38.8125 
Q 15.578125 40.375 12.03125 44.71875 
Q 8.5 49.078125 8.5 55.328125 
Q 8.5 64.0625 14.71875 69.140625 
Q 20.953125 74.21875 31.78125 74.21875 
Q 42.671875 74.21875 48.875 69.140625 
Q 55.078125 64.0625 55.078125 55.328125 
Q 55.078125 49.078125 51.53125 44.71875 
Q 48 40.375 41.703125 38.8125 
Q 48.828125 37.15625 52.796875 32.3125 
Q 56.78125 27.484375 56.78125 20.515625 
Q 56.78125 9.90625 50.3125 4.234375 
Q 43.84375 -1.421875 31.78125 -1.421875 
Q 19.734375 -1.421875 13.25 4.234375 
Q 6.78125 9.90625 6.78125 20.515625 
Q 6.78125 27.484375 10.78125 32.3125 
Q 14.796875 37.15625 21.921875 38.8125 
z
M 18.3125 54.390625 
Q 18.3125 48.734375 21.84375 45.5625 
Q 25.390625 42.390625 31.78125 42.390625 
Q 38.140625 42.390625 41.71875 45.5625 
Q 45.3125 48.734375 45.3125 54.390625 
Q 45.3125 60.0625 41.71875 63.234375 
Q 38.140625 66.40625 31.78125 66.40625 
Q 25.390625 66.40625 21.84375 63.234375 
Q 18.3125 60.0625 18.3125 54.390625 
z
" id="DejaVuSans-56"/>
       </defs>
       <use xlink:href="#DejaVuSans-50"/>
       <use x="63.623047" xlink:href="#DejaVuSans-48"/>
       <use x="127.246094" xlink:href="#DejaVuSans-49"/>
       <use x="190.869141" xlink:href="#DejaVuSans-56"/>
      </g>
     </g>
    </g>
    <g id="xtick_3">
     <g id="line2d_3">
      <g>
       <use style="stroke:#000000;stroke-width:0.8;" x="132.216017" xlink:href="#m24c4d393c2" y="239.758125"/>
      </g>
     </g>
     <g id="text_2">
      <!-- Apr -->
      <g transform="translate(123.566017 254.356563)scale(0.1 -0.1)">
       <defs>
        <path d="M 34.1875 63.1875 
L 20.796875 26.90625 
L 47.609375 26.90625 
z
M 28.609375 72.90625 
L 39.796875 72.90625 
L 67.578125 0 
L 57.328125 0 
L 50.6875 18.703125 
L 17.828125 18.703125 
L 11.1875 0 
L 0.78125 0 
z
" id="DejaVuSans-65"/>
        <path d="M 18.109375 8.203125 
L 18.109375 -20.796875 
L 9.078125 -20.796875 
L 9.078125 54.6875 
L 18.109375 54.6875 
L 18.109375 46.390625 
Q 20.953125 51.265625 25.265625 53.625 
Q 29.59375 56 35.59375 56 
Q 45.5625 56 51.78125 48.09375 
Q 58.015625 40.1875 58.015625 27.296875 
Q 58.015625 14.40625 51.78125 6.484375 
Q 45.5625 -1.421875 35.59375 -1.421875 
Q 29.59375 -1.421875 25.265625 0.953125 
Q 20.953125 3.328125 18.109375 8.203125 
z
M 48.6875 27.296875 
Q 48.6875 37.203125 44.609375 42.84375 
Q 40.53125 48.484375 33.40625 48.484375 
Q 26.265625 48.484375 22.1875 42.84375 
Q 18.109375 37.203125 18.109375 27.296875 
Q 18.109375 17.390625 22.1875 11.75 
Q 26.265625 6.109375 33.40625 6.109375 
Q 40.53125 6.109375 44.609375 11.75 
Q 48.6875 17.390625 48.6875 27.296875 
z
" id="DejaVuSans-112"/>
        <path d="M 41.109375 46.296875 
Q 39.59375 47.171875 37.8125 47.578125 
Q 36.03125 48 33.890625 48 
Q 26.265625 48 22.1875 43.046875 
Q 18.109375 38.09375 18.109375 28.8125 
L 18.109375 0 
L 9.078125 0 
L 9.078125 54.6875 
L 18.109375 54.6875 
L 18.109375 46.1875 
Q 20.953125 51.171875 25.484375 53.578125 
Q 30.03125 56 36.53125 56 
Q 37.453125 56 38.578125 55.875 
Q 39.703125 55.765625 41.0625 55.515625 
z
" id="DejaVuSans-114"/>
       </defs>
       <use xlink:href="#DejaVuSans-65"/>
       <use x="68.408203" xlink:href="#DejaVuSans-112"/>
       <use x="131.884766" xlink:href="#DejaVuSans-114"/>
      </g>
     </g>
    </g>
    <g id="xtick_4">
     <g id="line2d_4">
      <g>
       <use style="stroke:#000000;stroke-width:0.8;" x="180.652901" xlink:href="#m24c4d393c2" y="239.758125"/>
      </g>
     </g>
     <g id="text_3">
      <!-- Jul -->
      <g transform="translate(174.620089 254.356563)scale(0.1 -0.1)">
       <defs>
        <path d="M 8.5 21.578125 
L 8.5 54.6875 
L 17.484375 54.6875 
L 17.484375 21.921875 
Q 17.484375 14.15625 20.5 10.265625 
Q 23.53125 6.390625 29.59375 6.390625 
Q 36.859375 6.390625 41.078125 11.03125 
Q 45.3125 15.671875 45.3125 23.6875 
L 45.3125 54.6875 
L 54.296875 54.6875 
L 54.296875 0 
L 45.3125 0 
L 45.3125 8.40625 
Q 42.046875 3.421875 37.71875 1 
Q 33.40625 -1.421875 27.6875 -1.421875 
Q 18.265625 -1.421875 13.375 4.4375 
Q 8.5 10.296875 8.5 21.578125 
z
M 31.109375 56 
z
" id="DejaVuSans-117"/>
        <path d="M 9.421875 75.984375 
L 18.40625 75.984375 
L 18.40625 0 
L 9.421875 0 
z
" id="DejaVuSans-108"/>
       </defs>
       <use xlink:href="#DejaVuSans-74"/>
       <use x="29.492188" xlink:href="#DejaVuSans-117"/>
       <use x="92.871094" xlink:href="#DejaVuSans-108"/>
      </g>
     </g>
    </g>
    <g id="xtick_5">
     <g id="line2d_5">
      <g>
       <use style="stroke:#000000;stroke-width:0.8;" x="229.622059" xlink:href="#m24c4d393c2" y="239.758125"/>
      </g>
     </g>
     <g id="text_4">
      <!-- Oct -->
      <g transform="translate(220.976746 254.356563)scale(0.1 -0.1)">
       <defs>
        <path d="M 39.40625 66.21875 
Q 28.65625 66.21875 22.328125 58.203125 
Q 16.015625 50.203125 16.015625 36.375 
Q 16.015625 22.609375 22.328125 14.59375 
Q 28.65625 6.59375 39.40625 6.59375 
Q 50.140625 6.59375 56.421875 14.59375 
Q 62.703125 22.609375 62.703125 36.375 
Q 62.703125 50.203125 56.421875 58.203125 
Q 50.140625 66.21875 39.40625 66.21875 
z
M 39.40625 74.21875 
Q 54.734375 74.21875 63.90625 63.9375 
Q 73.09375 53.65625 73.09375 36.375 
Q 73.09375 19.140625 63.90625 8.859375 
Q 54.734375 -1.421875 39.40625 -1.421875 
Q 24.03125 -1.421875 14.8125 8.828125 
Q 5.609375 19.09375 5.609375 36.375 
Q 5.609375 53.65625 14.8125 63.9375 
Q 24.03125 74.21875 39.40625 74.21875 
z
" id="DejaVuSans-79"/>
        <path d="M 48.78125 52.59375 
L 48.78125 44.1875 
Q 44.96875 46.296875 41.140625 47.34375 
Q 37.3125 48.390625 33.40625 48.390625 
Q 24.65625 48.390625 19.8125 42.84375 
Q 14.984375 37.3125 14.984375 27.296875 
Q 14.984375 17.28125 19.8125 11.734375 
Q 24.65625 6.203125 33.40625 6.203125 
Q 37.3125 6.203125 41.140625 7.25 
Q 44.96875 8.296875 48.78125 10.40625 
L 48.78125 2.09375 
Q 45.015625 0.34375 40.984375 -0.53125 
Q 36.96875 -1.421875 32.421875 -1.421875 
Q 20.0625 -1.421875 12.78125 6.34375 
Q 5.515625 14.109375 5.515625 27.296875 
Q 5.515625 40.671875 12.859375 48.328125 
Q 20.21875 56 33.015625 56 
Q 37.15625 56 41.109375 55.140625 
Q 45.0625 54.296875 48.78125 52.59375 
z
" id="DejaVuSans-99"/>
        <path d="M 18.3125 70.21875 
L 18.3125 54.6875 
L 36.8125 54.6875 
L 36.8125 47.703125 
L 18.3125 47.703125 
L 18.3125 18.015625 
Q 18.3125 11.328125 20.140625 9.421875 
Q 21.96875 7.515625 27.59375 7.515625 
L 36.8125 7.515625 
L 36.8125 0 
L 27.59375 0 
Q 17.1875 0 13.234375 3.875 
Q 9.28125 7.765625 9.28125 18.015625 
L 9.28125 47.703125 
L 2.6875 47.703125 
L 2.6875 54.6875 
L 9.28125 54.6875 
L 9.28125 70.21875 
z
" id="DejaVuSans-116"/>
       </defs>
       <use xlink:href="#DejaVuSans-79"/>
       <use x="78.710938" xlink:href="#DejaVuSans-99"/>
       <use x="133.691406" xlink:href="#DejaVuSans-116"/>
      </g>
     </g>
    </g>
    <g id="xtick_6">
     <g id="line2d_6">
      <g>
       <use style="stroke:#000000;stroke-width:0.8;" x="278.591216" xlink:href="#m24c4d393c2" y="239.758125"/>
      </g>
     </g>
     <g id="text_5">
      <!-- Jan -->
      <g transform="translate(270.883404 254.356563)scale(0.1 -0.1)">
       <use xlink:href="#DejaVuSans-74"/>
       <use x="29.492188" xlink:href="#DejaVuSans-97"/>
       <use x="90.771484" xlink:href="#DejaVuSans-110"/>
      </g>
      <!-- 2019 -->
      <g transform="translate(265.866216 265.554375)scale(0.1 -0.1)">
       <defs>
        <path d="M 10.984375 1.515625 
L 10.984375 10.5 
Q 14.703125 8.734375 18.5 7.8125 
Q 22.3125 6.890625 25.984375 6.890625 
Q 35.75 6.890625 40.890625 13.453125 
Q 46.046875 20.015625 46.78125 33.40625 
Q 43.953125 29.203125 39.59375 26.953125 
Q 35.25 24.703125 29.984375 24.703125 
Q 19.046875 24.703125 12.671875 31.3125 
Q 6.296875 37.9375 6.296875 49.421875 
Q 6.296875 60.640625 12.9375 67.421875 
Q 19.578125 74.21875 30.609375 74.21875 
Q 43.265625 74.21875 49.921875 64.515625 
Q 56.59375 54.828125 56.59375 36.375 
Q 56.59375 19.140625 48.40625 8.859375 
Q 40.234375 -1.421875 26.421875 -1.421875 
Q 22.703125 -1.421875 18.890625 -0.6875 
Q 15.09375 0.046875 10.984375 1.515625 
z
M 30.609375 32.421875 
Q 37.25 32.421875 41.125 36.953125 
Q 45.015625 41.5 45.015625 49.421875 
Q 45.015625 57.28125 41.125 61.84375 
Q 37.25 66.40625 30.609375 66.40625 
Q 23.96875 66.40625 20.09375 61.84375 
Q 16.21875 57.28125 16.21875 49.421875 
Q 16.21875 41.5 20.09375 36.953125 
Q 23.96875 32.421875 30.609375 32.421875 
z
" id="DejaVuSans-57"/>
       </defs>
       <use xlink:href="#DejaVuSans-50"/>
       <use x="63.623047" xlink:href="#DejaVuSans-48"/>
       <use x="127.246094" xlink:href="#DejaVuSans-49"/>
       <use x="190.869141" xlink:href="#DejaVuSans-57"/>
      </g>
     </g>
    </g>
    <g id="xtick_7">
     <g id="line2d_7">
      <g>
       <use style="stroke:#000000;stroke-width:0.8;" x="326.495827" xlink:href="#m24c4d393c2" y="239.758125"/>
      </g>
     </g>
     <g id="text_6">
      <!-- Apr -->
      <g transform="translate(317.845827 254.356563)scale(0.1 -0.1)">
       <use xlink:href="#DejaVuSans-65"/>
       <use x="68.408203" xlink:href="#DejaVuSans-112"/>
       <use x="131.884766" xlink:href="#DejaVuSans-114"/>
      </g>
     </g>
    </g>
    <g id="xtick_8">
     <g id="line2d_8">
      <g>
       <use style="stroke:#000000;stroke-width:0.8;" x="374.932711" xlink:href="#m24c4d393c2" y="239.758125"/>
      </g>
     </g>
     <g id="text_7">
      <!-- Jul -->
      <g transform="translate(368.899898 254.356563)scale(0.1 -0.1)">
       <use xlink:href="#DejaVuSans-74"/>
       <use x="29.492188" xlink:href="#DejaVuSans-117"/>
       <use x="92.871094" xlink:href="#DejaVuSans-108"/>
      </g>
     </g>
    </g>
    <g id="xtick_9">
     <g id="line2d_9">
      <g>
       <use style="stroke:#000000;stroke-width:0.8;" x="387.175" xlink:href="#m24c4d393c2" y="239.758125"/>
      </g>
     </g>
    </g>
    <g id="xtick_10">
     <g id="line2d_10">
      <defs>
       <path d="M 0 0 
L 0 2 
" id="m279626881d" style="stroke:#000000;stroke-width:0.6;"/>
      </defs>
      <g>
       <use style="stroke:#000000;stroke-width:0.6;" x="67.81093" xlink:href="#m279626881d" y="239.758125"/>
      </g>
     </g>
    </g>
    <g id="xtick_11">
     <g id="line2d_11">
      <g>
       <use style="stroke:#000000;stroke-width:0.6;" x="100.811884" xlink:href="#m279626881d" y="239.758125"/>
      </g>
     </g>
    </g>
    <g id="xtick_12">
     <g id="line2d_12">
      <g>
       <use style="stroke:#000000;stroke-width:0.6;" x="115.715541" xlink:href="#m279626881d" y="239.758125"/>
      </g>
     </g>
    </g>
    <g id="xtick_13">
     <g id="line2d_13">
      <g>
       <use style="stroke:#000000;stroke-width:0.6;" x="148.184221" xlink:href="#m279626881d" y="239.758125"/>
      </g>
     </g>
    </g>
    <g id="xtick_14">
     <g id="line2d_14">
      <g>
       <use style="stroke:#000000;stroke-width:0.6;" x="164.684698" xlink:href="#m279626881d" y="239.758125"/>
      </g>
     </g>
    </g>
    <g id="xtick_15">
     <g id="line2d_15">
      <g>
       <use style="stroke:#000000;stroke-width:0.6;" x="197.153378" xlink:href="#m279626881d" y="239.758125"/>
      </g>
     </g>
    </g>
    <g id="xtick_16">
     <g id="line2d_16">
      <g>
       <use style="stroke:#000000;stroke-width:0.6;" x="213.653855" xlink:href="#m279626881d" y="239.758125"/>
      </g>
     </g>
    </g>
    <g id="xtick_17">
     <g id="line2d_17">
      <g>
       <use style="stroke:#000000;stroke-width:0.6;" x="246.122536" xlink:href="#m279626881d" y="239.758125"/>
      </g>
     </g>
    </g>
    <g id="xtick_18">
     <g id="line2d_18">
      <g>
       <use style="stroke:#000000;stroke-width:0.6;" x="262.090739" xlink:href="#m279626881d" y="239.758125"/>
      </g>
     </g>
    </g>
    <g id="xtick_19">
     <g id="line2d_19">
      <g>
       <use style="stroke:#000000;stroke-width:0.6;" x="295.091693" xlink:href="#m279626881d" y="239.758125"/>
      </g>
     </g>
    </g>
    <g id="xtick_20">
     <g id="line2d_20">
      <g>
       <use style="stroke:#000000;stroke-width:0.6;" x="309.99535" xlink:href="#m279626881d" y="239.758125"/>
      </g>
     </g>
    </g>
    <g id="xtick_21">
     <g id="line2d_21">
      <g>
       <use style="stroke:#000000;stroke-width:0.6;" x="342.46403" xlink:href="#m279626881d" y="239.758125"/>
      </g>
     </g>
    </g>
    <g id="xtick_22">
     <g id="line2d_22">
      <g>
       <use style="stroke:#000000;stroke-width:0.6;" x="358.964507" xlink:href="#m279626881d" y="239.758125"/>
      </g>
     </g>
    </g>
   </g>
   <g id="matplotlib.axis_2">
    <g id="ytick_1">
     <g id="line2d_23">
      <defs>
       <path d="M 0 0 
L -3.5 0 
" id="me32f688425" style="stroke:#000000;stroke-width:0.8;"/>
      </defs>
      <g>
       <use style="stroke:#000000;stroke-width:0.8;" x="52.375" xlink:href="#me32f688425" y="214.990221"/>
      </g>
     </g>
     <g id="text_8">
      <!-- 0 -->
      <g transform="translate(39.0125 218.78944)scale(0.1 -0.1)">
       <use xlink:href="#DejaVuSans-48"/>
      </g>
     </g>
    </g>
    <g id="ytick_2">
     <g id="line2d_24">
      <g>
       <use style="stroke:#000000;stroke-width:0.8;" x="52.375" xlink:href="#me32f688425" y="188.036572"/>
      </g>
     </g>
     <g id="text_9">
      <!-- 25000 -->
      <g transform="translate(13.5625 191.83579)scale(0.1 -0.1)">
       <defs>
        <path d="M 10.796875 72.90625 
L 49.515625 72.90625 
L 49.515625 64.59375 
L 19.828125 64.59375 
L 19.828125 46.734375 
Q 21.96875 47.46875 24.109375 47.828125 
Q 26.265625 48.1875 28.421875 48.1875 
Q 40.625 48.1875 47.75 41.5 
Q 54.890625 34.8125 54.890625 23.390625 
Q 54.890625 11.625 47.5625 5.09375 
Q 40.234375 -1.421875 26.90625 -1.421875 
Q 22.3125 -1.421875 17.546875 -0.640625 
Q 12.796875 0.140625 7.71875 1.703125 
L 7.71875 11.625 
Q 12.109375 9.234375 16.796875 8.0625 
Q 21.484375 6.890625 26.703125 6.890625 
Q 35.15625 6.890625 40.078125 11.328125 
Q 45.015625 15.765625 45.015625 23.390625 
Q 45.015625 31 40.078125 35.4375 
Q 35.15625 39.890625 26.703125 39.890625 
Q 22.75 39.890625 18.8125 39.015625 
Q 14.890625 38.140625 10.796875 36.28125 
z
" id="DejaVuSans-53"/>
       </defs>
       <use xlink:href="#DejaVuSans-50"/>
       <use x="63.623047" xlink:href="#DejaVuSans-53"/>
       <use x="127.246094" xlink:href="#DejaVuSans-48"/>
       <use x="190.869141" xlink:href="#DejaVuSans-48"/>
       <use x="254.492188" xlink:href="#DejaVuSans-48"/>
      </g>
     </g>
    </g>
    <g id="ytick_3">
     <g id="line2d_25">
      <g>
       <use style="stroke:#000000;stroke-width:0.8;" x="52.375" xlink:href="#me32f688425" y="161.082922"/>
      </g>
     </g>
     <g id="text_10">
      <!-- 50000 -->
      <g transform="translate(13.5625 164.882141)scale(0.1 -0.1)">
       <use xlink:href="#DejaVuSans-53"/>
       <use x="63.623047" xlink:href="#DejaVuSans-48"/>
       <use x="127.246094" xlink:href="#DejaVuSans-48"/>
       <use x="190.869141" xlink:href="#DejaVuSans-48"/>
       <use x="254.492188" xlink:href="#DejaVuSans-48"/>
      </g>
     </g>
    </g>
    <g id="ytick_4">
     <g id="line2d_26">
      <g>
       <use style="stroke:#000000;stroke-width:0.8;" x="52.375" xlink:href="#me32f688425" y="134.129273"/>
      </g>
     </g>
     <g id="text_11">
      <!-- 75000 -->
      <g transform="translate(13.5625 137.928491)scale(0.1 -0.1)">
       <defs>
        <path d="M 8.203125 72.90625 
L 55.078125 72.90625 
L 55.078125 68.703125 
L 28.609375 0 
L 18.3125 0 
L 43.21875 64.59375 
L 8.203125 64.59375 
z
" id="DejaVuSans-55"/>
       </defs>
       <use xlink:href="#DejaVuSans-55"/>
       <use x="63.623047" xlink:href="#DejaVuSans-53"/>
       <use x="127.246094" xlink:href="#DejaVuSans-48"/>
       <use x="190.869141" xlink:href="#DejaVuSans-48"/>
       <use x="254.492188" xlink:href="#DejaVuSans-48"/>
      </g>
     </g>
    </g>
    <g id="ytick_5">
     <g id="line2d_27">
      <g>
       <use style="stroke:#000000;stroke-width:0.8;" x="52.375" xlink:href="#me32f688425" y="107.175623"/>
      </g>
     </g>
     <g id="text_12">
      <!-- 100000 -->
      <g transform="translate(7.2 110.974842)scale(0.1 -0.1)">
       <use xlink:href="#DejaVuSans-49"/>
       <use x="63.623047" xlink:href="#DejaVuSans-48"/>
       <use x="127.246094" xlink:href="#DejaVuSans-48"/>
       <use x="190.869141" xlink:href="#DejaVuSans-48"/>
       <use x="254.492188" xlink:href="#DejaVuSans-48"/>
       <use x="318.115234" xlink:href="#DejaVuSans-48"/>
      </g>
     </g>
    </g>
    <g id="ytick_6">
     <g id="line2d_28">
      <g>
       <use style="stroke:#000000;stroke-width:0.8;" x="52.375" xlink:href="#me32f688425" y="80.221974"/>
      </g>
     </g>
     <g id="text_13">
      <!-- 125000 -->
      <g transform="translate(7.2 84.021192)scale(0.1 -0.1)">
       <use xlink:href="#DejaVuSans-49"/>
       <use x="63.623047" xlink:href="#DejaVuSans-50"/>
       <use x="127.246094" xlink:href="#DejaVuSans-53"/>
       <use x="190.869141" xlink:href="#DejaVuSans-48"/>
       <use x="254.492188" xlink:href="#DejaVuSans-48"/>
       <use x="318.115234" xlink:href="#DejaVuSans-48"/>
      </g>
     </g>
    </g>
    <g id="ytick_7">
     <g id="line2d_29">
      <g>
       <use style="stroke:#000000;stroke-width:0.8;" x="52.375" xlink:href="#me32f688425" y="53.268324"/>
      </g>
     </g>
     <g id="text_14">
      <!-- 150000 -->
      <g transform="translate(7.2 57.067543)scale(0.1 -0.1)">
       <use xlink:href="#DejaVuSans-49"/>
       <use x="63.623047" xlink:href="#DejaVuSans-53"/>
       <use x="127.246094" xlink:href="#DejaVuSans-48"/>
       <use x="190.869141" xlink:href="#DejaVuSans-48"/>
       <use x="254.492188" xlink:href="#DejaVuSans-48"/>
       <use x="318.115234" xlink:href="#DejaVuSans-48"/>
      </g>
     </g>
    </g>
    <g id="ytick_8">
     <g id="line2d_30">
      <g>
       <use style="stroke:#000000;stroke-width:0.8;" x="52.375" xlink:href="#me32f688425" y="26.314675"/>
      </g>
     </g>
     <g id="text_15">
      <!-- 175000 -->
      <g transform="translate(7.2 30.113893)scale(0.1 -0.1)">
       <use xlink:href="#DejaVuSans-49"/>
       <use x="63.623047" xlink:href="#DejaVuSans-55"/>
       <use x="127.246094" xlink:href="#DejaVuSans-53"/>
       <use x="190.869141" xlink:href="#DejaVuSans-48"/>
       <use x="254.492188" xlink:href="#DejaVuSans-48"/>
       <use x="318.115234" xlink:href="#DejaVuSans-48"/>
      </g>
     </g>
    </g>
   </g>
   <g id="line2d_31">
    <path clip-path="url(#pc6b1b9d8dd)" d="M 52.375 209.800661 
L 52.907273 210.373413 
L 53.97182 210.981663 
L 55.036367 211.262701 
L 56.633188 211.442748 
L 59.826828 211.534169 
L 66.21411 211.549336 
L 66.746383 209.826013 
L 67.278657 208.581303 
L 67.81093 207.713357 
L 68.343203 207.572968 
L 68.875477 208.496066 
L 69.40775 208.522448 
L 69.940024 207.768135 
L 70.472297 207.647913 
L 71.536844 207.080715 
L 72.069118 207.671115 
L 72.601391 208.731313 
L 73.133665 208.908918 
L 73.665938 207.152568 
L 74.198211 207.119326 
L 74.730485 206.304711 
L 75.262758 206.959342 
L 75.795032 206.973553 
L 76.327305 208.224428 
L 76.859579 208.898309 
L 77.391852 209.279087 
L 77.924126 208.179782 
L 79.520946 210.148406 
L 80.585493 210.809772 
L 81.65004 211.158988 
L 83.24686 211.399771 
L 84.311407 211.470521 
L 85.375954 210.928058 
L 85.908227 210.972642 
L 86.440501 210.770014 
L 86.972774 210.737402 
L 87.505048 210.959434 
L 88.037321 210.865196 
L 88.569595 209.393674 
L 89.101868 209.524279 
L 89.634141 209.082591 
L 90.166415 208.203109 
L 91.230962 209.622382 
L 91.763235 209.703034 
L 92.295509 209.081477 
L 92.827782 208.843005 
L 93.360056 208.969143 
L 93.892329 209.233061 
L 94.424603 209.190576 
L 94.956876 209.835431 
L 95.489149 209.795579 
L 96.021423 209.398797 
L 96.553696 208.386545 
L 97.08597 208.461986 
L 97.618243 208.841325 
L 98.150517 206.475402 
L 98.68279 207.862446 
L 99.215064 208.421019 
L 99.747337 208.590174 
L 100.27961 209.015319 
L 100.811884 208.971954 
L 101.876431 209.208969 
L 102.408704 209.848797 
L 102.940978 210.046416 
L 103.473251 209.854922 
L 104.005525 209.95279 
L 104.537798 209.872423 
L 105.602345 210.067716 
L 106.134618 210.472806 
L 106.666892 210.321094 
L 107.199165 210.386438 
L 107.731439 209.688144 
L 108.263712 209.811345 
L 108.795986 209.77978 
L 109.328259 209.23345 
L 109.860533 209.866586 
L 110.925079 209.908787 
L 111.989626 209.714149 
L 112.5219 209.555597 
L 113.054173 209.130739 
L 113.586447 209.791951 
L 114.650994 209.706258 
L 115.183267 209.398134 
L 115.715541 209.268888 
L 116.247814 208.981649 
L 116.780087 209.090047 
L 117.312361 209.762381 
L 117.844634 209.487325 
L 118.376908 208.838592 
L 119.441455 208.758587 
L 119.973728 208.827117 
L 120.506002 209.139146 
L 121.038275 209.798059 
L 121.570548 210.047986 
L 122.102822 209.539504 
L 122.635095 209.439445 
L 123.167369 209.491808 
L 123.699642 209.298245 
L 124.231916 208.118057 
L 124.764189 209.056084 
L 125.296463 209.231431 
L 125.828736 209.04846 
L 126.36101 202.948079 
L 126.893283 204.415943 
L 127.425556 203.990092 
L 128.490103 207.158786 
L 129.022377 207.74119 
L 129.55465 207.668514 
L 130.086924 207.809472 
L 130.619197 207.81544 
L 131.151471 208.035033 
L 131.683744 208.995754 
L 132.216017 209.693864 
L 133.280564 210.569764 
L 134.345111 210.065707 
L 134.877385 209.542809 
L 135.409658 209.685942 
L 135.941932 210.19539 
L 138.071025 210.072413 
L 138.603299 207.337641 
L 139.667846 209.116259 
L 140.200119 209.163085 
L 140.732393 207.841179 
L 141.264666 207.093975 
L 141.79694 207.795614 
L 142.329213 206.66425 
L 142.861486 207.252527 
L 143.39376 208.427145 
L 143.926033 208.748066 
L 144.458307 208.502671 
L 145.522854 208.73053 
L 146.055127 208.469638 
L 146.587401 208.542793 
L 147.119674 209.364718 
L 147.651948 209.642976 
L 148.184221 210.164169 
L 149.248768 209.313421 
L 149.781041 209.147912 
L 150.313315 209.276886 
L 150.845588 209.898148 
L 151.377862 209.757807 
L 151.910135 209.236489 
L 152.442409 209.10818 
L 152.974682 209.220288 
L 153.506955 209.187354 
L 154.039229 209.336856 
L 154.571502 209.941726 
L 157.765143 209.146442 
L 158.297417 209.803361 
L 159.894237 209.484466 
L 160.42651 209.060964 
L 160.958784 208.930713 
L 161.491057 208.931651 
L 162.023331 209.647283 
L 162.555604 209.858455 
L 163.087878 210.320747 
L 163.620151 210.12355 
L 164.152424 210.050614 
L 165.216971 209.158993 
L 165.749245 209.812481 
L 166.281518 209.392044 
L 166.813792 208.801372 
L 167.346065 207.932074 
L 168.410612 208.66106 
L 168.942886 207.569127 
L 169.475159 208.657203 
L 170.539706 208.942148 
L 171.071979 208.725419 
L 171.604253 208.723284 
L 172.136526 200.002517 
L 173.201073 205.088041 
L 173.733347 206.65876 
L 175.330167 208.431486 
L 175.86244 208.082863 
L 176.394714 208.333786 
L 176.926987 209.212844 
L 177.459261 209.313151 
L 179.588355 208.936372 
L 180.120628 209.337095 
L 180.652901 209.9419 
L 181.185175 210.084799 
L 181.717448 209.716218 
L 182.249722 209.676554 
L 182.781995 208.943738 
L 183.846542 209.34269 
L 184.378816 209.945965 
L 184.911089 210.119557 
L 185.443362 209.840688 
L 186.507909 209.603286 
L 187.040183 208.807263 
L 187.572456 209.028134 
L 188.10473 209.717392 
L 188.637003 209.85348 
L 189.169277 209.676136 
L 189.70155 209.667426 
L 190.233824 209.462012 
L 190.766097 209.089936 
L 191.29837 209.350786 
L 191.830644 209.951848 
L 192.362917 209.889572 
L 192.895191 209.615836 
L 193.427464 209.74733 
L 193.959738 209.731294 
L 194.492011 208.791077 
L 195.024285 209.161265 
L 195.556558 209.814132 
L 196.088831 209.9337 
L 197.153378 209.062542 
L 197.685652 208.95289 
L 198.750199 209.629408 
L 199.282472 210.154309 
L 200.347019 210.275815 
L 200.879293 209.675737 
L 201.411566 209.488337 
L 201.943839 208.988463 
L 202.476113 208.945087 
L 203.008386 209.657047 
L 204.072933 209.823857 
L 204.605207 209.913293 
L 205.669754 209.550903 
L 206.202027 209.605274 
L 206.7343 210.136772 
L 207.798847 210.03652 
L 208.331121 209.99847 
L 209.395668 209.282723 
L 209.927941 206.477594 
L 210.460215 207.864039 
L 211.524762 209.386484 
L 212.057035 209.170351 
L 212.589308 209.379182 
L 213.653855 209.473147 
L 214.186129 210.040762 
L 214.718402 210.191963 
L 215.250676 209.824538 
L 216.315223 209.858927 
L 216.847496 209.482347 
L 217.379769 209.57598 
L 217.912043 210.115486 
L 218.444316 210.035198 
L 218.97659 209.460953 
L 220.041137 209.620603 
L 220.57341 206.207032 
L 221.105684 207.1132 
L 221.637957 208.325903 
L 222.170231 208.558421 
L 222.702504 208.286435 
L 223.234777 208.284435 
L 224.299324 208.596259 
L 224.831598 208.214804 
L 225.363871 209.126385 
L 225.896145 209.244069 
L 226.428418 204.826635 
L 226.960692 205.373592 
L 227.492965 206.279266 
L 228.025238 205.902514 
L 228.557512 206.601419 
L 229.089785 207.954017 
L 230.154332 208.144884 
L 230.686606 200.976333 
L 231.218879 203.372272 
L 231.751153 203.822354 
L 232.283426 205.039556 
L 232.8157 206.819087 
L 233.347973 207.463414 
L 233.880246 207.677326 
L 234.41252 207.717376 
L 234.944793 206.866329 
L 235.477067 207.349108 
L 236.00934 204.816698 
L 236.541614 206.657146 
L 237.073887 207.043018 
L 237.606161 206.899379 
L 238.138434 207.108001 
L 238.670707 207.133009 
L 239.202981 207.409918 
L 239.735254 207.371871 
L 240.267528 208.513867 
L 240.799801 208.475715 
L 241.332075 208.596287 
L 241.864348 208.514276 
L 242.396622 208.660952 
L 243.461169 208.591904 
L 243.993442 209.400406 
L 244.525715 209.042065 
L 245.057989 208.520475 
L 245.590262 208.368976 
L 246.122536 208.392433 
L 246.654809 207.537695 
L 247.187083 207.828676 
L 247.719356 208.845804 
L 248.25163 208.623599 
L 248.783903 206.464708 
L 250.912997 206.098261 
L 251.44527 207.588396 
L 251.977544 207.616403 
L 252.509817 206.995028 
L 254.106638 206.772159 
L 254.638911 207.012603 
L 255.171184 208.252804 
L 255.703458 208.080786 
L 257.300278 206.419424 
L 257.832552 206.330234 
L 258.364825 206.600294 
L 258.897099 207.953199 
L 259.429372 207.955676 
L 259.961645 206.938099 
L 260.493919 207.268898 
L 261.026192 205.213599 
L 261.558466 205.193093 
L 262.090739 204.254133 
L 262.623013 206.248358 
L 263.155286 205.853235 
L 263.68756 202.905463 
L 264.219833 183.268152 
L 264.752107 188.522854 
L 265.28438 191.292161 
L 266.8812 202.431563 
L 267.413474 203.333881 
L 268.478021 205.849699 
L 269.010294 206.654028 
L 269.542568 205.808772 
L 270.074841 207.378038 
L 270.607114 208.329647 
L 271.139388 208.230742 
L 271.671661 207.601382 
L 272.203935 208.432964 
L 272.736208 208.821549 
L 273.268482 209.567277 
L 274.333029 210.502923 
L 275.397576 210.996965 
L 276.994396 211.337605 
L 278.591216 211.468304 
L 279.12349 210.941835 
L 279.655763 206.075552 
L 280.72031 207.42691 
L 281.252583 208.553861 
L 281.784857 208.948972 
L 282.31713 208.734757 
L 282.849404 208.869103 
L 283.381677 208.700822 
L 284.446224 208.76827 
L 284.978498 209.528562 
L 285.510771 209.840381 
L 286.043045 209.100459 
L 286.575318 208.974165 
L 287.107591 209.140687 
L 287.639865 208.787833 
L 288.172138 208.713747 
L 288.704412 209.488943 
L 289.236685 209.721138 
L 290.301232 209.25543 
L 291.365779 209.290249 
L 291.898052 209.458142 
L 292.430326 210.029859 
L 292.962599 210.144021 
L 293.494873 209.816494 
L 294.55942 209.416716 
L 295.091693 209.59075 
L 295.623967 209.379074 
L 296.15624 209.972404 
L 296.688514 210.299808 
L 297.75306 209.778028 
L 299.349881 209.595271 
L 299.882154 210.129503 
L 300.414428 210.276426 
L 300.946701 210.136064 
L 301.478975 209.647892 
L 302.011248 209.708147 
L 302.543521 209.255563 
L 303.075795 209.521219 
L 303.608068 210.075693 
L 304.140342 210.125477 
L 304.672615 208.441947 
L 305.204889 208.577405 
L 305.737162 208.481403 
L 306.269436 208.698029 
L 306.801709 209.059156 
L 307.333983 209.739934 
L 307.866256 209.924308 
L 308.398529 209.383869 
L 308.930803 209.420346 
L 309.463076 209.572251 
L 309.99535 209.461718 
L 310.527623 209.686134 
L 311.059897 210.195529 
L 311.59217 210.196497 
L 312.124444 209.212636 
L 313.18899 209.27281 
L 314.253537 209.606002 
L 314.785811 210.137301 
L 315.318084 210.351977 
L 315.850358 210.276428 
L 316.382631 209.913796 
L 316.914905 210.012872 
L 317.447178 209.389999 
L 317.979452 207.828821 
L 318.511725 208.84591 
L 319.043998 208.970492 
L 319.576272 209.319997 
L 320.108545 208.664685 
L 321.173092 209.075261 
L 321.705366 209.118365 
L 322.237639 209.782959 
L 322.769913 209.995029 
L 323.302186 209.247442 
L 323.834459 208.747935 
L 324.366733 208.886244 
L 324.899006 208.489035 
L 325.43128 208.807413 
L 325.963553 209.557006 
L 326.495827 209.869658 
L 327.0281 209.527976 
L 328.092647 209.679669 
L 328.624921 209.641635 
L 329.157194 209.052334 
L 329.689467 209.734977 
L 330.754014 209.909913 
L 332.350835 209.803716 
L 332.883108 209.202536 
L 333.415382 209.844122 
L 333.947655 209.984008 
L 334.479928 208.876183 
L 335.012202 208.747722 
L 335.544475 209.111754 
L 336.076749 208.638525 
L 336.609022 209.434283 
L 337.673569 210.432699 
L 338.205843 210.738022 
L 338.738116 209.898556 
L 339.802663 209.72012 
L 340.86721 210.583627 
L 341.399483 210.689623 
L 341.931757 210.924716 
L 342.46403 207.448844 
L 342.996304 208.1305 
L 343.528577 208.320237 
L 344.060851 208.300795 
L 344.593124 209.18887 
L 345.125397 209.313966 
L 345.657671 208.828779 
L 346.189944 207.622969 
L 346.722218 207.991398 
L 347.786765 208.54734 
L 348.319038 209.368023 
L 348.851312 209.690776 
L 349.383585 207.572901 
L 349.915859 207.517674 
L 350.448132 207.989535 
L 350.980405 208.092413 
L 351.512679 208.567716 
L 352.044952 209.382829 
L 352.577226 209.440499 
L 353.109499 209.282308 
L 353.641773 208.971541 
L 354.70632 209.326805 
L 355.238593 209.298371 
L 355.770866 209.913761 
L 356.30314 210.153571 
L 356.835413 210.535193 
L 357.89996 209.870024 
L 358.432234 209.473865 
L 358.964507 209.665676 
L 359.496781 210.180663 
L 360.561328 209.901989 
L 361.093601 209.508148 
L 361.625874 208.751064 
L 362.158148 208.651583 
L 362.690421 203.716421 
L 363.222695 205.857628 
L 363.754968 207.026165 
L 364.287242 207.601381 
L 365.884062 208.329709 
L 366.948609 209.628803 
L 367.480882 209.752439 
L 368.013156 209.239077 
L 368.545429 209.113392 
L 369.077703 209.460513 
L 369.609976 209.257116 
L 370.14225 208.104493 
L 370.674523 209.046228 
L 371.206797 209.411271 
L 372.803617 209.354135 
L 373.33589 209.288848 
L 373.868164 209.505064 
L 374.400437 210.063955 
L 374.932711 210.237279 
L 376.529531 209.690239 
L 378.658625 209.279051 
L 381.319992 209.033073 
L 385.57818 208.893319 
L 387.175 208.873558 
L 387.175 208.873558 
" style="fill:none;stroke:#1f77b4;stroke-linecap:square;stroke-width:1.5;"/>
   </g>
   <g id="line2d_32">
    <path clip-path="url(#pc6b1b9d8dd)" d="M 52.375 214.990221 
L 65.681836 214.990221 
L 66.21411 200.671235 
L 66.746383 200.733929 
L 67.278657 201.037395 
L 67.81093 205.111094 
L 68.343203 213.628221 
L 69.40775 201.847848 
L 69.940024 205.403056 
L 70.472297 203.252457 
L 71.004571 203.506479 
L 72.069118 214.990221 
L 72.601391 210.065035 
L 73.133665 194.400145 
L 73.665938 204.727705 
L 74.198211 198.160179 
L 74.730485 208.517313 
L 75.262758 204.683124 
L 75.795032 214.990221 
L 76.327305 213.037149 
L 76.859579 212.132369 
L 77.391852 200.699892 
L 77.924126 213.286438 
L 78.456399 214.990221 
L 83.779134 214.990221 
L 84.311407 212.90265 
L 84.84368 211.689725 
L 85.375954 213.948894 
L 85.908227 211.996188 
L 86.440501 212.948568 
L 86.972774 214.990221 
L 87.505048 212.866748 
L 88.037321 201.209564 
L 88.569595 211.178835 
L 89.634141 202.080027 
L 90.166415 213.15816 
L 90.698688 214.990221 
L 91.230962 211.283221 
L 91.763235 205.632097 
L 92.295509 207.403328 
L 92.827782 209.891087 
L 93.360056 211.322304 
L 93.892329 209.375948 
L 94.424603 214.990221 
L 94.956876 210.765873 
L 95.489149 207.709814 
L 96.021423 201.695053 
L 96.553696 208.433196 
L 97.08597 211.129467 
L 97.618243 189.182004 
L 98.150517 214.990221 
L 98.68279 211.257011 
L 99.215064 209.290116 
L 99.747337 211.801173 
L 100.27961 208.874124 
L 100.811884 209.981457 
L 101.344157 210.490762 
L 101.876431 214.990221 
L 102.408704 212.769262 
L 102.940978 209.985122 
L 103.473251 211.954388 
L 104.005525 210.695793 
L 104.537798 212.315546 
L 105.070072 211.979164 
L 105.602345 214.990221 
L 106.134618 211.28404 
L 106.666892 212.742889 
L 107.199165 206.546613 
L 107.731439 211.78609 
L 108.263712 210.780029 
L 108.795986 206.431413 
L 109.328259 214.990221 
L 109.860533 211.570988 
L 110.925079 210.845893 
L 111.457353 209.949952 
L 111.989626 209.504215 
L 112.5219 206.931521 
L 113.054173 214.990221 
L 113.586447 210.893169 
L 114.11872 210.362603 
L 114.650994 208.243572 
L 115.183267 209.029993 
L 115.715541 207.423782 
L 116.247814 210.058566 
L 116.780087 214.990221 
L 117.312361 208.645774 
L 117.844634 204.916402 
L 118.376908 208.327354 
L 118.909181 208.535792 
L 119.441455 209.220728 
L 119.973728 211.399478 
L 120.506002 214.990221 
L 121.038275 213.08862 
L 121.570548 207.355006 
L 122.102822 209.593561 
L 122.635095 210.632711 
L 123.167369 208.70836 
L 123.699642 200.071387 
L 124.231916 214.990221 
L 124.764189 210.783867 
L 125.296463 208.205017 
L 125.828736 158.624706 
L 126.36101 207.650764 
L 126.893283 195.250522 
L 127.425556 210.425125 
L 127.95783 214.990221 
L 129.022377 205.736893 
L 129.55465 207.346813 
L 130.086924 206.545384 
L 130.619197 208.333845 
L 131.151471 214.990221 
L 132.748291 214.990221 
L 133.280564 210.876145 
L 133.812838 209.949134 
L 134.345111 207.275472 
L 134.877385 211.621629 
L 135.409658 214.990221 
L 135.941932 211.764009 
L 136.474205 212.113555 
L 137.006479 210.676322 
L 137.538752 211.745088 
L 138.071025 188.913363 
L 138.603299 212.596338 
L 139.135572 214.990221 
L 139.667846 209.852715 
L 140.200119 198.586963 
L 140.732393 200.359672 
L 141.264666 210.700386 
L 141.79694 197.064395 
L 142.329213 208.782569 
L 142.861486 214.990221 
L 143.926033 206.588596 
L 144.458307 209.144729 
L 144.99058 209.182443 
L 145.522854 206.420005 
L 146.055127 208.602918 
L 146.587401 214.990221 
L 147.119674 212.339847 
L 147.651948 214.990221 
L 148.184221 207.919104 
L 148.716494 207.626883 
L 149.248768 208.53631 
L 149.781041 210.607126 
L 150.313315 214.990221 
L 150.845588 210.073401 
L 151.377862 206.589318 
L 152.442409 210.376759 
L 152.974682 209.426298 
L 153.506955 210.867262 
L 154.039229 214.990221 
L 154.571502 210.126295 
L 155.103776 209.83305 
L 155.636049 208.795334 
L 156.168323 210.305752 
L 156.700596 208.228445 
L 157.23287 209.17689 
L 157.765143 214.990221 
L 158.297417 210.451183 
L 158.82969 209.37942 
L 159.361963 209.872295 
L 159.894237 206.781239 
L 160.42651 208.255895 
L 160.958784 209.050057 
L 161.491057 214.990221 
L 162.023331 212.424201 
L 162.555604 214.990221 
L 163.087878 210.560788 
L 163.620151 211.145348 
L 164.152424 207.569191 
L 164.684698 207.096252 
L 165.216971 214.990221 
L 165.749245 207.551661 
L 166.281518 205.182413 
L 166.813792 201.525957 
L 167.346065 210.167879 
L 167.878339 210.365029 
L 168.410612 199.357536 
L 168.942886 214.990221 
L 169.475159 210.002793 
L 170.007432 209.63921 
L 170.539706 207.267548 
L 171.071979 208.558283 
L 171.604253 136.114732 
L 172.136526 210.822842 
L 172.6688 214.990221 
L 173.201073 213.365423 
L 173.733347 208.768435 
L 174.26562 211.005361 
L 174.797893 210.85524 
L 175.330167 205.011937 
L 175.86244 209.201494 
L 176.394714 214.990221 
L 176.926987 210.516422 
L 177.459261 208.999406 
L 177.991534 209.190745 
L 178.523808 208.117278 
L 179.056081 208.813566 
L 179.588355 212.384526 
L 180.120628 214.990221 
L 180.652901 212.526065 
L 181.185175 208.600977 
L 181.717448 210.496692 
L 182.249722 204.647556 
L 182.781995 210.727685 
L 183.314269 211.18332 
L 183.846542 214.990221 
L 184.378816 212.790307 
L 184.911089 209.425284 
L 185.443362 210.322884 
L 185.975636 209.707651 
L 186.507909 203.956001 
L 187.040183 210.597003 
L 187.572456 214.990221 
L 188.10473 211.959585 
L 188.637003 209.664514 
L 189.169277 210.662845 
L 190.233824 207.157512 
L 190.766097 211.571151 
L 191.29837 214.990221 
L 191.830644 210.843963 
L 192.362917 208.945606 
L 192.895191 211.690782 
L 193.427464 210.763662 
L 193.959738 203.048687 
L 194.492011 211.800839 
L 195.024285 214.990221 
L 195.556558 212.042042 
L 196.088831 208.071284 
L 196.621105 206.44296 
L 197.153378 208.430619 
L 197.685652 211.387801 
L 198.750199 214.990221 
L 199.282472 212.284377 
L 199.814746 212.494151 
L 200.347019 207.1114 
L 200.879293 209.177289 
L 201.411566 206.155494 
L 201.943839 208.813038 
L 202.476113 214.990221 
L 203.008386 211.839081 
L 203.54066 211.24416 
L 204.072933 211.813777 
L 204.605207 209.536064 
L 205.13748 209.525649 
L 205.669754 210.902528 
L 206.202027 214.990221 
L 206.7343 210.945761 
L 207.266574 211.555615 
L 207.798847 211.23754 
L 208.331121 208.535296 
L 208.863394 207.651001 
L 209.395668 186.535329 
L 209.927941 214.990221 
L 210.460215 212.508016 
L 210.992488 214.990221 
L 211.524762 208.28163 
L 212.057035 211.321581 
L 212.589308 210.056604 
L 213.121582 210.844545 
L 213.653855 214.990221 
L 214.186129 212.819568 
L 214.718402 208.853964 
L 215.250676 210.980974 
L 215.782949 211.424286 
L 216.315223 208.021538 
L 216.847496 211.073036 
L 217.379769 214.990221 
L 218.444316 206.779568 
L 218.97659 211.020218 
L 219.508863 211.01073 
L 220.041137 182.247455 
L 220.57341 210.385363 
L 221.105684 214.990221 
L 221.637957 209.600548 
L 222.170231 205.936954 
L 223.234777 209.202151 
L 223.767051 208.982544 
L 224.299324 205.113369 
L 224.831598 214.990221 
L 225.363871 210.464434 
L 225.896145 173.051712 
L 226.428418 204.265828 
L 226.960692 208.488419 
L 227.492965 199.890291 
L 228.557512 214.990221 
L 229.089785 207.927998 
L 229.622059 207.607735 
L 230.154332 147.697697 
L 230.686606 210.883606 
L 231.218879 200.157908 
L 232.283426 214.990221 
L 232.8157 209.599912 
L 233.347973 207.487145 
L 233.880246 206.528436 
L 234.41252 199.215727 
L 234.944793 208.364982 
L 235.477067 184.409742 
L 236.00934 214.990221 
L 236.541614 207.084748 
L 237.073887 203.561669 
L 237.606161 206.162211 
L 238.138434 205.110458 
L 238.670707 207.260173 
L 239.202981 205.272255 
L 239.735254 214.990221 
L 240.267528 207.778578 
L 240.799801 209.010683 
L 241.332075 207.601363 
L 241.864348 209.315141 
L 242.396622 208.080211 
L 242.928895 208.109817 
L 243.461169 214.990221 
L 243.993442 207.131723 
L 244.525715 204.961534 
L 245.057989 206.851836 
L 245.590262 207.961389 
L 246.122536 200.718188 
L 247.187083 214.990221 
L 247.719356 207.00324 
L 248.25163 190.40764 
L 248.783903 202.841198 
L 249.316176 202.156381 
L 249.84845 201.960956 
L 250.380723 202.382113 
L 250.912997 214.990221 
L 251.44527 206.226404 
L 251.977544 200.894627 
L 252.509817 204.313837 
L 253.042091 203.459751 
L 253.574364 203.831906 
L 254.106638 206.137672 
L 254.638911 214.990221 
L 255.171184 206.073447 
L 255.703458 202.123293 
L 256.235731 200.914432 
L 256.768005 200.446172 
L 257.300278 202.597806 
L 257.832552 205.38007 
L 258.364825 214.990221 
L 259.429372 198.373318 
L 259.961645 207.265251 
L 260.493919 188.191652 
L 261.026192 200.429903 
L 261.558466 192.752361 
L 262.090739 214.990221 
L 262.623013 199.66746 
L 263.155286 177.561413 
L 263.68756 32.201761 
L 264.219833 194.418312 
L 264.752107 185.70245 
L 265.816653 214.990221 
L 266.348927 210.813193 
L 266.8812 201.778857 
L 267.945747 209.964109 
L 268.478021 208.727692 
L 269.010294 196.848852 
L 269.542568 214.990221 
L 270.074841 213.422403 
L 270.607114 206.855426 
L 271.139388 202.223517 
L 271.671661 212.932396 
L 272.203935 211.140377 
L 272.736208 214.990221 
L 278.058943 214.990221 
L 278.591216 210.431259 
L 279.12349 173.178275 
L 279.655763 208.012266 
L 280.188037 209.822172 
L 280.72031 214.990221 
L 281.784857 207.303935 
L 282.31713 209.71344 
L 282.849404 207.504179 
L 283.381677 209.147295 
L 283.913951 208.624836 
L 284.446224 214.990221 
L 284.978498 212.990799 
L 285.510771 204.960585 
L 286.043045 208.378469 
L 286.575318 210.524497 
L 287.107591 206.587453 
L 287.639865 208.102227 
L 288.172138 214.990221 
L 288.704412 212.239267 
L 289.236685 208.70297 
L 289.768959 208.51907 
L 290.301232 209.97171 
L 290.833506 209.929533 
L 291.365779 211.253755 
L 291.898052 214.990221 
L 292.430326 212.487068 
L 292.962599 209.076569 
L 293.494873 209.582521 
L 294.027146 208.801663 
L 294.55942 211.591991 
L 295.091693 208.78258 
L 295.623967 214.990221 
L 296.15624 214.128297 
L 296.688514 210.271424 
L 297.220787 209.182691 
L 297.75306 210.69299 
L 298.285334 211.36957 
L 298.817607 209.299853 
L 299.349881 214.990221 
L 300.414428 210.932338 
L 300.946701 207.723787 
L 301.478975 211.171687 
L 302.011248 207.047617 
L 302.543521 211.98724 
L 303.075795 214.990221 
L 303.608068 212.056273 
L 304.140342 197.768111 
L 304.672615 209.05768 
L 305.204889 207.442229 
L 305.737162 209.821665 
L 306.269436 211.514235 
L 306.801709 214.990221 
L 307.333983 212.411964 
L 307.866256 206.808603 
L 308.398529 210.374506 
L 308.930803 211.416383 
L 309.463076 209.580904 
L 310.527623 214.990221 
L 311.059897 211.922853 
L 311.59217 203.742603 
L 312.124444 209.592785 
L 312.656717 210.247727 
L 313.18899 211.617252 
L 313.721264 211.280978 
L 314.253537 214.990221 
L 314.785811 213.566195 
L 315.318084 211.642427 
L 315.850358 209.085615 
L 316.382631 212.098127 
L 316.914905 206.324838 
L 317.447178 197.114324 
L 317.979452 214.990221 
L 318.511725 209.884758 
L 319.043998 212.036468 
L 319.576272 204.481716 
L 320.108545 210.293666 
L 320.640819 210.500994 
L 321.173092 209.728685 
L 321.705366 214.990221 
L 322.237639 212.739796 
L 322.769913 205.248126 
L 323.302186 205.61144 
L 323.834459 209.776296 
L 324.366733 205.641067 
L 325.43128 214.990221 
L 325.963553 213.062324 
L 326.495827 208.33585 
L 327.0281 211.144571 
L 327.560374 211.11709 
L 328.092647 210.427227 
L 328.624921 205.760645 
L 329.157194 214.990221 
L 329.689467 211.736937 
L 330.221741 211.691493 
L 330.754014 211.190554 
L 331.286288 212.01194 
L 331.818561 209.881782 
L 332.350835 206.030051 
L 332.883108 214.990221 
L 333.415382 212.278964 
L 333.947655 202.230062 
L 334.479928 207.851105 
L 335.012202 211.651235 
L 335.544475 205.521609 
L 336.076749 214.990221 
L 337.673569 214.990221 
L 338.205843 206.172173 
L 338.738116 210.631309 
L 339.27039 210.200374 
L 339.802663 214.990221 
L 340.334936 214.990221 
L 340.86721 213.676888 
L 341.399483 214.990221 
L 341.931757 184.691613 
L 342.46403 211.340309 
L 342.996304 208.801318 
L 343.528577 207.494271 
L 344.060851 214.990221 
L 345.125397 205.881505 
L 345.657671 198.792296 
L 346.189944 209.133322 
L 346.722218 208.722441 
L 347.254491 210.210261 
L 347.786765 214.990221 
L 348.319038 212.717037 
L 348.851312 193.172104 
L 349.383585 205.499669 
L 349.915859 209.753548 
L 350.448132 207.759506 
L 351.512679 214.990221 
L 352.044952 210.548227 
L 353.109499 207.258772 
L 353.641773 210.628657 
L 354.174046 211.001329 
L 354.70632 209.705592 
L 355.238593 214.990221 
L 355.770866 213.267344 
L 356.30314 214.990221 
L 356.835413 210.202326 
L 357.89996 207.884064 
L 358.432234 211.869484 
L 358.964507 214.990221 
L 359.496781 210.543969 
L 360.029054 210.537273 
L 360.561328 207.975922 
L 361.093601 204.06346 
L 361.625874 207.80772 
L 362.158148 167.404566 
L 362.690421 214.990221 
L 363.222695 211.771718 
L 363.754968 209.496 
L 364.287242 208.059726 
L 364.819515 207.698461 
L 365.351789 209.781849 
L 366.416335 214.990221 
L 366.948609 211.654933 
L 367.480882 206.643237 
L 368.013156 208.698344 
L 368.545429 212.341206 
L 369.077703 208.555576 
L 369.609976 200.207007 
L 370.14225 214.990221 
L 371.206797 210.174154 
L 371.73907 209.608914 
L 372.271343 210.01889 
L 372.803617 209.461467 
L 373.33589 211.652066 
L 373.868164 214.990221 
L 374.400437 213.056049 
L 374.400437 213.056049 
" style="fill:none;stroke:#ff7f0e;stroke-linecap:square;stroke-width:1.5;"/>
   </g>
   <g id="patch_3">
    <path d="M 52.375 239.758125 
L 52.375 22.318125 
" style="fill:none;stroke:#000000;stroke-linecap:square;stroke-linejoin:miter;stroke-width:0.8;"/>
   </g>
   <g id="patch_4">
    <path d="M 387.175 239.758125 
L 387.175 22.318125 
" style="fill:none;stroke:#000000;stroke-linecap:square;stroke-linejoin:miter;stroke-width:0.8;"/>
   </g>
   <g id="patch_5">
    <path d="M 52.375 239.758125 
L 387.175 239.758125 
" style="fill:none;stroke:#000000;stroke-linecap:square;stroke-linejoin:miter;stroke-width:0.8;"/>
   </g>
   <g id="patch_6">
    <path d="M 52.375 22.318125 
L 387.175 22.318125 
" style="fill:none;stroke:#000000;stroke-linecap:square;stroke-linejoin:miter;stroke-width:0.8;"/>
   </g>
   <g id="text_16">
    <!-- Prediction ARIMA(1, 0, 1) -->
    <g transform="translate(144.9775 16.318125)scale(0.12 -0.12)">
     <defs>
      <path d="M 19.671875 64.796875 
L 19.671875 37.40625 
L 32.078125 37.40625 
Q 38.96875 37.40625 42.71875 40.96875 
Q 46.484375 44.53125 46.484375 51.125 
Q 46.484375 57.671875 42.71875 61.234375 
Q 38.96875 64.796875 32.078125 64.796875 
z
M 9.8125 72.90625 
L 32.078125 72.90625 
Q 44.34375 72.90625 50.609375 67.359375 
Q 56.890625 61.8125 56.890625 51.125 
Q 56.890625 40.328125 50.609375 34.8125 
Q 44.34375 29.296875 32.078125 29.296875 
L 19.671875 29.296875 
L 19.671875 0 
L 9.8125 0 
z
" id="DejaVuSans-80"/>
      <path d="M 56.203125 29.59375 
L 56.203125 25.203125 
L 14.890625 25.203125 
Q 15.484375 15.921875 20.484375 11.0625 
Q 25.484375 6.203125 34.421875 6.203125 
Q 39.59375 6.203125 44.453125 7.46875 
Q 49.3125 8.734375 54.109375 11.28125 
L 54.109375 2.78125 
Q 49.265625 0.734375 44.1875 -0.34375 
Q 39.109375 -1.421875 33.890625 -1.421875 
Q 20.796875 -1.421875 13.15625 6.1875 
Q 5.515625 13.8125 5.515625 26.8125 
Q 5.515625 40.234375 12.765625 48.109375 
Q 20.015625 56 32.328125 56 
Q 43.359375 56 49.78125 48.890625 
Q 56.203125 41.796875 56.203125 29.59375 
z
M 47.21875 32.234375 
Q 47.125 39.59375 43.09375 43.984375 
Q 39.0625 48.390625 32.421875 48.390625 
Q 24.90625 48.390625 20.390625 44.140625 
Q 15.875 39.890625 15.1875 32.171875 
z
" id="DejaVuSans-101"/>
      <path d="M 45.40625 46.390625 
L 45.40625 75.984375 
L 54.390625 75.984375 
L 54.390625 0 
L 45.40625 0 
L 45.40625 8.203125 
Q 42.578125 3.328125 38.25 0.953125 
Q 33.9375 -1.421875 27.875 -1.421875 
Q 17.96875 -1.421875 11.734375 6.484375 
Q 5.515625 14.40625 5.515625 27.296875 
Q 5.515625 40.1875 11.734375 48.09375 
Q 17.96875 56 27.875 56 
Q 33.9375 56 38.25 53.625 
Q 42.578125 51.265625 45.40625 46.390625 
z
M 14.796875 27.296875 
Q 14.796875 17.390625 18.875 11.75 
Q 22.953125 6.109375 30.078125 6.109375 
Q 37.203125 6.109375 41.296875 11.75 
Q 45.40625 17.390625 45.40625 27.296875 
Q 45.40625 37.203125 41.296875 42.84375 
Q 37.203125 48.484375 30.078125 48.484375 
Q 22.953125 48.484375 18.875 42.84375 
Q 14.796875 37.203125 14.796875 27.296875 
z
" id="DejaVuSans-100"/>
      <path d="M 9.421875 54.6875 
L 18.40625 54.6875 
L 18.40625 0 
L 9.421875 0 
z
M 9.421875 75.984375 
L 18.40625 75.984375 
L 18.40625 64.59375 
L 9.421875 64.59375 
z
" id="DejaVuSans-105"/>
      <path d="M 30.609375 48.390625 
Q 23.390625 48.390625 19.1875 42.75 
Q 14.984375 37.109375 14.984375 27.296875 
Q 14.984375 17.484375 19.15625 11.84375 
Q 23.34375 6.203125 30.609375 6.203125 
Q 37.796875 6.203125 41.984375 11.859375 
Q 46.1875 17.53125 46.1875 27.296875 
Q 46.1875 37.015625 41.984375 42.703125 
Q 37.796875 48.390625 30.609375 48.390625 
z
M 30.609375 56 
Q 42.328125 56 49.015625 48.375 
Q 55.71875 40.765625 55.71875 27.296875 
Q 55.71875 13.875 49.015625 6.21875 
Q 42.328125 -1.421875 30.609375 -1.421875 
Q 18.84375 -1.421875 12.171875 6.21875 
Q 5.515625 13.875 5.515625 27.296875 
Q 5.515625 40.765625 12.171875 48.375 
Q 18.84375 56 30.609375 56 
z
" id="DejaVuSans-111"/>
      <path id="DejaVuSans-32"/>
      <path d="M 44.390625 34.1875 
Q 47.5625 33.109375 50.5625 29.59375 
Q 53.5625 26.078125 56.59375 19.921875 
L 66.609375 0 
L 56 0 
L 46.6875 18.703125 
Q 43.0625 26.03125 39.671875 28.421875 
Q 36.28125 30.8125 30.421875 30.8125 
L 19.671875 30.8125 
L 19.671875 0 
L 9.8125 0 
L 9.8125 72.90625 
L 32.078125 72.90625 
Q 44.578125 72.90625 50.734375 67.671875 
Q 56.890625 62.453125 56.890625 51.90625 
Q 56.890625 45.015625 53.6875 40.46875 
Q 50.484375 35.9375 44.390625 34.1875 
z
M 19.671875 64.796875 
L 19.671875 38.921875 
L 32.078125 38.921875 
Q 39.203125 38.921875 42.84375 42.21875 
Q 46.484375 45.515625 46.484375 51.90625 
Q 46.484375 58.296875 42.84375 61.546875 
Q 39.203125 64.796875 32.078125 64.796875 
z
" id="DejaVuSans-82"/>
      <path d="M 9.8125 72.90625 
L 19.671875 72.90625 
L 19.671875 0 
L 9.8125 0 
z
" id="DejaVuSans-73"/>
      <path d="M 9.8125 72.90625 
L 24.515625 72.90625 
L 43.109375 23.296875 
L 61.8125 72.90625 
L 76.515625 72.90625 
L 76.515625 0 
L 66.890625 0 
L 66.890625 64.015625 
L 48.09375 14.015625 
L 38.1875 14.015625 
L 19.390625 64.015625 
L 19.390625 0 
L 9.8125 0 
z
" id="DejaVuSans-77"/>
      <path d="M 31 75.875 
Q 24.46875 64.65625 21.28125 53.65625 
Q 18.109375 42.671875 18.109375 31.390625 
Q 18.109375 20.125 21.3125 9.0625 
Q 24.515625 -2 31 -13.1875 
L 23.1875 -13.1875 
Q 15.875 -1.703125 12.234375 9.375 
Q 8.59375 20.453125 8.59375 31.390625 
Q 8.59375 42.28125 12.203125 53.3125 
Q 15.828125 64.359375 23.1875 75.875 
z
" id="DejaVuSans-40"/>
      <path d="M 11.71875 12.40625 
L 22.015625 12.40625 
L 22.015625 4 
L 14.015625 -11.625 
L 7.71875 -11.625 
L 11.71875 4 
z
" id="DejaVuSans-44"/>
      <path d="M 8.015625 75.875 
L 15.828125 75.875 
Q 23.140625 64.359375 26.78125 53.3125 
Q 30.421875 42.28125 30.421875 31.390625 
Q 30.421875 20.453125 26.78125 9.375 
Q 23.140625 -1.703125 15.828125 -13.1875 
L 8.015625 -13.1875 
Q 14.5 -2 17.703125 9.0625 
Q 20.90625 20.125 20.90625 31.390625 
Q 20.90625 42.671875 17.703125 53.65625 
Q 14.5 64.65625 8.015625 75.875 
z
" id="DejaVuSans-41"/>
     </defs>
     <use xlink:href="#DejaVuSans-80"/>
     <use x="58.552734" xlink:href="#DejaVuSans-114"/>
     <use x="97.416016" xlink:href="#DejaVuSans-101"/>
     <use x="158.939453" xlink:href="#DejaVuSans-100"/>
     <use x="222.416016" xlink:href="#DejaVuSans-105"/>
     <use x="250.199219" xlink:href="#DejaVuSans-99"/>
     <use x="305.179688" xlink:href="#DejaVuSans-116"/>
     <use x="344.388672" xlink:href="#DejaVuSans-105"/>
     <use x="372.171875" xlink:href="#DejaVuSans-111"/>
     <use x="433.353516" xlink:href="#DejaVuSans-110"/>
     <use x="496.732422" xlink:href="#DejaVuSans-32"/>
     <use x="528.519531" xlink:href="#DejaVuSans-65"/>
     <use x="596.927734" xlink:href="#DejaVuSans-82"/>
     <use x="666.410156" xlink:href="#DejaVuSans-73"/>
     <use x="695.902344" xlink:href="#DejaVuSans-77"/>
     <use x="782.181641" xlink:href="#DejaVuSans-65"/>
     <use x="850.589844" xlink:href="#DejaVuSans-40"/>
     <use x="889.603516" xlink:href="#DejaVuSans-49"/>
     <use x="953.226562" xlink:href="#DejaVuSans-44"/>
     <use x="985.013672" xlink:href="#DejaVuSans-32"/>
     <use x="1016.800781" xlink:href="#DejaVuSans-48"/>
     <use x="1080.423828" xlink:href="#DejaVuSans-44"/>
     <use x="1112.210938" xlink:href="#DejaVuSans-32"/>
     <use x="1143.998047" xlink:href="#DejaVuSans-49"/>
     <use x="1207.621094" xlink:href="#DejaVuSans-41"/>
    </g>
   </g>
   <g id="legend_1">
    <g id="patch_7">
     <path d="M 59.375 74.3525 
L 212.826563 74.3525 
Q 214.826563 74.3525 214.826563 72.3525 
L 214.826563 29.318125 
Q 214.826563 27.318125 212.826563 27.318125 
L 59.375 27.318125 
Q 57.375 27.318125 57.375 29.318125 
L 57.375 72.3525 
Q 57.375 74.3525 59.375 74.3525 
z
" style="fill:#ffffff;opacity:0.8;stroke:#cccccc;stroke-linejoin:miter;"/>
    </g>
    <g id="line2d_33">
     <path d="M 61.375 35.416563 
L 81.375 35.416563 
" style="fill:none;stroke:#1f77b4;stroke-linecap:square;stroke-width:1.5;"/>
    </g>
    <g id="line2d_34"/>
    <g id="text_17">
     <!-- forecast -->
     <g transform="translate(89.375 38.916563)scale(0.1 -0.1)">
      <defs>
       <path d="M 37.109375 75.984375 
L 37.109375 68.5 
L 28.515625 68.5 
Q 23.6875 68.5 21.796875 66.546875 
Q 19.921875 64.59375 19.921875 59.515625 
L 19.921875 54.6875 
L 34.71875 54.6875 
L 34.71875 47.703125 
L 19.921875 47.703125 
L 19.921875 0 
L 10.890625 0 
L 10.890625 47.703125 
L 2.296875 47.703125 
L 2.296875 54.6875 
L 10.890625 54.6875 
L 10.890625 58.5 
Q 10.890625 67.625 15.140625 71.796875 
Q 19.390625 75.984375 28.609375 75.984375 
z
" id="DejaVuSans-102"/>
       <path d="M 44.28125 53.078125 
L 44.28125 44.578125 
Q 40.484375 46.53125 36.375 47.5 
Q 32.28125 48.484375 27.875 48.484375 
Q 21.1875 48.484375 17.84375 46.4375 
Q 14.5 44.390625 14.5 40.28125 
Q 14.5 37.15625 16.890625 35.375 
Q 19.28125 33.59375 26.515625 31.984375 
L 29.59375 31.296875 
Q 39.15625 29.25 43.1875 25.515625 
Q 47.21875 21.78125 47.21875 15.09375 
Q 47.21875 7.46875 41.1875 3.015625 
Q 35.15625 -1.421875 24.609375 -1.421875 
Q 20.21875 -1.421875 15.453125 -0.5625 
Q 10.6875 0.296875 5.421875 2 
L 5.421875 11.28125 
Q 10.40625 8.6875 15.234375 7.390625 
Q 20.0625 6.109375 24.8125 6.109375 
Q 31.15625 6.109375 34.5625 8.28125 
Q 37.984375 10.453125 37.984375 14.40625 
Q 37.984375 18.0625 35.515625 20.015625 
Q 33.0625 21.96875 24.703125 23.78125 
L 21.578125 24.515625 
Q 13.234375 26.265625 9.515625 29.90625 
Q 5.8125 33.546875 5.8125 39.890625 
Q 5.8125 47.609375 11.28125 51.796875 
Q 16.75 56 26.8125 56 
Q 31.78125 56 36.171875 55.265625 
Q 40.578125 54.546875 44.28125 53.078125 
z
" id="DejaVuSans-115"/>
      </defs>
      <use xlink:href="#DejaVuSans-102"/>
      <use x="35.205078" xlink:href="#DejaVuSans-111"/>
      <use x="96.386719" xlink:href="#DejaVuSans-114"/>
      <use x="135.25" xlink:href="#DejaVuSans-101"/>
      <use x="196.773438" xlink:href="#DejaVuSans-99"/>
      <use x="251.753906" xlink:href="#DejaVuSans-97"/>
      <use x="313.033203" xlink:href="#DejaVuSans-115"/>
      <use x="365.132812" xlink:href="#DejaVuSans-116"/>
     </g>
    </g>
    <g id="line2d_35">
     <path d="M 61.375 50.094688 
L 81.375 50.094688 
" style="fill:none;stroke:#ff7f0e;stroke-linecap:square;stroke-width:1.5;"/>
    </g>
    <g id="line2d_36"/>
    <g id="text_18">
     <!-- revenue -->
     <g transform="translate(89.375 53.594688)scale(0.1 -0.1)">
      <defs>
       <path d="M 2.984375 54.6875 
L 12.5 54.6875 
L 29.59375 8.796875 
L 46.6875 54.6875 
L 56.203125 54.6875 
L 35.6875 0 
L 23.484375 0 
z
" id="DejaVuSans-118"/>
      </defs>
      <use xlink:href="#DejaVuSans-114"/>
      <use x="38.863281" xlink:href="#DejaVuSans-101"/>
      <use x="100.386719" xlink:href="#DejaVuSans-118"/>
      <use x="159.566406" xlink:href="#DejaVuSans-101"/>
      <use x="221.089844" xlink:href="#DejaVuSans-110"/>
      <use x="284.46875" xlink:href="#DejaVuSans-117"/>
      <use x="347.847656" xlink:href="#DejaVuSans-101"/>
     </g>
    </g>
    <g id="patch_8">
     <path d="M 61.375 68.272813 
L 81.375 68.272813 
L 81.375 61.272813 
L 61.375 61.272813 
z
" style="fill:#808080;opacity:0.5;stroke:#808080;stroke-linejoin:miter;"/>
    </g>
    <g id="text_19">
     <!-- 95% confidence interval -->
     <g transform="translate(89.375 68.272813)scale(0.1 -0.1)">
      <defs>
       <path d="M 72.703125 32.078125 
Q 68.453125 32.078125 66.03125 28.46875 
Q 63.625 24.859375 63.625 18.40625 
Q 63.625 12.0625 66.03125 8.421875 
Q 68.453125 4.78125 72.703125 4.78125 
Q 76.859375 4.78125 79.265625 8.421875 
Q 81.6875 12.0625 81.6875 18.40625 
Q 81.6875 24.8125 79.265625 28.4375 
Q 76.859375 32.078125 72.703125 32.078125 
z
M 72.703125 38.28125 
Q 80.421875 38.28125 84.953125 32.90625 
Q 89.5 27.546875 89.5 18.40625 
Q 89.5 9.28125 84.9375 3.921875 
Q 80.375 -1.421875 72.703125 -1.421875 
Q 64.890625 -1.421875 60.34375 3.921875 
Q 55.8125 9.28125 55.8125 18.40625 
Q 55.8125 27.59375 60.375 32.9375 
Q 64.9375 38.28125 72.703125 38.28125 
z
M 22.3125 68.015625 
Q 18.109375 68.015625 15.6875 64.375 
Q 13.28125 60.75 13.28125 54.390625 
Q 13.28125 47.953125 15.671875 44.328125 
Q 18.0625 40.71875 22.3125 40.71875 
Q 26.5625 40.71875 28.96875 44.328125 
Q 31.390625 47.953125 31.390625 54.390625 
Q 31.390625 60.6875 28.953125 64.34375 
Q 26.515625 68.015625 22.3125 68.015625 
z
M 66.40625 74.21875 
L 74.21875 74.21875 
L 28.609375 -1.421875 
L 20.796875 -1.421875 
z
M 22.3125 74.21875 
Q 30.03125 74.21875 34.609375 68.875 
Q 39.203125 63.53125 39.203125 54.390625 
Q 39.203125 45.171875 34.640625 39.84375 
Q 30.078125 34.515625 22.3125 34.515625 
Q 14.546875 34.515625 10.03125 39.859375 
Q 5.515625 45.21875 5.515625 54.390625 
Q 5.515625 63.484375 10.046875 68.84375 
Q 14.59375 74.21875 22.3125 74.21875 
z
" id="DejaVuSans-37"/>
      </defs>
      <use xlink:href="#DejaVuSans-57"/>
      <use x="63.623047" xlink:href="#DejaVuSans-53"/>
      <use x="127.246094" xlink:href="#DejaVuSans-37"/>
      <use x="222.265625" xlink:href="#DejaVuSans-32"/>
      <use x="254.052734" xlink:href="#DejaVuSans-99"/>
      <use x="309.033203" xlink:href="#DejaVuSans-111"/>
      <use x="370.214844" xlink:href="#DejaVuSans-110"/>
      <use x="433.59375" xlink:href="#DejaVuSans-102"/>
      <use x="468.798828" xlink:href="#DejaVuSans-105"/>
      <use x="496.582031" xlink:href="#DejaVuSans-100"/>
      <use x="560.058594" xlink:href="#DejaVuSans-101"/>
      <use x="621.582031" xlink:href="#DejaVuSans-110"/>
      <use x="684.960938" xlink:href="#DejaVuSans-99"/>
      <use x="739.941406" xlink:href="#DejaVuSans-101"/>
      <use x="801.464844" xlink:href="#DejaVuSans-32"/>
      <use x="833.251953" xlink:href="#DejaVuSans-105"/>
      <use x="861.035156" xlink:href="#DejaVuSans-110"/>
      <use x="924.414062" xlink:href="#DejaVuSans-116"/>
      <use x="963.623047" xlink:href="#DejaVuSans-101"/>
      <use x="1025.146484" xlink:href="#DejaVuSans-114"/>
      <use x="1066.259766" xlink:href="#DejaVuSans-118"/>
      <use x="1125.439453" xlink:href="#DejaVuSans-97"/>
      <use x="1186.71875" xlink:href="#DejaVuSans-108"/>
     </g>
    </g>
   </g>
  </g>
 </g>
 <defs>
  <clipPath id="pc6b1b9d8dd">
   <rect height="217.44" width="334.8" x="52.375" y="22.318125"/>
  </clipPath>
 </defs>
</svg>
