<?xml version="1.0" encoding="utf-8" standalone="no"?>
<!DOCTYPE svg PUBLIC "-//W3C//DTD SVG 1.1//EN"
  "http://www.w3.org/Graphics/SVG/1.1/DTD/svg11.dtd">
<!-- Created with matplotlib (https://matplotlib.org/) -->
<svg height="555.391033pt" version="1.1" viewBox="0 0 896.575 555.391033" width="896.575pt" xmlns="http://www.w3.org/2000/svg" xmlns:xlink="http://www.w3.org/1999/xlink">
 <defs>
  <style type="text/css">
*{stroke-linecap:butt;stroke-linejoin:round;white-space:pre;}
  </style>
 </defs>
 <g id="figure_1">
  <g id="patch_1">
   <path d="M 0 555.391033 
L 896.575 555.391033 
L 896.575 0 
L 0 0 
z
" style="fill:none;"/>
  </g>
  <g id="axes_1">
   <g id="patch_2">
    <path d="M 52.375 166.318125 
L 889.375 166.318125 
L 889.375 22.318125 
L 52.375 22.318125 
z
" style="fill:#ffffff;"/>
   </g>
   <g id="matplotlib.axis_1">
    <g id="xtick_1">
     <g id="line2d_1">
      <defs>
       <path d="M 0 0 
L 0 3.5 
" id="mb7c3ddee5d" style="stroke:#000000;stroke-width:0.8;"/>
      </defs>
      <g>
       <use style="stroke:#000000;stroke-width:0.8;" x="90.420455" xlink:href="#mb7c3ddee5d" y="166.318125"/>
      </g>
     </g>
    </g>
    <g id="xtick_2">
     <g id="line2d_2">
      <g>
       <use style="stroke:#000000;stroke-width:0.8;" x="167.013614" xlink:href="#mb7c3ddee5d" y="166.318125"/>
      </g>
     </g>
    </g>
    <g id="xtick_3">
     <g id="line2d_3">
      <g>
       <use style="stroke:#000000;stroke-width:0.8;" x="241.095522" xlink:href="#mb7c3ddee5d" y="166.318125"/>
      </g>
     </g>
    </g>
    <g id="xtick_4">
     <g id="line2d_4">
      <g>
       <use style="stroke:#000000;stroke-width:0.8;" x="317.688681" xlink:href="#mb7c3ddee5d" y="166.318125"/>
      </g>
     </g>
    </g>
    <g id="xtick_5">
     <g id="line2d_5">
      <g>
       <use style="stroke:#000000;stroke-width:0.8;" x="394.281841" xlink:href="#mb7c3ddee5d" y="166.318125"/>
      </g>
     </g>
    </g>
    <g id="xtick_6">
     <g id="line2d_6">
      <g>
       <use style="stroke:#000000;stroke-width:0.8;" x="472.130626" xlink:href="#mb7c3ddee5d" y="166.318125"/>
      </g>
     </g>
    </g>
    <g id="xtick_7">
     <g id="line2d_7">
      <g>
       <use style="stroke:#000000;stroke-width:0.8;" x="548.723785" xlink:href="#mb7c3ddee5d" y="166.318125"/>
      </g>
     </g>
    </g>
    <g id="xtick_8">
     <g id="line2d_8">
      <g>
       <use style="stroke:#000000;stroke-width:0.8;" x="625.316944" xlink:href="#mb7c3ddee5d" y="166.318125"/>
      </g>
     </g>
    </g>
    <g id="xtick_9">
     <g id="line2d_9">
      <g>
       <use style="stroke:#000000;stroke-width:0.8;" x="699.398852" xlink:href="#mb7c3ddee5d" y="166.318125"/>
      </g>
     </g>
    </g>
    <g id="xtick_10">
     <g id="line2d_10">
      <g>
       <use style="stroke:#000000;stroke-width:0.8;" x="775.992012" xlink:href="#mb7c3ddee5d" y="166.318125"/>
      </g>
     </g>
    </g>
    <g id="xtick_11">
     <g id="line2d_11">
      <g>
       <use style="stroke:#000000;stroke-width:0.8;" x="852.585171" xlink:href="#mb7c3ddee5d" y="166.318125"/>
      </g>
     </g>
    </g>
   </g>
   <g id="matplotlib.axis_2">
    <g id="ytick_1">
     <g id="line2d_12">
      <defs>
       <path d="M 0 0 
L -3.5 0 
" id="m0865e9ced9" style="stroke:#000000;stroke-width:0.8;"/>
      </defs>
      <g>
       <use style="stroke:#000000;stroke-width:0.8;" x="52.375" xlink:href="#m0865e9ced9" y="159.77267"/>
      </g>
     </g>
     <g id="text_1">
      <!-- 0 -->
      <defs>
       <path d="M 31.78125 66.40625 
Q 24.171875 66.40625 20.328125 58.90625 
Q 16.5 51.421875 16.5 36.375 
Q 16.5 21.390625 20.328125 13.890625 
Q 24.171875 6.390625 31.78125 6.390625 
Q 39.453125 6.390625 43.28125 13.890625 
Q 47.125 21.390625 47.125 36.375 
Q 47.125 51.421875 43.28125 58.90625 
Q 39.453125 66.40625 31.78125 66.40625 
z
M 31.78125 74.21875 
Q 44.046875 74.21875 50.515625 64.515625 
Q 56.984375 54.828125 56.984375 36.375 
Q 56.984375 17.96875 50.515625 8.265625 
Q 44.046875 -1.421875 31.78125 -1.421875 
Q 19.53125 -1.421875 13.0625 8.265625 
Q 6.59375 17.96875 6.59375 36.375 
Q 6.59375 54.828125 13.0625 64.515625 
Q 19.53125 74.21875 31.78125 74.21875 
z
" id="DejaVuSans-48"/>
      </defs>
      <g transform="translate(39.0125 163.571889)scale(0.1 -0.1)">
       <use xlink:href="#DejaVuSans-48"/>
      </g>
     </g>
    </g>
    <g id="ytick_2">
     <g id="line2d_13">
      <g>
       <use style="stroke:#000000;stroke-width:0.8;" x="52.375" xlink:href="#m0865e9ced9" y="121.338766"/>
      </g>
     </g>
     <g id="text_2">
      <!-- 50000 -->
      <defs>
       <path d="M 10.796875 72.90625 
L 49.515625 72.90625 
L 49.515625 64.59375 
L 19.828125 64.59375 
L 19.828125 46.734375 
Q 21.96875 47.46875 24.109375 47.828125 
Q 26.265625 48.1875 28.421875 48.1875 
Q 40.625 48.1875 47.75 41.5 
Q 54.890625 34.8125 54.890625 23.390625 
Q 54.890625 11.625 47.5625 5.09375 
Q 40.234375 -1.421875 26.90625 -1.421875 
Q 22.3125 -1.421875 17.546875 -0.640625 
Q 12.796875 0.140625 7.71875 1.703125 
L 7.71875 11.625 
Q 12.109375 9.234375 16.796875 8.0625 
Q 21.484375 6.890625 26.703125 6.890625 
Q 35.15625 6.890625 40.078125 11.328125 
Q 45.015625 15.765625 45.015625 23.390625 
Q 45.015625 31 40.078125 35.4375 
Q 35.15625 39.890625 26.703125 39.890625 
Q 22.75 39.890625 18.8125 39.015625 
Q 14.890625 38.140625 10.796875 36.28125 
z
" id="DejaVuSans-53"/>
      </defs>
      <g transform="translate(13.5625 125.137985)scale(0.1 -0.1)">
       <use xlink:href="#DejaVuSans-53"/>
       <use x="63.623047" xlink:href="#DejaVuSans-48"/>
       <use x="127.246094" xlink:href="#DejaVuSans-48"/>
       <use x="190.869141" xlink:href="#DejaVuSans-48"/>
       <use x="254.492188" xlink:href="#DejaVuSans-48"/>
      </g>
     </g>
    </g>
    <g id="ytick_3">
     <g id="line2d_14">
      <g>
       <use style="stroke:#000000;stroke-width:0.8;" x="52.375" xlink:href="#m0865e9ced9" y="82.904862"/>
      </g>
     </g>
     <g id="text_3">
      <!-- 100000 -->
      <defs>
       <path d="M 12.40625 8.296875 
L 28.515625 8.296875 
L 28.515625 63.921875 
L 10.984375 60.40625 
L 10.984375 69.390625 
L 28.421875 72.90625 
L 38.28125 72.90625 
L 38.28125 8.296875 
L 54.390625 8.296875 
L 54.390625 0 
L 12.40625 0 
z
" id="DejaVuSans-49"/>
      </defs>
      <g transform="translate(7.2 86.704081)scale(0.1 -0.1)">
       <use xlink:href="#DejaVuSans-49"/>
       <use x="63.623047" xlink:href="#DejaVuSans-48"/>
       <use x="127.246094" xlink:href="#DejaVuSans-48"/>
       <use x="190.869141" xlink:href="#DejaVuSans-48"/>
       <use x="254.492188" xlink:href="#DejaVuSans-48"/>
       <use x="318.115234" xlink:href="#DejaVuSans-48"/>
      </g>
     </g>
    </g>
    <g id="ytick_4">
     <g id="line2d_15">
      <g>
       <use style="stroke:#000000;stroke-width:0.8;" x="52.375" xlink:href="#m0865e9ced9" y="44.470958"/>
      </g>
     </g>
     <g id="text_4">
      <!-- 150000 -->
      <g transform="translate(7.2 48.270176)scale(0.1 -0.1)">
       <use xlink:href="#DejaVuSans-49"/>
       <use x="63.623047" xlink:href="#DejaVuSans-53"/>
       <use x="127.246094" xlink:href="#DejaVuSans-48"/>
       <use x="190.869141" xlink:href="#DejaVuSans-48"/>
       <use x="254.492188" xlink:href="#DejaVuSans-48"/>
       <use x="318.115234" xlink:href="#DejaVuSans-48"/>
      </g>
     </g>
    </g>
   </g>
   <g id="line2d_16">
    <path clip-path="url(#p9f3cec1bb7)" d="M 90.420455 159.77267 
L 123.066719 159.77267 
L 124.322345 148.664857 
L 125.57797 149.463191 
L 126.833596 149.556747 
L 128.089221 152.326271 
L 129.344847 158.663268 
L 130.600473 154.82781 
L 131.856098 149.674162 
L 133.111724 152.495587 
L 134.367349 151.110791 
L 135.622975 151.335199 
L 136.8786 156.007439 
L 138.134226 159.77267 
L 139.389851 155.942447 
L 140.645477 144.501358 
L 141.901103 152.076566 
L 143.156728 147.566324 
L 144.412354 153.852635 
L 145.667979 151.339841 
L 146.923605 159.77267 
L 148.17923 158.262379 
L 149.434856 157.584567 
L 150.690482 149.510741 
L 151.946107 158.02907 
L 153.201733 159.77267 
L 165.757988 159.77267 
L 167.013614 158.261027 
L 168.269239 157.419539 
L 169.524865 159.030243 
L 170.780491 157.179796 
L 172.036116 155.944707 
L 173.291742 159.77267 
L 174.547367 158.173743 
L 175.802993 148.681107 
L 177.058618 156.852017 
L 178.314244 150.855382 
L 179.569869 150.372791 
L 180.825495 158.170007 
L 182.081121 159.77267 
L 183.336746 157.129717 
L 184.592372 152.925032 
L 185.847997 153.740322 
L 187.103623 154.375082 
L 188.359248 156.809724 
L 189.614874 152.532476 
L 190.8705 159.77267 
L 192.126125 156.68087 
L 193.381751 154.378234 
L 194.637376 147.888039 
L 195.893002 154.864238 
L 197.148627 156.848511 
L 198.404253 141.349885 
L 199.659878 159.77267 
L 200.915504 156.733656 
L 202.17113 154.068225 
L 203.426755 156.224045 
L 204.682381 155.182593 
L 205.938006 156.053883 
L 207.193632 156.445709 
L 208.449257 159.77267 
L 209.704883 157.99667 
L 210.960509 154.516165 
L 212.216134 156.999887 
L 213.47176 156.612104 
L 214.727385 157.54262 
L 215.983011 157.458972 
L 217.238636 159.77267 
L 218.494262 157.040028 
L 221.005513 153.605774 
L 222.261139 157.188844 
L 223.516764 155.907242 
L 224.77239 153.670558 
L 226.028015 159.77267 
L 227.283641 157.184431 
L 229.794892 156.530432 
L 231.050518 155.781124 
L 232.306143 155.7624 
L 233.561769 153.971894 
L 234.817394 159.77267 
L 236.07302 156.728098 
L 237.328645 156.33545 
L 238.584271 154.465479 
L 239.839896 155.003822 
L 241.095522 153.923937 
L 242.351148 155.880692 
L 243.606773 159.77267 
L 244.862399 154.981569 
L 246.118024 152.326617 
L 247.37365 154.582033 
L 248.629275 154.873416 
L 249.884901 155.605774 
L 251.140527 156.894671 
L 252.396152 159.77267 
L 253.651778 158.375537 
L 254.907403 153.951063 
L 256.163029 155.778696 
L 257.418654 156.495411 
L 258.67428 154.814143 
L 259.929905 122.161967 
L 261.185531 159.77267 
L 262.441157 156.692408 
L 263.696782 154.698649 
L 264.952408 119.40541 
L 266.208033 152.686465 
L 267.463659 145.010761 
L 268.719284 155.674686 
L 269.97491 159.77267 
L 271.230536 156.112817 
L 272.486161 153.148971 
L 273.741787 154.019 
L 274.997412 153.723066 
L 276.253038 154.619399 
L 277.508663 159.77267 
L 281.27554 159.77267 
L 282.531166 156.793966 
L 283.786791 156.000252 
L 285.042417 154.181959 
L 287.553668 159.77267 
L 288.809293 157.311033 
L 290.064919 157.074248 
L 291.320545 156.490215 
L 292.57617 157.10545 
L 293.831796 141.119475 
L 295.087421 157.811096 
L 296.343047 159.77267 
L 297.598672 155.452592 
L 298.854298 147.740214 
L 300.109923 149.057613 
L 301.365549 153.33071 
L 302.621175 146.62105 
L 303.8768 155.221981 
L 305.132426 159.77267 
L 307.643677 152.781251 
L 308.899302 155.450732 
L 310.154928 155.248393 
L 311.410554 153.158725 
L 312.666179 154.740458 
L 313.921805 159.77267 
L 315.17743 157.744867 
L 316.433056 159.77267 
L 317.688681 153.732813 
L 318.944307 154.25925 
L 320.199932 152.287737 
L 321.455558 156.544876 
L 322.711184 159.77267 
L 323.966809 155.765798 
L 325.222435 153.138264 
L 326.47806 154.835682 
L 327.733686 156.244207 
L 328.989311 155.52627 
L 330.244937 156.802122 
L 331.500563 159.77267 
L 332.756188 156.226436 
L 335.267439 155.061565 
L 336.523065 156.222861 
L 337.77869 154.671884 
L 339.034316 155.007558 
L 340.289941 159.77267 
L 341.545567 156.16295 
L 342.801193 155.459902 
L 344.056818 155.626828 
L 345.312444 149.356752 
L 346.568069 154.923534 
L 347.823695 155.466697 
L 349.07932 159.77267 
L 350.334946 157.943194 
L 351.590572 159.77267 
L 352.846197 156.518418 
L 354.101823 156.966734 
L 355.357448 153.91735 
L 356.613074 154.012082 
L 357.868699 159.77267 
L 359.124325 154.365527 
L 360.37995 152.481052 
L 361.635576 149.891083 
L 362.891202 156.166586 
L 364.146827 156.343551 
L 365.402453 148.234359 
L 366.658078 159.77267 
L 367.913704 156.083769 
L 369.169329 155.313069 
L 370.424955 153.978944 
L 371.680581 154.993176 
L 372.936206 103.116153 
L 374.191832 156.649447 
L 375.447457 159.77267 
L 376.703083 158.555146 
L 377.958708 155.326952 
L 379.214334 156.476902 
L 380.469959 156.277914 
L 381.725585 152.192867 
L 382.981211 155.449487 
L 384.236836 159.77267 
L 385.492462 156.583018 
L 386.748087 154.676158 
L 388.003713 155.012701 
L 389.259338 153.967806 
L 390.514964 154.867997 
L 391.77059 157.197299 
L 393.026215 159.77267 
L 394.281841 158.015818 
L 395.537466 154.750036 
L 396.793092 156.231555 
L 398.048717 152.009929 
L 399.304343 154.842815 
L 400.559968 156.748237 
L 401.815594 159.77267 
L 403.07122 158.204214 
L 404.326845 155.543019 
L 405.582471 156.085768 
L 406.838096 154.59723 
L 408.093722 151.689321 
L 409.349347 156.349401 
L 410.604973 159.77267 
L 411.860599 157.416088 
L 413.116224 155.6765 
L 414.37185 156.458507 
L 416.883101 154.083154 
L 419.394352 159.77267 
L 420.649977 156.627639 
L 421.905603 154.215189 
L 423.161229 156.939477 
L 424.416854 156.520255 
L 425.67248 148.169698 
L 426.928105 157.286227 
L 428.183731 159.77267 
L 429.439356 157.670728 
L 430.694982 154.77129 
L 431.950608 153.455735 
L 433.206233 154.998918 
L 434.461859 156.882641 
L 436.97311 159.77267 
L 438.228735 157.800765 
L 439.484361 157.679037 
L 440.739986 153.708707 
L 441.995612 152.515942 
L 443.251238 153.405095 
L 444.506863 155.121861 
L 445.762489 159.77267 
L 447.018114 157.200766 
L 448.27374 156.629123 
L 449.529365 157.293292 
L 450.784991 155.660788 
L 452.040617 155.395149 
L 453.296242 156.134471 
L 454.551868 159.77267 
L 455.807493 156.670732 
L 457.063119 157.022978 
L 458.318744 156.904763 
L 459.57437 154.828979 
L 460.829995 154.080548 
L 462.085621 139.184973 
L 463.341247 159.77267 
L 464.596872 158.002951 
L 465.852498 159.77267 
L 467.108123 151.526692 
L 468.363749 156.502522 
L 469.619374 153.706709 
L 470.875 156.590251 
L 472.130626 159.77267 
L 473.386251 158.005088 
L 474.641877 154.771074 
L 475.897502 156.732003 
L 477.153128 156.779254 
L 478.408753 154.101717 
L 480.920005 159.77267 
L 483.431256 153.650949 
L 484.686881 156.55357 
L 485.942507 156.408881 
L 487.198132 135.764824 
L 488.453758 156.178793 
L 489.709383 159.77267 
L 490.965009 155.892522 
L 492.220635 152.42161 
L 494.731886 155.447995 
L 495.987511 155.256249 
L 497.243137 152.319191 
L 498.498762 159.77267 
L 499.754388 156.476963 
L 501.010014 129.252223 
L 502.265639 151.618556 
L 503.521265 153.752322 
L 504.77689 146.371475 
L 506.032516 153.894589 
L 507.288141 159.77267 
L 508.543767 154.102478 
L 509.799392 154.070616 
L 511.055018 107.641384 
L 512.310644 156.417406 
L 513.566269 148.576052 
L 516.07752 159.77267 
L 517.333146 155.687462 
L 518.588771 153.84155 
L 519.844397 153.319864 
L 521.100023 147.784582 
L 522.355648 154.220847 
L 523.611274 137.495588 
L 524.866899 159.77267 
L 526.122525 153.904989 
L 527.37815 150.836334 
L 528.633776 152.9173 
L 529.889401 152.431103 
L 531.145027 153.091036 
L 532.400653 151.01755 
L 533.656278 159.77267 
L 534.911904 154.385897 
L 536.167529 155.106833 
L 537.423155 153.485675 
L 538.67878 154.906116 
L 539.934406 148.149059 
L 541.190032 154.435462 
L 542.445657 159.77267 
L 543.701283 154.006962 
L 544.956908 150.151703 
L 546.212534 153.265057 
L 547.468159 154.062345 
L 548.723785 149.275733 
L 549.97941 153.834432 
L 551.235036 159.77267 
L 552.490662 153.867808 
L 553.746287 141.735907 
L 555.001913 150.477707 
L 556.257538 149.874718 
L 557.513164 150.134823 
L 558.768789 150.046026 
L 560.024415 159.77267 
L 561.280041 153.282798 
L 562.535666 148.761657 
L 563.791292 150.342312 
L 565.046917 151.392895 
L 566.302543 151.436172 
L 567.558168 152.10626 
L 568.813794 159.77267 
L 570.069419 152.923972 
L 571.325045 149.989958 
L 572.580671 149.029856 
L 573.836296 148.881924 
L 575.091922 150.710179 
L 576.347547 151.845609 
L 577.603173 159.77267 
L 578.858798 153.75386 
L 580.114424 147.141952 
L 581.37005 153.689198 
L 582.625675 139.934242 
L 583.881301 149.294543 
L 585.136926 142.686356 
L 586.392552 159.77267 
L 587.648177 147.638057 
L 588.903803 132.594089 
L 590.159428 28.86358 
L 591.415054 144.432838 
L 592.67068 137.230986 
L 593.926305 149.914328 
L 595.181931 159.77267 
L 596.437556 156.723916 
L 597.693182 150.250079 
L 598.948807 153.425419 
L 600.204433 156.068172 
L 601.460059 155.195408 
L 602.715684 145.835607 
L 603.97131 159.77267 
L 605.226935 158.511892 
L 606.482561 153.560376 
L 607.738186 150.246182 
L 608.993812 158.264186 
L 610.249437 156.77315 
L 611.505063 159.77267 
L 624.061319 159.77267 
L 625.316944 156.447354 
L 626.57257 129.624662 
L 627.828195 153.661172 
L 629.083821 155.259108 
L 630.339446 159.77267 
L 631.595072 157.048053 
L 632.850698 153.755743 
L 634.106323 155.756212 
L 635.361949 153.930041 
L 636.617574 155.417325 
L 637.8732 154.735338 
L 639.128825 159.77267 
L 640.384451 158.347157 
L 641.640077 152.253231 
L 642.895702 154.818263 
L 644.151328 156.12979 
L 645.406953 153.503132 
L 646.662579 154.578613 
L 647.918204 159.77267 
L 649.17383 157.764914 
L 650.429455 154.636125 
L 651.685081 154.665558 
L 652.940707 155.750032 
L 654.196332 153.967229 
L 655.451958 156.701279 
L 656.707583 159.77267 
L 657.963209 157.988015 
L 659.218834 155.014453 
L 660.47446 155.497698 
L 661.730086 155.176859 
L 662.985711 156.838203 
L 664.241337 154.917292 
L 665.496962 159.77267 
L 666.752588 159.158151 
L 668.008213 155.6556 
L 669.263839 155.473769 
L 671.77509 157.111153 
L 673.030716 155.477343 
L 674.286341 159.77267 
L 675.541967 158.343421 
L 676.797592 156.409942 
L 678.053218 154.095883 
L 679.308843 156.770583 
L 680.564469 153.768787 
L 681.820095 157.401414 
L 683.07572 159.77267 
L 684.331346 157.680874 
L 685.586971 146.246496 
L 686.842597 155.488797 
L 688.098222 154.245844 
L 689.353848 155.876603 
L 690.609473 157.076194 
L 691.865099 159.77267 
L 693.120725 157.889694 
L 694.37635 153.626782 
L 695.631976 154.19216 
L 696.887601 157.107617 
L 698.143227 155.422652 
L 699.398852 157.270239 
L 700.654478 159.77267 
L 701.910104 157.585751 
L 703.165729 151.503247 
L 704.421355 155.67321 
L 705.67698 156.08154 
L 706.932606 156.91019 
L 708.188231 151.720237 
L 709.443857 159.77267 
L 710.699482 158.716022 
L 711.955108 156.811961 
L 713.210734 151.208613 
L 714.466359 157.329573 
L 715.721985 153.119247 
L 716.97761 146.669038 
L 718.233236 159.77267 
L 719.488861 155.887933 
L 720.744487 157.51371 
L 722.000113 151.786436 
L 723.255738 156.099911 
L 724.511364 156.169161 
L 725.766989 155.464922 
L 727.022615 159.77267 
L 728.27824 158.099719 
L 729.533866 152.316947 
L 730.789491 152.77913 
L 732.045117 155.821019 
L 733.300743 152.783995 
L 735.811994 159.77267 
L 737.067619 158.398151 
L 738.323245 145.323475 
L 739.57887 154.990148 
L 740.834496 156.874554 
L 742.090122 156.154049 
L 743.345747 152.852277 
L 744.601373 159.77267 
L 745.856998 157.381766 
L 747.112624 156.996643 
L 748.368249 156.928031 
L 749.623875 157.44951 
L 750.8795 155.559123 
L 752.135126 153.074086 
L 753.390752 159.77267 
L 754.646377 157.639919 
L 755.902003 150.283132 
L 757.157628 154.276714 
L 758.413254 157.283391 
L 759.668879 152.437621 
L 760.924505 159.77267 
L 764.691382 159.77267 
L 765.947007 153.220535 
L 767.202633 156.489593 
L 768.458258 156.155171 
L 769.713884 159.77267 
L 770.969509 159.77267 
L 772.225135 158.774611 
L 773.480761 159.77267 
L 774.736386 137.807241 
L 775.992012 157.010495 
L 777.247637 154.971092 
L 778.503263 154.179761 
L 779.758888 159.77267 
L 782.27014 153.050212 
L 783.525765 147.870036 
L 784.781391 155.18397 
L 786.037016 153.202218 
L 787.292642 155.962056 
L 788.548267 159.77267 
L 789.803893 158.022114 
L 791.059518 143.709128 
L 792.315144 151.996185 
L 793.57077 155.683257 
L 794.826395 153.807044 
L 797.337646 159.77267 
L 798.593272 156.239273 
L 799.848897 150.08047 
L 801.104523 154.168131 
L 802.360149 156.272349 
L 803.615774 156.482782 
L 804.8714 155.772285 
L 806.127025 159.77267 
L 807.382651 158.45355 
L 808.638276 159.77267 
L 809.893902 155.867494 
L 811.149527 155.290355 
L 812.405153 154.341914 
L 813.660779 157.268002 
L 814.916404 159.77267 
L 816.17203 155.957721 
L 817.427655 156.136439 
L 818.683281 154.554691 
L 819.938906 151.475083 
L 821.194532 153.870191 
L 822.450158 125.588695 
L 823.705783 159.77267 
L 826.217034 155.155859 
L 827.47266 154.82595 
L 828.728285 154.01129 
L 829.983911 155.546509 
L 831.239536 157.3774 
L 832.495162 159.77267 
L 833.750788 157.12253 
L 835.006413 148.132432 
L 836.262039 154.613157 
L 837.517664 157.010211 
L 838.77329 154.82482 
L 840.028915 148.049707 
L 841.284541 159.77267 
L 842.540167 157.778635 
L 843.795792 156.175887 
L 845.051418 155.724397 
L 846.307043 156.003711 
L 847.562669 155.545418 
L 848.818294 157.028028 
L 850.07392 159.77267 
L 851.329545 158.393677 
L 851.329545 158.393677 
" style="fill:none;stroke:#1f77b4;stroke-linecap:square;stroke-width:1.5;"/>
   </g>
   <g id="patch_3">
    <path d="M 52.375 166.318125 
L 52.375 22.318125 
" style="fill:none;stroke:#000000;stroke-linecap:square;stroke-linejoin:miter;stroke-width:0.8;"/>
   </g>
   <g id="patch_4">
    <path d="M 889.375 166.318125 
L 889.375 22.318125 
" style="fill:none;stroke:#000000;stroke-linecap:square;stroke-linejoin:miter;stroke-width:0.8;"/>
   </g>
   <g id="patch_5">
    <path d="M 52.375 166.318125 
L 889.375 166.318125 
" style="fill:none;stroke:#000000;stroke-linecap:square;stroke-linejoin:miter;stroke-width:0.8;"/>
   </g>
   <g id="patch_6">
    <path d="M 52.375 22.318125 
L 889.375 22.318125 
" style="fill:none;stroke:#000000;stroke-linecap:square;stroke-linejoin:miter;stroke-width:0.8;"/>
   </g>
   <g id="text_5">
    <!-- Revenue all -->
    <defs>
     <path d="M 44.390625 34.1875 
Q 47.5625 33.109375 50.5625 29.59375 
Q 53.5625 26.078125 56.59375 19.921875 
L 66.609375 0 
L 56 0 
L 46.6875 18.703125 
Q 43.0625 26.03125 39.671875 28.421875 
Q 36.28125 30.8125 30.421875 30.8125 
L 19.671875 30.8125 
L 19.671875 0 
L 9.8125 0 
L 9.8125 72.90625 
L 32.078125 72.90625 
Q 44.578125 72.90625 50.734375 67.671875 
Q 56.890625 62.453125 56.890625 51.90625 
Q 56.890625 45.015625 53.6875 40.46875 
Q 50.484375 35.9375 44.390625 34.1875 
z
M 19.671875 64.796875 
L 19.671875 38.921875 
L 32.078125 38.921875 
Q 39.203125 38.921875 42.84375 42.21875 
Q 46.484375 45.515625 46.484375 51.90625 
Q 46.484375 58.296875 42.84375 61.546875 
Q 39.203125 64.796875 32.078125 64.796875 
z
" id="DejaVuSans-82"/>
     <path d="M 56.203125 29.59375 
L 56.203125 25.203125 
L 14.890625 25.203125 
Q 15.484375 15.921875 20.484375 11.0625 
Q 25.484375 6.203125 34.421875 6.203125 
Q 39.59375 6.203125 44.453125 7.46875 
Q 49.3125 8.734375 54.109375 11.28125 
L 54.109375 2.78125 
Q 49.265625 0.734375 44.1875 -0.34375 
Q 39.109375 -1.421875 33.890625 -1.421875 
Q 20.796875 -1.421875 13.15625 6.1875 
Q 5.515625 13.8125 5.515625 26.8125 
Q 5.515625 40.234375 12.765625 48.109375 
Q 20.015625 56 32.328125 56 
Q 43.359375 56 49.78125 48.890625 
Q 56.203125 41.796875 56.203125 29.59375 
z
M 47.21875 32.234375 
Q 47.125 39.59375 43.09375 43.984375 
Q 39.0625 48.390625 32.421875 48.390625 
Q 24.90625 48.390625 20.390625 44.140625 
Q 15.875 39.890625 15.1875 32.171875 
z
" id="DejaVuSans-101"/>
     <path d="M 2.984375 54.6875 
L 12.5 54.6875 
L 29.59375 8.796875 
L 46.6875 54.6875 
L 56.203125 54.6875 
L 35.6875 0 
L 23.484375 0 
z
" id="DejaVuSans-118"/>
     <path d="M 54.890625 33.015625 
L 54.890625 0 
L 45.90625 0 
L 45.90625 32.71875 
Q 45.90625 40.484375 42.875 44.328125 
Q 39.84375 48.1875 33.796875 48.1875 
Q 26.515625 48.1875 22.3125 43.546875 
Q 18.109375 38.921875 18.109375 30.90625 
L 18.109375 0 
L 9.078125 0 
L 9.078125 54.6875 
L 18.109375 54.6875 
L 18.109375 46.1875 
Q 21.34375 51.125 25.703125 53.5625 
Q 30.078125 56 35.796875 56 
Q 45.21875 56 50.046875 50.171875 
Q 54.890625 44.34375 54.890625 33.015625 
z
" id="DejaVuSans-110"/>
     <path d="M 8.5 21.578125 
L 8.5 54.6875 
L 17.484375 54.6875 
L 17.484375 21.921875 
Q 17.484375 14.15625 20.5 10.265625 
Q 23.53125 6.390625 29.59375 6.390625 
Q 36.859375 6.390625 41.078125 11.03125 
Q 45.3125 15.671875 45.3125 23.6875 
L 45.3125 54.6875 
L 54.296875 54.6875 
L 54.296875 0 
L 45.3125 0 
L 45.3125 8.40625 
Q 42.046875 3.421875 37.71875 1 
Q 33.40625 -1.421875 27.6875 -1.421875 
Q 18.265625 -1.421875 13.375 4.4375 
Q 8.5 10.296875 8.5 21.578125 
z
M 31.109375 56 
z
" id="DejaVuSans-117"/>
     <path id="DejaVuSans-32"/>
     <path d="M 34.28125 27.484375 
Q 23.390625 27.484375 19.1875 25 
Q 14.984375 22.515625 14.984375 16.5 
Q 14.984375 11.71875 18.140625 8.90625 
Q 21.296875 6.109375 26.703125 6.109375 
Q 34.1875 6.109375 38.703125 11.40625 
Q 43.21875 16.703125 43.21875 25.484375 
L 43.21875 27.484375 
z
M 52.203125 31.203125 
L 52.203125 0 
L 43.21875 0 
L 43.21875 8.296875 
Q 40.140625 3.328125 35.546875 0.953125 
Q 30.953125 -1.421875 24.3125 -1.421875 
Q 15.921875 -1.421875 10.953125 3.296875 
Q 6 8.015625 6 15.921875 
Q 6 25.140625 12.171875 29.828125 
Q 18.359375 34.515625 30.609375 34.515625 
L 43.21875 34.515625 
L 43.21875 35.40625 
Q 43.21875 41.609375 39.140625 45 
Q 35.0625 48.390625 27.6875 48.390625 
Q 23 48.390625 18.546875 47.265625 
Q 14.109375 46.140625 10.015625 43.890625 
L 10.015625 52.203125 
Q 14.9375 54.109375 19.578125 55.046875 
Q 24.21875 56 28.609375 56 
Q 40.484375 56 46.34375 49.84375 
Q 52.203125 43.703125 52.203125 31.203125 
z
" id="DejaVuSans-97"/>
     <path d="M 9.421875 75.984375 
L 18.40625 75.984375 
L 18.40625 0 
L 9.421875 0 
z
" id="DejaVuSans-108"/>
    </defs>
    <g transform="translate(435.560313 16.318125)scale(0.12 -0.12)">
     <use xlink:href="#DejaVuSans-82"/>
     <use x="69.419922" xlink:href="#DejaVuSans-101"/>
     <use x="130.943359" xlink:href="#DejaVuSans-118"/>
     <use x="190.123047" xlink:href="#DejaVuSans-101"/>
     <use x="251.646484" xlink:href="#DejaVuSans-110"/>
     <use x="315.025391" xlink:href="#DejaVuSans-117"/>
     <use x="378.404297" xlink:href="#DejaVuSans-101"/>
     <use x="439.927734" xlink:href="#DejaVuSans-32"/>
     <use x="471.714844" xlink:href="#DejaVuSans-97"/>
     <use x="532.994141" xlink:href="#DejaVuSans-108"/>
     <use x="560.777344" xlink:href="#DejaVuSans-108"/>
    </g>
   </g>
  </g>
  <g id="axes_2">
   <g id="patch_7">
    <path d="M 52.375 339.118125 
L 889.375 339.118125 
L 889.375 195.118125 
L 52.375 195.118125 
z
" style="fill:#ffffff;"/>
   </g>
   <g id="matplotlib.axis_3">
    <g id="xtick_12">
     <g id="line2d_17">
      <g>
       <use style="stroke:#000000;stroke-width:0.8;" x="90.420455" xlink:href="#mb7c3ddee5d" y="339.118125"/>
      </g>
     </g>
    </g>
    <g id="xtick_13">
     <g id="line2d_18">
      <g>
       <use style="stroke:#000000;stroke-width:0.8;" x="167.013614" xlink:href="#mb7c3ddee5d" y="339.118125"/>
      </g>
     </g>
    </g>
    <g id="xtick_14">
     <g id="line2d_19">
      <g>
       <use style="stroke:#000000;stroke-width:0.8;" x="241.095522" xlink:href="#mb7c3ddee5d" y="339.118125"/>
      </g>
     </g>
    </g>
    <g id="xtick_15">
     <g id="line2d_20">
      <g>
       <use style="stroke:#000000;stroke-width:0.8;" x="317.688681" xlink:href="#mb7c3ddee5d" y="339.118125"/>
      </g>
     </g>
    </g>
    <g id="xtick_16">
     <g id="line2d_21">
      <g>
       <use style="stroke:#000000;stroke-width:0.8;" x="394.281841" xlink:href="#mb7c3ddee5d" y="339.118125"/>
      </g>
     </g>
    </g>
    <g id="xtick_17">
     <g id="line2d_22">
      <g>
       <use style="stroke:#000000;stroke-width:0.8;" x="472.130626" xlink:href="#mb7c3ddee5d" y="339.118125"/>
      </g>
     </g>
    </g>
    <g id="xtick_18">
     <g id="line2d_23">
      <g>
       <use style="stroke:#000000;stroke-width:0.8;" x="548.723785" xlink:href="#mb7c3ddee5d" y="339.118125"/>
      </g>
     </g>
    </g>
    <g id="xtick_19">
     <g id="line2d_24">
      <g>
       <use style="stroke:#000000;stroke-width:0.8;" x="625.316944" xlink:href="#mb7c3ddee5d" y="339.118125"/>
      </g>
     </g>
    </g>
    <g id="xtick_20">
     <g id="line2d_25">
      <g>
       <use style="stroke:#000000;stroke-width:0.8;" x="699.398852" xlink:href="#mb7c3ddee5d" y="339.118125"/>
      </g>
     </g>
    </g>
    <g id="xtick_21">
     <g id="line2d_26">
      <g>
       <use style="stroke:#000000;stroke-width:0.8;" x="775.992012" xlink:href="#mb7c3ddee5d" y="339.118125"/>
      </g>
     </g>
    </g>
    <g id="xtick_22">
     <g id="line2d_27">
      <g>
       <use style="stroke:#000000;stroke-width:0.8;" x="852.585171" xlink:href="#mb7c3ddee5d" y="339.118125"/>
      </g>
     </g>
    </g>
   </g>
   <g id="matplotlib.axis_4">
    <g id="ytick_5">
     <g id="line2d_28">
      <g>
       <use style="stroke:#000000;stroke-width:0.8;" x="52.375" xlink:href="#m0865e9ced9" y="332.57267"/>
      </g>
     </g>
     <g id="text_6">
      <!-- 0 -->
      <g transform="translate(39.0125 336.371889)scale(0.1 -0.1)">
       <use xlink:href="#DejaVuSans-48"/>
      </g>
     </g>
    </g>
    <g id="ytick_6">
     <g id="line2d_29">
      <g>
       <use style="stroke:#000000;stroke-width:0.8;" x="52.375" xlink:href="#m0865e9ced9" y="298.815814"/>
      </g>
     </g>
     <g id="text_7">
      <!-- 2000 -->
      <defs>
       <path d="M 19.1875 8.296875 
L 53.609375 8.296875 
L 53.609375 0 
L 7.328125 0 
L 7.328125 8.296875 
Q 12.9375 14.109375 22.625 23.890625 
Q 32.328125 33.6875 34.8125 36.53125 
Q 39.546875 41.84375 41.421875 45.53125 
Q 43.3125 49.21875 43.3125 52.78125 
Q 43.3125 58.59375 39.234375 62.25 
Q 35.15625 65.921875 28.609375 65.921875 
Q 23.96875 65.921875 18.8125 64.3125 
Q 13.671875 62.703125 7.8125 59.421875 
L 7.8125 69.390625 
Q 13.765625 71.78125 18.9375 73 
Q 24.125 74.21875 28.421875 74.21875 
Q 39.75 74.21875 46.484375 68.546875 
Q 53.21875 62.890625 53.21875 53.421875 
Q 53.21875 48.921875 51.53125 44.890625 
Q 49.859375 40.875 45.40625 35.40625 
Q 44.1875 33.984375 37.640625 27.21875 
Q 31.109375 20.453125 19.1875 8.296875 
z
" id="DejaVuSans-50"/>
      </defs>
      <g transform="translate(19.925 302.615032)scale(0.1 -0.1)">
       <use xlink:href="#DejaVuSans-50"/>
       <use x="63.623047" xlink:href="#DejaVuSans-48"/>
       <use x="127.246094" xlink:href="#DejaVuSans-48"/>
       <use x="190.869141" xlink:href="#DejaVuSans-48"/>
      </g>
     </g>
    </g>
    <g id="ytick_7">
     <g id="line2d_30">
      <g>
       <use style="stroke:#000000;stroke-width:0.8;" x="52.375" xlink:href="#m0865e9ced9" y="265.058957"/>
      </g>
     </g>
     <g id="text_8">
      <!-- 4000 -->
      <defs>
       <path d="M 37.796875 64.3125 
L 12.890625 25.390625 
L 37.796875 25.390625 
z
M 35.203125 72.90625 
L 47.609375 72.90625 
L 47.609375 25.390625 
L 58.015625 25.390625 
L 58.015625 17.1875 
L 47.609375 17.1875 
L 47.609375 0 
L 37.796875 0 
L 37.796875 17.1875 
L 4.890625 17.1875 
L 4.890625 26.703125 
z
" id="DejaVuSans-52"/>
      </defs>
      <g transform="translate(19.925 268.858175)scale(0.1 -0.1)">
       <use xlink:href="#DejaVuSans-52"/>
       <use x="63.623047" xlink:href="#DejaVuSans-48"/>
       <use x="127.246094" xlink:href="#DejaVuSans-48"/>
       <use x="190.869141" xlink:href="#DejaVuSans-48"/>
      </g>
     </g>
    </g>
    <g id="ytick_8">
     <g id="line2d_31">
      <g>
       <use style="stroke:#000000;stroke-width:0.8;" x="52.375" xlink:href="#m0865e9ced9" y="231.3021"/>
      </g>
     </g>
     <g id="text_9">
      <!-- 6000 -->
      <defs>
       <path d="M 33.015625 40.375 
Q 26.375 40.375 22.484375 35.828125 
Q 18.609375 31.296875 18.609375 23.390625 
Q 18.609375 15.53125 22.484375 10.953125 
Q 26.375 6.390625 33.015625 6.390625 
Q 39.65625 6.390625 43.53125 10.953125 
Q 47.40625 15.53125 47.40625 23.390625 
Q 47.40625 31.296875 43.53125 35.828125 
Q 39.65625 40.375 33.015625 40.375 
z
M 52.59375 71.296875 
L 52.59375 62.3125 
Q 48.875 64.0625 45.09375 64.984375 
Q 41.3125 65.921875 37.59375 65.921875 
Q 27.828125 65.921875 22.671875 59.328125 
Q 17.53125 52.734375 16.796875 39.40625 
Q 19.671875 43.65625 24.015625 45.921875 
Q 28.375 48.1875 33.59375 48.1875 
Q 44.578125 48.1875 50.953125 41.515625 
Q 57.328125 34.859375 57.328125 23.390625 
Q 57.328125 12.15625 50.6875 5.359375 
Q 44.046875 -1.421875 33.015625 -1.421875 
Q 20.359375 -1.421875 13.671875 8.265625 
Q 6.984375 17.96875 6.984375 36.375 
Q 6.984375 53.65625 15.1875 63.9375 
Q 23.390625 74.21875 37.203125 74.21875 
Q 40.921875 74.21875 44.703125 73.484375 
Q 48.484375 72.75 52.59375 71.296875 
z
" id="DejaVuSans-54"/>
      </defs>
      <g transform="translate(19.925 235.101319)scale(0.1 -0.1)">
       <use xlink:href="#DejaVuSans-54"/>
       <use x="63.623047" xlink:href="#DejaVuSans-48"/>
       <use x="127.246094" xlink:href="#DejaVuSans-48"/>
       <use x="190.869141" xlink:href="#DejaVuSans-48"/>
      </g>
     </g>
    </g>
    <g id="ytick_9">
     <g id="line2d_32">
      <g>
       <use style="stroke:#000000;stroke-width:0.8;" x="52.375" xlink:href="#m0865e9ced9" y="197.545243"/>
      </g>
     </g>
     <g id="text_10">
      <!-- 8000 -->
      <defs>
       <path d="M 31.78125 34.625 
Q 24.75 34.625 20.71875 30.859375 
Q 16.703125 27.09375 16.703125 20.515625 
Q 16.703125 13.921875 20.71875 10.15625 
Q 24.75 6.390625 31.78125 6.390625 
Q 38.8125 6.390625 42.859375 10.171875 
Q 46.921875 13.96875 46.921875 20.515625 
Q 46.921875 27.09375 42.890625 30.859375 
Q 38.875 34.625 31.78125 34.625 
z
M 21.921875 38.8125 
Q 15.578125 40.375 12.03125 44.71875 
Q 8.5 49.078125 8.5 55.328125 
Q 8.5 64.0625 14.71875 69.140625 
Q 20.953125 74.21875 31.78125 74.21875 
Q 42.671875 74.21875 48.875 69.140625 
Q 55.078125 64.0625 55.078125 55.328125 
Q 55.078125 49.078125 51.53125 44.71875 
Q 48 40.375 41.703125 38.8125 
Q 48.828125 37.15625 52.796875 32.3125 
Q 56.78125 27.484375 56.78125 20.515625 
Q 56.78125 9.90625 50.3125 4.234375 
Q 43.84375 -1.421875 31.78125 -1.421875 
Q 19.734375 -1.421875 13.25 4.234375 
Q 6.78125 9.90625 6.78125 20.515625 
Q 6.78125 27.484375 10.78125 32.3125 
Q 14.796875 37.15625 21.921875 38.8125 
z
M 18.3125 54.390625 
Q 18.3125 48.734375 21.84375 45.5625 
Q 25.390625 42.390625 31.78125 42.390625 
Q 38.140625 42.390625 41.71875 45.5625 
Q 45.3125 48.734375 45.3125 54.390625 
Q 45.3125 60.0625 41.71875 63.234375 
Q 38.140625 66.40625 31.78125 66.40625 
Q 25.390625 66.40625 21.84375 63.234375 
Q 18.3125 60.0625 18.3125 54.390625 
z
" id="DejaVuSans-56"/>
      </defs>
      <g transform="translate(19.925 201.344462)scale(0.1 -0.1)">
       <use xlink:href="#DejaVuSans-56"/>
       <use x="63.623047" xlink:href="#DejaVuSans-48"/>
       <use x="127.246094" xlink:href="#DejaVuSans-48"/>
       <use x="190.869141" xlink:href="#DejaVuSans-48"/>
      </g>
     </g>
    </g>
   </g>
   <g id="line2d_33">
    <path clip-path="url(#p2d2609611b)" d="M 90.420455 332.57267 
L 123.066719 332.57267 
L 124.322345 278.173496 
L 125.57797 277.26206 
L 126.833596 281.903628 
L 128.089221 289.380772 
L 129.344847 325.787542 
L 130.600473 299.794762 
L 131.856098 284.148459 
L 133.111724 291.389305 
L 134.367349 290.882952 
L 135.622975 290.511627 
L 136.8786 306.546134 
L 138.134226 332.57267 
L 139.389851 302.596582 
L 140.645477 263.084181 
L 141.901103 298.7483 
L 143.156728 278.291645 
L 144.412354 299.406559 
L 145.667979 297.853743 
L 146.923605 332.57267 
L 148.17923 321.821112 
L 149.434856 321.686084 
L 150.690482 297.921257 
L 151.946107 323.458319 
L 153.201733 332.57267 
L 165.757988 332.57267 
L 167.013614 321.29788 
L 168.269239 316.740705 
L 169.524865 327.610412 
L 170.780491 314.597144 
L 172.036116 320.43708 
L 173.291742 332.57267 
L 174.547367 320.690257 
L 175.802993 287.203455 
L 177.058618 313.88825 
L 178.314244 304.824534 
L 179.569869 294.933775 
L 180.825495 321.399151 
L 182.081121 332.57267 
L 183.336746 313.736344 
L 184.592372 300.368629 
L 185.847997 301.195672 
L 187.103623 311.913474 
L 188.359248 311.84596 
L 189.614874 306.917459 
L 190.8705 332.57267 
L 192.126125 311.120188 
L 193.381751 303.896221 
L 194.637376 305.769726 
L 195.893002 306.242322 
L 197.148627 311.407121 
L 198.404253 312.16665 
L 199.659878 332.57267 
L 200.915504 308.942871 
L 202.17113 308.959749 
L 203.426755 312.70676 
L 204.682381 306.394228 
L 205.938006 305.735969 
L 207.193632 314.394603 
L 208.449257 332.57267 
L 209.704883 318.327277 
L 210.960509 309.398588 
L 212.216134 314.715293 
L 213.47176 317.65214 
L 214.727385 317.871559 
L 215.983011 318.664845 
L 217.238636 332.57267 
L 218.494262 312.419827 
L 219.749887 317.398963 
L 221.005513 299.659735 
L 222.261139 314.850321 
L 223.516764 309.111655 
L 224.77239 304.993318 
L 226.028015 332.57267 
L 227.283641 316.014932 
L 228.539266 313.061207 
L 229.794892 312.082258 
L 232.306143 306.225444 
L 233.561769 315.221646 
L 234.817394 332.57267 
L 236.07302 310.748862 
L 237.328645 311.812203 
L 238.584271 305.246495 
L 239.839896 302.816001 
L 241.095522 299.879155 
L 242.351148 311.153945 
L 243.606773 332.57267 
L 244.862399 302.157742 
L 246.118024 299.28841 
L 247.37365 311.407121 
L 248.629275 305.449036 
L 249.884901 310.310023 
L 251.140527 316.841975 
L 252.396152 332.57267 
L 253.651778 321.281002 
L 254.907403 304.048126 
L 256.163029 309.010384 
L 257.418654 310.748862 
L 258.67428 305.719091 
L 259.929905 308.807843 
L 261.185531 332.57267 
L 262.441157 309.077898 
L 263.696782 306.360471 
L 264.952408 310.377537 
L 266.208033 305.668456 
L 267.463659 300.520535 
L 268.719284 309.145412 
L 269.97491 332.57267 
L 271.230536 301.550119 
L 272.486161 299.102747 
L 273.741787 300.503656 
L 274.997412 300.537413 
L 276.253038 303.558652 
L 277.508663 332.57267 
L 281.27554 332.57267 
L 282.531166 313.905129 
L 283.786791 309.196047 
L 285.042417 298.410731 
L 286.298042 317.061395 
L 287.553668 332.57267 
L 288.809293 313.770101 
L 290.064919 315.491701 
L 291.320545 310.326902 
L 292.57617 313.516925 
L 293.831796 312.959937 
L 295.087421 317.905316 
L 296.343047 332.57267 
L 297.598672 307.9808 
L 298.854298 279.709433 
L 300.109923 306.579891 
L 301.365549 310.208753 
L 302.621175 306.427985 
L 303.8768 313.044329 
L 305.132426 332.57267 
L 306.388051 309.972455 
L 307.643677 299.457194 
L 308.899302 304.11564 
L 310.154928 302.410919 
L 311.410554 297.853743 
L 312.666179 310.495686 
L 313.921805 332.57267 
L 315.17743 318.310398 
L 316.433056 332.57267 
L 317.688681 307.963922 
L 318.944307 305.719091 
L 320.199932 296.587861 
L 321.455558 309.533616 
L 322.711184 332.57267 
L 323.966809 302.951029 
L 325.222435 303.845585 
L 326.47806 302.427797 
L 327.733686 310.360659 
L 328.989311 308.655937 
L 330.244937 316.504407 
L 331.500563 332.57267 
L 332.756188 306.934338 
L 334.011814 307.440691 
L 335.267439 306.714918 
L 336.523065 311.52527 
L 337.77869 305.145224 
L 339.034316 309.584251 
L 340.289941 332.57267 
L 341.545567 309.854306 
L 342.801193 308.402761 
L 344.056818 307.541961 
L 345.312444 301.499484 
L 346.568069 298.174433 
L 347.823695 310.867011 
L 349.07932 332.57267 
L 350.334946 319.002414 
L 351.590572 332.57267 
L 352.846197 311.913474 
L 354.101823 316.301865 
L 355.357448 303.457381 
L 356.613074 307.812016 
L 357.868699 332.57267 
L 359.124325 295.102559 
L 360.37995 287.996741 
L 361.635576 297.195484 
L 362.891202 307.643232 
L 364.146827 314.52963 
L 365.402453 302.427797 
L 366.658078 332.57267 
L 367.913704 307.693867 
L 369.169329 304.605115 
L 370.424955 306.107295 
L 371.680581 301.465727 
L 372.936206 302.242135 
L 374.191832 316.116203 
L 375.447457 332.57267 
L 376.703083 325.146162 
L 377.958708 302.478433 
L 379.214334 315.576093 
L 380.469959 311.964109 
L 381.725585 305.449036 
L 382.981211 311.997866 
L 384.236836 332.57267 
L 385.492462 310.917647 
L 386.748087 301.010009 
L 388.003713 305.094589 
L 389.259338 299.794762 
L 390.514964 301.21255 
L 391.77059 314.698415 
L 393.026215 332.57267 
L 394.281841 321.095339 
L 395.537466 299.6091 
L 396.793092 313.871372 
L 398.048717 303.069178 
L 400.559968 317.11203 
L 401.815594 332.57267 
L 403.07122 320.622743 
L 404.326845 312.048501 
L 405.582471 313.078086 
L 406.838096 308.233977 
L 408.093722 305.634699 
L 409.349347 311.879717 
L 410.604973 332.57267 
L 411.860599 317.230179 
L 413.116224 308.149585 
L 414.37185 312.60549 
L 415.627475 310.934525 
L 416.883101 305.263373 
L 418.138726 314.74905 
L 419.394352 332.57267 
L 420.649977 311.018917 
L 421.905603 306.596769 
L 423.161229 314.917834 
L 424.416854 309.888063 
L 425.67248 300.419264 
L 426.928105 319.69443 
L 428.183731 332.57267 
L 429.439356 317.618383 
L 431.950608 306.546134 
L 433.206233 308.858479 
L 434.461859 309.516737 
L 435.717484 322.766304 
L 436.97311 332.57267 
L 438.228735 317.213301 
L 439.484361 316.858854 
L 440.739986 302.545946 
L 441.995612 315.187889 
L 443.251238 301.161915 
L 444.506863 306.816189 
L 445.762489 332.57267 
L 447.018114 314.20894 
L 448.27374 314.884077 
L 449.529365 315.981175 
L 450.784991 305.077711 
L 452.040617 306.647404 
L 453.296242 310.681349 
L 454.551868 332.57267 
L 455.807493 309.246682 
L 457.063119 312.537976 
L 458.318744 312.892423 
L 459.57437 304.689507 
L 460.829995 304.183154 
L 462.085621 315.002226 
L 463.341247 332.57267 
L 464.596872 318.867387 
L 465.852498 332.57267 
L 467.108123 302.478433 
L 468.363749 314.74905 
L 469.619374 304.773899 
L 470.875 314.512752 
L 472.130626 332.57267 
L 474.641877 305.719091 
L 475.897502 313.24687 
L 477.153128 313.972642 
L 478.408753 304.621993 
L 479.664379 315.221646 
L 480.920005 332.57267 
L 482.17563 310.191874 
L 483.431256 298.798935 
L 484.686881 310.731984 
L 485.942507 308.605302 
L 487.198132 303.963734 
L 488.453758 312.959937 
L 489.709383 332.57267 
L 490.965009 299.153382 
L 492.220635 301.499484 
L 493.47626 290.781682 
L 494.731886 307.390055 
L 495.987511 298.647029 
L 497.243137 306.006024 
L 498.498762 332.57267 
L 499.754388 307.676989 
L 501.010014 293.465352 
L 502.265639 284.401636 
L 503.521265 300.25048 
L 504.77689 296.284049 
L 506.032516 302.799123 
L 507.288141 332.57267 
L 508.543767 293.80292 
L 509.799392 296.824159 
L 511.055018 285.785667 
L 512.310644 310.596957 
L 513.566269 270.882015 
L 514.821895 298.241947 
L 516.07752 332.57267 
L 517.333146 303.47426 
L 518.588771 290.190937 
L 519.844397 290.663533 
L 521.100023 295.423249 
L 522.355648 297.499296 
L 523.611274 293.48223 
L 524.866899 332.57267 
L 526.122525 286.241384 
L 527.37815 284.469149 
L 528.633776 293.786042 
L 529.889401 290.545384 
L 531.145027 295.727061 
L 532.400653 294.326152 
L 533.656278 332.57267 
L 534.911904 292.182591 
L 536.167529 299.828519 
L 537.423155 289.566435 
L 538.67878 301.550119 
L 539.934406 304.723264 
L 541.190032 299.642857 
L 542.445657 332.57267 
L 543.701283 287.169698 
L 544.956908 294.798748 
L 546.212534 292.604552 
L 547.468159 296.976065 
L 548.723785 269.312321 
L 549.97941 298.647029 
L 551.235036 332.57267 
L 552.490662 284.89111 
L 553.746287 288.047376 
L 555.001913 283.338295 
L 556.257538 271.135191 
L 557.513164 276.823221 
L 558.768789 280.840287 
L 560.024415 332.57267 
L 561.280041 283.405808 
L 562.535666 268.907238 
L 563.791292 275.844272 
L 565.046917 284.232851 
L 566.302543 283.473322 
L 567.558168 288.705635 
L 568.813794 332.57267 
L 570.069419 277.582751 
L 571.325045 277.329574 
L 572.580671 270.949528 
L 573.836296 274.409606 
L 575.091922 273.126846 
L 576.347547 288.519972 
L 577.603173 332.57267 
L 578.858798 288.536851 
L 580.114424 265.886 
L 581.37005 291.794387 
L 582.625675 227.656359 
L 583.881301 261.379459 
L 585.136926 258.240072 
L 586.392552 332.57267 
L 587.648177 240.585236 
L 588.903803 201.66358 
L 590.159428 232.551104 
L 591.415054 243.21827 
L 592.67068 234.981597 
L 595.181931 332.57267 
L 596.437556 308.082071 
L 597.693182 294.039218 
L 598.948807 297.34739 
L 600.204433 309.803671 
L 601.460059 302.360284 
L 602.715684 279.996366 
L 603.97131 332.57267 
L 605.226935 323.762131 
L 606.482561 302.816001 
L 607.738186 305.803483 
L 608.993812 327.661048 
L 610.249437 316.318744 
L 611.505063 332.57267 
L 624.061319 332.57267 
L 625.316944 312.588611 
L 626.57257 303.15357 
L 627.828195 301.65139 
L 629.083821 302.29277 
L 630.339446 332.57267 
L 631.595072 313.719466 
L 632.850698 299.220896 
L 634.106323 308.031436 
L 635.361949 302.039593 
L 636.617574 308.183341 
L 637.8732 307.086244 
L 639.128825 332.57267 
L 640.384451 321.669206 
L 641.640077 289.414529 
L 642.895702 308.149585 
L 644.151328 308.672816 
L 646.662579 305.668456 
L 647.918204 332.57267 
L 649.17383 317.736532 
L 650.429455 307.508204 
L 651.685081 304.65575 
L 652.940707 310.816376 
L 654.196332 305.989146 
L 655.451958 315.559215 
L 656.707583 332.57267 
L 657.963209 320.386445 
L 659.218834 307.103122 
L 660.47446 306.006024 
L 661.730086 308.757208 
L 662.985711 315.879905 
L 664.241337 311.778447 
L 665.496962 332.57267 
L 666.752588 327.863589 
L 668.008213 311.288972 
L 669.263839 311.84596 
L 670.519464 317.736532 
L 671.77509 319.323104 
L 673.030716 316.420014 
L 674.286341 332.57267 
L 675.541967 322.040531 
L 676.797592 313.871372 
L 678.053218 310.039968 
L 679.308843 312.470462 
L 680.564469 303.558652 
L 683.07572 332.57267 
L 684.331346 317.989708 
L 685.586971 308.52091 
L 686.842597 305.685334 
L 688.098222 305.93851 
L 689.353848 310.731984 
L 690.609473 316.065567 
L 691.865099 332.57267 
L 693.120725 318.867387 
L 694.37635 303.25484 
L 695.631976 309.601129 
L 696.887601 316.79134 
L 698.143227 309.128533 
L 699.398852 313.88825 
L 700.654478 332.57267 
L 701.910104 318.327277 
L 703.165729 299.305288 
L 704.421355 305.567185 
L 705.67698 311.018917 
L 706.932606 313.483168 
L 708.188231 316.386258 
L 709.443857 332.57267 
L 711.955108 313.820736 
L 713.210734 310.765741 
L 714.466359 317.820924 
L 715.721985 297.56681 
L 716.97761 309.297318 
L 718.233236 332.57267 
L 719.488861 308.048314 
L 720.744487 314.546509 
L 722.000113 292.334497 
L 723.255738 310.310023 
L 724.511364 305.955389 
L 725.766989 309.179169 
L 727.022615 332.57267 
L 728.27824 320.133269 
L 729.533866 304.351938 
L 730.789491 299.102747 
L 732.045117 305.735969 
L 733.300743 303.237962 
L 734.556368 311.288972 
L 735.811994 332.57267 
L 737.067619 320.234539 
L 738.323245 303.79495 
L 739.57887 312.06538 
L 740.834496 313.635074 
L 742.090122 306.79931 
L 743.345747 308.250855 
L 744.601373 332.57267 
L 745.856998 316.706948 
L 747.112624 311.322729 
L 749.623875 314.816564 
L 750.8795 305.432158 
L 752.135126 307.541961 
L 753.390752 332.57267 
L 754.646377 316.234352 
L 755.902003 278.426672 
L 757.157628 300.723076 
L 758.413254 315.272281 
L 759.668879 299.997304 
L 760.924505 332.57267 
L 764.691382 332.57267 
L 765.947007 300.453021 
L 767.202633 310.512564 
L 768.458258 312.453584 
L 769.713884 332.57267 
L 770.969509 332.57267 
L 772.225135 324.943621 
L 773.480761 332.57267 
L 774.736386 308.115828 
L 775.992012 312.976815 
L 777.247637 301.550119 
L 778.503263 297.955014 
L 779.758888 332.57267 
L 781.014514 307.153757 
L 782.27014 302.765366 
L 783.525765 288.925055 
L 784.781391 303.862464 
L 786.037016 299.406559 
L 787.292642 308.52091 
L 788.548267 332.57267 
L 791.059518 305.415279 
L 792.315144 299.963547 
L 793.57077 309.516737 
L 794.826395 299.676613 
L 796.082021 313.516925 
L 797.337646 332.57267 
L 798.593272 306.174808 
L 799.848897 304.790777 
L 801.104523 303.035421 
L 802.360149 310.259388 
L 803.615774 316.183716 
L 804.8714 312.824909 
L 806.127025 332.57267 
L 807.382651 321.905504 
L 808.638276 332.57267 
L 809.893902 310.951404 
L 811.149527 307.997679 
L 812.405153 305.769726 
L 813.660779 318.090979 
L 814.916404 332.57267 
L 816.17203 306.225444 
L 817.427655 311.829082 
L 818.683281 300.064817 
L 819.938906 293.296567 
L 821.194532 301.347578 
L 822.450158 314.563387 
L 823.705783 332.57267 
L 824.961409 314.42836 
L 826.217034 307.727624 
L 827.47266 305.786605 
L 828.728285 303.57553 
L 829.983911 306.681161 
L 831.239536 316.352501 
L 832.495162 332.57267 
L 833.750788 312.875544 
L 835.006413 298.478245 
L 837.517664 315.407309 
L 838.77329 299.271531 
L 840.028915 315.035983 
L 841.284541 332.57267 
L 842.540167 320.622743 
L 843.795792 312.622368 
L 845.051418 314.96847 
L 846.307043 309.651765 
L 847.562669 305.229616 
L 848.818294 315.238524 
L 850.07392 332.57267 
L 851.329545 322.411857 
L 851.329545 322.411857 
" style="fill:none;stroke:#1f77b4;stroke-linecap:square;stroke-width:1.5;"/>
   </g>
   <g id="patch_8">
    <path d="M 52.375 339.118125 
L 52.375 195.118125 
" style="fill:none;stroke:#000000;stroke-linecap:square;stroke-linejoin:miter;stroke-width:0.8;"/>
   </g>
   <g id="patch_9">
    <path d="M 889.375 339.118125 
L 889.375 195.118125 
" style="fill:none;stroke:#000000;stroke-linecap:square;stroke-linejoin:miter;stroke-width:0.8;"/>
   </g>
   <g id="patch_10">
    <path d="M 52.375 339.118125 
L 889.375 339.118125 
" style="fill:none;stroke:#000000;stroke-linecap:square;stroke-linejoin:miter;stroke-width:0.8;"/>
   </g>
   <g id="patch_11">
    <path d="M 52.375 195.118125 
L 889.375 195.118125 
" style="fill:none;stroke:#000000;stroke-linecap:square;stroke-linejoin:miter;stroke-width:0.8;"/>
   </g>
   <g id="text_11">
    <!-- Purchases all -->
    <defs>
     <path d="M 19.671875 64.796875 
L 19.671875 37.40625 
L 32.078125 37.40625 
Q 38.96875 37.40625 42.71875 40.96875 
Q 46.484375 44.53125 46.484375 51.125 
Q 46.484375 57.671875 42.71875 61.234375 
Q 38.96875 64.796875 32.078125 64.796875 
z
M 9.8125 72.90625 
L 32.078125 72.90625 
Q 44.34375 72.90625 50.609375 67.359375 
Q 56.890625 61.8125 56.890625 51.125 
Q 56.890625 40.328125 50.609375 34.8125 
Q 44.34375 29.296875 32.078125 29.296875 
L 19.671875 29.296875 
L 19.671875 0 
L 9.8125 0 
z
" id="DejaVuSans-80"/>
     <path d="M 41.109375 46.296875 
Q 39.59375 47.171875 37.8125 47.578125 
Q 36.03125 48 33.890625 48 
Q 26.265625 48 22.1875 43.046875 
Q 18.109375 38.09375 18.109375 28.8125 
L 18.109375 0 
L 9.078125 0 
L 9.078125 54.6875 
L 18.109375 54.6875 
L 18.109375 46.1875 
Q 20.953125 51.171875 25.484375 53.578125 
Q 30.03125 56 36.53125 56 
Q 37.453125 56 38.578125 55.875 
Q 39.703125 55.765625 41.0625 55.515625 
z
" id="DejaVuSans-114"/>
     <path d="M 48.78125 52.59375 
L 48.78125 44.1875 
Q 44.96875 46.296875 41.140625 47.34375 
Q 37.3125 48.390625 33.40625 48.390625 
Q 24.65625 48.390625 19.8125 42.84375 
Q 14.984375 37.3125 14.984375 27.296875 
Q 14.984375 17.28125 19.8125 11.734375 
Q 24.65625 6.203125 33.40625 6.203125 
Q 37.3125 6.203125 41.140625 7.25 
Q 44.96875 8.296875 48.78125 10.40625 
L 48.78125 2.09375 
Q 45.015625 0.34375 40.984375 -0.53125 
Q 36.96875 -1.421875 32.421875 -1.421875 
Q 20.0625 -1.421875 12.78125 6.34375 
Q 5.515625 14.109375 5.515625 27.296875 
Q 5.515625 40.671875 12.859375 48.328125 
Q 20.21875 56 33.015625 56 
Q 37.15625 56 41.109375 55.140625 
Q 45.0625 54.296875 48.78125 52.59375 
z
" id="DejaVuSans-99"/>
     <path d="M 54.890625 33.015625 
L 54.890625 0 
L 45.90625 0 
L 45.90625 32.71875 
Q 45.90625 40.484375 42.875 44.328125 
Q 39.84375 48.1875 33.796875 48.1875 
Q 26.515625 48.1875 22.3125 43.546875 
Q 18.109375 38.921875 18.109375 30.90625 
L 18.109375 0 
L 9.078125 0 
L 9.078125 75.984375 
L 18.109375 75.984375 
L 18.109375 46.1875 
Q 21.34375 51.125 25.703125 53.5625 
Q 30.078125 56 35.796875 56 
Q 45.21875 56 50.046875 50.171875 
Q 54.890625 44.34375 54.890625 33.015625 
z
" id="DejaVuSans-104"/>
     <path d="M 44.28125 53.078125 
L 44.28125 44.578125 
Q 40.484375 46.53125 36.375 47.5 
Q 32.28125 48.484375 27.875 48.484375 
Q 21.1875 48.484375 17.84375 46.4375 
Q 14.5 44.390625 14.5 40.28125 
Q 14.5 37.15625 16.890625 35.375 
Q 19.28125 33.59375 26.515625 31.984375 
L 29.59375 31.296875 
Q 39.15625 29.25 43.1875 25.515625 
Q 47.21875 21.78125 47.21875 15.09375 
Q 47.21875 7.46875 41.1875 3.015625 
Q 35.15625 -1.421875 24.609375 -1.421875 
Q 20.21875 -1.421875 15.453125 -0.5625 
Q 10.6875 0.296875 5.421875 2 
L 5.421875 11.28125 
Q 10.40625 8.6875 15.234375 7.390625 
Q 20.0625 6.109375 24.8125 6.109375 
Q 31.15625 6.109375 34.5625 8.28125 
Q 37.984375 10.453125 37.984375 14.40625 
Q 37.984375 18.0625 35.515625 20.015625 
Q 33.0625 21.96875 24.703125 23.78125 
L 21.578125 24.515625 
Q 13.234375 26.265625 9.515625 29.90625 
Q 5.8125 33.546875 5.8125 39.890625 
Q 5.8125 47.609375 11.28125 51.796875 
Q 16.75 56 26.8125 56 
Q 31.78125 56 36.171875 55.265625 
Q 40.578125 54.546875 44.28125 53.078125 
z
" id="DejaVuSans-115"/>
    </defs>
    <g transform="translate(431.351875 189.118125)scale(0.12 -0.12)">
     <use xlink:href="#DejaVuSans-80"/>
     <use x="60.287109" xlink:href="#DejaVuSans-117"/>
     <use x="123.666016" xlink:href="#DejaVuSans-114"/>
     <use x="164.748047" xlink:href="#DejaVuSans-99"/>
     <use x="219.728516" xlink:href="#DejaVuSans-104"/>
     <use x="283.107422" xlink:href="#DejaVuSans-97"/>
     <use x="344.386719" xlink:href="#DejaVuSans-115"/>
     <use x="396.486328" xlink:href="#DejaVuSans-101"/>
     <use x="458.009766" xlink:href="#DejaVuSans-115"/>
     <use x="510.109375" xlink:href="#DejaVuSans-32"/>
     <use x="541.896484" xlink:href="#DejaVuSans-97"/>
     <use x="603.175781" xlink:href="#DejaVuSans-108"/>
     <use x="630.958984" xlink:href="#DejaVuSans-108"/>
    </g>
   </g>
  </g>
  <g id="axes_3">
   <g id="patch_12">
    <path d="M 52.375 511.918125 
L 889.375 511.918125 
L 889.375 367.918125 
L 52.375 367.918125 
z
" style="fill:#ffffff;"/>
   </g>
   <g id="matplotlib.axis_5">
    <g id="xtick_23">
     <g id="line2d_34">
      <g>
       <use style="stroke:#000000;stroke-width:0.8;" x="90.420455" xlink:href="#mb7c3ddee5d" y="511.918125"/>
      </g>
     </g>
     <g id="text_12">
      <!-- 2017-11 -->
      <defs>
       <path d="M 8.203125 72.90625 
L 55.078125 72.90625 
L 55.078125 68.703125 
L 28.609375 0 
L 18.3125 0 
L 43.21875 64.59375 
L 8.203125 64.59375 
z
" id="DejaVuSans-55"/>
       <path d="M 4.890625 31.390625 
L 31.203125 31.390625 
L 31.203125 23.390625 
L 4.890625 23.390625 
z
" id="DejaVuSans-45"/>
      </defs>
      <g transform="translate(53.195634 546.389971)rotate(-30)scale(0.1 -0.1)">
       <use xlink:href="#DejaVuSans-50"/>
       <use x="63.623047" xlink:href="#DejaVuSans-48"/>
       <use x="127.246094" xlink:href="#DejaVuSans-49"/>
       <use x="190.869141" xlink:href="#DejaVuSans-55"/>
       <use x="254.492188" xlink:href="#DejaVuSans-45"/>
       <use x="290.576172" xlink:href="#DejaVuSans-49"/>
       <use x="354.199219" xlink:href="#DejaVuSans-49"/>
      </g>
     </g>
    </g>
    <g id="xtick_24">
     <g id="line2d_35">
      <g>
       <use style="stroke:#000000;stroke-width:0.8;" x="167.013614" xlink:href="#mb7c3ddee5d" y="511.918125"/>
      </g>
     </g>
     <g id="text_13">
      <!-- 2018-01 -->
      <g transform="translate(129.788793 546.389971)rotate(-30)scale(0.1 -0.1)">
       <use xlink:href="#DejaVuSans-50"/>
       <use x="63.623047" xlink:href="#DejaVuSans-48"/>
       <use x="127.246094" xlink:href="#DejaVuSans-49"/>
       <use x="190.869141" xlink:href="#DejaVuSans-56"/>
       <use x="254.492188" xlink:href="#DejaVuSans-45"/>
       <use x="290.576172" xlink:href="#DejaVuSans-48"/>
       <use x="354.199219" xlink:href="#DejaVuSans-49"/>
      </g>
     </g>
    </g>
    <g id="xtick_25">
     <g id="line2d_36">
      <g>
       <use style="stroke:#000000;stroke-width:0.8;" x="241.095522" xlink:href="#mb7c3ddee5d" y="511.918125"/>
      </g>
     </g>
     <g id="text_14">
      <!-- 2018-03 -->
      <defs>
       <path d="M 40.578125 39.3125 
Q 47.65625 37.796875 51.625 33 
Q 55.609375 28.21875 55.609375 21.1875 
Q 55.609375 10.40625 48.1875 4.484375 
Q 40.765625 -1.421875 27.09375 -1.421875 
Q 22.515625 -1.421875 17.65625 -0.515625 
Q 12.796875 0.390625 7.625 2.203125 
L 7.625 11.71875 
Q 11.71875 9.328125 16.59375 8.109375 
Q 21.484375 6.890625 26.8125 6.890625 
Q 36.078125 6.890625 40.9375 10.546875 
Q 45.796875 14.203125 45.796875 21.1875 
Q 45.796875 27.640625 41.28125 31.265625 
Q 36.765625 34.90625 28.71875 34.90625 
L 20.21875 34.90625 
L 20.21875 43.015625 
L 29.109375 43.015625 
Q 36.375 43.015625 40.234375 45.921875 
Q 44.09375 48.828125 44.09375 54.296875 
Q 44.09375 59.90625 40.109375 62.90625 
Q 36.140625 65.921875 28.71875 65.921875 
Q 24.65625 65.921875 20.015625 65.03125 
Q 15.375 64.15625 9.8125 62.3125 
L 9.8125 71.09375 
Q 15.4375 72.65625 20.34375 73.4375 
Q 25.25 74.21875 29.59375 74.21875 
Q 40.828125 74.21875 47.359375 69.109375 
Q 53.90625 64.015625 53.90625 55.328125 
Q 53.90625 49.265625 50.4375 45.09375 
Q 46.96875 40.921875 40.578125 39.3125 
z
" id="DejaVuSans-51"/>
      </defs>
      <g transform="translate(203.870701 546.389971)rotate(-30)scale(0.1 -0.1)">
       <use xlink:href="#DejaVuSans-50"/>
       <use x="63.623047" xlink:href="#DejaVuSans-48"/>
       <use x="127.246094" xlink:href="#DejaVuSans-49"/>
       <use x="190.869141" xlink:href="#DejaVuSans-56"/>
       <use x="254.492188" xlink:href="#DejaVuSans-45"/>
       <use x="290.576172" xlink:href="#DejaVuSans-48"/>
       <use x="354.199219" xlink:href="#DejaVuSans-51"/>
      </g>
     </g>
    </g>
    <g id="xtick_26">
     <g id="line2d_37">
      <g>
       <use style="stroke:#000000;stroke-width:0.8;" x="317.688681" xlink:href="#mb7c3ddee5d" y="511.918125"/>
      </g>
     </g>
     <g id="text_15">
      <!-- 2018-05 -->
      <g transform="translate(280.463861 546.389971)rotate(-30)scale(0.1 -0.1)">
       <use xlink:href="#DejaVuSans-50"/>
       <use x="63.623047" xlink:href="#DejaVuSans-48"/>
       <use x="127.246094" xlink:href="#DejaVuSans-49"/>
       <use x="190.869141" xlink:href="#DejaVuSans-56"/>
       <use x="254.492188" xlink:href="#DejaVuSans-45"/>
       <use x="290.576172" xlink:href="#DejaVuSans-48"/>
       <use x="354.199219" xlink:href="#DejaVuSans-53"/>
      </g>
     </g>
    </g>
    <g id="xtick_27">
     <g id="line2d_38">
      <g>
       <use style="stroke:#000000;stroke-width:0.8;" x="394.281841" xlink:href="#mb7c3ddee5d" y="511.918125"/>
      </g>
     </g>
     <g id="text_16">
      <!-- 2018-07 -->
      <g transform="translate(357.05702 546.389971)rotate(-30)scale(0.1 -0.1)">
       <use xlink:href="#DejaVuSans-50"/>
       <use x="63.623047" xlink:href="#DejaVuSans-48"/>
       <use x="127.246094" xlink:href="#DejaVuSans-49"/>
       <use x="190.869141" xlink:href="#DejaVuSans-56"/>
       <use x="254.492188" xlink:href="#DejaVuSans-45"/>
       <use x="290.576172" xlink:href="#DejaVuSans-48"/>
       <use x="354.199219" xlink:href="#DejaVuSans-55"/>
      </g>
     </g>
    </g>
    <g id="xtick_28">
     <g id="line2d_39">
      <g>
       <use style="stroke:#000000;stroke-width:0.8;" x="472.130626" xlink:href="#mb7c3ddee5d" y="511.918125"/>
      </g>
     </g>
     <g id="text_17">
      <!-- 2018-09 -->
      <defs>
       <path d="M 10.984375 1.515625 
L 10.984375 10.5 
Q 14.703125 8.734375 18.5 7.8125 
Q 22.3125 6.890625 25.984375 6.890625 
Q 35.75 6.890625 40.890625 13.453125 
Q 46.046875 20.015625 46.78125 33.40625 
Q 43.953125 29.203125 39.59375 26.953125 
Q 35.25 24.703125 29.984375 24.703125 
Q 19.046875 24.703125 12.671875 31.3125 
Q 6.296875 37.9375 6.296875 49.421875 
Q 6.296875 60.640625 12.9375 67.421875 
Q 19.578125 74.21875 30.609375 74.21875 
Q 43.265625 74.21875 49.921875 64.515625 
Q 56.59375 54.828125 56.59375 36.375 
Q 56.59375 19.140625 48.40625 8.859375 
Q 40.234375 -1.421875 26.421875 -1.421875 
Q 22.703125 -1.421875 18.890625 -0.6875 
Q 15.09375 0.046875 10.984375 1.515625 
z
M 30.609375 32.421875 
Q 37.25 32.421875 41.125 36.953125 
Q 45.015625 41.5 45.015625 49.421875 
Q 45.015625 57.28125 41.125 61.84375 
Q 37.25 66.40625 30.609375 66.40625 
Q 23.96875 66.40625 20.09375 61.84375 
Q 16.21875 57.28125 16.21875 49.421875 
Q 16.21875 41.5 20.09375 36.953125 
Q 23.96875 32.421875 30.609375 32.421875 
z
" id="DejaVuSans-57"/>
      </defs>
      <g transform="translate(434.905805 546.389971)rotate(-30)scale(0.1 -0.1)">
       <use xlink:href="#DejaVuSans-50"/>
       <use x="63.623047" xlink:href="#DejaVuSans-48"/>
       <use x="127.246094" xlink:href="#DejaVuSans-49"/>
       <use x="190.869141" xlink:href="#DejaVuSans-56"/>
       <use x="254.492188" xlink:href="#DejaVuSans-45"/>
       <use x="290.576172" xlink:href="#DejaVuSans-48"/>
       <use x="354.199219" xlink:href="#DejaVuSans-57"/>
      </g>
     </g>
    </g>
    <g id="xtick_29">
     <g id="line2d_40">
      <g>
       <use style="stroke:#000000;stroke-width:0.8;" x="548.723785" xlink:href="#mb7c3ddee5d" y="511.918125"/>
      </g>
     </g>
     <g id="text_18">
      <!-- 2018-11 -->
      <g transform="translate(511.498964 546.389971)rotate(-30)scale(0.1 -0.1)">
       <use xlink:href="#DejaVuSans-50"/>
       <use x="63.623047" xlink:href="#DejaVuSans-48"/>
       <use x="127.246094" xlink:href="#DejaVuSans-49"/>
       <use x="190.869141" xlink:href="#DejaVuSans-56"/>
       <use x="254.492188" xlink:href="#DejaVuSans-45"/>
       <use x="290.576172" xlink:href="#DejaVuSans-49"/>
       <use x="354.199219" xlink:href="#DejaVuSans-49"/>
      </g>
     </g>
    </g>
    <g id="xtick_30">
     <g id="line2d_41">
      <g>
       <use style="stroke:#000000;stroke-width:0.8;" x="625.316944" xlink:href="#mb7c3ddee5d" y="511.918125"/>
      </g>
     </g>
     <g id="text_19">
      <!-- 2019-01 -->
      <g transform="translate(588.092123 546.389971)rotate(-30)scale(0.1 -0.1)">
       <use xlink:href="#DejaVuSans-50"/>
       <use x="63.623047" xlink:href="#DejaVuSans-48"/>
       <use x="127.246094" xlink:href="#DejaVuSans-49"/>
       <use x="190.869141" xlink:href="#DejaVuSans-57"/>
       <use x="254.492188" xlink:href="#DejaVuSans-45"/>
       <use x="290.576172" xlink:href="#DejaVuSans-48"/>
       <use x="354.199219" xlink:href="#DejaVuSans-49"/>
      </g>
     </g>
    </g>
    <g id="xtick_31">
     <g id="line2d_42">
      <g>
       <use style="stroke:#000000;stroke-width:0.8;" x="699.398852" xlink:href="#mb7c3ddee5d" y="511.918125"/>
      </g>
     </g>
     <g id="text_20">
      <!-- 2019-03 -->
      <g transform="translate(662.174032 546.389971)rotate(-30)scale(0.1 -0.1)">
       <use xlink:href="#DejaVuSans-50"/>
       <use x="63.623047" xlink:href="#DejaVuSans-48"/>
       <use x="127.246094" xlink:href="#DejaVuSans-49"/>
       <use x="190.869141" xlink:href="#DejaVuSans-57"/>
       <use x="254.492188" xlink:href="#DejaVuSans-45"/>
       <use x="290.576172" xlink:href="#DejaVuSans-48"/>
       <use x="354.199219" xlink:href="#DejaVuSans-51"/>
      </g>
     </g>
    </g>
    <g id="xtick_32">
     <g id="line2d_43">
      <g>
       <use style="stroke:#000000;stroke-width:0.8;" x="775.992012" xlink:href="#mb7c3ddee5d" y="511.918125"/>
      </g>
     </g>
     <g id="text_21">
      <!-- 2019-05 -->
      <g transform="translate(738.767191 546.389971)rotate(-30)scale(0.1 -0.1)">
       <use xlink:href="#DejaVuSans-50"/>
       <use x="63.623047" xlink:href="#DejaVuSans-48"/>
       <use x="127.246094" xlink:href="#DejaVuSans-49"/>
       <use x="190.869141" xlink:href="#DejaVuSans-57"/>
       <use x="254.492188" xlink:href="#DejaVuSans-45"/>
       <use x="290.576172" xlink:href="#DejaVuSans-48"/>
       <use x="354.199219" xlink:href="#DejaVuSans-53"/>
      </g>
     </g>
    </g>
    <g id="xtick_33">
     <g id="line2d_44">
      <g>
       <use style="stroke:#000000;stroke-width:0.8;" x="852.585171" xlink:href="#mb7c3ddee5d" y="511.918125"/>
      </g>
     </g>
     <g id="text_22">
      <!-- 2019-07 -->
      <g transform="translate(815.36035 546.389971)rotate(-30)scale(0.1 -0.1)">
       <use xlink:href="#DejaVuSans-50"/>
       <use x="63.623047" xlink:href="#DejaVuSans-48"/>
       <use x="127.246094" xlink:href="#DejaVuSans-49"/>
       <use x="190.869141" xlink:href="#DejaVuSans-57"/>
       <use x="254.492188" xlink:href="#DejaVuSans-45"/>
       <use x="290.576172" xlink:href="#DejaVuSans-48"/>
       <use x="354.199219" xlink:href="#DejaVuSans-55"/>
      </g>
     </g>
    </g>
   </g>
   <g id="matplotlib.axis_6">
    <g id="ytick_10">
     <g id="line2d_45">
      <g>
       <use style="stroke:#000000;stroke-width:0.8;" x="52.375" xlink:href="#m0865e9ced9" y="505.37267"/>
      </g>
     </g>
     <g id="text_23">
      <!-- 0 -->
      <g transform="translate(39.0125 509.171889)scale(0.1 -0.1)">
       <use xlink:href="#DejaVuSans-48"/>
      </g>
     </g>
    </g>
    <g id="ytick_11">
     <g id="line2d_46">
      <g>
       <use style="stroke:#000000;stroke-width:0.8;" x="52.375" xlink:href="#m0865e9ced9" y="483.089513"/>
      </g>
     </g>
     <g id="text_24">
      <!-- 5000 -->
      <g transform="translate(19.925 486.888732)scale(0.1 -0.1)">
       <use xlink:href="#DejaVuSans-53"/>
       <use x="63.623047" xlink:href="#DejaVuSans-48"/>
       <use x="127.246094" xlink:href="#DejaVuSans-48"/>
       <use x="190.869141" xlink:href="#DejaVuSans-48"/>
      </g>
     </g>
    </g>
    <g id="ytick_12">
     <g id="line2d_47">
      <g>
       <use style="stroke:#000000;stroke-width:0.8;" x="52.375" xlink:href="#m0865e9ced9" y="460.806356"/>
      </g>
     </g>
     <g id="text_25">
      <!-- 10000 -->
      <g transform="translate(13.5625 464.605575)scale(0.1 -0.1)">
       <use xlink:href="#DejaVuSans-49"/>
       <use x="63.623047" xlink:href="#DejaVuSans-48"/>
       <use x="127.246094" xlink:href="#DejaVuSans-48"/>
       <use x="190.869141" xlink:href="#DejaVuSans-48"/>
       <use x="254.492188" xlink:href="#DejaVuSans-48"/>
      </g>
     </g>
    </g>
    <g id="ytick_13">
     <g id="line2d_48">
      <g>
       <use style="stroke:#000000;stroke-width:0.8;" x="52.375" xlink:href="#m0865e9ced9" y="438.523199"/>
      </g>
     </g>
     <g id="text_26">
      <!-- 15000 -->
      <g transform="translate(13.5625 442.322418)scale(0.1 -0.1)">
       <use xlink:href="#DejaVuSans-49"/>
       <use x="63.623047" xlink:href="#DejaVuSans-53"/>
       <use x="127.246094" xlink:href="#DejaVuSans-48"/>
       <use x="190.869141" xlink:href="#DejaVuSans-48"/>
       <use x="254.492188" xlink:href="#DejaVuSans-48"/>
      </g>
     </g>
    </g>
    <g id="ytick_14">
     <g id="line2d_49">
      <g>
       <use style="stroke:#000000;stroke-width:0.8;" x="52.375" xlink:href="#m0865e9ced9" y="416.240042"/>
      </g>
     </g>
     <g id="text_27">
      <!-- 20000 -->
      <g transform="translate(13.5625 420.039261)scale(0.1 -0.1)">
       <use xlink:href="#DejaVuSans-50"/>
       <use x="63.623047" xlink:href="#DejaVuSans-48"/>
       <use x="127.246094" xlink:href="#DejaVuSans-48"/>
       <use x="190.869141" xlink:href="#DejaVuSans-48"/>
       <use x="254.492188" xlink:href="#DejaVuSans-48"/>
      </g>
     </g>
    </g>
    <g id="ytick_15">
     <g id="line2d_50">
      <g>
       <use style="stroke:#000000;stroke-width:0.8;" x="52.375" xlink:href="#m0865e9ced9" y="393.956885"/>
      </g>
     </g>
     <g id="text_28">
      <!-- 25000 -->
      <g transform="translate(13.5625 397.756104)scale(0.1 -0.1)">
       <use xlink:href="#DejaVuSans-50"/>
       <use x="63.623047" xlink:href="#DejaVuSans-53"/>
       <use x="127.246094" xlink:href="#DejaVuSans-48"/>
       <use x="190.869141" xlink:href="#DejaVuSans-48"/>
       <use x="254.492188" xlink:href="#DejaVuSans-48"/>
      </g>
     </g>
    </g>
    <g id="ytick_16">
     <g id="line2d_51">
      <g>
       <use style="stroke:#000000;stroke-width:0.8;" x="52.375" xlink:href="#m0865e9ced9" y="371.673728"/>
      </g>
     </g>
     <g id="text_29">
      <!-- 30000 -->
      <g transform="translate(13.5625 375.472947)scale(0.1 -0.1)">
       <use xlink:href="#DejaVuSans-51"/>
       <use x="63.623047" xlink:href="#DejaVuSans-48"/>
       <use x="127.246094" xlink:href="#DejaVuSans-48"/>
       <use x="190.869141" xlink:href="#DejaVuSans-48"/>
       <use x="254.492188" xlink:href="#DejaVuSans-48"/>
      </g>
     </g>
    </g>
   </g>
   <g id="line2d_52">
    <path clip-path="url(#p54914df5ea)" d="M 90.420455 505.37267 
L 123.066719 505.37267 
L 124.322345 438.313738 
L 125.57797 442.271226 
L 126.833596 435.10942 
L 128.089221 449.557819 
L 129.344847 490.607851 
L 130.600473 467.295212 
L 131.856098 448.546163 
L 133.111724 449.201288 
L 134.367349 458.533474 
L 135.622975 451.959943 
L 136.8786 470.067236 
L 138.134226 505.37267 
L 140.645477 429.534174 
L 141.901103 455.783733 
L 143.156728 441.731974 
L 144.412354 463.012389 
L 145.667979 465.383317 
L 146.923605 505.37267 
L 148.17923 487.488209 
L 149.434856 491.05797 
L 150.690482 482.117968 
L 151.946107 491.877991 
L 153.201733 505.37267 
L 165.757988 505.37267 
L 167.013614 491.980493 
L 168.269239 480.402165 
L 169.524865 496.486147 
L 170.780491 467.49576 
L 172.036116 481.026093 
L 173.291742 505.37267 
L 174.547367 484.41759 
L 175.802993 466.680197 
L 177.058618 480.067917 
L 178.314244 479.943132 
L 179.569869 462.522159 
L 180.825495 485.166304 
L 182.081121 505.37267 
L 183.336746 479.969871 
L 184.592372 478.133739 
L 185.847997 465.601692 
L 187.103623 482.340799 
L 188.359248 472.892741 
L 189.614874 468.075122 
L 190.8705 505.37267 
L 192.126125 479.114198 
L 193.381751 471.105632 
L 194.637376 469.67951 
L 195.893002 471.283897 
L 197.148627 470.517356 
L 198.404253 477.772752 
L 199.659878 505.37267 
L 200.915504 471.992501 
L 202.17113 477.130997 
L 203.426755 473.538952 
L 204.682381 473.155682 
L 205.938006 468.654484 
L 207.193632 480.611626 
L 208.449257 505.37267 
L 209.704883 488.424101 
L 210.960509 475.88314 
L 212.216134 474.381256 
L 213.47176 492.118649 
L 214.727385 484.065516 
L 215.983011 486.86428 
L 217.238636 505.37267 
L 218.494262 476.502612 
L 219.749887 474.21636 
L 221.005513 464.469707 
L 222.261139 474.675393 
L 223.516764 467.98599 
L 224.77239 480.887938 
L 226.028015 505.37267 
L 228.539266 468.284584 
L 229.794892 476.007926 
L 231.050518 474.399082 
L 232.306143 463.021302 
L 234.817394 505.37267 
L 236.07302 480.344228 
L 237.328645 474.002442 
L 238.584271 471.667167 
L 239.839896 459.032617 
L 241.095522 453.332586 
L 242.351148 476.600658 
L 243.606773 505.37267 
L 244.862399 467.830007 
L 246.118024 465.664085 
L 247.37365 473.81972 
L 248.629275 467.170426 
L 249.884901 475.704875 
L 251.140527 481.525236 
L 252.396152 505.37267 
L 253.651778 492.163215 
L 254.907403 473.948962 
L 256.163029 473.155682 
L 257.418654 470.285611 
L 258.67428 461.563984 
L 259.929905 473.191335 
L 261.185531 505.37267 
L 262.441157 474.523868 
L 263.696782 468.204365 
L 264.952408 476.221844 
L 266.208033 465.739847 
L 267.463659 460.079925 
L 268.719284 470.963019 
L 269.97491 505.37267 
L 271.230536 463.622947 
L 272.486161 462.909886 
L 273.741787 460.565698 
L 274.997412 465.312011 
L 276.253038 463.016846 
L 277.508663 505.37267 
L 281.27554 505.37267 
L 282.531166 480.268466 
L 283.786791 470.5129 
L 285.042417 455.868409 
L 287.553668 505.37267 
L 288.809293 477.122084 
L 290.064919 475.531067 
L 291.320545 475.268125 
L 292.57617 471.26607 
L 293.831796 471.867716 
L 295.087421 479.332573 
L 296.343047 505.37267 
L 297.598672 475.669222 
L 298.854298 452.280821 
L 300.109923 469.545811 
L 301.365549 468.904056 
L 302.621175 460.966795 
L 303.8768 475.682592 
L 305.132426 505.37267 
L 306.388051 477.594487 
L 307.643677 463.622947 
L 308.899302 455.583184 
L 310.154928 455.008279 
L 311.410554 454.700771 
L 312.666179 475.575633 
L 313.921805 505.37267 
L 315.17743 484.849883 
L 316.433056 505.37267 
L 317.688681 471.814236 
L 318.944307 470.183109 
L 320.199932 446.121756 
L 321.455558 462.85195 
L 322.711184 505.37267 
L 323.966809 467.067924 
L 325.222435 464.465251 
L 326.47806 458.551301 
L 327.733686 470.477247 
L 328.989311 470.731275 
L 330.244937 484.230411 
L 331.500563 505.37267 
L 332.756188 479.412793 
L 334.011814 470.771384 
L 335.267439 474.595174 
L 336.523065 477.848515 
L 337.77869 463.912628 
L 339.034316 477.817318 
L 340.289941 505.37267 
L 341.545567 470.847147 
L 342.801193 460.913316 
L 344.056818 469.095691 
L 345.312444 461.56844 
L 346.568069 455.627751 
L 347.823695 474.786809 
L 349.07932 505.37267 
L 350.334946 489.645218 
L 351.590572 505.37267 
L 352.846197 479.818346 
L 354.101823 485.986324 
L 355.357448 466.176597 
L 356.613074 481.756981 
L 357.868699 505.37267 
L 359.124325 459.438171 
L 360.37995 449.82076 
L 361.635576 463.609578 
L 362.891202 464.924284 
L 364.146827 477.117627 
L 365.402453 460.289387 
L 366.658078 505.37267 
L 367.913704 472.785782 
L 369.169329 469.193737 
L 370.424955 465.147115 
L 371.680581 459.023704 
L 372.936206 463.26196 
L 374.191832 480.928047 
L 375.447457 505.37267 
L 376.703083 495.848849 
L 377.958708 467.776528 
L 379.214334 482.496781 
L 380.469959 473.35623 
L 381.725585 470.232132 
L 382.981211 478.677448 
L 384.236836 505.37267 
L 386.748087 455.859496 
L 388.003713 460.302757 
L 390.514964 454.179345 
L 391.77059 476.876969 
L 393.026215 505.37267 
L 394.281841 493.607164 
L 395.537466 454.812187 
L 396.793092 478.672992 
L 398.048717 466.337036 
L 399.304343 469.790925 
L 400.559968 484.832056 
L 401.815594 505.37267 
L 403.07122 494.084023 
L 404.326845 479.314747 
L 405.582471 480.861198 
L 408.093722 462.829667 
L 409.349347 471.417596 
L 410.604973 505.37267 
L 411.860599 483.316802 
L 413.116224 465.681911 
L 414.37185 473.574605 
L 415.627475 472.816978 
L 416.883101 471.430966 
L 418.138726 476.930449 
L 419.394352 505.37267 
L 420.649977 473.195792 
L 421.905603 465.922569 
L 423.161229 476.074776 
L 424.416854 467.286298 
L 425.67248 466.599977 
L 426.928105 484.738467 
L 428.183731 505.37267 
L 429.439356 487.042545 
L 430.694982 473.748414 
L 431.950608 472.61643 
L 433.206233 470.258872 
L 434.461859 469.799839 
L 435.717484 485.611967 
L 436.97311 505.37267 
L 438.228735 484.595855 
L 439.484361 476.324347 
L 440.739986 472.393598 
L 441.995612 483.655506 
L 443.251238 461.309956 
L 444.506863 468.498502 
L 445.762489 505.37267 
L 447.018114 476.226301 
L 448.27374 477.674706 
L 449.529365 474.421365 
L 450.784991 465.289728 
L 452.040617 465.846807 
L 453.296242 469.826578 
L 454.551868 505.37267 
L 455.807493 466.66237 
L 457.063119 470.000387 
L 458.318744 469.911254 
L 459.57437 460.605808 
L 460.829995 461.265389 
L 462.085621 482.229384 
L 463.341247 505.37267 
L 464.596872 482.897878 
L 465.852498 505.37267 
L 467.108123 466.216707 
L 468.363749 481.600999 
L 469.619374 460.797443 
L 470.875 478.704188 
L 472.130626 505.37267 
L 473.386251 484.756294 
L 474.641877 470.249958 
L 475.897502 475.178993 
L 477.153128 475.709332 
L 478.408753 462.437483 
L 479.664379 478.967129 
L 480.920005 505.37267 
L 482.17563 476.640768 
L 483.431256 462.00519 
L 484.686881 471.484445 
L 485.942507 463.32881 
L 487.198132 461.532787 
L 488.453758 474.768983 
L 489.709383 505.37267 
L 490.965009 464.57221 
L 492.220635 457.169745 
L 493.47626 429.765919 
L 494.731886 465.294184 
L 495.987511 445.578047 
L 497.243137 461.474851 
L 498.498762 505.37267 
L 499.754388 467.723048 
L 501.010014 436.909899 
L 502.265639 431.717923 
L 503.521265 447.891039 
L 504.77689 439.222891 
L 506.032516 461.711053 
L 507.288141 505.37267 
L 508.543767 447.25374 
L 509.799392 444.499542 
L 511.055018 423.794033 
L 512.310644 460.926685 
L 513.566269 422.621939 
L 514.821895 451.955486 
L 516.07752 505.37267 
L 517.333146 465.601692 
L 518.588771 441.250658 
L 519.844397 437.792312 
L 521.100023 445.774139 
L 522.355648 440.644556 
L 523.611274 445.876641 
L 524.866899 505.37267 
L 526.122525 447.824189 
L 527.37815 448.358985 
L 528.633776 450.515994 
L 529.889401 446.019253 
L 531.145027 450.810132 
L 532.400653 456.202656 
L 533.656278 505.37267 
L 534.911904 454.999366 
L 536.167529 460.895489 
L 537.423155 438.545483 
L 538.67878 459.193056 
L 539.934406 468.173168 
L 541.190032 452.450173 
L 542.445657 505.37267 
L 543.701283 451.273622 
L 544.956908 461.965081 
L 546.212534 447.534508 
L 547.468159 455.084042 
L 548.723785 419.136853 
L 549.97941 454.749794 
L 551.235036 505.37267 
L 552.490662 443.331905 
L 553.746287 444.544108 
L 555.001913 431.093995 
L 556.257538 429.146447 
L 557.513164 430.331911 
L 558.768789 444.022683 
L 560.024415 505.37267 
L 561.280041 455.141978 
L 562.535666 431.463895 
L 563.791292 419.983613 
L 565.046917 439.472462 
L 566.302543 442.672323 
L 567.558168 444.860529 
L 568.813794 505.37267 
L 570.069419 441.892413 
L 571.325045 444.009313 
L 572.580671 423.798489 
L 573.836296 437.836878 
L 575.091922 421.120054 
L 576.347547 446.50057 
L 577.603173 505.37267 
L 578.858798 460.218081 
L 580.114424 424.119367 
L 581.37005 437.894814 
L 582.625675 381.518427 
L 583.881301 388.074132 
L 585.136926 420.518408 
L 586.392552 505.37267 
L 587.648177 405.700109 
L 588.903803 374.46358 
L 590.159428 401.083039 
L 591.415054 382.249315 
L 592.67068 393.288391 
L 593.926305 453.158777 
L 595.181931 505.37267 
L 597.693182 457.521819 
L 598.948807 454.749794 
L 600.204433 467.433367 
L 601.460059 449.415207 
L 602.715684 459.696655 
L 603.97131 505.37267 
L 605.226935 494.043913 
L 606.482561 472.950677 
L 607.738186 481.788177 
L 608.993812 497.194752 
L 610.249437 486.686015 
L 611.505063 505.37267 
L 624.061319 505.37267 
L 625.316944 480.353142 
L 626.57257 467.678482 
L 627.828195 459.785788 
L 629.083821 460.177971 
L 630.339446 505.37267 
L 631.595072 479.096372 
L 632.850698 465.00896 
L 634.106323 470.06278 
L 635.361949 470.824864 
L 636.617574 474.809092 
L 637.8732 468.83275 
L 639.128825 505.37267 
L 640.384451 493.861192 
L 641.640077 458.930115 
L 642.895702 482.31406 
L 644.151328 472.291096 
L 645.406953 474.902682 
L 646.662579 471.078892 
L 647.918204 505.37267 
L 650.429455 472.210876 
L 651.685081 464.465251 
L 652.940707 475.067577 
L 654.196332 465.766587 
L 655.451958 479.938675 
L 656.707583 505.37267 
L 657.963209 492.296914 
L 659.218834 472.692192 
L 660.47446 468.106319 
L 661.730086 475.415194 
L 662.985711 480.406621 
L 664.241337 478.084716 
L 665.496962 505.37267 
L 666.752588 499.984603 
L 668.008213 479.591058 
L 669.263839 480.887938 
L 670.519464 486.91776 
L 671.77509 484.560202 
L 673.030716 482.7107 
L 674.286341 505.37267 
L 675.541967 495.773086 
L 676.797592 477.64351 
L 678.053218 471.618144 
L 679.308843 469.193737 
L 680.564469 467.486847 
L 681.820095 482.019922 
L 683.07572 505.37267 
L 684.331346 489.899246 
L 685.586971 469.126887 
L 686.842597 466.978791 
L 688.098222 469.621573 
L 689.353848 469.247216 
L 690.609473 473.200248 
L 691.865099 505.37267 
L 694.37635 472.794695 
L 695.631976 469.683966 
L 696.887601 478.396681 
L 698.143227 471.578035 
L 699.398852 476.480329 
L 700.654478 505.37267 
L 701.910104 490.286973 
L 703.165729 470.276698 
L 704.421355 465.677455 
L 705.67698 473.472103 
L 706.932606 473.351774 
L 708.188231 479.252354 
L 709.443857 505.37267 
L 710.699482 496.397015 
L 711.955108 477.977757 
L 713.210734 474.483758 
L 714.466359 479.675734 
L 715.721985 463.244134 
L 716.97761 473.106659 
L 718.233236 505.37267 
L 719.488861 470.651055 
L 720.744487 475.357258 
L 722.000113 461.483764 
L 723.255738 472.010328 
L 724.511364 464.58558 
L 725.766989 474.341146 
L 727.022615 505.37267 
L 728.27824 491.142646 
L 729.533866 467.050097 
L 730.789491 454.388807 
L 732.045117 463.177284 
L 733.300743 465.7755 
L 734.556368 471.965761 
L 735.811994 505.37267 
L 737.067619 493.237263 
L 738.323245 468.953079 
L 739.57887 473.842003 
L 740.834496 479.27018 
L 742.090122 473.686021 
L 743.345747 466.439538 
L 744.601373 505.37267 
L 745.856998 487.563971 
L 747.112624 466.310296 
L 748.368249 468.088492 
L 749.623875 472.019241 
L 750.8795 456.367552 
L 752.135126 474.501585 
L 753.390752 505.37267 
L 755.902003 457.922916 
L 758.413254 471.145741 
L 759.668879 462.187912 
L 760.924505 505.37267 
L 764.691382 505.37267 
L 765.947007 464.037414 
L 767.202633 470.44605 
L 768.458258 470.241045 
L 769.713884 505.37267 
L 770.969509 505.37267 
L 772.225135 493.914671 
L 773.480761 505.37267 
L 774.736386 472.063807 
L 775.992012 470.356918 
L 777.247637 460.628091 
L 778.503263 457.749107 
L 779.758888 505.37267 
L 781.014514 471.457705 
L 782.27014 463.422399 
L 783.525765 453.265736 
L 784.781391 459.611979 
L 786.037016 449.415207 
L 787.292642 466.733676 
L 788.548267 505.37267 
L 789.803893 489.542716 
L 791.059518 463.105978 
L 792.315144 456.149177 
L 793.57077 466.074095 
L 794.826395 452.534849 
L 796.082021 469.20265 
L 797.337646 505.37267 
L 798.593272 463.31544 
L 799.848897 467.081293 
L 801.104523 467.272929 
L 802.360149 472.937307 
L 803.615774 477.701446 
L 804.8714 475.646939 
L 806.127025 505.37267 
L 807.382651 493.63836 
L 808.638276 505.37267 
L 809.893902 475.642482 
L 811.149527 480.299662 
L 812.405153 470.294525 
L 813.660779 484.061059 
L 814.916404 505.37267 
L 816.17203 465.191682 
L 817.427655 473.80635 
L 818.683281 461.15843 
L 819.938906 450.609584 
L 821.194532 455.712427 
L 822.450158 479.261267 
L 823.705783 505.37267 
L 824.961409 484.043233 
L 826.217034 469.470048 
L 827.47266 473.712761 
L 828.728285 465.396687 
L 829.983911 462.09878 
L 831.239536 475.727158 
L 832.495162 505.37267 
L 833.750788 474.234187 
L 835.006413 463.235221 
L 836.262039 472.540667 
L 837.517664 473.547866 
L 838.77329 458.479995 
L 840.028915 476.827946 
L 841.284541 505.37267 
L 842.540167 493.116934 
L 843.795792 482.412105 
L 845.051418 475.045294 
L 846.307043 476.761097 
L 847.562669 463.324353 
L 848.818294 480.687389 
L 850.07392 505.37267 
L 851.329545 494.079566 
L 851.329545 494.079566 
" style="fill:none;stroke:#1f77b4;stroke-linecap:square;stroke-width:1.5;"/>
   </g>
   <g id="patch_13">
    <path d="M 52.375 511.918125 
L 52.375 367.918125 
" style="fill:none;stroke:#000000;stroke-linecap:square;stroke-linejoin:miter;stroke-width:0.8;"/>
   </g>
   <g id="patch_14">
    <path d="M 889.375 511.918125 
L 889.375 367.918125 
" style="fill:none;stroke:#000000;stroke-linecap:square;stroke-linejoin:miter;stroke-width:0.8;"/>
   </g>
   <g id="patch_15">
    <path d="M 52.375 511.918125 
L 889.375 511.918125 
" style="fill:none;stroke:#000000;stroke-linecap:square;stroke-linejoin:miter;stroke-width:0.8;"/>
   </g>
   <g id="patch_16">
    <path d="M 52.375 367.918125 
L 889.375 367.918125 
" style="fill:none;stroke:#000000;stroke-linecap:square;stroke-linejoin:miter;stroke-width:0.8;"/>
   </g>
   <g id="text_30">
    <!-- Total views -->
    <defs>
     <path d="M -0.296875 72.90625 
L 61.375 72.90625 
L 61.375 64.59375 
L 35.5 64.59375 
L 35.5 0 
L 25.59375 0 
L 25.59375 64.59375 
L -0.296875 64.59375 
z
" id="DejaVuSans-84"/>
     <path d="M 30.609375 48.390625 
Q 23.390625 48.390625 19.1875 42.75 
Q 14.984375 37.109375 14.984375 27.296875 
Q 14.984375 17.484375 19.15625 11.84375 
Q 23.34375 6.203125 30.609375 6.203125 
Q 37.796875 6.203125 41.984375 11.859375 
Q 46.1875 17.53125 46.1875 27.296875 
Q 46.1875 37.015625 41.984375 42.703125 
Q 37.796875 48.390625 30.609375 48.390625 
z
M 30.609375 56 
Q 42.328125 56 49.015625 48.375 
Q 55.71875 40.765625 55.71875 27.296875 
Q 55.71875 13.875 49.015625 6.21875 
Q 42.328125 -1.421875 30.609375 -1.421875 
Q 18.84375 -1.421875 12.171875 6.21875 
Q 5.515625 13.875 5.515625 27.296875 
Q 5.515625 40.765625 12.171875 48.375 
Q 18.84375 56 30.609375 56 
z
" id="DejaVuSans-111"/>
     <path d="M 18.3125 70.21875 
L 18.3125 54.6875 
L 36.8125 54.6875 
L 36.8125 47.703125 
L 18.3125 47.703125 
L 18.3125 18.015625 
Q 18.3125 11.328125 20.140625 9.421875 
Q 21.96875 7.515625 27.59375 7.515625 
L 36.8125 7.515625 
L 36.8125 0 
L 27.59375 0 
Q 17.1875 0 13.234375 3.875 
Q 9.28125 7.765625 9.28125 18.015625 
L 9.28125 47.703125 
L 2.6875 47.703125 
L 2.6875 54.6875 
L 9.28125 54.6875 
L 9.28125 70.21875 
z
" id="DejaVuSans-116"/>
     <path d="M 9.421875 54.6875 
L 18.40625 54.6875 
L 18.40625 0 
L 9.421875 0 
z
M 9.421875 75.984375 
L 18.40625 75.984375 
L 18.40625 64.59375 
L 9.421875 64.59375 
z
" id="DejaVuSans-105"/>
     <path d="M 4.203125 54.6875 
L 13.1875 54.6875 
L 24.421875 12.015625 
L 35.59375 54.6875 
L 46.1875 54.6875 
L 57.421875 12.015625 
L 68.609375 54.6875 
L 77.59375 54.6875 
L 63.28125 0 
L 52.6875 0 
L 40.921875 44.828125 
L 29.109375 0 
L 18.5 0 
z
" id="DejaVuSans-119"/>
    </defs>
    <g transform="translate(437.009687 361.918125)scale(0.12 -0.12)">
     <use xlink:href="#DejaVuSans-84"/>
     <use x="60.818359" xlink:href="#DejaVuSans-111"/>
     <use x="122" xlink:href="#DejaVuSans-116"/>
     <use x="161.208984" xlink:href="#DejaVuSans-97"/>
     <use x="222.488281" xlink:href="#DejaVuSans-108"/>
     <use x="250.271484" xlink:href="#DejaVuSans-32"/>
     <use x="282.058594" xlink:href="#DejaVuSans-118"/>
     <use x="341.238281" xlink:href="#DejaVuSans-105"/>
     <use x="369.021484" xlink:href="#DejaVuSans-101"/>
     <use x="430.544922" xlink:href="#DejaVuSans-119"/>
     <use x="512.332031" xlink:href="#DejaVuSans-115"/>
    </g>
   </g>
  </g>
 </g>
 <defs>
  <clipPath id="p9f3cec1bb7">
   <rect height="144" width="837" x="52.375" y="22.318125"/>
  </clipPath>
  <clipPath id="p2d2609611b">
   <rect height="144" width="837" x="52.375" y="195.118125"/>
  </clipPath>
  <clipPath id="p54914df5ea">
   <rect height="144" width="837" x="52.375" y="367.918125"/>
  </clipPath>
 </defs>
</svg>
