<?xml version="1.0" encoding="utf-8" standalone="no"?>
<!DOCTYPE svg PUBLIC "-//W3C//DTD SVG 1.1//EN"
  "http://www.w3.org/Graphics/SVG/1.1/DTD/svg11.dtd">
<!-- Created with matplotlib (https://matplotlib.org/) -->
<svg height="589.79625pt" version="1.1" viewBox="0 0 889.045313 589.79625" width="889.045313pt" xmlns="http://www.w3.org/2000/svg" xmlns:xlink="http://www.w3.org/1999/xlink">
 <metadata>
  <rdf:RDF xmlns:cc="http://creativecommons.org/ns#" xmlns:dc="http://purl.org/dc/elements/1.1/" xmlns:rdf="http://www.w3.org/1999/02/22-rdf-syntax-ns#">
   <cc:Work>
    <dc:type rdf:resource="http://purl.org/dc/dcmitype/StillImage"/>
    <dc:date>2021-02-11T11:33:18.466453</dc:date>
    <dc:format>image/svg+xml</dc:format>
    <dc:creator>
     <cc:Agent>
      <dc:title>Matplotlib v3.3.4, https://matplotlib.org/</dc:title>
     </cc:Agent>
    </dc:creator>
   </cc:Work>
  </rdf:RDF>
 </metadata>
 <defs>
  <style type="text/css">*{stroke-linecap:butt;stroke-linejoin:round;}</style>
 </defs>
 <g id="figure_1">
  <g id="patch_1">
   <path d="M 0 589.79625 
L 889.045313 589.79625 
L 889.045313 0 
L 0 0 
z
" style="fill:none;"/>
  </g>
  <g id="axes_1">
   <g id="patch_2">
    <path d="M 44.845313 182.200478 
L 881.845312 182.200478 
L 881.845312 22.318125 
L 44.845313 22.318125 
z
" style="fill:#ffffff;"/>
   </g>
   <g id="PolyCollection_1">
    <path clip-path="url(#p43072fa2c0)" d="M 96.240049 152.251715 
L 96.240049 173.455318 
L 136.287896 173.831855 
L 162.986461 174.001057 
L 189.685025 174.016692 
L 216.38359 174.062034 
L 243.082155 174.073362 
L 269.780719 174.251536 
L 296.479284 174.436712 
L 323.177848 174.569315 
L 349.876413 174.570104 
L 376.574978 174.58119 
L 403.273542 174.581267 
L 429.972107 174.582976 
L 456.670671 174.613717 
L 483.369236 174.755803 
L 510.067801 174.776839 
L 536.766365 174.779911 
L 563.46493 174.825132 
L 590.163494 174.832398 
L 616.862059 174.833088 
L 643.560624 174.835023 
L 670.259188 174.865555 
L 696.957753 174.866216 
L 723.656317 174.876543 
L 750.354882 174.908172 
L 777.053446 174.911581 
L 803.752011 174.923087 
L 843.799858 174.933098 
L 843.799858 150.773934 
L 843.799858 150.773934 
L 803.752011 150.783945 
L 777.053446 150.795451 
L 750.354882 150.798861 
L 723.656317 150.83049 
L 696.957753 150.840816 
L 670.259188 150.841477 
L 643.560624 150.87201 
L 616.862059 150.873945 
L 590.163494 150.874635 
L 563.46493 150.881901 
L 536.766365 150.927121 
L 510.067801 150.930194 
L 483.369236 150.951229 
L 456.670671 151.093315 
L 429.972107 151.124056 
L 403.273542 151.125765 
L 376.574978 151.125842 
L 349.876413 151.136928 
L 323.177848 151.137717 
L 296.479284 151.270321 
L 269.780719 151.455497 
L 243.082155 151.63367 
L 216.38359 151.644998 
L 189.685025 151.69034 
L 162.986461 151.705976 
L 136.287896 151.875177 
L 96.240049 152.251715 
z
" style="fill:#1f77b4;fill-opacity:0.25;"/>
   </g>
   <g id="matplotlib.axis_1">
    <g id="xtick_1">
     <g id="line2d_1">
      <defs>
       <path d="M 0 0 
L 0 3.5 
" id="md59e58ca3e" style="stroke:#000000;stroke-width:0.8;"/>
      </defs>
      <g>
       <use style="stroke:#000000;stroke-width:0.8;" x="82.890767" xlink:href="#md59e58ca3e" y="182.200478"/>
      </g>
     </g>
     <g id="text_1">
      <!-- 0 -->
      <g transform="translate(79.709517 196.798915)scale(0.1 -0.1)">
       <defs>
        <path d="M 31.78125 66.40625 
Q 24.171875 66.40625 20.328125 58.90625 
Q 16.5 51.421875 16.5 36.375 
Q 16.5 21.390625 20.328125 13.890625 
Q 24.171875 6.390625 31.78125 6.390625 
Q 39.453125 6.390625 43.28125 13.890625 
Q 47.125 21.390625 47.125 36.375 
Q 47.125 51.421875 43.28125 58.90625 
Q 39.453125 66.40625 31.78125 66.40625 
z
M 31.78125 74.21875 
Q 44.046875 74.21875 50.515625 64.515625 
Q 56.984375 54.828125 56.984375 36.375 
Q 56.984375 17.96875 50.515625 8.265625 
Q 44.046875 -1.421875 31.78125 -1.421875 
Q 19.53125 -1.421875 13.0625 8.265625 
Q 6.59375 17.96875 6.59375 36.375 
Q 6.59375 54.828125 13.0625 64.515625 
Q 19.53125 74.21875 31.78125 74.21875 
z
" id="DejaVuSans-48"/>
       </defs>
       <use xlink:href="#DejaVuSans-48"/>
      </g>
     </g>
    </g>
    <g id="xtick_2">
     <g id="line2d_2">
      <g>
       <use style="stroke:#000000;stroke-width:0.8;" x="216.38359" xlink:href="#md59e58ca3e" y="182.200478"/>
      </g>
     </g>
     <g id="text_2">
      <!-- 5 -->
      <g transform="translate(213.20234 196.798915)scale(0.1 -0.1)">
       <defs>
        <path d="M 10.796875 72.90625 
L 49.515625 72.90625 
L 49.515625 64.59375 
L 19.828125 64.59375 
L 19.828125 46.734375 
Q 21.96875 47.46875 24.109375 47.828125 
Q 26.265625 48.1875 28.421875 48.1875 
Q 40.625 48.1875 47.75 41.5 
Q 54.890625 34.8125 54.890625 23.390625 
Q 54.890625 11.625 47.5625 5.09375 
Q 40.234375 -1.421875 26.90625 -1.421875 
Q 22.3125 -1.421875 17.546875 -0.640625 
Q 12.796875 0.140625 7.71875 1.703125 
L 7.71875 11.625 
Q 12.109375 9.234375 16.796875 8.0625 
Q 21.484375 6.890625 26.703125 6.890625 
Q 35.15625 6.890625 40.078125 11.328125 
Q 45.015625 15.765625 45.015625 23.390625 
Q 45.015625 31 40.078125 35.4375 
Q 35.15625 39.890625 26.703125 39.890625 
Q 22.75 39.890625 18.8125 39.015625 
Q 14.890625 38.140625 10.796875 36.28125 
z
" id="DejaVuSans-53"/>
       </defs>
       <use xlink:href="#DejaVuSans-53"/>
      </g>
     </g>
    </g>
    <g id="xtick_3">
     <g id="line2d_3">
      <g>
       <use style="stroke:#000000;stroke-width:0.8;" x="349.876413" xlink:href="#md59e58ca3e" y="182.200478"/>
      </g>
     </g>
     <g id="text_3">
      <!-- 10 -->
      <g transform="translate(343.513913 196.798915)scale(0.1 -0.1)">
       <defs>
        <path d="M 12.40625 8.296875 
L 28.515625 8.296875 
L 28.515625 63.921875 
L 10.984375 60.40625 
L 10.984375 69.390625 
L 28.421875 72.90625 
L 38.28125 72.90625 
L 38.28125 8.296875 
L 54.390625 8.296875 
L 54.390625 0 
L 12.40625 0 
z
" id="DejaVuSans-49"/>
       </defs>
       <use xlink:href="#DejaVuSans-49"/>
       <use x="63.623047" xlink:href="#DejaVuSans-48"/>
      </g>
     </g>
    </g>
    <g id="xtick_4">
     <g id="line2d_4">
      <g>
       <use style="stroke:#000000;stroke-width:0.8;" x="483.369236" xlink:href="#md59e58ca3e" y="182.200478"/>
      </g>
     </g>
     <g id="text_4">
      <!-- 15 -->
      <g transform="translate(477.006736 196.798915)scale(0.1 -0.1)">
       <use xlink:href="#DejaVuSans-49"/>
       <use x="63.623047" xlink:href="#DejaVuSans-53"/>
      </g>
     </g>
    </g>
    <g id="xtick_5">
     <g id="line2d_5">
      <g>
       <use style="stroke:#000000;stroke-width:0.8;" x="616.862059" xlink:href="#md59e58ca3e" y="182.200478"/>
      </g>
     </g>
     <g id="text_5">
      <!-- 20 -->
      <g transform="translate(610.499559 196.798915)scale(0.1 -0.1)">
       <defs>
        <path d="M 19.1875 8.296875 
L 53.609375 8.296875 
L 53.609375 0 
L 7.328125 0 
L 7.328125 8.296875 
Q 12.9375 14.109375 22.625 23.890625 
Q 32.328125 33.6875 34.8125 36.53125 
Q 39.546875 41.84375 41.421875 45.53125 
Q 43.3125 49.21875 43.3125 52.78125 
Q 43.3125 58.59375 39.234375 62.25 
Q 35.15625 65.921875 28.609375 65.921875 
Q 23.96875 65.921875 18.8125 64.3125 
Q 13.671875 62.703125 7.8125 59.421875 
L 7.8125 69.390625 
Q 13.765625 71.78125 18.9375 73 
Q 24.125 74.21875 28.421875 74.21875 
Q 39.75 74.21875 46.484375 68.546875 
Q 53.21875 62.890625 53.21875 53.421875 
Q 53.21875 48.921875 51.53125 44.890625 
Q 49.859375 40.875 45.40625 35.40625 
Q 44.1875 33.984375 37.640625 27.21875 
Q 31.109375 20.453125 19.1875 8.296875 
z
" id="DejaVuSans-50"/>
       </defs>
       <use xlink:href="#DejaVuSans-50"/>
       <use x="63.623047" xlink:href="#DejaVuSans-48"/>
      </g>
     </g>
    </g>
    <g id="xtick_6">
     <g id="line2d_6">
      <g>
       <use style="stroke:#000000;stroke-width:0.8;" x="750.354882" xlink:href="#md59e58ca3e" y="182.200478"/>
      </g>
     </g>
     <g id="text_6">
      <!-- 25 -->
      <g transform="translate(743.992382 196.798915)scale(0.1 -0.1)">
       <use xlink:href="#DejaVuSans-50"/>
       <use x="63.623047" xlink:href="#DejaVuSans-53"/>
      </g>
     </g>
    </g>
   </g>
   <g id="matplotlib.axis_2">
    <g id="ytick_1">
     <g id="line2d_7">
      <defs>
       <path d="M 0 0 
L -3.5 0 
" id="mdef7a2090f" style="stroke:#000000;stroke-width:0.8;"/>
      </defs>
      <g>
       <use style="stroke:#000000;stroke-width:0.8;" x="44.845313" xlink:href="#mdef7a2090f" y="162.853516"/>
      </g>
     </g>
     <g id="text_7">
      <!-- 0.0 -->
      <g transform="translate(21.942188 166.652735)scale(0.1 -0.1)">
       <defs>
        <path d="M 10.6875 12.40625 
L 21 12.40625 
L 21 0 
L 10.6875 0 
z
" id="DejaVuSans-46"/>
       </defs>
       <use xlink:href="#DejaVuSans-48"/>
       <use x="63.623047" xlink:href="#DejaVuSans-46"/>
       <use x="95.410156" xlink:href="#DejaVuSans-48"/>
      </g>
     </g>
    </g>
    <g id="ytick_2">
     <g id="line2d_8">
      <g>
       <use style="stroke:#000000;stroke-width:0.8;" x="44.845313" xlink:href="#mdef7a2090f" y="136.199914"/>
      </g>
     </g>
     <g id="text_8">
      <!-- 0.2 -->
      <g transform="translate(21.942188 139.999133)scale(0.1 -0.1)">
       <use xlink:href="#DejaVuSans-48"/>
       <use x="63.623047" xlink:href="#DejaVuSans-46"/>
       <use x="95.410156" xlink:href="#DejaVuSans-50"/>
      </g>
     </g>
    </g>
    <g id="ytick_3">
     <g id="line2d_9">
      <g>
       <use style="stroke:#000000;stroke-width:0.8;" x="44.845313" xlink:href="#mdef7a2090f" y="109.546312"/>
      </g>
     </g>
     <g id="text_9">
      <!-- 0.4 -->
      <g transform="translate(21.942188 113.34553)scale(0.1 -0.1)">
       <defs>
        <path d="M 37.796875 64.3125 
L 12.890625 25.390625 
L 37.796875 25.390625 
z
M 35.203125 72.90625 
L 47.609375 72.90625 
L 47.609375 25.390625 
L 58.015625 25.390625 
L 58.015625 17.1875 
L 47.609375 17.1875 
L 47.609375 0 
L 37.796875 0 
L 37.796875 17.1875 
L 4.890625 17.1875 
L 4.890625 26.703125 
z
" id="DejaVuSans-52"/>
       </defs>
       <use xlink:href="#DejaVuSans-48"/>
       <use x="63.623047" xlink:href="#DejaVuSans-46"/>
       <use x="95.410156" xlink:href="#DejaVuSans-52"/>
      </g>
     </g>
    </g>
    <g id="ytick_4">
     <g id="line2d_10">
      <g>
       <use style="stroke:#000000;stroke-width:0.8;" x="44.845313" xlink:href="#mdef7a2090f" y="82.892709"/>
      </g>
     </g>
     <g id="text_10">
      <!-- 0.6 -->
      <g transform="translate(21.942188 86.691928)scale(0.1 -0.1)">
       <defs>
        <path d="M 33.015625 40.375 
Q 26.375 40.375 22.484375 35.828125 
Q 18.609375 31.296875 18.609375 23.390625 
Q 18.609375 15.53125 22.484375 10.953125 
Q 26.375 6.390625 33.015625 6.390625 
Q 39.65625 6.390625 43.53125 10.953125 
Q 47.40625 15.53125 47.40625 23.390625 
Q 47.40625 31.296875 43.53125 35.828125 
Q 39.65625 40.375 33.015625 40.375 
z
M 52.59375 71.296875 
L 52.59375 62.3125 
Q 48.875 64.0625 45.09375 64.984375 
Q 41.3125 65.921875 37.59375 65.921875 
Q 27.828125 65.921875 22.671875 59.328125 
Q 17.53125 52.734375 16.796875 39.40625 
Q 19.671875 43.65625 24.015625 45.921875 
Q 28.375 48.1875 33.59375 48.1875 
Q 44.578125 48.1875 50.953125 41.515625 
Q 57.328125 34.859375 57.328125 23.390625 
Q 57.328125 12.15625 50.6875 5.359375 
Q 44.046875 -1.421875 33.015625 -1.421875 
Q 20.359375 -1.421875 13.671875 8.265625 
Q 6.984375 17.96875 6.984375 36.375 
Q 6.984375 53.65625 15.1875 63.9375 
Q 23.390625 74.21875 37.203125 74.21875 
Q 40.921875 74.21875 44.703125 73.484375 
Q 48.484375 72.75 52.59375 71.296875 
z
" id="DejaVuSans-54"/>
       </defs>
       <use xlink:href="#DejaVuSans-48"/>
       <use x="63.623047" xlink:href="#DejaVuSans-46"/>
       <use x="95.410156" xlink:href="#DejaVuSans-54"/>
      </g>
     </g>
    </g>
    <g id="ytick_5">
     <g id="line2d_11">
      <g>
       <use style="stroke:#000000;stroke-width:0.8;" x="44.845313" xlink:href="#mdef7a2090f" y="56.239107"/>
      </g>
     </g>
     <g id="text_11">
      <!-- 0.8 -->
      <g transform="translate(21.942188 60.038326)scale(0.1 -0.1)">
       <defs>
        <path d="M 31.78125 34.625 
Q 24.75 34.625 20.71875 30.859375 
Q 16.703125 27.09375 16.703125 20.515625 
Q 16.703125 13.921875 20.71875 10.15625 
Q 24.75 6.390625 31.78125 6.390625 
Q 38.8125 6.390625 42.859375 10.171875 
Q 46.921875 13.96875 46.921875 20.515625 
Q 46.921875 27.09375 42.890625 30.859375 
Q 38.875 34.625 31.78125 34.625 
z
M 21.921875 38.8125 
Q 15.578125 40.375 12.03125 44.71875 
Q 8.5 49.078125 8.5 55.328125 
Q 8.5 64.0625 14.71875 69.140625 
Q 20.953125 74.21875 31.78125 74.21875 
Q 42.671875 74.21875 48.875 69.140625 
Q 55.078125 64.0625 55.078125 55.328125 
Q 55.078125 49.078125 51.53125 44.71875 
Q 48 40.375 41.703125 38.8125 
Q 48.828125 37.15625 52.796875 32.3125 
Q 56.78125 27.484375 56.78125 20.515625 
Q 56.78125 9.90625 50.3125 4.234375 
Q 43.84375 -1.421875 31.78125 -1.421875 
Q 19.734375 -1.421875 13.25 4.234375 
Q 6.78125 9.90625 6.78125 20.515625 
Q 6.78125 27.484375 10.78125 32.3125 
Q 14.796875 37.15625 21.921875 38.8125 
z
M 18.3125 54.390625 
Q 18.3125 48.734375 21.84375 45.5625 
Q 25.390625 42.390625 31.78125 42.390625 
Q 38.140625 42.390625 41.71875 45.5625 
Q 45.3125 48.734375 45.3125 54.390625 
Q 45.3125 60.0625 41.71875 63.234375 
Q 38.140625 66.40625 31.78125 66.40625 
Q 25.390625 66.40625 21.84375 63.234375 
Q 18.3125 60.0625 18.3125 54.390625 
z
" id="DejaVuSans-56"/>
       </defs>
       <use xlink:href="#DejaVuSans-48"/>
       <use x="63.623047" xlink:href="#DejaVuSans-46"/>
       <use x="95.410156" xlink:href="#DejaVuSans-56"/>
      </g>
     </g>
    </g>
    <g id="ytick_6">
     <g id="line2d_12">
      <g>
       <use style="stroke:#000000;stroke-width:0.8;" x="44.845313" xlink:href="#mdef7a2090f" y="29.585505"/>
      </g>
     </g>
     <g id="text_12">
      <!-- 1.0 -->
      <g transform="translate(21.942188 33.384723)scale(0.1 -0.1)">
       <use xlink:href="#DejaVuSans-49"/>
       <use x="63.623047" xlink:href="#DejaVuSans-46"/>
       <use x="95.410156" xlink:href="#DejaVuSans-48"/>
      </g>
     </g>
    </g>
   </g>
   <g id="LineCollection_1">
    <path clip-path="url(#p43072fa2c0)" d="M 82.890767 162.853516 
L 82.890767 29.585505 
" style="fill:none;stroke:#1f77b4;stroke-width:1.5;"/>
    <path clip-path="url(#p43072fa2c0)" d="M 109.589332 162.853516 
L 109.589332 137.516088 
" style="fill:none;stroke:#1f77b4;stroke-width:1.5;"/>
    <path clip-path="url(#p43072fa2c0)" d="M 136.287896 162.853516 
L 136.287896 145.655286 
" style="fill:none;stroke:#1f77b4;stroke-width:1.5;"/>
    <path clip-path="url(#p43072fa2c0)" d="M 162.986461 162.853516 
L 162.986461 157.60376 
" style="fill:none;stroke:#1f77b4;stroke-width:1.5;"/>
    <path clip-path="url(#p43072fa2c0)" d="M 189.685025 162.853516 
L 189.685025 153.901252 
" style="fill:none;stroke:#1f77b4;stroke-width:1.5;"/>
    <path clip-path="url(#p43072fa2c0)" d="M 216.38359 162.853516 
L 216.38359 158.373243 
" style="fill:none;stroke:#1f77b4;stroke-width:1.5;"/>
    <path clip-path="url(#p43072fa2c0)" d="M 243.082155 162.853516 
L 243.082155 145.010079 
" style="fill:none;stroke:#1f77b4;stroke-width:1.5;"/>
    <path clip-path="url(#p43072fa2c0)" d="M 269.780719 162.853516 
L 269.780719 144.51727 
" style="fill:none;stroke:#1f77b4;stroke-width:1.5;"/>
    <path clip-path="url(#p43072fa2c0)" d="M 296.479284 162.853516 
L 296.479284 147.230055 
" style="fill:none;stroke:#1f77b4;stroke-width:1.5;"/>
    <path clip-path="url(#p43072fa2c0)" d="M 323.177848 162.853516 
L 323.177848 164.062288 
" style="fill:none;stroke:#1f77b4;stroke-width:1.5;"/>
    <path clip-path="url(#p43072fa2c0)" d="M 349.876413 162.853516 
L 349.876413 158.32217 
" style="fill:none;stroke:#1f77b4;stroke-width:1.5;"/>
    <path clip-path="url(#p43072fa2c0)" d="M 376.574978 162.853516 
L 376.574978 162.475747 
" style="fill:none;stroke:#1f77b4;stroke-width:1.5;"/>
    <path clip-path="url(#p43072fa2c0)" d="M 403.273542 162.853516 
L 403.273542 164.633248 
" style="fill:none;stroke:#1f77b4;stroke-width:1.5;"/>
    <path clip-path="url(#p43072fa2c0)" d="M 429.972107 162.853516 
L 429.972107 155.300365 
" style="fill:none;stroke:#1f77b4;stroke-width:1.5;"/>
    <path clip-path="url(#p43072fa2c0)" d="M 456.670671 162.853516 
L 456.670671 146.555398 
" style="fill:none;stroke:#1f77b4;stroke-width:1.5;"/>
    <path clip-path="url(#p43072fa2c0)" d="M 483.369236 162.853516 
L 483.369236 156.560954 
" style="fill:none;stroke:#1f77b4;stroke-width:1.5;"/>
    <path clip-path="url(#p43072fa2c0)" d="M 510.067801 162.853516 
L 510.067801 165.259733 
" style="fill:none;stroke:#1f77b4;stroke-width:1.5;"/>
    <path clip-path="url(#p43072fa2c0)" d="M 536.766365 162.853516 
L 536.766365 172.093679 
" style="fill:none;stroke:#1f77b4;stroke-width:1.5;"/>
    <path clip-path="url(#p43072fa2c0)" d="M 563.46493 162.853516 
L 563.46493 166.561502 
" style="fill:none;stroke:#1f77b4;stroke-width:1.5;"/>
    <path clip-path="url(#p43072fa2c0)" d="M 590.163494 162.853516 
L 590.163494 163.996314 
" style="fill:none;stroke:#1f77b4;stroke-width:1.5;"/>
    <path clip-path="url(#p43072fa2c0)" d="M 616.862059 162.853516 
L 616.862059 160.939619 
" style="fill:none;stroke:#1f77b4;stroke-width:1.5;"/>
    <path clip-path="url(#p43072fa2c0)" d="M 643.560624 162.853516 
L 643.560624 155.245682 
" style="fill:none;stroke:#1f77b4;stroke-width:1.5;"/>
    <path clip-path="url(#p43072fa2c0)" d="M 670.259188 162.853516 
L 670.259188 161.733461 
" style="fill:none;stroke:#1f77b4;stroke-width:1.5;"/>
    <path clip-path="url(#p43072fa2c0)" d="M 696.957753 162.853516 
L 696.957753 167.2818 
" style="fill:none;stroke:#1f77b4;stroke-width:1.5;"/>
    <path clip-path="url(#p43072fa2c0)" d="M 723.656317 162.853516 
L 723.656317 170.610278 
" style="fill:none;stroke:#1f77b4;stroke-width:1.5;"/>
    <path clip-path="url(#p43072fa2c0)" d="M 750.354882 162.853516 
L 750.354882 165.402021 
" style="fill:none;stroke:#1f77b4;stroke-width:1.5;"/>
    <path clip-path="url(#p43072fa2c0)" d="M 777.053446 162.853516 
L 777.053446 167.536831 
" style="fill:none;stroke:#1f77b4;stroke-width:1.5;"/>
    <path clip-path="url(#p43072fa2c0)" d="M 803.752011 162.853516 
L 803.752011 158.483077 
" style="fill:none;stroke:#1f77b4;stroke-width:1.5;"/>
    <path clip-path="url(#p43072fa2c0)" d="M 830.450576 162.853516 
L 830.450576 149.958287 
" style="fill:none;stroke:#1f77b4;stroke-width:1.5;"/>
   </g>
   <g id="line2d_13">
    <path clip-path="url(#p43072fa2c0)" d="M 44.845313 162.853516 
L 881.845312 162.853516 
" style="fill:none;stroke:#1f77b4;stroke-linecap:square;stroke-width:1.5;"/>
   </g>
   <g id="line2d_14">
    <defs>
     <path d="M 0 2.5 
C 0.663008 2.5 1.29895 2.236584 1.767767 1.767767 
C 2.236584 1.29895 2.5 0.663008 2.5 0 
C 2.5 -0.663008 2.236584 -1.29895 1.767767 -1.767767 
C 1.29895 -2.236584 0.663008 -2.5 0 -2.5 
C -0.663008 -2.5 -1.29895 -2.236584 -1.767767 -1.767767 
C -2.236584 -1.29895 -2.5 -0.663008 -2.5 0 
C -2.5 0.663008 -2.236584 1.29895 -1.767767 1.767767 
C -1.29895 2.236584 -0.663008 2.5 0 2.5 
z
" id="m1684f60593" style="stroke:#1f77b4;"/>
    </defs>
    <g clip-path="url(#p43072fa2c0)">
     <use style="fill:#1f77b4;stroke:#1f77b4;" x="82.890767" xlink:href="#m1684f60593" y="29.585505"/>
     <use style="fill:#1f77b4;stroke:#1f77b4;" x="109.589332" xlink:href="#m1684f60593" y="137.516088"/>
     <use style="fill:#1f77b4;stroke:#1f77b4;" x="136.287896" xlink:href="#m1684f60593" y="145.655286"/>
     <use style="fill:#1f77b4;stroke:#1f77b4;" x="162.986461" xlink:href="#m1684f60593" y="157.60376"/>
     <use style="fill:#1f77b4;stroke:#1f77b4;" x="189.685025" xlink:href="#m1684f60593" y="153.901252"/>
     <use style="fill:#1f77b4;stroke:#1f77b4;" x="216.38359" xlink:href="#m1684f60593" y="158.373243"/>
     <use style="fill:#1f77b4;stroke:#1f77b4;" x="243.082155" xlink:href="#m1684f60593" y="145.010079"/>
     <use style="fill:#1f77b4;stroke:#1f77b4;" x="269.780719" xlink:href="#m1684f60593" y="144.51727"/>
     <use style="fill:#1f77b4;stroke:#1f77b4;" x="296.479284" xlink:href="#m1684f60593" y="147.230055"/>
     <use style="fill:#1f77b4;stroke:#1f77b4;" x="323.177848" xlink:href="#m1684f60593" y="164.062288"/>
     <use style="fill:#1f77b4;stroke:#1f77b4;" x="349.876413" xlink:href="#m1684f60593" y="158.32217"/>
     <use style="fill:#1f77b4;stroke:#1f77b4;" x="376.574978" xlink:href="#m1684f60593" y="162.475747"/>
     <use style="fill:#1f77b4;stroke:#1f77b4;" x="403.273542" xlink:href="#m1684f60593" y="164.633248"/>
     <use style="fill:#1f77b4;stroke:#1f77b4;" x="429.972107" xlink:href="#m1684f60593" y="155.300365"/>
     <use style="fill:#1f77b4;stroke:#1f77b4;" x="456.670671" xlink:href="#m1684f60593" y="146.555398"/>
     <use style="fill:#1f77b4;stroke:#1f77b4;" x="483.369236" xlink:href="#m1684f60593" y="156.560954"/>
     <use style="fill:#1f77b4;stroke:#1f77b4;" x="510.067801" xlink:href="#m1684f60593" y="165.259733"/>
     <use style="fill:#1f77b4;stroke:#1f77b4;" x="536.766365" xlink:href="#m1684f60593" y="172.093679"/>
     <use style="fill:#1f77b4;stroke:#1f77b4;" x="563.46493" xlink:href="#m1684f60593" y="166.561502"/>
     <use style="fill:#1f77b4;stroke:#1f77b4;" x="590.163494" xlink:href="#m1684f60593" y="163.996314"/>
     <use style="fill:#1f77b4;stroke:#1f77b4;" x="616.862059" xlink:href="#m1684f60593" y="160.939619"/>
     <use style="fill:#1f77b4;stroke:#1f77b4;" x="643.560624" xlink:href="#m1684f60593" y="155.245682"/>
     <use style="fill:#1f77b4;stroke:#1f77b4;" x="670.259188" xlink:href="#m1684f60593" y="161.733461"/>
     <use style="fill:#1f77b4;stroke:#1f77b4;" x="696.957753" xlink:href="#m1684f60593" y="167.2818"/>
     <use style="fill:#1f77b4;stroke:#1f77b4;" x="723.656317" xlink:href="#m1684f60593" y="170.610278"/>
     <use style="fill:#1f77b4;stroke:#1f77b4;" x="750.354882" xlink:href="#m1684f60593" y="165.402021"/>
     <use style="fill:#1f77b4;stroke:#1f77b4;" x="777.053446" xlink:href="#m1684f60593" y="167.536831"/>
     <use style="fill:#1f77b4;stroke:#1f77b4;" x="803.752011" xlink:href="#m1684f60593" y="158.483077"/>
     <use style="fill:#1f77b4;stroke:#1f77b4;" x="830.450576" xlink:href="#m1684f60593" y="149.958287"/>
    </g>
   </g>
   <g id="patch_3">
    <path d="M 44.845313 182.200478 
L 44.845313 22.318125 
" style="fill:none;stroke:#000000;stroke-linecap:square;stroke-linejoin:miter;stroke-width:0.8;"/>
   </g>
   <g id="patch_4">
    <path d="M 881.845312 182.200478 
L 881.845312 22.318125 
" style="fill:none;stroke:#000000;stroke-linecap:square;stroke-linejoin:miter;stroke-width:0.8;"/>
   </g>
   <g id="patch_5">
    <path d="M 44.845313 182.200478 
L 881.845312 182.200478 
" style="fill:none;stroke:#000000;stroke-linecap:square;stroke-linejoin:miter;stroke-width:0.8;"/>
   </g>
   <g id="patch_6">
    <path d="M 44.845313 22.318125 
L 881.845312 22.318125 
" style="fill:none;stroke:#000000;stroke-linecap:square;stroke-linejoin:miter;stroke-width:0.8;"/>
   </g>
   <g id="text_13">
    <!-- Autocorrelation on Original Series -->
    <g transform="translate(362.098125 16.318125)scale(0.12 -0.12)">
     <defs>
      <path d="M 34.1875 63.1875 
L 20.796875 26.90625 
L 47.609375 26.90625 
z
M 28.609375 72.90625 
L 39.796875 72.90625 
L 67.578125 0 
L 57.328125 0 
L 50.6875 18.703125 
L 17.828125 18.703125 
L 11.1875 0 
L 0.78125 0 
z
" id="DejaVuSans-65"/>
      <path d="M 8.5 21.578125 
L 8.5 54.6875 
L 17.484375 54.6875 
L 17.484375 21.921875 
Q 17.484375 14.15625 20.5 10.265625 
Q 23.53125 6.390625 29.59375 6.390625 
Q 36.859375 6.390625 41.078125 11.03125 
Q 45.3125 15.671875 45.3125 23.6875 
L 45.3125 54.6875 
L 54.296875 54.6875 
L 54.296875 0 
L 45.3125 0 
L 45.3125 8.40625 
Q 42.046875 3.421875 37.71875 1 
Q 33.40625 -1.421875 27.6875 -1.421875 
Q 18.265625 -1.421875 13.375 4.4375 
Q 8.5 10.296875 8.5 21.578125 
z
M 31.109375 56 
z
" id="DejaVuSans-117"/>
      <path d="M 18.3125 70.21875 
L 18.3125 54.6875 
L 36.8125 54.6875 
L 36.8125 47.703125 
L 18.3125 47.703125 
L 18.3125 18.015625 
Q 18.3125 11.328125 20.140625 9.421875 
Q 21.96875 7.515625 27.59375 7.515625 
L 36.8125 7.515625 
L 36.8125 0 
L 27.59375 0 
Q 17.1875 0 13.234375 3.875 
Q 9.28125 7.765625 9.28125 18.015625 
L 9.28125 47.703125 
L 2.6875 47.703125 
L 2.6875 54.6875 
L 9.28125 54.6875 
L 9.28125 70.21875 
z
" id="DejaVuSans-116"/>
      <path d="M 30.609375 48.390625 
Q 23.390625 48.390625 19.1875 42.75 
Q 14.984375 37.109375 14.984375 27.296875 
Q 14.984375 17.484375 19.15625 11.84375 
Q 23.34375 6.203125 30.609375 6.203125 
Q 37.796875 6.203125 41.984375 11.859375 
Q 46.1875 17.53125 46.1875 27.296875 
Q 46.1875 37.015625 41.984375 42.703125 
Q 37.796875 48.390625 30.609375 48.390625 
z
M 30.609375 56 
Q 42.328125 56 49.015625 48.375 
Q 55.71875 40.765625 55.71875 27.296875 
Q 55.71875 13.875 49.015625 6.21875 
Q 42.328125 -1.421875 30.609375 -1.421875 
Q 18.84375 -1.421875 12.171875 6.21875 
Q 5.515625 13.875 5.515625 27.296875 
Q 5.515625 40.765625 12.171875 48.375 
Q 18.84375 56 30.609375 56 
z
" id="DejaVuSans-111"/>
      <path d="M 48.78125 52.59375 
L 48.78125 44.1875 
Q 44.96875 46.296875 41.140625 47.34375 
Q 37.3125 48.390625 33.40625 48.390625 
Q 24.65625 48.390625 19.8125 42.84375 
Q 14.984375 37.3125 14.984375 27.296875 
Q 14.984375 17.28125 19.8125 11.734375 
Q 24.65625 6.203125 33.40625 6.203125 
Q 37.3125 6.203125 41.140625 7.25 
Q 44.96875 8.296875 48.78125 10.40625 
L 48.78125 2.09375 
Q 45.015625 0.34375 40.984375 -0.53125 
Q 36.96875 -1.421875 32.421875 -1.421875 
Q 20.0625 -1.421875 12.78125 6.34375 
Q 5.515625 14.109375 5.515625 27.296875 
Q 5.515625 40.671875 12.859375 48.328125 
Q 20.21875 56 33.015625 56 
Q 37.15625 56 41.109375 55.140625 
Q 45.0625 54.296875 48.78125 52.59375 
z
" id="DejaVuSans-99"/>
      <path d="M 41.109375 46.296875 
Q 39.59375 47.171875 37.8125 47.578125 
Q 36.03125 48 33.890625 48 
Q 26.265625 48 22.1875 43.046875 
Q 18.109375 38.09375 18.109375 28.8125 
L 18.109375 0 
L 9.078125 0 
L 9.078125 54.6875 
L 18.109375 54.6875 
L 18.109375 46.1875 
Q 20.953125 51.171875 25.484375 53.578125 
Q 30.03125 56 36.53125 56 
Q 37.453125 56 38.578125 55.875 
Q 39.703125 55.765625 41.0625 55.515625 
z
" id="DejaVuSans-114"/>
      <path d="M 56.203125 29.59375 
L 56.203125 25.203125 
L 14.890625 25.203125 
Q 15.484375 15.921875 20.484375 11.0625 
Q 25.484375 6.203125 34.421875 6.203125 
Q 39.59375 6.203125 44.453125 7.46875 
Q 49.3125 8.734375 54.109375 11.28125 
L 54.109375 2.78125 
Q 49.265625 0.734375 44.1875 -0.34375 
Q 39.109375 -1.421875 33.890625 -1.421875 
Q 20.796875 -1.421875 13.15625 6.1875 
Q 5.515625 13.8125 5.515625 26.8125 
Q 5.515625 40.234375 12.765625 48.109375 
Q 20.015625 56 32.328125 56 
Q 43.359375 56 49.78125 48.890625 
Q 56.203125 41.796875 56.203125 29.59375 
z
M 47.21875 32.234375 
Q 47.125 39.59375 43.09375 43.984375 
Q 39.0625 48.390625 32.421875 48.390625 
Q 24.90625 48.390625 20.390625 44.140625 
Q 15.875 39.890625 15.1875 32.171875 
z
" id="DejaVuSans-101"/>
      <path d="M 9.421875 75.984375 
L 18.40625 75.984375 
L 18.40625 0 
L 9.421875 0 
z
" id="DejaVuSans-108"/>
      <path d="M 34.28125 27.484375 
Q 23.390625 27.484375 19.1875 25 
Q 14.984375 22.515625 14.984375 16.5 
Q 14.984375 11.71875 18.140625 8.90625 
Q 21.296875 6.109375 26.703125 6.109375 
Q 34.1875 6.109375 38.703125 11.40625 
Q 43.21875 16.703125 43.21875 25.484375 
L 43.21875 27.484375 
z
M 52.203125 31.203125 
L 52.203125 0 
L 43.21875 0 
L 43.21875 8.296875 
Q 40.140625 3.328125 35.546875 0.953125 
Q 30.953125 -1.421875 24.3125 -1.421875 
Q 15.921875 -1.421875 10.953125 3.296875 
Q 6 8.015625 6 15.921875 
Q 6 25.140625 12.171875 29.828125 
Q 18.359375 34.515625 30.609375 34.515625 
L 43.21875 34.515625 
L 43.21875 35.40625 
Q 43.21875 41.609375 39.140625 45 
Q 35.0625 48.390625 27.6875 48.390625 
Q 23 48.390625 18.546875 47.265625 
Q 14.109375 46.140625 10.015625 43.890625 
L 10.015625 52.203125 
Q 14.9375 54.109375 19.578125 55.046875 
Q 24.21875 56 28.609375 56 
Q 40.484375 56 46.34375 49.84375 
Q 52.203125 43.703125 52.203125 31.203125 
z
" id="DejaVuSans-97"/>
      <path d="M 9.421875 54.6875 
L 18.40625 54.6875 
L 18.40625 0 
L 9.421875 0 
z
M 9.421875 75.984375 
L 18.40625 75.984375 
L 18.40625 64.59375 
L 9.421875 64.59375 
z
" id="DejaVuSans-105"/>
      <path d="M 54.890625 33.015625 
L 54.890625 0 
L 45.90625 0 
L 45.90625 32.71875 
Q 45.90625 40.484375 42.875 44.328125 
Q 39.84375 48.1875 33.796875 48.1875 
Q 26.515625 48.1875 22.3125 43.546875 
Q 18.109375 38.921875 18.109375 30.90625 
L 18.109375 0 
L 9.078125 0 
L 9.078125 54.6875 
L 18.109375 54.6875 
L 18.109375 46.1875 
Q 21.34375 51.125 25.703125 53.5625 
Q 30.078125 56 35.796875 56 
Q 45.21875 56 50.046875 50.171875 
Q 54.890625 44.34375 54.890625 33.015625 
z
" id="DejaVuSans-110"/>
      <path id="DejaVuSans-32"/>
      <path d="M 39.40625 66.21875 
Q 28.65625 66.21875 22.328125 58.203125 
Q 16.015625 50.203125 16.015625 36.375 
Q 16.015625 22.609375 22.328125 14.59375 
Q 28.65625 6.59375 39.40625 6.59375 
Q 50.140625 6.59375 56.421875 14.59375 
Q 62.703125 22.609375 62.703125 36.375 
Q 62.703125 50.203125 56.421875 58.203125 
Q 50.140625 66.21875 39.40625 66.21875 
z
M 39.40625 74.21875 
Q 54.734375 74.21875 63.90625 63.9375 
Q 73.09375 53.65625 73.09375 36.375 
Q 73.09375 19.140625 63.90625 8.859375 
Q 54.734375 -1.421875 39.40625 -1.421875 
Q 24.03125 -1.421875 14.8125 8.828125 
Q 5.609375 19.09375 5.609375 36.375 
Q 5.609375 53.65625 14.8125 63.9375 
Q 24.03125 74.21875 39.40625 74.21875 
z
" id="DejaVuSans-79"/>
      <path d="M 45.40625 27.984375 
Q 45.40625 37.75 41.375 43.109375 
Q 37.359375 48.484375 30.078125 48.484375 
Q 22.859375 48.484375 18.828125 43.109375 
Q 14.796875 37.75 14.796875 27.984375 
Q 14.796875 18.265625 18.828125 12.890625 
Q 22.859375 7.515625 30.078125 7.515625 
Q 37.359375 7.515625 41.375 12.890625 
Q 45.40625 18.265625 45.40625 27.984375 
z
M 54.390625 6.78125 
Q 54.390625 -7.171875 48.1875 -13.984375 
Q 42 -20.796875 29.203125 -20.796875 
Q 24.46875 -20.796875 20.265625 -20.09375 
Q 16.0625 -19.390625 12.109375 -17.921875 
L 12.109375 -9.1875 
Q 16.0625 -11.328125 19.921875 -12.34375 
Q 23.78125 -13.375 27.78125 -13.375 
Q 36.625 -13.375 41.015625 -8.765625 
Q 45.40625 -4.15625 45.40625 5.171875 
L 45.40625 9.625 
Q 42.625 4.78125 38.28125 2.390625 
Q 33.9375 0 27.875 0 
Q 17.828125 0 11.671875 7.65625 
Q 5.515625 15.328125 5.515625 27.984375 
Q 5.515625 40.671875 11.671875 48.328125 
Q 17.828125 56 27.875 56 
Q 33.9375 56 38.28125 53.609375 
Q 42.625 51.21875 45.40625 46.390625 
L 45.40625 54.6875 
L 54.390625 54.6875 
z
" id="DejaVuSans-103"/>
      <path d="M 53.515625 70.515625 
L 53.515625 60.890625 
Q 47.90625 63.578125 42.921875 64.890625 
Q 37.9375 66.21875 33.296875 66.21875 
Q 25.25 66.21875 20.875 63.09375 
Q 16.5 59.96875 16.5 54.203125 
Q 16.5 49.359375 19.40625 46.890625 
Q 22.3125 44.4375 30.421875 42.921875 
L 36.375 41.703125 
Q 47.40625 39.59375 52.65625 34.296875 
Q 57.90625 29 57.90625 20.125 
Q 57.90625 9.515625 50.796875 4.046875 
Q 43.703125 -1.421875 29.984375 -1.421875 
Q 24.8125 -1.421875 18.96875 -0.25 
Q 13.140625 0.921875 6.890625 3.21875 
L 6.890625 13.375 
Q 12.890625 10.015625 18.65625 8.296875 
Q 24.421875 6.59375 29.984375 6.59375 
Q 38.421875 6.59375 43.015625 9.90625 
Q 47.609375 13.234375 47.609375 19.390625 
Q 47.609375 24.75 44.3125 27.78125 
Q 41.015625 30.8125 33.5 32.328125 
L 27.484375 33.5 
Q 16.453125 35.6875 11.515625 40.375 
Q 6.59375 45.0625 6.59375 53.421875 
Q 6.59375 63.09375 13.40625 68.65625 
Q 20.21875 74.21875 32.171875 74.21875 
Q 37.3125 74.21875 42.625 73.28125 
Q 47.953125 72.359375 53.515625 70.515625 
z
" id="DejaVuSans-83"/>
      <path d="M 44.28125 53.078125 
L 44.28125 44.578125 
Q 40.484375 46.53125 36.375 47.5 
Q 32.28125 48.484375 27.875 48.484375 
Q 21.1875 48.484375 17.84375 46.4375 
Q 14.5 44.390625 14.5 40.28125 
Q 14.5 37.15625 16.890625 35.375 
Q 19.28125 33.59375 26.515625 31.984375 
L 29.59375 31.296875 
Q 39.15625 29.25 43.1875 25.515625 
Q 47.21875 21.78125 47.21875 15.09375 
Q 47.21875 7.46875 41.1875 3.015625 
Q 35.15625 -1.421875 24.609375 -1.421875 
Q 20.21875 -1.421875 15.453125 -0.5625 
Q 10.6875 0.296875 5.421875 2 
L 5.421875 11.28125 
Q 10.40625 8.6875 15.234375 7.390625 
Q 20.0625 6.109375 24.8125 6.109375 
Q 31.15625 6.109375 34.5625 8.28125 
Q 37.984375 10.453125 37.984375 14.40625 
Q 37.984375 18.0625 35.515625 20.015625 
Q 33.0625 21.96875 24.703125 23.78125 
L 21.578125 24.515625 
Q 13.234375 26.265625 9.515625 29.90625 
Q 5.8125 33.546875 5.8125 39.890625 
Q 5.8125 47.609375 11.28125 51.796875 
Q 16.75 56 26.8125 56 
Q 31.78125 56 36.171875 55.265625 
Q 40.578125 54.546875 44.28125 53.078125 
z
" id="DejaVuSans-115"/>
     </defs>
     <use xlink:href="#DejaVuSans-65"/>
     <use x="68.408203" xlink:href="#DejaVuSans-117"/>
     <use x="131.787109" xlink:href="#DejaVuSans-116"/>
     <use x="170.996094" xlink:href="#DejaVuSans-111"/>
     <use x="232.177734" xlink:href="#DejaVuSans-99"/>
     <use x="287.158203" xlink:href="#DejaVuSans-111"/>
     <use x="348.339844" xlink:href="#DejaVuSans-114"/>
     <use x="387.703125" xlink:href="#DejaVuSans-114"/>
     <use x="426.566406" xlink:href="#DejaVuSans-101"/>
     <use x="488.089844" xlink:href="#DejaVuSans-108"/>
     <use x="515.873047" xlink:href="#DejaVuSans-97"/>
     <use x="577.152344" xlink:href="#DejaVuSans-116"/>
     <use x="616.361328" xlink:href="#DejaVuSans-105"/>
     <use x="644.144531" xlink:href="#DejaVuSans-111"/>
     <use x="705.326172" xlink:href="#DejaVuSans-110"/>
     <use x="768.705078" xlink:href="#DejaVuSans-32"/>
     <use x="800.492188" xlink:href="#DejaVuSans-111"/>
     <use x="861.673828" xlink:href="#DejaVuSans-110"/>
     <use x="925.052734" xlink:href="#DejaVuSans-32"/>
     <use x="956.839844" xlink:href="#DejaVuSans-79"/>
     <use x="1035.550781" xlink:href="#DejaVuSans-114"/>
     <use x="1076.664062" xlink:href="#DejaVuSans-105"/>
     <use x="1104.447266" xlink:href="#DejaVuSans-103"/>
     <use x="1167.923828" xlink:href="#DejaVuSans-105"/>
     <use x="1195.707031" xlink:href="#DejaVuSans-110"/>
     <use x="1259.085938" xlink:href="#DejaVuSans-97"/>
     <use x="1320.365234" xlink:href="#DejaVuSans-108"/>
     <use x="1348.148438" xlink:href="#DejaVuSans-32"/>
     <use x="1379.935547" xlink:href="#DejaVuSans-83"/>
     <use x="1443.412109" xlink:href="#DejaVuSans-101"/>
     <use x="1504.935547" xlink:href="#DejaVuSans-114"/>
     <use x="1546.048828" xlink:href="#DejaVuSans-105"/>
     <use x="1573.832031" xlink:href="#DejaVuSans-101"/>
     <use x="1635.355469" xlink:href="#DejaVuSans-115"/>
    </g>
   </g>
  </g>
  <g id="axes_2">
   <g id="patch_7">
    <path d="M 44.845313 374.059301 
L 881.845312 374.059301 
L 881.845312 214.176949 
L 44.845313 214.176949 
z
" style="fill:#ffffff;"/>
   </g>
   <g id="PolyCollection_2">
    <path clip-path="url(#pe5e8215d4c)" d="M 96.240049 312.906844 
L 96.240049 328.730865 
L 136.287896 330.273764 
L 162.986461 330.27586 
L 189.685025 330.310547 
L 216.38359 330.319999 
L 243.082155 330.364902 
L 269.780719 330.388192 
L 296.479284 330.389619 
L 323.177848 330.4175 
L 349.876413 330.48781 
L 376.574978 330.501214 
L 403.273542 330.501786 
L 429.972107 330.520005 
L 456.670671 330.520055 
L 483.369236 330.568446 
L 510.067801 330.568692 
L 536.766365 330.569161 
L 563.46493 330.590151 
L 590.163494 330.591377 
L 616.862059 330.591411 
L 643.560624 330.592377 
L 670.259188 330.612709 
L 696.957753 330.612838 
L 723.656317 330.613282 
L 750.354882 330.624138 
L 777.053446 330.631597 
L 803.752011 330.648846 
L 843.799858 330.648911 
L 843.799858 310.988797 
L 843.799858 310.988797 
L 803.752011 310.988863 
L 777.053446 311.006111 
L 750.354882 311.013571 
L 723.656317 311.024426 
L 696.957753 311.024871 
L 670.259188 311.025 
L 643.560624 311.045331 
L 616.862059 311.046298 
L 590.163494 311.046331 
L 563.46493 311.047558 
L 536.766365 311.068548 
L 510.067801 311.069016 
L 483.369236 311.069263 
L 456.670671 311.117653 
L 429.972107 311.117704 
L 403.273542 311.135923 
L 376.574978 311.136495 
L 349.876413 311.149899 
L 323.177848 311.220208 
L 296.479284 311.248089 
L 269.780719 311.249516 
L 243.082155 311.272807 
L 216.38359 311.31771 
L 189.685025 311.327162 
L 162.986461 311.361848 
L 136.287896 311.363944 
L 96.240049 312.906844 
z
" style="fill:#1f77b4;fill-opacity:0.25;"/>
   </g>
   <g id="matplotlib.axis_3">
    <g id="xtick_7">
     <g id="line2d_15">
      <g>
       <use style="stroke:#000000;stroke-width:0.8;" x="82.890767" xlink:href="#md59e58ca3e" y="374.059301"/>
      </g>
     </g>
     <g id="text_14">
      <!-- 0 -->
      <g transform="translate(79.709517 388.657739)scale(0.1 -0.1)">
       <use xlink:href="#DejaVuSans-48"/>
      </g>
     </g>
    </g>
    <g id="xtick_8">
     <g id="line2d_16">
      <g>
       <use style="stroke:#000000;stroke-width:0.8;" x="216.38359" xlink:href="#md59e58ca3e" y="374.059301"/>
      </g>
     </g>
     <g id="text_15">
      <!-- 5 -->
      <g transform="translate(213.20234 388.657739)scale(0.1 -0.1)">
       <use xlink:href="#DejaVuSans-53"/>
      </g>
     </g>
    </g>
    <g id="xtick_9">
     <g id="line2d_17">
      <g>
       <use style="stroke:#000000;stroke-width:0.8;" x="349.876413" xlink:href="#md59e58ca3e" y="374.059301"/>
      </g>
     </g>
     <g id="text_16">
      <!-- 10 -->
      <g transform="translate(343.513913 388.657739)scale(0.1 -0.1)">
       <use xlink:href="#DejaVuSans-49"/>
       <use x="63.623047" xlink:href="#DejaVuSans-48"/>
      </g>
     </g>
    </g>
    <g id="xtick_10">
     <g id="line2d_18">
      <g>
       <use style="stroke:#000000;stroke-width:0.8;" x="483.369236" xlink:href="#md59e58ca3e" y="374.059301"/>
      </g>
     </g>
     <g id="text_17">
      <!-- 15 -->
      <g transform="translate(477.006736 388.657739)scale(0.1 -0.1)">
       <use xlink:href="#DejaVuSans-49"/>
       <use x="63.623047" xlink:href="#DejaVuSans-53"/>
      </g>
     </g>
    </g>
    <g id="xtick_11">
     <g id="line2d_19">
      <g>
       <use style="stroke:#000000;stroke-width:0.8;" x="616.862059" xlink:href="#md59e58ca3e" y="374.059301"/>
      </g>
     </g>
     <g id="text_18">
      <!-- 20 -->
      <g transform="translate(610.499559 388.657739)scale(0.1 -0.1)">
       <use xlink:href="#DejaVuSans-50"/>
       <use x="63.623047" xlink:href="#DejaVuSans-48"/>
      </g>
     </g>
    </g>
    <g id="xtick_12">
     <g id="line2d_20">
      <g>
       <use style="stroke:#000000;stroke-width:0.8;" x="750.354882" xlink:href="#md59e58ca3e" y="374.059301"/>
      </g>
     </g>
     <g id="text_19">
      <!-- 25 -->
      <g transform="translate(743.992382 388.657739)scale(0.1 -0.1)">
       <use xlink:href="#DejaVuSans-50"/>
       <use x="63.623047" xlink:href="#DejaVuSans-53"/>
      </g>
     </g>
    </g>
   </g>
   <g id="matplotlib.axis_4">
    <g id="ytick_7">
     <g id="line2d_21">
      <g>
       <use style="stroke:#000000;stroke-width:0.8;" x="44.845313" xlink:href="#mdef7a2090f" y="370.506117"/>
      </g>
     </g>
     <g id="text_20">
      <!-- −0.50 -->
      <g transform="translate(7.2 374.305336)scale(0.1 -0.1)">
       <defs>
        <path d="M 10.59375 35.5 
L 73.1875 35.5 
L 73.1875 27.203125 
L 10.59375 27.203125 
z
" id="DejaVuSans-8722"/>
       </defs>
       <use xlink:href="#DejaVuSans-8722"/>
       <use x="83.789062" xlink:href="#DejaVuSans-48"/>
       <use x="147.412109" xlink:href="#DejaVuSans-46"/>
       <use x="179.199219" xlink:href="#DejaVuSans-53"/>
       <use x="242.822266" xlink:href="#DejaVuSans-48"/>
      </g>
     </g>
    </g>
    <g id="ytick_8">
     <g id="line2d_22">
      <g>
       <use style="stroke:#000000;stroke-width:0.8;" x="44.845313" xlink:href="#mdef7a2090f" y="345.662486"/>
      </g>
     </g>
     <g id="text_21">
      <!-- −0.25 -->
      <g transform="translate(7.2 349.461705)scale(0.1 -0.1)">
       <use xlink:href="#DejaVuSans-8722"/>
       <use x="83.789062" xlink:href="#DejaVuSans-48"/>
       <use x="147.412109" xlink:href="#DejaVuSans-46"/>
       <use x="179.199219" xlink:href="#DejaVuSans-50"/>
       <use x="242.822266" xlink:href="#DejaVuSans-53"/>
      </g>
     </g>
    </g>
    <g id="ytick_9">
     <g id="line2d_23">
      <g>
       <use style="stroke:#000000;stroke-width:0.8;" x="44.845313" xlink:href="#mdef7a2090f" y="320.818854"/>
      </g>
     </g>
     <g id="text_22">
      <!-- 0.00 -->
      <g transform="translate(15.579688 324.618073)scale(0.1 -0.1)">
       <use xlink:href="#DejaVuSans-48"/>
       <use x="63.623047" xlink:href="#DejaVuSans-46"/>
       <use x="95.410156" xlink:href="#DejaVuSans-48"/>
       <use x="159.033203" xlink:href="#DejaVuSans-48"/>
      </g>
     </g>
    </g>
    <g id="ytick_10">
     <g id="line2d_24">
      <g>
       <use style="stroke:#000000;stroke-width:0.8;" x="44.845313" xlink:href="#mdef7a2090f" y="295.975223"/>
      </g>
     </g>
     <g id="text_23">
      <!-- 0.25 -->
      <g transform="translate(15.579688 299.774442)scale(0.1 -0.1)">
       <use xlink:href="#DejaVuSans-48"/>
       <use x="63.623047" xlink:href="#DejaVuSans-46"/>
       <use x="95.410156" xlink:href="#DejaVuSans-50"/>
       <use x="159.033203" xlink:href="#DejaVuSans-53"/>
      </g>
     </g>
    </g>
    <g id="ytick_11">
     <g id="line2d_25">
      <g>
       <use style="stroke:#000000;stroke-width:0.8;" x="44.845313" xlink:href="#mdef7a2090f" y="271.131591"/>
      </g>
     </g>
     <g id="text_24">
      <!-- 0.50 -->
      <g transform="translate(15.579688 274.93081)scale(0.1 -0.1)">
       <use xlink:href="#DejaVuSans-48"/>
       <use x="63.623047" xlink:href="#DejaVuSans-46"/>
       <use x="95.410156" xlink:href="#DejaVuSans-53"/>
       <use x="159.033203" xlink:href="#DejaVuSans-48"/>
      </g>
     </g>
    </g>
    <g id="ytick_12">
     <g id="line2d_26">
      <g>
       <use style="stroke:#000000;stroke-width:0.8;" x="44.845313" xlink:href="#mdef7a2090f" y="246.28796"/>
      </g>
     </g>
     <g id="text_25">
      <!-- 0.75 -->
      <g transform="translate(15.579688 250.087178)scale(0.1 -0.1)">
       <defs>
        <path d="M 8.203125 72.90625 
L 55.078125 72.90625 
L 55.078125 68.703125 
L 28.609375 0 
L 18.3125 0 
L 43.21875 64.59375 
L 8.203125 64.59375 
z
" id="DejaVuSans-55"/>
       </defs>
       <use xlink:href="#DejaVuSans-48"/>
       <use x="63.623047" xlink:href="#DejaVuSans-46"/>
       <use x="95.410156" xlink:href="#DejaVuSans-55"/>
       <use x="159.033203" xlink:href="#DejaVuSans-53"/>
      </g>
     </g>
    </g>
    <g id="ytick_13">
     <g id="line2d_27">
      <g>
       <use style="stroke:#000000;stroke-width:0.8;" x="44.845313" xlink:href="#mdef7a2090f" y="221.444328"/>
      </g>
     </g>
     <g id="text_26">
      <!-- 1.00 -->
      <g transform="translate(15.579688 225.243547)scale(0.1 -0.1)">
       <use xlink:href="#DejaVuSans-49"/>
       <use x="63.623047" xlink:href="#DejaVuSans-46"/>
       <use x="95.410156" xlink:href="#DejaVuSans-48"/>
       <use x="159.033203" xlink:href="#DejaVuSans-48"/>
      </g>
     </g>
    </g>
   </g>
   <g id="LineCollection_2">
    <path clip-path="url(#pe5e8215d4c)" d="M 82.890767 320.818854 
L 82.890767 221.444328 
" style="fill:none;stroke:#1f77b4;stroke-width:1.5;"/>
    <path clip-path="url(#pe5e8215d4c)" d="M 109.589332 320.818854 
L 109.589332 366.791922 
" style="fill:none;stroke:#1f77b4;stroke-width:1.5;"/>
    <path clip-path="url(#pe5e8215d4c)" d="M 136.287896 320.818854 
L 136.287896 319.050678 
" style="fill:none;stroke:#1f77b4;stroke-width:1.5;"/>
    <path clip-path="url(#pe5e8215d4c)" d="M 162.986461 320.818854 
L 162.986461 328.018999 
" style="fill:none;stroke:#1f77b4;stroke-width:1.5;"/>
    <path clip-path="url(#pe5e8215d4c)" d="M 189.685025 320.818854 
L 189.685025 317.055859 
" style="fill:none;stroke:#1f77b4;stroke-width:1.5;"/>
    <path clip-path="url(#pe5e8215d4c)" d="M 216.38359 320.818854 
L 216.38359 329.032305 
" style="fill:none;stroke:#1f77b4;stroke-width:1.5;"/>
    <path clip-path="url(#pe5e8215d4c)" d="M 243.082155 320.818854 
L 243.082155 314.892918 
" style="fill:none;stroke:#1f77b4;stroke-width:1.5;"/>
    <path clip-path="url(#pe5e8215d4c)" d="M 269.780719 320.818854 
L 269.780719 319.351129 
" style="fill:none;stroke:#1f77b4;stroke-width:1.5;"/>
    <path clip-path="url(#pe5e8215d4c)" d="M 296.479284 320.818854 
L 296.479284 314.326051 
" style="fill:none;stroke:#1f77b4;stroke-width:1.5;"/>
    <path clip-path="url(#pe5e8215d4c)" d="M 323.177848 320.818854 
L 323.177848 331.15585 
" style="fill:none;stroke:#1f77b4;stroke-width:1.5;"/>
    <path clip-path="url(#pe5e8215d4c)" d="M 349.876413 320.818854 
L 349.876413 316.295688 
" style="fill:none;stroke:#1f77b4;stroke-width:1.5;"/>
    <path clip-path="url(#pe5e8215d4c)" d="M 376.574978 320.818854 
L 376.574978 321.753688 
" style="fill:none;stroke:#1f77b4;stroke-width:1.5;"/>
    <path clip-path="url(#pe5e8215d4c)" d="M 403.273542 320.818854 
L 403.273542 326.096667 
" style="fill:none;stroke:#1f77b4;stroke-width:1.5;"/>
    <path clip-path="url(#pe5e8215d4c)" d="M 429.972107 320.818854 
L 429.972107 320.539715 
" style="fill:none;stroke:#1f77b4;stroke-width:1.5;"/>
    <path clip-path="url(#pe5e8215d4c)" d="M 456.670671 320.818854 
L 456.670671 312.202529 
" style="fill:none;stroke:#1f77b4;stroke-width:1.5;"/>
    <path clip-path="url(#pe5e8215d4c)" d="M 483.369236 320.818854 
L 483.369236 321.434347 
" style="fill:none;stroke:#1f77b4;stroke-width:1.5;"/>
    <path clip-path="url(#pe5e8215d4c)" d="M 510.067801 320.818854 
L 510.067801 321.66756 
" style="fill:none;stroke:#1f77b4;stroke-width:1.5;"/>
    <path clip-path="url(#pe5e8215d4c)" d="M 536.766365 320.818854 
L 536.766365 326.503936 
" style="fill:none;stroke:#1f77b4;stroke-width:1.5;"/>
    <path clip-path="url(#pe5e8215d4c)" d="M 563.46493 320.818854 
L 563.46493 319.443765 
" style="fill:none;stroke:#1f77b4;stroke-width:1.5;"/>
    <path clip-path="url(#pe5e8215d4c)" d="M 590.163494 320.818854 
L 590.163494 321.046741 
" style="fill:none;stroke:#1f77b4;stroke-width:1.5;"/>
    <path clip-path="url(#pe5e8215d4c)" d="M 616.862059 320.818854 
L 616.862059 322.039464 
" style="fill:none;stroke:#1f77b4;stroke-width:1.5;"/>
    <path clip-path="url(#pe5e8215d4c)" d="M 643.560624 320.818854 
L 643.560624 315.217071 
" style="fill:none;stroke:#1f77b4;stroke-width:1.5;"/>
    <path clip-path="url(#pe5e8215d4c)" d="M 670.259188 320.818854 
L 670.259188 321.264671 
" style="fill:none;stroke:#1f77b4;stroke-width:1.5;"/>
    <path clip-path="url(#pe5e8215d4c)" d="M 696.957753 320.818854 
L 696.957753 321.647832 
" style="fill:none;stroke:#1f77b4;stroke-width:1.5;"/>
    <path clip-path="url(#pe5e8215d4c)" d="M 723.656317 320.818854 
L 723.656317 324.91544 
" style="fill:none;stroke:#1f77b4;stroke-width:1.5;"/>
    <path clip-path="url(#pe5e8215d4c)" d="M 750.354882 320.818854 
L 750.354882 317.421338 
" style="fill:none;stroke:#1f77b4;stroke-width:1.5;"/>
    <path clip-path="url(#pe5e8215d4c)" d="M 777.053446 320.818854 
L 777.053446 325.988396 
" style="fill:none;stroke:#1f77b4;stroke-width:1.5;"/>
    <path clip-path="url(#pe5e8215d4c)" d="M 803.752011 320.818854 
L 803.752011 320.500786 
" style="fill:none;stroke:#1f77b4;stroke-width:1.5;"/>
    <path clip-path="url(#pe5e8215d4c)" d="M 830.450576 320.818854 
L 830.450576 321.014615 
" style="fill:none;stroke:#1f77b4;stroke-width:1.5;"/>
   </g>
   <g id="line2d_28">
    <path clip-path="url(#pe5e8215d4c)" d="M 44.845313 320.818854 
L 881.845312 320.818854 
" style="fill:none;stroke:#1f77b4;stroke-linecap:square;stroke-width:1.5;"/>
   </g>
   <g id="line2d_29">
    <g clip-path="url(#pe5e8215d4c)">
     <use style="fill:#1f77b4;stroke:#1f77b4;" x="82.890767" xlink:href="#m1684f60593" y="221.444328"/>
     <use style="fill:#1f77b4;stroke:#1f77b4;" x="109.589332" xlink:href="#m1684f60593" y="366.791922"/>
     <use style="fill:#1f77b4;stroke:#1f77b4;" x="136.287896" xlink:href="#m1684f60593" y="319.050678"/>
     <use style="fill:#1f77b4;stroke:#1f77b4;" x="162.986461" xlink:href="#m1684f60593" y="328.018999"/>
     <use style="fill:#1f77b4;stroke:#1f77b4;" x="189.685025" xlink:href="#m1684f60593" y="317.055859"/>
     <use style="fill:#1f77b4;stroke:#1f77b4;" x="216.38359" xlink:href="#m1684f60593" y="329.032305"/>
     <use style="fill:#1f77b4;stroke:#1f77b4;" x="243.082155" xlink:href="#m1684f60593" y="314.892918"/>
     <use style="fill:#1f77b4;stroke:#1f77b4;" x="269.780719" xlink:href="#m1684f60593" y="319.351129"/>
     <use style="fill:#1f77b4;stroke:#1f77b4;" x="296.479284" xlink:href="#m1684f60593" y="314.326051"/>
     <use style="fill:#1f77b4;stroke:#1f77b4;" x="323.177848" xlink:href="#m1684f60593" y="331.15585"/>
     <use style="fill:#1f77b4;stroke:#1f77b4;" x="349.876413" xlink:href="#m1684f60593" y="316.295688"/>
     <use style="fill:#1f77b4;stroke:#1f77b4;" x="376.574978" xlink:href="#m1684f60593" y="321.753688"/>
     <use style="fill:#1f77b4;stroke:#1f77b4;" x="403.273542" xlink:href="#m1684f60593" y="326.096667"/>
     <use style="fill:#1f77b4;stroke:#1f77b4;" x="429.972107" xlink:href="#m1684f60593" y="320.539715"/>
     <use style="fill:#1f77b4;stroke:#1f77b4;" x="456.670671" xlink:href="#m1684f60593" y="312.202529"/>
     <use style="fill:#1f77b4;stroke:#1f77b4;" x="483.369236" xlink:href="#m1684f60593" y="321.434347"/>
     <use style="fill:#1f77b4;stroke:#1f77b4;" x="510.067801" xlink:href="#m1684f60593" y="321.66756"/>
     <use style="fill:#1f77b4;stroke:#1f77b4;" x="536.766365" xlink:href="#m1684f60593" y="326.503936"/>
     <use style="fill:#1f77b4;stroke:#1f77b4;" x="563.46493" xlink:href="#m1684f60593" y="319.443765"/>
     <use style="fill:#1f77b4;stroke:#1f77b4;" x="590.163494" xlink:href="#m1684f60593" y="321.046741"/>
     <use style="fill:#1f77b4;stroke:#1f77b4;" x="616.862059" xlink:href="#m1684f60593" y="322.039464"/>
     <use style="fill:#1f77b4;stroke:#1f77b4;" x="643.560624" xlink:href="#m1684f60593" y="315.217071"/>
     <use style="fill:#1f77b4;stroke:#1f77b4;" x="670.259188" xlink:href="#m1684f60593" y="321.264671"/>
     <use style="fill:#1f77b4;stroke:#1f77b4;" x="696.957753" xlink:href="#m1684f60593" y="321.647832"/>
     <use style="fill:#1f77b4;stroke:#1f77b4;" x="723.656317" xlink:href="#m1684f60593" y="324.91544"/>
     <use style="fill:#1f77b4;stroke:#1f77b4;" x="750.354882" xlink:href="#m1684f60593" y="317.421338"/>
     <use style="fill:#1f77b4;stroke:#1f77b4;" x="777.053446" xlink:href="#m1684f60593" y="325.988396"/>
     <use style="fill:#1f77b4;stroke:#1f77b4;" x="803.752011" xlink:href="#m1684f60593" y="320.500786"/>
     <use style="fill:#1f77b4;stroke:#1f77b4;" x="830.450576" xlink:href="#m1684f60593" y="321.014615"/>
    </g>
   </g>
   <g id="patch_8">
    <path d="M 44.845313 374.059301 
L 44.845313 214.176949 
" style="fill:none;stroke:#000000;stroke-linecap:square;stroke-linejoin:miter;stroke-width:0.8;"/>
   </g>
   <g id="patch_9">
    <path d="M 881.845312 374.059301 
L 881.845312 214.176949 
" style="fill:none;stroke:#000000;stroke-linecap:square;stroke-linejoin:miter;stroke-width:0.8;"/>
   </g>
   <g id="patch_10">
    <path d="M 44.845313 374.059301 
L 881.845312 374.059301 
" style="fill:none;stroke:#000000;stroke-linecap:square;stroke-linejoin:miter;stroke-width:0.8;"/>
   </g>
   <g id="patch_11">
    <path d="M 44.845313 214.176949 
L 881.845312 214.176949 
" style="fill:none;stroke:#000000;stroke-linecap:square;stroke-linejoin:miter;stroke-width:0.8;"/>
   </g>
   <g id="text_27">
    <!-- 1st Order Differencing -->
    <g transform="translate(396.5775 208.176949)scale(0.12 -0.12)">
     <defs>
      <path d="M 45.40625 46.390625 
L 45.40625 75.984375 
L 54.390625 75.984375 
L 54.390625 0 
L 45.40625 0 
L 45.40625 8.203125 
Q 42.578125 3.328125 38.25 0.953125 
Q 33.9375 -1.421875 27.875 -1.421875 
Q 17.96875 -1.421875 11.734375 6.484375 
Q 5.515625 14.40625 5.515625 27.296875 
Q 5.515625 40.1875 11.734375 48.09375 
Q 17.96875 56 27.875 56 
Q 33.9375 56 38.25 53.625 
Q 42.578125 51.265625 45.40625 46.390625 
z
M 14.796875 27.296875 
Q 14.796875 17.390625 18.875 11.75 
Q 22.953125 6.109375 30.078125 6.109375 
Q 37.203125 6.109375 41.296875 11.75 
Q 45.40625 17.390625 45.40625 27.296875 
Q 45.40625 37.203125 41.296875 42.84375 
Q 37.203125 48.484375 30.078125 48.484375 
Q 22.953125 48.484375 18.875 42.84375 
Q 14.796875 37.203125 14.796875 27.296875 
z
" id="DejaVuSans-100"/>
      <path d="M 19.671875 64.796875 
L 19.671875 8.109375 
L 31.59375 8.109375 
Q 46.6875 8.109375 53.6875 14.9375 
Q 60.6875 21.78125 60.6875 36.53125 
Q 60.6875 51.171875 53.6875 57.984375 
Q 46.6875 64.796875 31.59375 64.796875 
z
M 9.8125 72.90625 
L 30.078125 72.90625 
Q 51.265625 72.90625 61.171875 64.09375 
Q 71.09375 55.28125 71.09375 36.53125 
Q 71.09375 17.671875 61.125 8.828125 
Q 51.171875 0 30.078125 0 
L 9.8125 0 
z
" id="DejaVuSans-68"/>
      <path d="M 37.109375 75.984375 
L 37.109375 68.5 
L 28.515625 68.5 
Q 23.6875 68.5 21.796875 66.546875 
Q 19.921875 64.59375 19.921875 59.515625 
L 19.921875 54.6875 
L 34.71875 54.6875 
L 34.71875 47.703125 
L 19.921875 47.703125 
L 19.921875 0 
L 10.890625 0 
L 10.890625 47.703125 
L 2.296875 47.703125 
L 2.296875 54.6875 
L 10.890625 54.6875 
L 10.890625 58.5 
Q 10.890625 67.625 15.140625 71.796875 
Q 19.390625 75.984375 28.609375 75.984375 
z
" id="DejaVuSans-102"/>
     </defs>
     <use xlink:href="#DejaVuSans-49"/>
     <use x="63.623047" xlink:href="#DejaVuSans-115"/>
     <use x="115.722656" xlink:href="#DejaVuSans-116"/>
     <use x="154.931641" xlink:href="#DejaVuSans-32"/>
     <use x="186.71875" xlink:href="#DejaVuSans-79"/>
     <use x="265.429688" xlink:href="#DejaVuSans-114"/>
     <use x="304.792969" xlink:href="#DejaVuSans-100"/>
     <use x="368.269531" xlink:href="#DejaVuSans-101"/>
     <use x="429.792969" xlink:href="#DejaVuSans-114"/>
     <use x="470.90625" xlink:href="#DejaVuSans-32"/>
     <use x="502.693359" xlink:href="#DejaVuSans-68"/>
     <use x="579.695312" xlink:href="#DejaVuSans-105"/>
     <use x="607.478516" xlink:href="#DejaVuSans-102"/>
     <use x="642.683594" xlink:href="#DejaVuSans-102"/>
     <use x="677.888672" xlink:href="#DejaVuSans-101"/>
     <use x="739.412109" xlink:href="#DejaVuSans-114"/>
     <use x="778.275391" xlink:href="#DejaVuSans-101"/>
     <use x="839.798828" xlink:href="#DejaVuSans-110"/>
     <use x="903.177734" xlink:href="#DejaVuSans-99"/>
     <use x="958.158203" xlink:href="#DejaVuSans-105"/>
     <use x="985.941406" xlink:href="#DejaVuSans-110"/>
     <use x="1049.320312" xlink:href="#DejaVuSans-103"/>
    </g>
   </g>
  </g>
  <g id="axes_3">
   <g id="patch_12">
    <path d="M 44.845313 565.918125 
L 881.845312 565.918125 
L 881.845312 406.035772 
L 44.845313 406.035772 
z
" style="fill:#ffffff;"/>
   </g>
   <g id="PolyCollection_3">
    <path clip-path="url(#pca4f672799)" d="M 96.240049 493.68127 
L 96.240049 507.60005 
L 136.287896 510.188829 
L 162.986461 510.379952 
L 189.685025 510.403315 
L 216.38359 510.434166 
L 243.082155 510.474006 
L 269.780719 510.494139 
L 296.479284 510.49937 
L 323.177848 510.527181 
L 349.876413 510.585388 
L 376.574978 510.609173 
L 403.273542 510.609242 
L 429.972107 510.614879 
L 456.670671 510.615328 
L 483.369236 510.633055 
L 510.067801 510.637687 
L 536.766365 510.638902 
L 563.46493 510.647014 
L 590.163494 510.651307 
L 616.862059 510.651329 
L 643.560624 510.654826 
L 670.259188 510.6643 
L 696.957753 510.666074 
L 723.656317 510.666497 
L 750.354882 510.673016 
L 777.053446 510.687717 
L 803.752011 510.698975 
L 843.799858 510.70103 
L 843.799858 490.580289 
L 843.799858 490.580289 
L 803.752011 490.582345 
L 777.053446 490.593603 
L 750.354882 490.608304 
L 723.656317 490.614823 
L 696.957753 490.615246 
L 670.259188 490.61702 
L 643.560624 490.626493 
L 616.862059 490.629991 
L 590.163494 490.630013 
L 563.46493 490.634306 
L 536.766365 490.642418 
L 510.067801 490.643633 
L 483.369236 490.648265 
L 456.670671 490.665992 
L 429.972107 490.666441 
L 403.273542 490.672077 
L 376.574978 490.672147 
L 349.876413 490.695932 
L 323.177848 490.754139 
L 296.479284 490.78195 
L 269.780719 490.787181 
L 243.082155 490.807314 
L 216.38359 490.847154 
L 189.685025 490.878005 
L 162.986461 490.901368 
L 136.287896 491.092491 
L 96.240049 493.68127 
z
" style="fill:#1f77b4;fill-opacity:0.25;"/>
   </g>
   <g id="matplotlib.axis_5">
    <g id="xtick_13">
     <g id="line2d_30">
      <g>
       <use style="stroke:#000000;stroke-width:0.8;" x="82.890767" xlink:href="#md59e58ca3e" y="565.918125"/>
      </g>
     </g>
     <g id="text_28">
      <!-- 0 -->
      <g transform="translate(79.709517 580.516562)scale(0.1 -0.1)">
       <use xlink:href="#DejaVuSans-48"/>
      </g>
     </g>
    </g>
    <g id="xtick_14">
     <g id="line2d_31">
      <g>
       <use style="stroke:#000000;stroke-width:0.8;" x="216.38359" xlink:href="#md59e58ca3e" y="565.918125"/>
      </g>
     </g>
     <g id="text_29">
      <!-- 5 -->
      <g transform="translate(213.20234 580.516562)scale(0.1 -0.1)">
       <use xlink:href="#DejaVuSans-53"/>
      </g>
     </g>
    </g>
    <g id="xtick_15">
     <g id="line2d_32">
      <g>
       <use style="stroke:#000000;stroke-width:0.8;" x="349.876413" xlink:href="#md59e58ca3e" y="565.918125"/>
      </g>
     </g>
     <g id="text_30">
      <!-- 10 -->
      <g transform="translate(343.513913 580.516562)scale(0.1 -0.1)">
       <use xlink:href="#DejaVuSans-49"/>
       <use x="63.623047" xlink:href="#DejaVuSans-48"/>
      </g>
     </g>
    </g>
    <g id="xtick_16">
     <g id="line2d_33">
      <g>
       <use style="stroke:#000000;stroke-width:0.8;" x="483.369236" xlink:href="#md59e58ca3e" y="565.918125"/>
      </g>
     </g>
     <g id="text_31">
      <!-- 15 -->
      <g transform="translate(477.006736 580.516562)scale(0.1 -0.1)">
       <use xlink:href="#DejaVuSans-49"/>
       <use x="63.623047" xlink:href="#DejaVuSans-53"/>
      </g>
     </g>
    </g>
    <g id="xtick_17">
     <g id="line2d_34">
      <g>
       <use style="stroke:#000000;stroke-width:0.8;" x="616.862059" xlink:href="#md59e58ca3e" y="565.918125"/>
      </g>
     </g>
     <g id="text_32">
      <!-- 20 -->
      <g transform="translate(610.499559 580.516562)scale(0.1 -0.1)">
       <use xlink:href="#DejaVuSans-50"/>
       <use x="63.623047" xlink:href="#DejaVuSans-48"/>
      </g>
     </g>
    </g>
    <g id="xtick_18">
     <g id="line2d_35">
      <g>
       <use style="stroke:#000000;stroke-width:0.8;" x="750.354882" xlink:href="#md59e58ca3e" y="565.918125"/>
      </g>
     </g>
     <g id="text_33">
      <!-- 25 -->
      <g transform="translate(743.992382 580.516562)scale(0.1 -0.1)">
       <use xlink:href="#DejaVuSans-50"/>
       <use x="63.623047" xlink:href="#DejaVuSans-53"/>
      </g>
     </g>
    </g>
   </g>
   <g id="matplotlib.axis_6">
    <g id="ytick_14">
     <g id="line2d_36">
      <g>
       <use style="stroke:#000000;stroke-width:0.8;" x="44.845313" xlink:href="#mdef7a2090f" y="544.309414"/>
      </g>
     </g>
     <g id="text_34">
      <!-- −0.5 -->
      <g transform="translate(13.5625 548.108633)scale(0.1 -0.1)">
       <use xlink:href="#DejaVuSans-8722"/>
       <use x="83.789062" xlink:href="#DejaVuSans-48"/>
       <use x="147.412109" xlink:href="#DejaVuSans-46"/>
       <use x="179.199219" xlink:href="#DejaVuSans-53"/>
      </g>
     </g>
    </g>
    <g id="ytick_15">
     <g id="line2d_37">
      <g>
       <use style="stroke:#000000;stroke-width:0.8;" x="44.845313" xlink:href="#mdef7a2090f" y="500.64066"/>
      </g>
     </g>
     <g id="text_35">
      <!-- 0.0 -->
      <g transform="translate(21.942188 504.439879)scale(0.1 -0.1)">
       <use xlink:href="#DejaVuSans-48"/>
       <use x="63.623047" xlink:href="#DejaVuSans-46"/>
       <use x="95.410156" xlink:href="#DejaVuSans-48"/>
      </g>
     </g>
    </g>
    <g id="ytick_16">
     <g id="line2d_38">
      <g>
       <use style="stroke:#000000;stroke-width:0.8;" x="44.845313" xlink:href="#mdef7a2090f" y="456.971906"/>
      </g>
     </g>
     <g id="text_36">
      <!-- 0.5 -->
      <g transform="translate(21.942188 460.771125)scale(0.1 -0.1)">
       <use xlink:href="#DejaVuSans-48"/>
       <use x="63.623047" xlink:href="#DejaVuSans-46"/>
       <use x="95.410156" xlink:href="#DejaVuSans-53"/>
      </g>
     </g>
    </g>
    <g id="ytick_17">
     <g id="line2d_39">
      <g>
       <use style="stroke:#000000;stroke-width:0.8;" x="44.845313" xlink:href="#mdef7a2090f" y="413.303152"/>
      </g>
     </g>
     <g id="text_37">
      <!-- 1.0 -->
      <g transform="translate(21.942188 417.10237)scale(0.1 -0.1)">
       <use xlink:href="#DejaVuSans-49"/>
       <use x="63.623047" xlink:href="#DejaVuSans-46"/>
       <use x="95.410156" xlink:href="#DejaVuSans-48"/>
      </g>
     </g>
    </g>
   </g>
   <g id="LineCollection_3">
    <path clip-path="url(#pca4f672799)" d="M 82.890767 500.64066 
L 82.890767 413.303152 
" style="fill:none;stroke:#1f77b4;stroke-width:1.5;"/>
    <path clip-path="url(#pca4f672799)" d="M 109.589332 500.64066 
L 109.589332 558.650745 
" style="fill:none;stroke:#1f77b4;stroke-width:1.5;"/>
    <path clip-path="url(#pca4f672799)" d="M 136.287896 500.64066 
L 136.287896 483.60306 
" style="fill:none;stroke:#1f77b4;stroke-width:1.5;"/>
    <path clip-path="url(#pca4f672799)" d="M 162.986461 500.64066 
L 162.986461 506.630542 
" style="fill:none;stroke:#1f77b4;stroke-width:1.5;"/>
    <path clip-path="url(#pca4f672799)" d="M 189.685025 500.64066 
L 189.685025 493.747985 
" style="fill:none;stroke:#1f77b4;stroke-width:1.5;"/>
    <path clip-path="url(#pca4f672799)" d="M 216.38359 500.64066 
L 216.38359 508.487634 
" style="fill:none;stroke:#1f77b4;stroke-width:1.5;"/>
    <path clip-path="url(#pca4f672799)" d="M 243.082155 500.64066 
L 243.082155 495.053952 
" style="fill:none;stroke:#1f77b4;stroke-width:1.5;"/>
    <path clip-path="url(#pca4f672799)" d="M 269.780719 500.64066 
L 269.780719 503.490163 
" style="fill:none;stroke:#1f77b4;stroke-width:1.5;"/>
    <path clip-path="url(#pca4f672799)" d="M 296.479284 500.64066 
L 296.479284 494.064714 
" style="fill:none;stroke:#1f77b4;stroke-width:1.5;"/>
    <path clip-path="url(#pca4f672799)" d="M 323.177848 500.64066 
L 323.177848 510.174691 
" style="fill:none;stroke:#1f77b4;stroke-width:1.5;"/>
    <path clip-path="url(#pca4f672799)" d="M 349.876413 500.64066 
L 349.876413 494.53359 
" style="fill:none;stroke:#1f77b4;stroke-width:1.5;"/>
    <path clip-path="url(#pca4f672799)" d="M 376.574978 500.64066 
L 376.574978 500.971532 
" style="fill:none;stroke:#1f77b4;stroke-width:1.5;"/>
    <path clip-path="url(#pca4f672799)" d="M 403.273542 500.64066 
L 403.273542 503.615948 
" style="fill:none;stroke:#1f77b4;stroke-width:1.5;"/>
    <path clip-path="url(#pca4f672799)" d="M 429.972107 500.64066 
L 429.972107 501.479907 
" style="fill:none;stroke:#1f77b4;stroke-width:1.5;"/>
    <path clip-path="url(#pca4f672799)" d="M 456.670671 500.64066 
L 456.670671 495.361172 
" style="fill:none;stroke:#1f77b4;stroke-width:1.5;"/>
    <path clip-path="url(#pca4f672799)" d="M 483.369236 500.64066 
L 483.369236 503.341007 
" style="fill:none;stroke:#1f77b4;stroke-width:1.5;"/>
    <path clip-path="url(#pca4f672799)" d="M 510.067801 500.64066 
L 510.067801 499.257559 
" style="fill:none;stroke:#1f77b4;stroke-width:1.5;"/>
    <path clip-path="url(#pca4f672799)" d="M 536.766365 500.64066 
L 536.766365 504.215279 
" style="fill:none;stroke:#1f77b4;stroke-width:1.5;"/>
    <path clip-path="url(#pca4f672799)" d="M 563.46493 500.64066 
L 563.46493 498.0392 
" style="fill:none;stroke:#1f77b4;stroke-width:1.5;"/>
    <path clip-path="url(#pca4f672799)" d="M 590.163494 500.64066 
L 590.163494 500.824608 
" style="fill:none;stroke:#1f77b4;stroke-width:1.5;"/>
    <path clip-path="url(#pca4f672799)" d="M 616.862059 500.64066 
L 616.862059 502.989159 
" style="fill:none;stroke:#1f77b4;stroke-width:1.5;"/>
    <path clip-path="url(#pca4f672799)" d="M 643.560624 500.64066 
L 643.560624 496.774432 
" style="fill:none;stroke:#1f77b4;stroke-width:1.5;"/>
    <path clip-path="url(#pca4f672799)" d="M 670.259188 500.64066 
L 670.259188 502.314238 
" style="fill:none;stroke:#1f77b4;stroke-width:1.5;"/>
    <path clip-path="url(#pca4f672799)" d="M 696.957753 500.64066 
L 696.957753 499.822989 
" style="fill:none;stroke:#1f77b4;stroke-width:1.5;"/>
    <path clip-path="url(#pca4f672799)" d="M 723.656317 500.64066 
L 723.656317 503.84944 
" style="fill:none;stroke:#1f77b4;stroke-width:1.5;"/>
    <path clip-path="url(#pca4f672799)" d="M 750.354882 500.64066 
L 750.354882 495.819388 
" style="fill:none;stroke:#1f77b4;stroke-width:1.5;"/>
    <path clip-path="url(#pca4f672799)" d="M 777.053446 500.64066 
L 777.053446 504.862572 
" style="fill:none;stroke:#1f77b4;stroke-width:1.5;"/>
    <path clip-path="url(#pca4f672799)" d="M 803.752011 500.64066 
L 803.752011 498.836137 
" style="fill:none;stroke:#1f77b4;stroke-width:1.5;"/>
    <path clip-path="url(#pca4f672799)" d="M 830.450576 500.64066 
L 830.450576 505.121283 
" style="fill:none;stroke:#1f77b4;stroke-width:1.5;"/>
   </g>
   <g id="line2d_40">
    <path clip-path="url(#pca4f672799)" d="M 44.845313 500.64066 
L 881.845312 500.64066 
" style="fill:none;stroke:#1f77b4;stroke-linecap:square;stroke-width:1.5;"/>
   </g>
   <g id="line2d_41">
    <g clip-path="url(#pca4f672799)">
     <use style="fill:#1f77b4;stroke:#1f77b4;" x="82.890767" xlink:href="#m1684f60593" y="413.303152"/>
     <use style="fill:#1f77b4;stroke:#1f77b4;" x="109.589332" xlink:href="#m1684f60593" y="558.650745"/>
     <use style="fill:#1f77b4;stroke:#1f77b4;" x="136.287896" xlink:href="#m1684f60593" y="483.60306"/>
     <use style="fill:#1f77b4;stroke:#1f77b4;" x="162.986461" xlink:href="#m1684f60593" y="506.630542"/>
     <use style="fill:#1f77b4;stroke:#1f77b4;" x="189.685025" xlink:href="#m1684f60593" y="493.747985"/>
     <use style="fill:#1f77b4;stroke:#1f77b4;" x="216.38359" xlink:href="#m1684f60593" y="508.487634"/>
     <use style="fill:#1f77b4;stroke:#1f77b4;" x="243.082155" xlink:href="#m1684f60593" y="495.053952"/>
     <use style="fill:#1f77b4;stroke:#1f77b4;" x="269.780719" xlink:href="#m1684f60593" y="503.490163"/>
     <use style="fill:#1f77b4;stroke:#1f77b4;" x="296.479284" xlink:href="#m1684f60593" y="494.064714"/>
     <use style="fill:#1f77b4;stroke:#1f77b4;" x="323.177848" xlink:href="#m1684f60593" y="510.174691"/>
     <use style="fill:#1f77b4;stroke:#1f77b4;" x="349.876413" xlink:href="#m1684f60593" y="494.53359"/>
     <use style="fill:#1f77b4;stroke:#1f77b4;" x="376.574978" xlink:href="#m1684f60593" y="500.971532"/>
     <use style="fill:#1f77b4;stroke:#1f77b4;" x="403.273542" xlink:href="#m1684f60593" y="503.615948"/>
     <use style="fill:#1f77b4;stroke:#1f77b4;" x="429.972107" xlink:href="#m1684f60593" y="501.479907"/>
     <use style="fill:#1f77b4;stroke:#1f77b4;" x="456.670671" xlink:href="#m1684f60593" y="495.361172"/>
     <use style="fill:#1f77b4;stroke:#1f77b4;" x="483.369236" xlink:href="#m1684f60593" y="503.341007"/>
     <use style="fill:#1f77b4;stroke:#1f77b4;" x="510.067801" xlink:href="#m1684f60593" y="499.257559"/>
     <use style="fill:#1f77b4;stroke:#1f77b4;" x="536.766365" xlink:href="#m1684f60593" y="504.215279"/>
     <use style="fill:#1f77b4;stroke:#1f77b4;" x="563.46493" xlink:href="#m1684f60593" y="498.0392"/>
     <use style="fill:#1f77b4;stroke:#1f77b4;" x="590.163494" xlink:href="#m1684f60593" y="500.824608"/>
     <use style="fill:#1f77b4;stroke:#1f77b4;" x="616.862059" xlink:href="#m1684f60593" y="502.989159"/>
     <use style="fill:#1f77b4;stroke:#1f77b4;" x="643.560624" xlink:href="#m1684f60593" y="496.774432"/>
     <use style="fill:#1f77b4;stroke:#1f77b4;" x="670.259188" xlink:href="#m1684f60593" y="502.314238"/>
     <use style="fill:#1f77b4;stroke:#1f77b4;" x="696.957753" xlink:href="#m1684f60593" y="499.822989"/>
     <use style="fill:#1f77b4;stroke:#1f77b4;" x="723.656317" xlink:href="#m1684f60593" y="503.84944"/>
     <use style="fill:#1f77b4;stroke:#1f77b4;" x="750.354882" xlink:href="#m1684f60593" y="495.819388"/>
     <use style="fill:#1f77b4;stroke:#1f77b4;" x="777.053446" xlink:href="#m1684f60593" y="504.862572"/>
     <use style="fill:#1f77b4;stroke:#1f77b4;" x="803.752011" xlink:href="#m1684f60593" y="498.836137"/>
     <use style="fill:#1f77b4;stroke:#1f77b4;" x="830.450576" xlink:href="#m1684f60593" y="505.121283"/>
    </g>
   </g>
   <g id="patch_13">
    <path d="M 44.845313 565.918125 
L 44.845313 406.035772 
" style="fill:none;stroke:#000000;stroke-linecap:square;stroke-linejoin:miter;stroke-width:0.8;"/>
   </g>
   <g id="patch_14">
    <path d="M 881.845312 565.918125 
L 881.845312 406.035772 
" style="fill:none;stroke:#000000;stroke-linecap:square;stroke-linejoin:miter;stroke-width:0.8;"/>
   </g>
   <g id="patch_15">
    <path d="M 44.845313 565.918125 
L 881.845312 565.918125 
" style="fill:none;stroke:#000000;stroke-linecap:square;stroke-linejoin:miter;stroke-width:0.8;"/>
   </g>
   <g id="patch_16">
    <path d="M 44.845313 406.035772 
L 881.845312 406.035772 
" style="fill:none;stroke:#000000;stroke-linecap:square;stroke-linejoin:miter;stroke-width:0.8;"/>
   </g>
   <g id="text_38">
    <!-- 2nd Order Differencing -->
    <g transform="translate(394.44375 400.035772)scale(0.12 -0.12)">
     <use xlink:href="#DejaVuSans-50"/>
     <use x="63.623047" xlink:href="#DejaVuSans-110"/>
     <use x="127.001953" xlink:href="#DejaVuSans-100"/>
     <use x="190.478516" xlink:href="#DejaVuSans-32"/>
     <use x="222.265625" xlink:href="#DejaVuSans-79"/>
     <use x="300.976562" xlink:href="#DejaVuSans-114"/>
     <use x="340.339844" xlink:href="#DejaVuSans-100"/>
     <use x="403.816406" xlink:href="#DejaVuSans-101"/>
     <use x="465.339844" xlink:href="#DejaVuSans-114"/>
     <use x="506.453125" xlink:href="#DejaVuSans-32"/>
     <use x="538.240234" xlink:href="#DejaVuSans-68"/>
     <use x="615.242188" xlink:href="#DejaVuSans-105"/>
     <use x="643.025391" xlink:href="#DejaVuSans-102"/>
     <use x="678.230469" xlink:href="#DejaVuSans-102"/>
     <use x="713.435547" xlink:href="#DejaVuSans-101"/>
     <use x="774.958984" xlink:href="#DejaVuSans-114"/>
     <use x="813.822266" xlink:href="#DejaVuSans-101"/>
     <use x="875.345703" xlink:href="#DejaVuSans-110"/>
     <use x="938.724609" xlink:href="#DejaVuSans-99"/>
     <use x="993.705078" xlink:href="#DejaVuSans-105"/>
     <use x="1021.488281" xlink:href="#DejaVuSans-110"/>
     <use x="1084.867188" xlink:href="#DejaVuSans-103"/>
    </g>
   </g>
  </g>
 </g>
 <defs>
  <clipPath id="p43072fa2c0">
   <rect height="159.882353" width="837" x="44.845313" y="22.318125"/>
  </clipPath>
  <clipPath id="pe5e8215d4c">
   <rect height="159.882353" width="837" x="44.845313" y="214.176949"/>
  </clipPath>
  <clipPath id="pca4f672799">
   <rect height="159.882353" width="837" x="44.845313" y="406.035772"/>
  </clipPath>
 </defs>
</svg>
